%TF.GenerationSoftware,KiCad,Pcbnew,8.0.1*%
%TF.CreationDate,2024-05-19T15:34:10+09:00*%
%TF.ProjectId,pcb_plate,7063625f-706c-4617-9465-2e6b69636164,v1.0.0*%
%TF.SameCoordinates,Original*%
%TF.FileFunction,Paste,Top*%
%TF.FilePolarity,Positive*%
%FSLAX46Y46*%
G04 Gerber Fmt 4.6, Leading zero omitted, Abs format (unit mm)*
G04 Created by KiCad (PCBNEW 8.0.1) date 2024-05-19 15:34:10*
%MOMM*%
%LPD*%
G01*
G04 APERTURE LIST*
G04 Aperture macros list*
%AMRotRect*
0 Rectangle, with rotation*
0 The origin of the aperture is its center*
0 $1 length*
0 $2 width*
0 $3 Rotation angle, in degrees counterclockwise*
0 Add horizontal line*
21,1,$1,$2,0,0,$3*%
G04 Aperture macros list end*
%ADD10R,1.100000X1.800000*%
%ADD11RotRect,0.900000X1.200000X40.000000*%
%ADD12RotRect,0.900000X1.200000X320.000000*%
%ADD13RotRect,0.900000X1.200000X20.000000*%
%ADD14RotRect,0.900000X1.200000X305.000000*%
%ADD15RotRect,0.900000X1.200000X55.000000*%
%ADD16RotRect,0.900000X1.200000X350.000000*%
%ADD17RotRect,0.900000X1.200000X290.000000*%
%ADD18RotRect,0.900000X1.200000X10.000000*%
%ADD19RotRect,0.900000X1.200000X340.000000*%
%ADD20RotRect,0.900000X1.200000X70.000000*%
G04 APERTURE END LIST*
D10*
%TO.C,B1*%
X164516091Y-136867156D03*
X164516091Y-143067149D03*
X160816091Y-136867155D03*
X160816091Y-143067148D03*
%TD*%
D11*
%TO.C,D32*%
X266256255Y-205831048D03*
X268784199Y-203709846D03*
%TD*%
D12*
%TO.C,D4*%
X53993038Y-165515218D03*
X56520986Y-167636422D03*
%TD*%
D11*
%TO.C,D25*%
X284320980Y-138450129D03*
X286848924Y-136328927D03*
%TD*%
D13*
%TO.C,D37*%
X220925692Y-243691725D03*
X224026676Y-242563061D03*
%TD*%
D12*
%TO.C,D2*%
X43073420Y-148892170D03*
X45601368Y-151013374D03*
%TD*%
D11*
%TO.C,D33*%
X254011157Y-191237905D03*
X256539101Y-189116703D03*
%TD*%
D12*
%TO.C,D15*%
X121038173Y-174523551D03*
X123566121Y-176644755D03*
%TD*%
%TO.C,D13*%
X96547964Y-203709846D03*
X99075912Y-205831050D03*
%TD*%
D11*
%TO.C,D27*%
X277074899Y-159451118D03*
X279602843Y-157329916D03*
%TD*%
%TO.C,D34*%
X241766052Y-176644750D03*
X244293996Y-174523548D03*
%TD*%
D14*
%TO.C,D16*%
X73993021Y-213845730D03*
X75885819Y-216548928D03*
%TD*%
D15*
%TO.C,D35*%
X289446352Y-216548938D03*
X291339150Y-213845734D03*
%TD*%
D12*
%TO.C,D8*%
X85729331Y-157329918D03*
X88257279Y-159451122D03*
%TD*%
%TO.C,D5*%
X66238140Y-150922072D03*
X68766088Y-153043276D03*
%TD*%
D11*
%TO.C,D29*%
X278400384Y-190667313D03*
X280928328Y-188546111D03*
%TD*%
%TO.C,D21*%
X319730803Y-151013373D03*
X322258747Y-148892171D03*
%TD*%
D16*
%TO.C,D19*%
X166548953Y-249725842D03*
X169798819Y-250298878D03*
%TD*%
D12*
%TO.C,D11*%
X96648940Y-173952967D03*
X99176888Y-176074171D03*
%TD*%
D11*
%TO.C,D20*%
X331975910Y-165606521D03*
X334503854Y-163485319D03*
%TD*%
D17*
%TO.C,D17*%
X84187711Y-232536709D03*
X85316375Y-235637693D03*
%TD*%
D11*
%TO.C,D23*%
X308811192Y-167636423D03*
X311339136Y-165515221D03*
%TD*%
%TO.C,D28*%
X264829797Y-144857969D03*
X267357741Y-142736767D03*
%TD*%
D12*
%TO.C,D7*%
X73484220Y-171923065D03*
X76012168Y-174044269D03*
%TD*%
%TO.C,D9*%
X97974434Y-142736770D03*
X100502382Y-144857974D03*
%TD*%
D11*
%TO.C,D26*%
X289319999Y-174044268D03*
X291847943Y-171923066D03*
%TD*%
D18*
%TO.C,D38*%
X195533347Y-250298878D03*
X198783211Y-249725842D03*
%TD*%
D12*
%TO.C,D3*%
X55318519Y-134299023D03*
X57846467Y-136420227D03*
%TD*%
D11*
%TO.C,D22*%
X307485696Y-136420229D03*
X310013640Y-134299027D03*
%TD*%
D12*
%TO.C,D10*%
X84403843Y-188546116D03*
X86931791Y-190667320D03*
%TD*%
D11*
%TO.C,D30*%
X266155282Y-176074168D03*
X268683226Y-173952966D03*
%TD*%
%TO.C,D24*%
X296566089Y-153043275D03*
X299094033Y-150922073D03*
%TD*%
D12*
%TO.C,D1*%
X30828319Y-163485316D03*
X33356267Y-165606520D03*
%TD*%
D19*
%TO.C,D18*%
X141305491Y-242563058D03*
X144406477Y-243691722D03*
%TD*%
D12*
%TO.C,D14*%
X108793068Y-189116701D03*
X111321016Y-191237905D03*
%TD*%
D20*
%TO.C,D36*%
X280015794Y-235637700D03*
X281144458Y-232536714D03*
%TD*%
D12*
%TO.C,D6*%
X78483248Y-136328921D03*
X81011196Y-138450125D03*
%TD*%
D11*
%TO.C,D31*%
X253910173Y-161481022D03*
X256438117Y-159359820D03*
%TD*%
D12*
%TO.C,D12*%
X108894043Y-159359819D03*
X111421991Y-161481023D03*
%TD*%
M02*
