%TF.GenerationSoftware,KiCad,Pcbnew,8.0.1*%
%TF.CreationDate,2024-05-19T15:34:11+09:00*%
%TF.ProjectId,pcb_plate,7063625f-706c-4617-9465-2e6b69636164,v1.0.0*%
%TF.SameCoordinates,Original*%
%TF.FileFunction,Legend,Bot*%
%TF.FilePolarity,Positive*%
%FSLAX46Y46*%
G04 Gerber Fmt 4.6, Leading zero omitted, Abs format (unit mm)*
G04 Created by KiCad (PCBNEW 8.0.1) date 2024-05-19 15:34:11*
%MOMM*%
%LPD*%
G01*
G04 APERTURE LIST*
%ADD10C,0.100000*%
%ADD11R,1.752600X1.752600*%
%ADD12C,1.752600*%
G04 APERTURE END LIST*
D10*
%TO.C,D32*%
X266945694Y-205252538D02*
X267252111Y-204995423D01*
X267252111Y-204995423D02*
X266898579Y-204574098D01*
X267252111Y-204995423D02*
X267454625Y-204303331D01*
X267252111Y-204995423D02*
X267605645Y-205416746D01*
X267454625Y-204303331D02*
X267968853Y-204916168D01*
X267711740Y-204609749D02*
X268094760Y-204288356D01*
X267968853Y-204916168D02*
X267252111Y-204995423D01*
%TO.C,D4*%
X54682479Y-166093729D02*
X54988896Y-166350844D01*
X54988896Y-166350844D02*
X54635364Y-166772169D01*
X54988896Y-166350844D02*
X55342430Y-165929521D01*
X54988896Y-166350844D02*
X55705638Y-166430099D01*
X55191410Y-167042936D02*
X54988896Y-166350844D01*
X55448527Y-166736516D02*
X55831545Y-167057911D01*
X55705638Y-166430099D02*
X55191410Y-167042936D01*
%TO.C,D25*%
X285010419Y-137871619D02*
X285316836Y-137614504D01*
X285316836Y-137614504D02*
X284963304Y-137193179D01*
X285316836Y-137614504D02*
X285519350Y-136922412D01*
X285316836Y-137614504D02*
X285670370Y-138035827D01*
X285519350Y-136922412D02*
X286033578Y-137535249D01*
X285776465Y-137228830D02*
X286159485Y-136907437D01*
X286033578Y-137535249D02*
X285316836Y-137614504D01*
%TO.C,D37*%
X221771415Y-243383908D02*
X222147292Y-243247098D01*
X222147292Y-243247098D02*
X221959182Y-242730271D01*
X222147292Y-243247098D02*
X222335401Y-243763929D01*
X222147292Y-243247098D02*
X222574299Y-242666012D01*
X222574299Y-242666012D02*
X222847915Y-243417765D01*
X222711109Y-243041888D02*
X223180953Y-242870878D01*
X222847915Y-243417765D02*
X222147292Y-243247098D01*
%TO.C,D2*%
X43762861Y-149470681D02*
X44069278Y-149727796D01*
X44069278Y-149727796D02*
X43715746Y-150149121D01*
X44069278Y-149727796D02*
X44422812Y-149306473D01*
X44069278Y-149727796D02*
X44786020Y-149807051D01*
X44271792Y-150419888D02*
X44069278Y-149727796D01*
X44528909Y-150113468D02*
X44911927Y-150434863D01*
X44786020Y-149807051D02*
X44271792Y-150419888D01*
%TO.C,D33*%
X254700596Y-190659395D02*
X255007013Y-190402280D01*
X255007013Y-190402280D02*
X254653481Y-189980955D01*
X255007013Y-190402280D02*
X255209527Y-189710188D01*
X255007013Y-190402280D02*
X255360547Y-190823603D01*
X255209527Y-189710188D02*
X255723755Y-190323025D01*
X255466642Y-190016606D02*
X255849662Y-189695213D01*
X255723755Y-190323025D02*
X255007013Y-190402280D01*
%TO.C,D15*%
X121727614Y-175102062D02*
X122034031Y-175359177D01*
X122034031Y-175359177D02*
X121680499Y-175780502D01*
X122034031Y-175359177D02*
X122387565Y-174937854D01*
X122034031Y-175359177D02*
X122750773Y-175438432D01*
X122236545Y-176051269D02*
X122034031Y-175359177D01*
X122493662Y-175744849D02*
X122876680Y-176066244D01*
X122750773Y-175438432D02*
X122236545Y-176051269D01*
%TO.C,D13*%
X97237405Y-204288357D02*
X97543822Y-204545472D01*
X97543822Y-204545472D02*
X97190290Y-204966797D01*
X97543822Y-204545472D02*
X97897356Y-204124149D01*
X97543822Y-204545472D02*
X98260564Y-204624727D01*
X97746336Y-205237564D02*
X97543822Y-204545472D01*
X98003453Y-204931144D02*
X98386471Y-205252539D01*
X98260564Y-204624727D02*
X97746336Y-205237564D01*
%TO.C,D27*%
X277764338Y-158872608D02*
X278070755Y-158615493D01*
X278070755Y-158615493D02*
X277717223Y-158194168D01*
X278070755Y-158615493D02*
X278273269Y-157923401D01*
X278070755Y-158615493D02*
X278424289Y-159036816D01*
X278273269Y-157923401D02*
X278787497Y-158536238D01*
X278530384Y-158229819D02*
X278913404Y-157908426D01*
X278787497Y-158536238D02*
X278070755Y-158615493D01*
%TO.C,D34*%
X242455491Y-176066240D02*
X242761908Y-175809125D01*
X242761908Y-175809125D02*
X242408376Y-175387800D01*
X242761908Y-175809125D02*
X242964422Y-175117033D01*
X242761908Y-175809125D02*
X243115442Y-176230448D01*
X242964422Y-175117033D02*
X243478650Y-175729870D01*
X243221537Y-175423451D02*
X243604557Y-175102058D01*
X243478650Y-175729870D02*
X242761908Y-175809125D01*
%TO.C,D16*%
X74509238Y-214582965D02*
X74738665Y-214910626D01*
X74738665Y-214910626D02*
X74288136Y-215226093D01*
X74738665Y-214910626D02*
X75189201Y-214595161D01*
X74738665Y-214910626D02*
X75410474Y-215172688D01*
X74755154Y-215631549D02*
X74738665Y-214910626D01*
X75082815Y-215402119D02*
X75369602Y-215811693D01*
X75410474Y-215172688D02*
X74755154Y-215631549D01*
%TO.C,D35*%
X289962569Y-215811700D02*
X290191997Y-215484039D01*
X290191997Y-215484039D02*
X289741467Y-215168572D01*
X290191997Y-215484039D02*
X290208485Y-214763115D01*
X290191997Y-215484039D02*
X290642533Y-215799505D01*
X290208485Y-214763115D02*
X290863807Y-215221978D01*
X290536145Y-214992546D02*
X290822933Y-214582972D01*
X290863807Y-215221978D02*
X290191997Y-215484039D01*
%TO.C,D8*%
X86418772Y-157908429D02*
X86725189Y-158165544D01*
X86725189Y-158165544D02*
X86371657Y-158586869D01*
X86725189Y-158165544D02*
X87078723Y-157744221D01*
X86725189Y-158165544D02*
X87441931Y-158244799D01*
X86927703Y-158857636D02*
X86725189Y-158165544D01*
X87184820Y-158551216D02*
X87567838Y-158872611D01*
X87441931Y-158244799D02*
X86927703Y-158857636D01*
%TO.C,D5*%
X66927581Y-151500583D02*
X67233998Y-151757698D01*
X67233998Y-151757698D02*
X66880466Y-152179023D01*
X67233998Y-151757698D02*
X67587532Y-151336375D01*
X67233998Y-151757698D02*
X67950740Y-151836953D01*
X67436512Y-152449790D02*
X67233998Y-151757698D01*
X67693629Y-152143370D02*
X68076647Y-152464765D01*
X67950740Y-151836953D02*
X67436512Y-152449790D01*
%TO.C,D29*%
X279089823Y-190088803D02*
X279396240Y-189831688D01*
X279396240Y-189831688D02*
X279042708Y-189410363D01*
X279396240Y-189831688D02*
X279598754Y-189139596D01*
X279396240Y-189831688D02*
X279749774Y-190253011D01*
X279598754Y-189139596D02*
X280112982Y-189752433D01*
X279855869Y-189446014D02*
X280238889Y-189124621D01*
X280112982Y-189752433D02*
X279396240Y-189831688D01*
%TO.C,D21*%
X320420242Y-150434863D02*
X320726659Y-150177748D01*
X320726659Y-150177748D02*
X320373127Y-149756423D01*
X320726659Y-150177748D02*
X320929173Y-149485656D01*
X320726659Y-150177748D02*
X321080193Y-150599071D01*
X320929173Y-149485656D02*
X321443401Y-150098493D01*
X321186288Y-149792074D02*
X321569308Y-149470681D01*
X321443401Y-150098493D02*
X320726659Y-150177748D01*
%TO.C,D19*%
X167435280Y-249882124D02*
X167829203Y-249951584D01*
X167829203Y-249951584D02*
X167733696Y-250493226D01*
X167829203Y-249951584D02*
X167924710Y-249409941D01*
X167829203Y-249951584D02*
X168489548Y-249661851D01*
X168350629Y-250449695D02*
X167829203Y-249951584D01*
X168420089Y-250055771D02*
X168912492Y-250142596D01*
X168489548Y-249661851D02*
X168350629Y-250449695D01*
%TO.C,D11*%
X97338381Y-174531478D02*
X97644798Y-174788593D01*
X97644798Y-174788593D02*
X97291266Y-175209918D01*
X97644798Y-174788593D02*
X97998332Y-174367270D01*
X97644798Y-174788593D02*
X98361540Y-174867848D01*
X97847312Y-175480685D02*
X97644798Y-174788593D01*
X98104429Y-175174265D02*
X98487447Y-175495660D01*
X98361540Y-174867848D02*
X97847312Y-175480685D01*
%TO.C,D20*%
X332665349Y-165028011D02*
X332971766Y-164770896D01*
X332971766Y-164770896D02*
X332618234Y-164349571D01*
X332971766Y-164770896D02*
X333174280Y-164078804D01*
X332971766Y-164770896D02*
X333325300Y-165192219D01*
X333174280Y-164078804D02*
X333688508Y-164691641D01*
X333431395Y-164385222D02*
X333814415Y-164063829D01*
X333688508Y-164691641D02*
X332971766Y-164770896D01*
%TO.C,D17*%
X84461671Y-234458932D02*
X84632338Y-233758309D01*
X84495528Y-233382432D02*
X84632338Y-233758309D01*
X84632338Y-233758309D02*
X84115507Y-233946418D01*
X84632338Y-233758309D02*
X85149165Y-233570199D01*
X84632338Y-233758309D02*
X85213424Y-234185316D01*
X84837548Y-234322126D02*
X85008558Y-234791970D01*
X85213424Y-234185316D02*
X84461671Y-234458932D01*
%TO.C,D23*%
X309500631Y-167057913D02*
X309807048Y-166800798D01*
X309807048Y-166800798D02*
X309453516Y-166379473D01*
X309807048Y-166800798D02*
X310009562Y-166108706D01*
X309807048Y-166800798D02*
X310160582Y-167222121D01*
X310009562Y-166108706D02*
X310523790Y-166721543D01*
X310266677Y-166415124D02*
X310649697Y-166093731D01*
X310523790Y-166721543D02*
X309807048Y-166800798D01*
%TO.C,D28*%
X265519236Y-144279459D02*
X265825653Y-144022344D01*
X265825653Y-144022344D02*
X265472121Y-143601019D01*
X265825653Y-144022344D02*
X266028167Y-143330252D01*
X265825653Y-144022344D02*
X266179187Y-144443667D01*
X266028167Y-143330252D02*
X266542395Y-143943089D01*
X266285282Y-143636670D02*
X266668302Y-143315277D01*
X266542395Y-143943089D02*
X265825653Y-144022344D01*
%TO.C,D7*%
X74173661Y-172501576D02*
X74480078Y-172758691D01*
X74480078Y-172758691D02*
X74126546Y-173180016D01*
X74480078Y-172758691D02*
X74833612Y-172337368D01*
X74480078Y-172758691D02*
X75196820Y-172837946D01*
X74682592Y-173450783D02*
X74480078Y-172758691D01*
X74939709Y-173144363D02*
X75322727Y-173465758D01*
X75196820Y-172837946D02*
X74682592Y-173450783D01*
%TO.C,D9*%
X98663875Y-143315281D02*
X98970292Y-143572396D01*
X98970292Y-143572396D02*
X98616760Y-143993721D01*
X98970292Y-143572396D02*
X99323826Y-143151073D01*
X98970292Y-143572396D02*
X99687034Y-143651651D01*
X99172806Y-144264488D02*
X98970292Y-143572396D01*
X99429923Y-143958068D02*
X99812941Y-144279463D01*
X99687034Y-143651651D02*
X99172806Y-144264488D01*
%TO.C,D26*%
X290009438Y-173465758D02*
X290315855Y-173208643D01*
X290315855Y-173208643D02*
X289962323Y-172787318D01*
X290315855Y-173208643D02*
X290518369Y-172516551D01*
X290315855Y-173208643D02*
X290669389Y-173629966D01*
X290518369Y-172516551D02*
X291032597Y-173129388D01*
X290775484Y-172822969D02*
X291158504Y-172501576D01*
X291032597Y-173129388D02*
X290315855Y-173208643D01*
%TO.C,D38*%
X196419673Y-250142596D02*
X196813596Y-250073136D01*
X196813596Y-250073136D02*
X196718088Y-249531494D01*
X196813596Y-250073136D02*
X196909102Y-250614779D01*
X196813596Y-250073136D02*
X197335022Y-249575026D01*
X197335022Y-249575026D02*
X197473941Y-250362870D01*
X197404482Y-249968948D02*
X197896885Y-249882124D01*
X197473941Y-250362870D02*
X196813596Y-250073136D01*
%TO.C,D3*%
X56007960Y-134877534D02*
X56314377Y-135134649D01*
X56314377Y-135134649D02*
X55960845Y-135555974D01*
X56314377Y-135134649D02*
X56667911Y-134713326D01*
X56314377Y-135134649D02*
X57031119Y-135213904D01*
X56516891Y-135826741D02*
X56314377Y-135134649D01*
X56774008Y-135520321D02*
X57157026Y-135841716D01*
X57031119Y-135213904D02*
X56516891Y-135826741D01*
%TO.C,D22*%
X308175135Y-135841719D02*
X308481552Y-135584604D01*
X308481552Y-135584604D02*
X308128020Y-135163279D01*
X308481552Y-135584604D02*
X308684066Y-134892512D01*
X308481552Y-135584604D02*
X308835086Y-136005927D01*
X308684066Y-134892512D02*
X309198294Y-135505349D01*
X308941181Y-135198930D02*
X309324201Y-134877537D01*
X309198294Y-135505349D02*
X308481552Y-135584604D01*
%TO.C,D10*%
X85093284Y-189124627D02*
X85399701Y-189381742D01*
X85399701Y-189381742D02*
X85046169Y-189803067D01*
X85399701Y-189381742D02*
X85753235Y-188960419D01*
X85399701Y-189381742D02*
X86116443Y-189460997D01*
X85602215Y-190073834D02*
X85399701Y-189381742D01*
X85859332Y-189767414D02*
X86242350Y-190088809D01*
X86116443Y-189460997D02*
X85602215Y-190073834D01*
%TO.C,D30*%
X266844721Y-175495658D02*
X267151138Y-175238543D01*
X267151138Y-175238543D02*
X266797606Y-174817218D01*
X267151138Y-175238543D02*
X267353652Y-174546451D01*
X267151138Y-175238543D02*
X267504672Y-175659866D01*
X267353652Y-174546451D02*
X267867880Y-175159288D01*
X267610767Y-174852869D02*
X267993787Y-174531476D01*
X267867880Y-175159288D02*
X267151138Y-175238543D01*
%TO.C,D24*%
X297255528Y-152464765D02*
X297561945Y-152207650D01*
X297561945Y-152207650D02*
X297208413Y-151786325D01*
X297561945Y-152207650D02*
X297764459Y-151515558D01*
X297561945Y-152207650D02*
X297915479Y-152628973D01*
X297764459Y-151515558D02*
X298278687Y-152128395D01*
X298021574Y-151821976D02*
X298404594Y-151500583D01*
X298278687Y-152128395D02*
X297561945Y-152207650D01*
%TO.C,D1*%
X31517760Y-164063827D02*
X31824177Y-164320942D01*
X31824177Y-164320942D02*
X31470645Y-164742267D01*
X31824177Y-164320942D02*
X32177711Y-163899619D01*
X31824177Y-164320942D02*
X32540919Y-164400197D01*
X32026691Y-165013034D02*
X31824177Y-164320942D01*
X32283808Y-164706614D02*
X32666826Y-165028009D01*
X32540919Y-164400197D02*
X32026691Y-165013034D01*
%TO.C,D18*%
X142151215Y-242870875D02*
X142527092Y-243007685D01*
X142527092Y-243007685D02*
X142338982Y-243524512D01*
X142527092Y-243007685D02*
X142715202Y-242490854D01*
X142527092Y-243007685D02*
X143227715Y-242837018D01*
X142954099Y-243588772D02*
X142527092Y-243007685D01*
X143090909Y-243212893D02*
X143560753Y-243383905D01*
X143227715Y-242837018D02*
X142954099Y-243588772D01*
%TO.C,D14*%
X109482509Y-189695212D02*
X109788926Y-189952327D01*
X109788926Y-189952327D02*
X109435394Y-190373652D01*
X109788926Y-189952327D02*
X110142460Y-189531004D01*
X109788926Y-189952327D02*
X110505668Y-190031582D01*
X109991440Y-190644419D02*
X109788926Y-189952327D01*
X110248557Y-190337999D02*
X110631575Y-190659394D01*
X110505668Y-190031582D02*
X109991440Y-190644419D01*
%TO.C,D36*%
X280289754Y-233715476D02*
X281041508Y-233989092D01*
X280323611Y-234791976D02*
X280460421Y-234416099D01*
X280460421Y-234416099D02*
X279943590Y-234227989D01*
X280460421Y-234416099D02*
X280289754Y-233715476D01*
X280460421Y-234416099D02*
X280977248Y-234604209D01*
X280665629Y-233852282D02*
X280836641Y-233382438D01*
X281041508Y-233989092D02*
X280460421Y-234416099D01*
%TO.C,D6*%
X79172689Y-136907432D02*
X79479106Y-137164547D01*
X79479106Y-137164547D02*
X79125574Y-137585872D01*
X79479106Y-137164547D02*
X79832640Y-136743224D01*
X79479106Y-137164547D02*
X80195848Y-137243802D01*
X79681620Y-137856639D02*
X79479106Y-137164547D01*
X79938737Y-137550219D02*
X80321755Y-137871614D01*
X80195848Y-137243802D02*
X79681620Y-137856639D01*
%TO.C,D31*%
X254599612Y-160902512D02*
X254906029Y-160645397D01*
X254906029Y-160645397D02*
X254552497Y-160224072D01*
X254906029Y-160645397D02*
X255108543Y-159953305D01*
X254906029Y-160645397D02*
X255259563Y-161066720D01*
X255108543Y-159953305D02*
X255622771Y-160566142D01*
X255365658Y-160259723D02*
X255748678Y-159938330D01*
X255622771Y-160566142D02*
X254906029Y-160645397D01*
%TO.C,D12*%
X109583484Y-159938330D02*
X109889901Y-160195445D01*
X109889901Y-160195445D02*
X109536369Y-160616770D01*
X109889901Y-160195445D02*
X110243435Y-159774122D01*
X109889901Y-160195445D02*
X110606643Y-160274700D01*
X110092415Y-160887537D02*
X109889901Y-160195445D01*
X110349532Y-160581117D02*
X110732550Y-160902512D01*
X110606643Y-160274700D02*
X110092415Y-160887537D01*
%TD*%
D11*
%TO.C,MCU1*%
X175046085Y-120783935D03*
D12*
X175046086Y-123323934D03*
X175046085Y-125863931D03*
X175046086Y-128403934D03*
X175046085Y-130943932D03*
X175046085Y-133483933D03*
X175046085Y-136023933D03*
X175046086Y-138563934D03*
X175046088Y-141103933D03*
X175046086Y-143643934D03*
X175046086Y-146183933D03*
X175046085Y-148723931D03*
X190286085Y-120783935D03*
X190286084Y-123323933D03*
X190286084Y-125863932D03*
X190286082Y-128403933D03*
X190286084Y-130943932D03*
X190286085Y-133483933D03*
X190286085Y-136023933D03*
X190286085Y-138563934D03*
X190286084Y-141103932D03*
X190286085Y-143643935D03*
X190286084Y-146183932D03*
X190286085Y-148723931D03*
%TD*%
M02*
