%TF.GenerationSoftware,KiCad,Pcbnew,8.0.1*%
%TF.CreationDate,2024-05-19T15:34:11+09:00*%
%TF.ProjectId,pcb_plate,7063625f-706c-4617-9465-2e6b69636164,v1.0.0*%
%TF.SameCoordinates,Original*%
%TF.FileFunction,Profile,NP*%
%FSLAX46Y46*%
G04 Gerber Fmt 4.6, Leading zero omitted, Abs format (unit mm)*
G04 Created by KiCad (PCBNEW 8.0.1) date 2024-05-19 15:34:11*
%MOMM*%
%LPD*%
G01*
G04 APERTURE LIST*
%TA.AperFunction,Profile*%
%ADD10C,0.150000*%
%TD*%
G04 APERTURE END LIST*
D10*
X296295533Y-123763226D02*
G75*
G02*
X291795533Y-123763226I-2250000J0D01*
G01*
X291795533Y-123763226D02*
G75*
G02*
X296295533Y-123763226I2250000J0D01*
G01*
X234496847Y-245594894D02*
X213934686Y-253078907D01*
X343294718Y-158746881D02*
G75*
G02*
X343132279Y-165358925I-3830218J-3213919D01*
G01*
X210731083Y-160997081D02*
X154601087Y-160997074D01*
X225124896Y-210837284D02*
G75*
G02*
X220624888Y-210837284I-2250004J0D01*
G01*
X220624888Y-210837284D02*
G75*
G02*
X225124896Y-210837284I2250004J0D01*
G01*
X151601083Y-163997077D02*
X151601084Y-220127076D01*
X22199879Y-165358937D02*
G75*
G02*
X22037464Y-158746881I3667801J3398117D01*
G01*
X73536640Y-123763224D02*
G75*
G02*
X69036630Y-123763224I-2250005J0D01*
G01*
X69036630Y-123763224D02*
G75*
G02*
X73536640Y-123763224I2250005J0D01*
G01*
X302043063Y-209759513D02*
X290531640Y-225545711D01*
X283912568Y-243502481D02*
G75*
G02*
X278992532Y-246888085I-4733368J1610881D01*
G01*
X302043065Y-209759514D02*
G75*
G02*
X302415221Y-209307358I4040635J-2946486D01*
G01*
X154601085Y-223127079D02*
X210731081Y-223127078D01*
X86339636Y-246888106D02*
G75*
G02*
X81419608Y-243502474I-186636J4996506D01*
G01*
X262507652Y-230744952D02*
G75*
G02*
X258007652Y-230744952I-2250000J0D01*
G01*
X258007652Y-230744952D02*
G75*
G02*
X262507652Y-230744952I2250000J0D01*
G01*
X76228252Y-228248333D02*
X74800528Y-225545710D01*
X290531640Y-225545711D02*
X289103919Y-228248340D01*
X74800528Y-225545710D02*
X63289109Y-209759511D01*
X209531198Y-254359869D02*
X187449285Y-258253510D01*
X184916087Y-247307082D02*
G75*
G02*
X180416075Y-247307082I-2250006J0D01*
G01*
X180416075Y-247307082D02*
G75*
G02*
X184916087Y-247307082I2250006J0D01*
G01*
X81419604Y-243502475D02*
X76228252Y-228248333D01*
X22037462Y-158746879D02*
X56888921Y-117212517D01*
X140011193Y-157160786D02*
G75*
G02*
X135511189Y-157160786I-2250002J0D01*
G01*
X135511189Y-157160786D02*
G75*
G02*
X140011193Y-157160786I2250002J0D01*
G01*
X308443247Y-117212516D02*
X343294712Y-158746876D01*
X234496847Y-245594894D02*
G75*
G02*
X236393593Y-245296825I1710153J-4698506D01*
G01*
X210731083Y-160997081D02*
G75*
G02*
X213731119Y-163997080I17J-3000019D01*
G01*
X128938579Y-245296844D02*
G75*
G02*
X130835317Y-245594907I186621J-4996456D01*
G01*
X320131815Y-175879434D02*
G75*
G02*
X315631829Y-175879434I-2249993J0D01*
G01*
X315631829Y-175879434D02*
G75*
G02*
X320131815Y-175879434I2249993J0D01*
G01*
X60719153Y-115426457D02*
X304613020Y-115426452D01*
X278992531Y-246888102D02*
X236393592Y-245296842D01*
X304613020Y-115426452D02*
G75*
G02*
X308443247Y-117212516I-20J-5000048D01*
G01*
X107324519Y-230744948D02*
G75*
G02*
X102824511Y-230744948I-2250004J0D01*
G01*
X102824511Y-230744948D02*
G75*
G02*
X107324519Y-230744948I2250004J0D01*
G01*
X178751129Y-258329472D02*
G75*
G02*
X177882880Y-258253516I-29J5000072D01*
G01*
X289103919Y-228248340D02*
X283912568Y-243502481D01*
X213731087Y-220127079D02*
X213731086Y-163997080D01*
X151397486Y-253078908D02*
X130835320Y-245594897D01*
X177882881Y-258253510D02*
X155800977Y-254359879D01*
X343132293Y-165358938D02*
X302415221Y-209307358D01*
X213934686Y-253078907D02*
X209531198Y-254359869D01*
X154601085Y-223127079D02*
G75*
G02*
X151601121Y-220127076I15J2999979D01*
G01*
X128938579Y-245296843D02*
X86339636Y-246888107D01*
X213731087Y-220127079D02*
G75*
G02*
X210731081Y-223127087I-2999987J-21D01*
G01*
X62916949Y-209307361D02*
X22199879Y-165358936D01*
X186581045Y-258329473D02*
X178751129Y-258329472D01*
X164501396Y-127974491D02*
G75*
G02*
X160001402Y-127974491I-2249997J0D01*
G01*
X160001402Y-127974491D02*
G75*
G02*
X164501396Y-127974491I2249997J0D01*
G01*
X187449285Y-258253510D02*
G75*
G02*
X186581045Y-258329473I-868285J4924410D01*
G01*
X62916951Y-209307359D02*
G75*
G02*
X63289107Y-209759512I-3667951J-3398241D01*
G01*
X144707274Y-210837287D02*
G75*
G02*
X140207272Y-210837287I-2250001J0D01*
G01*
X140207272Y-210837287D02*
G75*
G02*
X144707274Y-210837287I2250001J0D01*
G01*
X155800977Y-254359879D02*
X151397486Y-253078908D01*
X229820984Y-157160788D02*
G75*
G02*
X225320978Y-157160788I-2250003J0D01*
G01*
X225320978Y-157160788D02*
G75*
G02*
X229820984Y-157160788I2250003J0D01*
G01*
X205330776Y-127974488D02*
G75*
G02*
X200830780Y-127974488I-2249998J0D01*
G01*
X200830780Y-127974488D02*
G75*
G02*
X205330776Y-127974488I2249998J0D01*
G01*
X49700353Y-175879433D02*
G75*
G02*
X45200355Y-175879433I-2249999J0D01*
G01*
X45200355Y-175879433D02*
G75*
G02*
X49700353Y-175879433I2249999J0D01*
G01*
X151601083Y-163997077D02*
G75*
G02*
X154601087Y-160997083I3000017J-23D01*
G01*
X56888921Y-117212517D02*
G75*
G02*
X60719153Y-115426469I3830179J-3213883D01*
G01*
M02*
