%TF.GenerationSoftware,KiCad,Pcbnew,8.0.1*%
%TF.CreationDate,2024-05-19T15:34:10+09:00*%
%TF.ProjectId,pcb_plate,7063625f-706c-4617-9465-2e6b69636164,v1.0.0*%
%TF.SameCoordinates,Original*%
%TF.FileFunction,Legend,Top*%
%TF.FilePolarity,Positive*%
%FSLAX46Y46*%
G04 Gerber Fmt 4.6, Leading zero omitted, Abs format (unit mm)*
G04 Created by KiCad (PCBNEW 8.0.1) date 2024-05-19 15:34:10*
%MOMM*%
%LPD*%
G01*
G04 APERTURE LIST*
%ADD10C,0.150000*%
%ADD11C,0.100000*%
%ADD12R,1.752600X1.752600*%
%ADD13C,1.752600*%
G04 APERTURE END LIST*
D10*
X177256561Y-122924323D02*
X177180371Y-122886228D01*
X177180371Y-122886228D02*
X177066085Y-122886228D01*
X177066085Y-122886228D02*
X176951799Y-122924323D01*
X176951799Y-122924323D02*
X176875609Y-123000513D01*
X176875609Y-123000513D02*
X176837514Y-123076704D01*
X176837514Y-123076704D02*
X176799418Y-123229085D01*
X176799418Y-123229085D02*
X176799418Y-123343371D01*
X176799418Y-123343371D02*
X176837514Y-123495752D01*
X176837514Y-123495752D02*
X176875609Y-123571942D01*
X176875609Y-123571942D02*
X176951799Y-123648133D01*
X176951799Y-123648133D02*
X177066085Y-123686228D01*
X177066085Y-123686228D02*
X177142276Y-123686228D01*
X177142276Y-123686228D02*
X177256561Y-123648133D01*
X177256561Y-123648133D02*
X177294657Y-123610037D01*
X177294657Y-123610037D02*
X177294657Y-123343371D01*
X177294657Y-123343371D02*
X177142276Y-123343371D01*
X177637514Y-123686228D02*
X177637514Y-122886228D01*
X177637514Y-122886228D02*
X178094657Y-123686228D01*
X178094657Y-123686228D02*
X178094657Y-122886228D01*
X178475609Y-123686228D02*
X178475609Y-122886228D01*
X178475609Y-122886228D02*
X178666085Y-122886228D01*
X178666085Y-122886228D02*
X178780371Y-122924323D01*
X178780371Y-122924323D02*
X178856561Y-123000513D01*
X178856561Y-123000513D02*
X178894656Y-123076704D01*
X178894656Y-123076704D02*
X178932752Y-123229085D01*
X178932752Y-123229085D02*
X178932752Y-123343371D01*
X178932752Y-123343371D02*
X178894656Y-123495752D01*
X178894656Y-123495752D02*
X178856561Y-123571942D01*
X178856561Y-123571942D02*
X178780371Y-123648133D01*
X178780371Y-123648133D02*
X178666085Y-123686228D01*
X178666085Y-123686228D02*
X178475609Y-123686228D01*
X186494656Y-138926226D02*
X186494656Y-138126226D01*
X186494656Y-138126226D02*
X186799418Y-138126226D01*
X186799418Y-138126226D02*
X186875608Y-138164321D01*
X186875608Y-138164321D02*
X186913703Y-138202416D01*
X186913703Y-138202416D02*
X186951799Y-138278607D01*
X186951799Y-138278607D02*
X186951799Y-138392892D01*
X186951799Y-138392892D02*
X186913703Y-138469083D01*
X186913703Y-138469083D02*
X186875608Y-138507178D01*
X186875608Y-138507178D02*
X186799418Y-138545273D01*
X186799418Y-138545273D02*
X186494656Y-138545273D01*
X187447037Y-138126226D02*
X187523227Y-138126226D01*
X187523227Y-138126226D02*
X187599418Y-138164321D01*
X187599418Y-138164321D02*
X187637513Y-138202416D01*
X187637513Y-138202416D02*
X187675608Y-138278607D01*
X187675608Y-138278607D02*
X187713703Y-138430988D01*
X187713703Y-138430988D02*
X187713703Y-138621464D01*
X187713703Y-138621464D02*
X187675608Y-138773845D01*
X187675608Y-138773845D02*
X187637513Y-138850035D01*
X187637513Y-138850035D02*
X187599418Y-138888131D01*
X187599418Y-138888131D02*
X187523227Y-138926226D01*
X187523227Y-138926226D02*
X187447037Y-138926226D01*
X187447037Y-138926226D02*
X187370846Y-138888131D01*
X187370846Y-138888131D02*
X187332751Y-138850035D01*
X187332751Y-138850035D02*
X187294656Y-138773845D01*
X187294656Y-138773845D02*
X187256560Y-138621464D01*
X187256560Y-138621464D02*
X187256560Y-138430988D01*
X187256560Y-138430988D02*
X187294656Y-138278607D01*
X187294656Y-138278607D02*
X187332751Y-138202416D01*
X187332751Y-138202416D02*
X187370846Y-138164321D01*
X187370846Y-138164321D02*
X187447037Y-138126226D01*
X188437513Y-138126226D02*
X188056561Y-138126226D01*
X188056561Y-138126226D02*
X188018465Y-138507178D01*
X188018465Y-138507178D02*
X188056561Y-138469083D01*
X188056561Y-138469083D02*
X188132751Y-138430988D01*
X188132751Y-138430988D02*
X188323227Y-138430988D01*
X188323227Y-138430988D02*
X188399418Y-138469083D01*
X188399418Y-138469083D02*
X188437513Y-138507178D01*
X188437513Y-138507178D02*
X188475608Y-138583369D01*
X188475608Y-138583369D02*
X188475608Y-138773845D01*
X188475608Y-138773845D02*
X188437513Y-138850035D01*
X188437513Y-138850035D02*
X188399418Y-138888131D01*
X188399418Y-138888131D02*
X188323227Y-138926226D01*
X188323227Y-138926226D02*
X188132751Y-138926226D01*
X188132751Y-138926226D02*
X188056561Y-138888131D01*
X188056561Y-138888131D02*
X188018465Y-138850035D01*
X186494656Y-146546228D02*
X186494656Y-145746228D01*
X186494656Y-145746228D02*
X186799418Y-145746228D01*
X186799418Y-145746228D02*
X186875608Y-145784323D01*
X186875608Y-145784323D02*
X186913703Y-145822418D01*
X186913703Y-145822418D02*
X186951799Y-145898609D01*
X186951799Y-145898609D02*
X186951799Y-146012894D01*
X186951799Y-146012894D02*
X186913703Y-146089085D01*
X186913703Y-146089085D02*
X186875608Y-146127180D01*
X186875608Y-146127180D02*
X186799418Y-146165275D01*
X186799418Y-146165275D02*
X186494656Y-146165275D01*
X187447037Y-145746228D02*
X187523227Y-145746228D01*
X187523227Y-145746228D02*
X187599418Y-145784323D01*
X187599418Y-145784323D02*
X187637513Y-145822418D01*
X187637513Y-145822418D02*
X187675608Y-145898609D01*
X187675608Y-145898609D02*
X187713703Y-146050990D01*
X187713703Y-146050990D02*
X187713703Y-146241466D01*
X187713703Y-146241466D02*
X187675608Y-146393847D01*
X187675608Y-146393847D02*
X187637513Y-146470037D01*
X187637513Y-146470037D02*
X187599418Y-146508133D01*
X187599418Y-146508133D02*
X187523227Y-146546228D01*
X187523227Y-146546228D02*
X187447037Y-146546228D01*
X187447037Y-146546228D02*
X187370846Y-146508133D01*
X187370846Y-146508133D02*
X187332751Y-146470037D01*
X187332751Y-146470037D02*
X187294656Y-146393847D01*
X187294656Y-146393847D02*
X187256560Y-146241466D01*
X187256560Y-146241466D02*
X187256560Y-146050990D01*
X187256560Y-146050990D02*
X187294656Y-145898609D01*
X187294656Y-145898609D02*
X187332751Y-145822418D01*
X187332751Y-145822418D02*
X187370846Y-145784323D01*
X187370846Y-145784323D02*
X187447037Y-145746228D01*
X188170846Y-146089085D02*
X188094656Y-146050990D01*
X188094656Y-146050990D02*
X188056561Y-146012894D01*
X188056561Y-146012894D02*
X188018465Y-145936704D01*
X188018465Y-145936704D02*
X188018465Y-145898609D01*
X188018465Y-145898609D02*
X188056561Y-145822418D01*
X188056561Y-145822418D02*
X188094656Y-145784323D01*
X188094656Y-145784323D02*
X188170846Y-145746228D01*
X188170846Y-145746228D02*
X188323227Y-145746228D01*
X188323227Y-145746228D02*
X188399418Y-145784323D01*
X188399418Y-145784323D02*
X188437513Y-145822418D01*
X188437513Y-145822418D02*
X188475608Y-145898609D01*
X188475608Y-145898609D02*
X188475608Y-145936704D01*
X188475608Y-145936704D02*
X188437513Y-146012894D01*
X188437513Y-146012894D02*
X188399418Y-146050990D01*
X188399418Y-146050990D02*
X188323227Y-146089085D01*
X188323227Y-146089085D02*
X188170846Y-146089085D01*
X188170846Y-146089085D02*
X188094656Y-146127180D01*
X188094656Y-146127180D02*
X188056561Y-146165275D01*
X188056561Y-146165275D02*
X188018465Y-146241466D01*
X188018465Y-146241466D02*
X188018465Y-146393847D01*
X188018465Y-146393847D02*
X188056561Y-146470037D01*
X188056561Y-146470037D02*
X188094656Y-146508133D01*
X188094656Y-146508133D02*
X188170846Y-146546228D01*
X188170846Y-146546228D02*
X188323227Y-146546228D01*
X188323227Y-146546228D02*
X188399418Y-146508133D01*
X188399418Y-146508133D02*
X188437513Y-146470037D01*
X188437513Y-146470037D02*
X188475608Y-146393847D01*
X188475608Y-146393847D02*
X188475608Y-146241466D01*
X188475608Y-146241466D02*
X188437513Y-146165275D01*
X188437513Y-146165275D02*
X188399418Y-146127180D01*
X188399418Y-146127180D02*
X188323227Y-146089085D01*
X176894657Y-138926226D02*
X176894657Y-138126226D01*
X176894657Y-138126226D02*
X177199419Y-138126226D01*
X177199419Y-138126226D02*
X177275609Y-138164321D01*
X177275609Y-138164321D02*
X177313704Y-138202416D01*
X177313704Y-138202416D02*
X177351800Y-138278607D01*
X177351800Y-138278607D02*
X177351800Y-138392892D01*
X177351800Y-138392892D02*
X177313704Y-138469083D01*
X177313704Y-138469083D02*
X177275609Y-138507178D01*
X177275609Y-138507178D02*
X177199419Y-138545273D01*
X177199419Y-138545273D02*
X176894657Y-138545273D01*
X178113704Y-138926226D02*
X177656561Y-138926226D01*
X177885133Y-138926226D02*
X177885133Y-138126226D01*
X177885133Y-138126226D02*
X177808942Y-138240511D01*
X177808942Y-138240511D02*
X177732752Y-138316702D01*
X177732752Y-138316702D02*
X177656561Y-138354797D01*
X178570847Y-138469083D02*
X178494657Y-138430988D01*
X178494657Y-138430988D02*
X178456562Y-138392892D01*
X178456562Y-138392892D02*
X178418466Y-138316702D01*
X178418466Y-138316702D02*
X178418466Y-138278607D01*
X178418466Y-138278607D02*
X178456562Y-138202416D01*
X178456562Y-138202416D02*
X178494657Y-138164321D01*
X178494657Y-138164321D02*
X178570847Y-138126226D01*
X178570847Y-138126226D02*
X178723228Y-138126226D01*
X178723228Y-138126226D02*
X178799419Y-138164321D01*
X178799419Y-138164321D02*
X178837514Y-138202416D01*
X178837514Y-138202416D02*
X178875609Y-138278607D01*
X178875609Y-138278607D02*
X178875609Y-138316702D01*
X178875609Y-138316702D02*
X178837514Y-138392892D01*
X178837514Y-138392892D02*
X178799419Y-138430988D01*
X178799419Y-138430988D02*
X178723228Y-138469083D01*
X178723228Y-138469083D02*
X178570847Y-138469083D01*
X178570847Y-138469083D02*
X178494657Y-138507178D01*
X178494657Y-138507178D02*
X178456562Y-138545273D01*
X178456562Y-138545273D02*
X178418466Y-138621464D01*
X178418466Y-138621464D02*
X178418466Y-138773845D01*
X178418466Y-138773845D02*
X178456562Y-138850035D01*
X178456562Y-138850035D02*
X178494657Y-138888131D01*
X178494657Y-138888131D02*
X178570847Y-138926226D01*
X178570847Y-138926226D02*
X178723228Y-138926226D01*
X178723228Y-138926226D02*
X178799419Y-138888131D01*
X178799419Y-138888131D02*
X178837514Y-138850035D01*
X178837514Y-138850035D02*
X178875609Y-138773845D01*
X178875609Y-138773845D02*
X178875609Y-138621464D01*
X178875609Y-138621464D02*
X178837514Y-138545273D01*
X178837514Y-138545273D02*
X178799419Y-138507178D01*
X178799419Y-138507178D02*
X178723228Y-138469083D01*
X177427990Y-126226228D02*
X177161323Y-125845275D01*
X176970847Y-126226228D02*
X176970847Y-125426228D01*
X176970847Y-125426228D02*
X177275609Y-125426228D01*
X177275609Y-125426228D02*
X177351799Y-125464323D01*
X177351799Y-125464323D02*
X177389894Y-125502418D01*
X177389894Y-125502418D02*
X177427990Y-125578609D01*
X177427990Y-125578609D02*
X177427990Y-125692894D01*
X177427990Y-125692894D02*
X177389894Y-125769085D01*
X177389894Y-125769085D02*
X177351799Y-125807180D01*
X177351799Y-125807180D02*
X177275609Y-125845275D01*
X177275609Y-125845275D02*
X176970847Y-125845275D01*
X177732751Y-126188133D02*
X177847037Y-126226228D01*
X177847037Y-126226228D02*
X178037513Y-126226228D01*
X178037513Y-126226228D02*
X178113704Y-126188133D01*
X178113704Y-126188133D02*
X178151799Y-126150037D01*
X178151799Y-126150037D02*
X178189894Y-126073847D01*
X178189894Y-126073847D02*
X178189894Y-125997656D01*
X178189894Y-125997656D02*
X178151799Y-125921466D01*
X178151799Y-125921466D02*
X178113704Y-125883371D01*
X178113704Y-125883371D02*
X178037513Y-125845275D01*
X178037513Y-125845275D02*
X177885132Y-125807180D01*
X177885132Y-125807180D02*
X177808942Y-125769085D01*
X177808942Y-125769085D02*
X177770847Y-125730990D01*
X177770847Y-125730990D02*
X177732751Y-125654799D01*
X177732751Y-125654799D02*
X177732751Y-125578609D01*
X177732751Y-125578609D02*
X177770847Y-125502418D01*
X177770847Y-125502418D02*
X177808942Y-125464323D01*
X177808942Y-125464323D02*
X177885132Y-125426228D01*
X177885132Y-125426228D02*
X178075609Y-125426228D01*
X178075609Y-125426228D02*
X178189894Y-125464323D01*
X178418466Y-125426228D02*
X178875609Y-125426228D01*
X178647037Y-126226228D02*
X178647037Y-125426228D01*
X186494657Y-141466227D02*
X186494657Y-140666227D01*
X186494657Y-140666227D02*
X186799419Y-140666227D01*
X186799419Y-140666227D02*
X186875609Y-140704322D01*
X186875609Y-140704322D02*
X186913704Y-140742417D01*
X186913704Y-140742417D02*
X186951800Y-140818608D01*
X186951800Y-140818608D02*
X186951800Y-140932893D01*
X186951800Y-140932893D02*
X186913704Y-141009084D01*
X186913704Y-141009084D02*
X186875609Y-141047179D01*
X186875609Y-141047179D02*
X186799419Y-141085274D01*
X186799419Y-141085274D02*
X186494657Y-141085274D01*
X187447038Y-140666227D02*
X187523228Y-140666227D01*
X187523228Y-140666227D02*
X187599419Y-140704322D01*
X187599419Y-140704322D02*
X187637514Y-140742417D01*
X187637514Y-140742417D02*
X187675609Y-140818608D01*
X187675609Y-140818608D02*
X187713704Y-140970989D01*
X187713704Y-140970989D02*
X187713704Y-141161465D01*
X187713704Y-141161465D02*
X187675609Y-141313846D01*
X187675609Y-141313846D02*
X187637514Y-141390036D01*
X187637514Y-141390036D02*
X187599419Y-141428132D01*
X187599419Y-141428132D02*
X187523228Y-141466227D01*
X187523228Y-141466227D02*
X187447038Y-141466227D01*
X187447038Y-141466227D02*
X187370847Y-141428132D01*
X187370847Y-141428132D02*
X187332752Y-141390036D01*
X187332752Y-141390036D02*
X187294657Y-141313846D01*
X187294657Y-141313846D02*
X187256561Y-141161465D01*
X187256561Y-141161465D02*
X187256561Y-140970989D01*
X187256561Y-140970989D02*
X187294657Y-140818608D01*
X187294657Y-140818608D02*
X187332752Y-140742417D01*
X187332752Y-140742417D02*
X187370847Y-140704322D01*
X187370847Y-140704322D02*
X187447038Y-140666227D01*
X188399419Y-140666227D02*
X188247038Y-140666227D01*
X188247038Y-140666227D02*
X188170847Y-140704322D01*
X188170847Y-140704322D02*
X188132752Y-140742417D01*
X188132752Y-140742417D02*
X188056562Y-140856703D01*
X188056562Y-140856703D02*
X188018466Y-141009084D01*
X188018466Y-141009084D02*
X188018466Y-141313846D01*
X188018466Y-141313846D02*
X188056562Y-141390036D01*
X188056562Y-141390036D02*
X188094657Y-141428132D01*
X188094657Y-141428132D02*
X188170847Y-141466227D01*
X188170847Y-141466227D02*
X188323228Y-141466227D01*
X188323228Y-141466227D02*
X188399419Y-141428132D01*
X188399419Y-141428132D02*
X188437514Y-141390036D01*
X188437514Y-141390036D02*
X188475609Y-141313846D01*
X188475609Y-141313846D02*
X188475609Y-141123370D01*
X188475609Y-141123370D02*
X188437514Y-141047179D01*
X188437514Y-141047179D02*
X188399419Y-141009084D01*
X188399419Y-141009084D02*
X188323228Y-140970989D01*
X188323228Y-140970989D02*
X188170847Y-140970989D01*
X188170847Y-140970989D02*
X188094657Y-141009084D01*
X188094657Y-141009084D02*
X188056562Y-141047179D01*
X188056562Y-141047179D02*
X188018466Y-141123370D01*
X186494656Y-144006228D02*
X186494656Y-143206228D01*
X186494656Y-143206228D02*
X186799418Y-143206228D01*
X186799418Y-143206228D02*
X186875608Y-143244323D01*
X186875608Y-143244323D02*
X186913703Y-143282418D01*
X186913703Y-143282418D02*
X186951799Y-143358609D01*
X186951799Y-143358609D02*
X186951799Y-143472894D01*
X186951799Y-143472894D02*
X186913703Y-143549085D01*
X186913703Y-143549085D02*
X186875608Y-143587180D01*
X186875608Y-143587180D02*
X186799418Y-143625275D01*
X186799418Y-143625275D02*
X186494656Y-143625275D01*
X187447037Y-143206228D02*
X187523227Y-143206228D01*
X187523227Y-143206228D02*
X187599418Y-143244323D01*
X187599418Y-143244323D02*
X187637513Y-143282418D01*
X187637513Y-143282418D02*
X187675608Y-143358609D01*
X187675608Y-143358609D02*
X187713703Y-143510990D01*
X187713703Y-143510990D02*
X187713703Y-143701466D01*
X187713703Y-143701466D02*
X187675608Y-143853847D01*
X187675608Y-143853847D02*
X187637513Y-143930037D01*
X187637513Y-143930037D02*
X187599418Y-143968133D01*
X187599418Y-143968133D02*
X187523227Y-144006228D01*
X187523227Y-144006228D02*
X187447037Y-144006228D01*
X187447037Y-144006228D02*
X187370846Y-143968133D01*
X187370846Y-143968133D02*
X187332751Y-143930037D01*
X187332751Y-143930037D02*
X187294656Y-143853847D01*
X187294656Y-143853847D02*
X187256560Y-143701466D01*
X187256560Y-143701466D02*
X187256560Y-143510990D01*
X187256560Y-143510990D02*
X187294656Y-143358609D01*
X187294656Y-143358609D02*
X187332751Y-143282418D01*
X187332751Y-143282418D02*
X187370846Y-143244323D01*
X187370846Y-143244323D02*
X187447037Y-143206228D01*
X187980370Y-143206228D02*
X188513704Y-143206228D01*
X188513704Y-143206228D02*
X188170846Y-144006228D01*
X186856561Y-125464323D02*
X186780371Y-125426228D01*
X186780371Y-125426228D02*
X186666085Y-125426228D01*
X186666085Y-125426228D02*
X186551799Y-125464323D01*
X186551799Y-125464323D02*
X186475609Y-125540513D01*
X186475609Y-125540513D02*
X186437514Y-125616704D01*
X186437514Y-125616704D02*
X186399418Y-125769085D01*
X186399418Y-125769085D02*
X186399418Y-125883371D01*
X186399418Y-125883371D02*
X186437514Y-126035752D01*
X186437514Y-126035752D02*
X186475609Y-126111942D01*
X186475609Y-126111942D02*
X186551799Y-126188133D01*
X186551799Y-126188133D02*
X186666085Y-126226228D01*
X186666085Y-126226228D02*
X186742276Y-126226228D01*
X186742276Y-126226228D02*
X186856561Y-126188133D01*
X186856561Y-126188133D02*
X186894657Y-126150037D01*
X186894657Y-126150037D02*
X186894657Y-125883371D01*
X186894657Y-125883371D02*
X186742276Y-125883371D01*
X187237514Y-126226228D02*
X187237514Y-125426228D01*
X187237514Y-125426228D02*
X187694657Y-126226228D01*
X187694657Y-126226228D02*
X187694657Y-125426228D01*
X188075609Y-126226228D02*
X188075609Y-125426228D01*
X188075609Y-125426228D02*
X188266085Y-125426228D01*
X188266085Y-125426228D02*
X188380371Y-125464323D01*
X188380371Y-125464323D02*
X188456561Y-125540513D01*
X188456561Y-125540513D02*
X188494656Y-125616704D01*
X188494656Y-125616704D02*
X188532752Y-125769085D01*
X188532752Y-125769085D02*
X188532752Y-125883371D01*
X188532752Y-125883371D02*
X188494656Y-126035752D01*
X188494656Y-126035752D02*
X188456561Y-126111942D01*
X188456561Y-126111942D02*
X188380371Y-126188133D01*
X188380371Y-126188133D02*
X188266085Y-126226228D01*
X188266085Y-126226228D02*
X188075609Y-126226228D01*
X176894655Y-136386229D02*
X176894655Y-135586229D01*
X176894655Y-135586229D02*
X177199417Y-135586229D01*
X177199417Y-135586229D02*
X177275607Y-135624324D01*
X177275607Y-135624324D02*
X177313702Y-135662419D01*
X177313702Y-135662419D02*
X177351798Y-135738610D01*
X177351798Y-135738610D02*
X177351798Y-135852895D01*
X177351798Y-135852895D02*
X177313702Y-135929086D01*
X177313702Y-135929086D02*
X177275607Y-135967181D01*
X177275607Y-135967181D02*
X177199417Y-136005276D01*
X177199417Y-136005276D02*
X176894655Y-136005276D01*
X178113702Y-136386229D02*
X177656559Y-136386229D01*
X177885131Y-136386229D02*
X177885131Y-135586229D01*
X177885131Y-135586229D02*
X177808940Y-135700514D01*
X177808940Y-135700514D02*
X177732750Y-135776705D01*
X177732750Y-135776705D02*
X177656559Y-135814800D01*
X178494655Y-136386229D02*
X178647036Y-136386229D01*
X178647036Y-136386229D02*
X178723226Y-136348134D01*
X178723226Y-136348134D02*
X178761322Y-136310038D01*
X178761322Y-136310038D02*
X178837512Y-136195753D01*
X178837512Y-136195753D02*
X178875607Y-136043372D01*
X178875607Y-136043372D02*
X178875607Y-135738610D01*
X178875607Y-135738610D02*
X178837512Y-135662419D01*
X178837512Y-135662419D02*
X178799417Y-135624324D01*
X178799417Y-135624324D02*
X178723226Y-135586229D01*
X178723226Y-135586229D02*
X178570845Y-135586229D01*
X178570845Y-135586229D02*
X178494655Y-135624324D01*
X178494655Y-135624324D02*
X178456560Y-135662419D01*
X178456560Y-135662419D02*
X178418464Y-135738610D01*
X178418464Y-135738610D02*
X178418464Y-135929086D01*
X178418464Y-135929086D02*
X178456560Y-136005276D01*
X178456560Y-136005276D02*
X178494655Y-136043372D01*
X178494655Y-136043372D02*
X178570845Y-136081467D01*
X178570845Y-136081467D02*
X178723226Y-136081467D01*
X178723226Y-136081467D02*
X178799417Y-136043372D01*
X178799417Y-136043372D02*
X178837512Y-136005276D01*
X178837512Y-136005276D02*
X178875607Y-135929086D01*
X186494655Y-131306230D02*
X186494655Y-130506230D01*
X186494655Y-130506230D02*
X186799417Y-130506230D01*
X186799417Y-130506230D02*
X186875607Y-130544325D01*
X186875607Y-130544325D02*
X186913702Y-130582420D01*
X186913702Y-130582420D02*
X186951798Y-130658611D01*
X186951798Y-130658611D02*
X186951798Y-130772896D01*
X186951798Y-130772896D02*
X186913702Y-130849087D01*
X186913702Y-130849087D02*
X186875607Y-130887182D01*
X186875607Y-130887182D02*
X186799417Y-130925277D01*
X186799417Y-130925277D02*
X186494655Y-130925277D01*
X187447036Y-130506230D02*
X187523226Y-130506230D01*
X187523226Y-130506230D02*
X187599417Y-130544325D01*
X187599417Y-130544325D02*
X187637512Y-130582420D01*
X187637512Y-130582420D02*
X187675607Y-130658611D01*
X187675607Y-130658611D02*
X187713702Y-130810992D01*
X187713702Y-130810992D02*
X187713702Y-131001468D01*
X187713702Y-131001468D02*
X187675607Y-131153849D01*
X187675607Y-131153849D02*
X187637512Y-131230039D01*
X187637512Y-131230039D02*
X187599417Y-131268135D01*
X187599417Y-131268135D02*
X187523226Y-131306230D01*
X187523226Y-131306230D02*
X187447036Y-131306230D01*
X187447036Y-131306230D02*
X187370845Y-131268135D01*
X187370845Y-131268135D02*
X187332750Y-131230039D01*
X187332750Y-131230039D02*
X187294655Y-131153849D01*
X187294655Y-131153849D02*
X187256559Y-131001468D01*
X187256559Y-131001468D02*
X187256559Y-130810992D01*
X187256559Y-130810992D02*
X187294655Y-130658611D01*
X187294655Y-130658611D02*
X187332750Y-130582420D01*
X187332750Y-130582420D02*
X187370845Y-130544325D01*
X187370845Y-130544325D02*
X187447036Y-130506230D01*
X188018464Y-130582420D02*
X188056560Y-130544325D01*
X188056560Y-130544325D02*
X188132750Y-130506230D01*
X188132750Y-130506230D02*
X188323226Y-130506230D01*
X188323226Y-130506230D02*
X188399417Y-130544325D01*
X188399417Y-130544325D02*
X188437512Y-130582420D01*
X188437512Y-130582420D02*
X188475607Y-130658611D01*
X188475607Y-130658611D02*
X188475607Y-130734801D01*
X188475607Y-130734801D02*
X188437512Y-130849087D01*
X188437512Y-130849087D02*
X187980369Y-131306230D01*
X187980369Y-131306230D02*
X188475607Y-131306230D01*
X186856562Y-128004324D02*
X186780372Y-127966229D01*
X186780372Y-127966229D02*
X186666086Y-127966229D01*
X186666086Y-127966229D02*
X186551800Y-128004324D01*
X186551800Y-128004324D02*
X186475610Y-128080514D01*
X186475610Y-128080514D02*
X186437515Y-128156705D01*
X186437515Y-128156705D02*
X186399419Y-128309086D01*
X186399419Y-128309086D02*
X186399419Y-128423372D01*
X186399419Y-128423372D02*
X186437515Y-128575753D01*
X186437515Y-128575753D02*
X186475610Y-128651943D01*
X186475610Y-128651943D02*
X186551800Y-128728134D01*
X186551800Y-128728134D02*
X186666086Y-128766229D01*
X186666086Y-128766229D02*
X186742277Y-128766229D01*
X186742277Y-128766229D02*
X186856562Y-128728134D01*
X186856562Y-128728134D02*
X186894658Y-128690038D01*
X186894658Y-128690038D02*
X186894658Y-128423372D01*
X186894658Y-128423372D02*
X186742277Y-128423372D01*
X187237515Y-128766229D02*
X187237515Y-127966229D01*
X187237515Y-127966229D02*
X187694658Y-128766229D01*
X187694658Y-128766229D02*
X187694658Y-127966229D01*
X188075610Y-128766229D02*
X188075610Y-127966229D01*
X188075610Y-127966229D02*
X188266086Y-127966229D01*
X188266086Y-127966229D02*
X188380372Y-128004324D01*
X188380372Y-128004324D02*
X188456562Y-128080514D01*
X188456562Y-128080514D02*
X188494657Y-128156705D01*
X188494657Y-128156705D02*
X188532753Y-128309086D01*
X188532753Y-128309086D02*
X188532753Y-128423372D01*
X188532753Y-128423372D02*
X188494657Y-128575753D01*
X188494657Y-128575753D02*
X188456562Y-128651943D01*
X188456562Y-128651943D02*
X188380372Y-128728134D01*
X188380372Y-128728134D02*
X188266086Y-128766229D01*
X188266086Y-128766229D02*
X188075610Y-128766229D01*
X186494657Y-123686229D02*
X186494657Y-122886229D01*
X186494657Y-122886229D02*
X186799419Y-122886229D01*
X186799419Y-122886229D02*
X186875609Y-122924324D01*
X186875609Y-122924324D02*
X186913704Y-122962419D01*
X186913704Y-122962419D02*
X186951800Y-123038610D01*
X186951800Y-123038610D02*
X186951800Y-123152895D01*
X186951800Y-123152895D02*
X186913704Y-123229086D01*
X186913704Y-123229086D02*
X186875609Y-123267181D01*
X186875609Y-123267181D02*
X186799419Y-123305276D01*
X186799419Y-123305276D02*
X186494657Y-123305276D01*
X187447038Y-122886229D02*
X187523228Y-122886229D01*
X187523228Y-122886229D02*
X187599419Y-122924324D01*
X187599419Y-122924324D02*
X187637514Y-122962419D01*
X187637514Y-122962419D02*
X187675609Y-123038610D01*
X187675609Y-123038610D02*
X187713704Y-123190991D01*
X187713704Y-123190991D02*
X187713704Y-123381467D01*
X187713704Y-123381467D02*
X187675609Y-123533848D01*
X187675609Y-123533848D02*
X187637514Y-123610038D01*
X187637514Y-123610038D02*
X187599419Y-123648134D01*
X187599419Y-123648134D02*
X187523228Y-123686229D01*
X187523228Y-123686229D02*
X187447038Y-123686229D01*
X187447038Y-123686229D02*
X187370847Y-123648134D01*
X187370847Y-123648134D02*
X187332752Y-123610038D01*
X187332752Y-123610038D02*
X187294657Y-123533848D01*
X187294657Y-123533848D02*
X187256561Y-123381467D01*
X187256561Y-123381467D02*
X187256561Y-123190991D01*
X187256561Y-123190991D02*
X187294657Y-123038610D01*
X187294657Y-123038610D02*
X187332752Y-122962419D01*
X187332752Y-122962419D02*
X187370847Y-122924324D01*
X187370847Y-122924324D02*
X187447038Y-122886229D01*
X188208943Y-122886229D02*
X188285133Y-122886229D01*
X188285133Y-122886229D02*
X188361324Y-122924324D01*
X188361324Y-122924324D02*
X188399419Y-122962419D01*
X188399419Y-122962419D02*
X188437514Y-123038610D01*
X188437514Y-123038610D02*
X188475609Y-123190991D01*
X188475609Y-123190991D02*
X188475609Y-123381467D01*
X188475609Y-123381467D02*
X188437514Y-123533848D01*
X188437514Y-123533848D02*
X188399419Y-123610038D01*
X188399419Y-123610038D02*
X188361324Y-123648134D01*
X188361324Y-123648134D02*
X188285133Y-123686229D01*
X188285133Y-123686229D02*
X188208943Y-123686229D01*
X188208943Y-123686229D02*
X188132752Y-123648134D01*
X188132752Y-123648134D02*
X188094657Y-123610038D01*
X188094657Y-123610038D02*
X188056562Y-123533848D01*
X188056562Y-123533848D02*
X188018466Y-123381467D01*
X188018466Y-123381467D02*
X188018466Y-123190991D01*
X188018466Y-123190991D02*
X188056562Y-123038610D01*
X188056562Y-123038610D02*
X188094657Y-122962419D01*
X188094657Y-122962419D02*
X188132752Y-122924324D01*
X188132752Y-122924324D02*
X188208943Y-122886229D01*
X186494657Y-136386229D02*
X186494657Y-135586229D01*
X186494657Y-135586229D02*
X186799419Y-135586229D01*
X186799419Y-135586229D02*
X186875609Y-135624324D01*
X186875609Y-135624324D02*
X186913704Y-135662419D01*
X186913704Y-135662419D02*
X186951800Y-135738610D01*
X186951800Y-135738610D02*
X186951800Y-135852895D01*
X186951800Y-135852895D02*
X186913704Y-135929086D01*
X186913704Y-135929086D02*
X186875609Y-135967181D01*
X186875609Y-135967181D02*
X186799419Y-136005276D01*
X186799419Y-136005276D02*
X186494657Y-136005276D01*
X187447038Y-135586229D02*
X187523228Y-135586229D01*
X187523228Y-135586229D02*
X187599419Y-135624324D01*
X187599419Y-135624324D02*
X187637514Y-135662419D01*
X187637514Y-135662419D02*
X187675609Y-135738610D01*
X187675609Y-135738610D02*
X187713704Y-135890991D01*
X187713704Y-135890991D02*
X187713704Y-136081467D01*
X187713704Y-136081467D02*
X187675609Y-136233848D01*
X187675609Y-136233848D02*
X187637514Y-136310038D01*
X187637514Y-136310038D02*
X187599419Y-136348134D01*
X187599419Y-136348134D02*
X187523228Y-136386229D01*
X187523228Y-136386229D02*
X187447038Y-136386229D01*
X187447038Y-136386229D02*
X187370847Y-136348134D01*
X187370847Y-136348134D02*
X187332752Y-136310038D01*
X187332752Y-136310038D02*
X187294657Y-136233848D01*
X187294657Y-136233848D02*
X187256561Y-136081467D01*
X187256561Y-136081467D02*
X187256561Y-135890991D01*
X187256561Y-135890991D02*
X187294657Y-135738610D01*
X187294657Y-135738610D02*
X187332752Y-135662419D01*
X187332752Y-135662419D02*
X187370847Y-135624324D01*
X187370847Y-135624324D02*
X187447038Y-135586229D01*
X188399419Y-135852895D02*
X188399419Y-136386229D01*
X188208943Y-135548134D02*
X188018466Y-136119562D01*
X188018466Y-136119562D02*
X188513705Y-136119562D01*
X186494657Y-133846227D02*
X186494657Y-133046227D01*
X186494657Y-133046227D02*
X186799419Y-133046227D01*
X186799419Y-133046227D02*
X186875609Y-133084322D01*
X186875609Y-133084322D02*
X186913704Y-133122417D01*
X186913704Y-133122417D02*
X186951800Y-133198608D01*
X186951800Y-133198608D02*
X186951800Y-133312893D01*
X186951800Y-133312893D02*
X186913704Y-133389084D01*
X186913704Y-133389084D02*
X186875609Y-133427179D01*
X186875609Y-133427179D02*
X186799419Y-133465274D01*
X186799419Y-133465274D02*
X186494657Y-133465274D01*
X187447038Y-133046227D02*
X187523228Y-133046227D01*
X187523228Y-133046227D02*
X187599419Y-133084322D01*
X187599419Y-133084322D02*
X187637514Y-133122417D01*
X187637514Y-133122417D02*
X187675609Y-133198608D01*
X187675609Y-133198608D02*
X187713704Y-133350989D01*
X187713704Y-133350989D02*
X187713704Y-133541465D01*
X187713704Y-133541465D02*
X187675609Y-133693846D01*
X187675609Y-133693846D02*
X187637514Y-133770036D01*
X187637514Y-133770036D02*
X187599419Y-133808132D01*
X187599419Y-133808132D02*
X187523228Y-133846227D01*
X187523228Y-133846227D02*
X187447038Y-133846227D01*
X187447038Y-133846227D02*
X187370847Y-133808132D01*
X187370847Y-133808132D02*
X187332752Y-133770036D01*
X187332752Y-133770036D02*
X187294657Y-133693846D01*
X187294657Y-133693846D02*
X187256561Y-133541465D01*
X187256561Y-133541465D02*
X187256561Y-133350989D01*
X187256561Y-133350989D02*
X187294657Y-133198608D01*
X187294657Y-133198608D02*
X187332752Y-133122417D01*
X187332752Y-133122417D02*
X187370847Y-133084322D01*
X187370847Y-133084322D02*
X187447038Y-133046227D01*
X187980371Y-133046227D02*
X188475609Y-133046227D01*
X188475609Y-133046227D02*
X188208943Y-133350989D01*
X188208943Y-133350989D02*
X188323228Y-133350989D01*
X188323228Y-133350989D02*
X188399419Y-133389084D01*
X188399419Y-133389084D02*
X188437514Y-133427179D01*
X188437514Y-133427179D02*
X188475609Y-133503370D01*
X188475609Y-133503370D02*
X188475609Y-133693846D01*
X188475609Y-133693846D02*
X188437514Y-133770036D01*
X188437514Y-133770036D02*
X188399419Y-133808132D01*
X188399419Y-133808132D02*
X188323228Y-133846227D01*
X188323228Y-133846227D02*
X188094657Y-133846227D01*
X188094657Y-133846227D02*
X188018466Y-133808132D01*
X188018466Y-133808132D02*
X187980371Y-133770036D01*
X186494658Y-149086225D02*
X186494658Y-148286225D01*
X186494658Y-148286225D02*
X186799420Y-148286225D01*
X186799420Y-148286225D02*
X186875610Y-148324320D01*
X186875610Y-148324320D02*
X186913705Y-148362415D01*
X186913705Y-148362415D02*
X186951801Y-148438606D01*
X186951801Y-148438606D02*
X186951801Y-148552891D01*
X186951801Y-148552891D02*
X186913705Y-148629082D01*
X186913705Y-148629082D02*
X186875610Y-148667177D01*
X186875610Y-148667177D02*
X186799420Y-148705272D01*
X186799420Y-148705272D02*
X186494658Y-148705272D01*
X187447039Y-148286225D02*
X187523229Y-148286225D01*
X187523229Y-148286225D02*
X187599420Y-148324320D01*
X187599420Y-148324320D02*
X187637515Y-148362415D01*
X187637515Y-148362415D02*
X187675610Y-148438606D01*
X187675610Y-148438606D02*
X187713705Y-148590987D01*
X187713705Y-148590987D02*
X187713705Y-148781463D01*
X187713705Y-148781463D02*
X187675610Y-148933844D01*
X187675610Y-148933844D02*
X187637515Y-149010034D01*
X187637515Y-149010034D02*
X187599420Y-149048130D01*
X187599420Y-149048130D02*
X187523229Y-149086225D01*
X187523229Y-149086225D02*
X187447039Y-149086225D01*
X187447039Y-149086225D02*
X187370848Y-149048130D01*
X187370848Y-149048130D02*
X187332753Y-149010034D01*
X187332753Y-149010034D02*
X187294658Y-148933844D01*
X187294658Y-148933844D02*
X187256562Y-148781463D01*
X187256562Y-148781463D02*
X187256562Y-148590987D01*
X187256562Y-148590987D02*
X187294658Y-148438606D01*
X187294658Y-148438606D02*
X187332753Y-148362415D01*
X187332753Y-148362415D02*
X187370848Y-148324320D01*
X187370848Y-148324320D02*
X187447039Y-148286225D01*
X188094658Y-149086225D02*
X188247039Y-149086225D01*
X188247039Y-149086225D02*
X188323229Y-149048130D01*
X188323229Y-149048130D02*
X188361325Y-149010034D01*
X188361325Y-149010034D02*
X188437515Y-148895749D01*
X188437515Y-148895749D02*
X188475610Y-148743368D01*
X188475610Y-148743368D02*
X188475610Y-148438606D01*
X188475610Y-148438606D02*
X188437515Y-148362415D01*
X188437515Y-148362415D02*
X188399420Y-148324320D01*
X188399420Y-148324320D02*
X188323229Y-148286225D01*
X188323229Y-148286225D02*
X188170848Y-148286225D01*
X188170848Y-148286225D02*
X188094658Y-148324320D01*
X188094658Y-148324320D02*
X188056563Y-148362415D01*
X188056563Y-148362415D02*
X188018467Y-148438606D01*
X188018467Y-148438606D02*
X188018467Y-148629082D01*
X188018467Y-148629082D02*
X188056563Y-148705272D01*
X188056563Y-148705272D02*
X188094658Y-148743368D01*
X188094658Y-148743368D02*
X188170848Y-148781463D01*
X188170848Y-148781463D02*
X188323229Y-148781463D01*
X188323229Y-148781463D02*
X188399420Y-148743368D01*
X188399420Y-148743368D02*
X188437515Y-148705272D01*
X188437515Y-148705272D02*
X188475610Y-148629082D01*
X176894656Y-131306230D02*
X176894656Y-130506230D01*
X176894656Y-130506230D02*
X177199418Y-130506230D01*
X177199418Y-130506230D02*
X177275608Y-130544325D01*
X177275608Y-130544325D02*
X177313703Y-130582420D01*
X177313703Y-130582420D02*
X177351799Y-130658611D01*
X177351799Y-130658611D02*
X177351799Y-130772896D01*
X177351799Y-130772896D02*
X177313703Y-130849087D01*
X177313703Y-130849087D02*
X177275608Y-130887182D01*
X177275608Y-130887182D02*
X177199418Y-130925277D01*
X177199418Y-130925277D02*
X176894656Y-130925277D01*
X177656560Y-130582420D02*
X177694656Y-130544325D01*
X177694656Y-130544325D02*
X177770846Y-130506230D01*
X177770846Y-130506230D02*
X177961322Y-130506230D01*
X177961322Y-130506230D02*
X178037513Y-130544325D01*
X178037513Y-130544325D02*
X178075608Y-130582420D01*
X178075608Y-130582420D02*
X178113703Y-130658611D01*
X178113703Y-130658611D02*
X178113703Y-130734801D01*
X178113703Y-130734801D02*
X178075608Y-130849087D01*
X178075608Y-130849087D02*
X177618465Y-131306230D01*
X177618465Y-131306230D02*
X178113703Y-131306230D01*
X178875608Y-131306230D02*
X178418465Y-131306230D01*
X178647037Y-131306230D02*
X178647037Y-130506230D01*
X178647037Y-130506230D02*
X178570846Y-130620515D01*
X178570846Y-130620515D02*
X178494656Y-130696706D01*
X178494656Y-130696706D02*
X178418465Y-130734801D01*
X176894656Y-144006228D02*
X176894656Y-143206228D01*
X176894656Y-143206228D02*
X177199418Y-143206228D01*
X177199418Y-143206228D02*
X177275608Y-143244323D01*
X177275608Y-143244323D02*
X177313703Y-143282418D01*
X177313703Y-143282418D02*
X177351799Y-143358609D01*
X177351799Y-143358609D02*
X177351799Y-143472894D01*
X177351799Y-143472894D02*
X177313703Y-143549085D01*
X177313703Y-143549085D02*
X177275608Y-143587180D01*
X177275608Y-143587180D02*
X177199418Y-143625275D01*
X177199418Y-143625275D02*
X176894656Y-143625275D01*
X178113703Y-144006228D02*
X177656560Y-144006228D01*
X177885132Y-144006228D02*
X177885132Y-143206228D01*
X177885132Y-143206228D02*
X177808941Y-143320513D01*
X177808941Y-143320513D02*
X177732751Y-143396704D01*
X177732751Y-143396704D02*
X177656560Y-143434799D01*
X178799418Y-143472894D02*
X178799418Y-144006228D01*
X178608942Y-143168133D02*
X178418465Y-143739561D01*
X178418465Y-143739561D02*
X178913704Y-143739561D01*
X176894655Y-146546227D02*
X176894655Y-145746227D01*
X176894655Y-145746227D02*
X177199417Y-145746227D01*
X177199417Y-145746227D02*
X177275607Y-145784322D01*
X177275607Y-145784322D02*
X177313702Y-145822417D01*
X177313702Y-145822417D02*
X177351798Y-145898608D01*
X177351798Y-145898608D02*
X177351798Y-146012893D01*
X177351798Y-146012893D02*
X177313702Y-146089084D01*
X177313702Y-146089084D02*
X177275607Y-146127179D01*
X177275607Y-146127179D02*
X177199417Y-146165274D01*
X177199417Y-146165274D02*
X176894655Y-146165274D01*
X178113702Y-146546227D02*
X177656559Y-146546227D01*
X177885131Y-146546227D02*
X177885131Y-145746227D01*
X177885131Y-145746227D02*
X177808940Y-145860512D01*
X177808940Y-145860512D02*
X177732750Y-145936703D01*
X177732750Y-145936703D02*
X177656559Y-145974798D01*
X178799417Y-145746227D02*
X178647036Y-145746227D01*
X178647036Y-145746227D02*
X178570845Y-145784322D01*
X178570845Y-145784322D02*
X178532750Y-145822417D01*
X178532750Y-145822417D02*
X178456560Y-145936703D01*
X178456560Y-145936703D02*
X178418464Y-146089084D01*
X178418464Y-146089084D02*
X178418464Y-146393846D01*
X178418464Y-146393846D02*
X178456560Y-146470036D01*
X178456560Y-146470036D02*
X178494655Y-146508132D01*
X178494655Y-146508132D02*
X178570845Y-146546227D01*
X178570845Y-146546227D02*
X178723226Y-146546227D01*
X178723226Y-146546227D02*
X178799417Y-146508132D01*
X178799417Y-146508132D02*
X178837512Y-146470036D01*
X178837512Y-146470036D02*
X178875607Y-146393846D01*
X178875607Y-146393846D02*
X178875607Y-146203370D01*
X178875607Y-146203370D02*
X178837512Y-146127179D01*
X178837512Y-146127179D02*
X178799417Y-146089084D01*
X178799417Y-146089084D02*
X178723226Y-146050989D01*
X178723226Y-146050989D02*
X178570845Y-146050989D01*
X178570845Y-146050989D02*
X178494655Y-146089084D01*
X178494655Y-146089084D02*
X178456560Y-146127179D01*
X178456560Y-146127179D02*
X178418464Y-146203370D01*
X176894654Y-149086225D02*
X176894654Y-148286225D01*
X176894654Y-148286225D02*
X177199416Y-148286225D01*
X177199416Y-148286225D02*
X177275606Y-148324320D01*
X177275606Y-148324320D02*
X177313701Y-148362415D01*
X177313701Y-148362415D02*
X177351797Y-148438606D01*
X177351797Y-148438606D02*
X177351797Y-148552891D01*
X177351797Y-148552891D02*
X177313701Y-148629082D01*
X177313701Y-148629082D02*
X177275606Y-148667177D01*
X177275606Y-148667177D02*
X177199416Y-148705272D01*
X177199416Y-148705272D02*
X176894654Y-148705272D01*
X178113701Y-149086225D02*
X177656558Y-149086225D01*
X177885130Y-149086225D02*
X177885130Y-148286225D01*
X177885130Y-148286225D02*
X177808939Y-148400510D01*
X177808939Y-148400510D02*
X177732749Y-148476701D01*
X177732749Y-148476701D02*
X177656558Y-148514796D01*
X178608940Y-148286225D02*
X178685130Y-148286225D01*
X178685130Y-148286225D02*
X178761321Y-148324320D01*
X178761321Y-148324320D02*
X178799416Y-148362415D01*
X178799416Y-148362415D02*
X178837511Y-148438606D01*
X178837511Y-148438606D02*
X178875606Y-148590987D01*
X178875606Y-148590987D02*
X178875606Y-148781463D01*
X178875606Y-148781463D02*
X178837511Y-148933844D01*
X178837511Y-148933844D02*
X178799416Y-149010034D01*
X178799416Y-149010034D02*
X178761321Y-149048130D01*
X178761321Y-149048130D02*
X178685130Y-149086225D01*
X178685130Y-149086225D02*
X178608940Y-149086225D01*
X178608940Y-149086225D02*
X178532749Y-149048130D01*
X178532749Y-149048130D02*
X178494654Y-149010034D01*
X178494654Y-149010034D02*
X178456559Y-148933844D01*
X178456559Y-148933844D02*
X178418463Y-148781463D01*
X178418463Y-148781463D02*
X178418463Y-148590987D01*
X178418463Y-148590987D02*
X178456559Y-148438606D01*
X178456559Y-148438606D02*
X178494654Y-148362415D01*
X178494654Y-148362415D02*
X178532749Y-148324320D01*
X178532749Y-148324320D02*
X178608940Y-148286225D01*
X176894655Y-133846227D02*
X176894655Y-133046227D01*
X176894655Y-133046227D02*
X177199417Y-133046227D01*
X177199417Y-133046227D02*
X177275607Y-133084322D01*
X177275607Y-133084322D02*
X177313702Y-133122417D01*
X177313702Y-133122417D02*
X177351798Y-133198608D01*
X177351798Y-133198608D02*
X177351798Y-133312893D01*
X177351798Y-133312893D02*
X177313702Y-133389084D01*
X177313702Y-133389084D02*
X177275607Y-133427179D01*
X177275607Y-133427179D02*
X177199417Y-133465274D01*
X177199417Y-133465274D02*
X176894655Y-133465274D01*
X177656559Y-133122417D02*
X177694655Y-133084322D01*
X177694655Y-133084322D02*
X177770845Y-133046227D01*
X177770845Y-133046227D02*
X177961321Y-133046227D01*
X177961321Y-133046227D02*
X178037512Y-133084322D01*
X178037512Y-133084322D02*
X178075607Y-133122417D01*
X178075607Y-133122417D02*
X178113702Y-133198608D01*
X178113702Y-133198608D02*
X178113702Y-133274798D01*
X178113702Y-133274798D02*
X178075607Y-133389084D01*
X178075607Y-133389084D02*
X177618464Y-133846227D01*
X177618464Y-133846227D02*
X178113702Y-133846227D01*
X178608941Y-133046227D02*
X178685131Y-133046227D01*
X178685131Y-133046227D02*
X178761322Y-133084322D01*
X178761322Y-133084322D02*
X178799417Y-133122417D01*
X178799417Y-133122417D02*
X178837512Y-133198608D01*
X178837512Y-133198608D02*
X178875607Y-133350989D01*
X178875607Y-133350989D02*
X178875607Y-133541465D01*
X178875607Y-133541465D02*
X178837512Y-133693846D01*
X178837512Y-133693846D02*
X178799417Y-133770036D01*
X178799417Y-133770036D02*
X178761322Y-133808132D01*
X178761322Y-133808132D02*
X178685131Y-133846227D01*
X178685131Y-133846227D02*
X178608941Y-133846227D01*
X178608941Y-133846227D02*
X178532750Y-133808132D01*
X178532750Y-133808132D02*
X178494655Y-133770036D01*
X178494655Y-133770036D02*
X178456560Y-133693846D01*
X178456560Y-133693846D02*
X178418464Y-133541465D01*
X178418464Y-133541465D02*
X178418464Y-133350989D01*
X178418464Y-133350989D02*
X178456560Y-133198608D01*
X178456560Y-133198608D02*
X178494655Y-133122417D01*
X178494655Y-133122417D02*
X178532750Y-133084322D01*
X178532750Y-133084322D02*
X178608941Y-133046227D01*
X186494658Y-121146231D02*
X186494658Y-120346231D01*
X186494658Y-120346231D02*
X186799420Y-120346231D01*
X186799420Y-120346231D02*
X186875610Y-120384326D01*
X186875610Y-120384326D02*
X186913705Y-120422421D01*
X186913705Y-120422421D02*
X186951801Y-120498612D01*
X186951801Y-120498612D02*
X186951801Y-120612897D01*
X186951801Y-120612897D02*
X186913705Y-120689088D01*
X186913705Y-120689088D02*
X186875610Y-120727183D01*
X186875610Y-120727183D02*
X186799420Y-120765278D01*
X186799420Y-120765278D02*
X186494658Y-120765278D01*
X187447039Y-120346231D02*
X187523229Y-120346231D01*
X187523229Y-120346231D02*
X187599420Y-120384326D01*
X187599420Y-120384326D02*
X187637515Y-120422421D01*
X187637515Y-120422421D02*
X187675610Y-120498612D01*
X187675610Y-120498612D02*
X187713705Y-120650993D01*
X187713705Y-120650993D02*
X187713705Y-120841469D01*
X187713705Y-120841469D02*
X187675610Y-120993850D01*
X187675610Y-120993850D02*
X187637515Y-121070040D01*
X187637515Y-121070040D02*
X187599420Y-121108136D01*
X187599420Y-121108136D02*
X187523229Y-121146231D01*
X187523229Y-121146231D02*
X187447039Y-121146231D01*
X187447039Y-121146231D02*
X187370848Y-121108136D01*
X187370848Y-121108136D02*
X187332753Y-121070040D01*
X187332753Y-121070040D02*
X187294658Y-120993850D01*
X187294658Y-120993850D02*
X187256562Y-120841469D01*
X187256562Y-120841469D02*
X187256562Y-120650993D01*
X187256562Y-120650993D02*
X187294658Y-120498612D01*
X187294658Y-120498612D02*
X187332753Y-120422421D01*
X187332753Y-120422421D02*
X187370848Y-120384326D01*
X187370848Y-120384326D02*
X187447039Y-120346231D01*
X188475610Y-121146231D02*
X188018467Y-121146231D01*
X188247039Y-121146231D02*
X188247039Y-120346231D01*
X188247039Y-120346231D02*
X188170848Y-120460516D01*
X188170848Y-120460516D02*
X188094658Y-120536707D01*
X188094658Y-120536707D02*
X188018467Y-120574802D01*
X177313702Y-121146231D02*
X177047035Y-120765278D01*
X176856559Y-121146231D02*
X176856559Y-120346231D01*
X176856559Y-120346231D02*
X177161321Y-120346231D01*
X177161321Y-120346231D02*
X177237511Y-120384326D01*
X177237511Y-120384326D02*
X177275606Y-120422421D01*
X177275606Y-120422421D02*
X177313702Y-120498612D01*
X177313702Y-120498612D02*
X177313702Y-120612897D01*
X177313702Y-120612897D02*
X177275606Y-120689088D01*
X177275606Y-120689088D02*
X177237511Y-120727183D01*
X177237511Y-120727183D02*
X177161321Y-120765278D01*
X177161321Y-120765278D02*
X176856559Y-120765278D01*
X177618463Y-120917659D02*
X177999416Y-120917659D01*
X177542273Y-121146231D02*
X177808940Y-120346231D01*
X177808940Y-120346231D02*
X178075606Y-121146231D01*
X178266082Y-120346231D02*
X178456558Y-121146231D01*
X178456558Y-121146231D02*
X178608939Y-120574802D01*
X178608939Y-120574802D02*
X178761320Y-121146231D01*
X178761320Y-121146231D02*
X178951797Y-120346231D01*
X176799417Y-127966229D02*
X177066084Y-128766229D01*
X177066084Y-128766229D02*
X177332750Y-127966229D01*
X178056560Y-128690038D02*
X178018464Y-128728134D01*
X178018464Y-128728134D02*
X177904179Y-128766229D01*
X177904179Y-128766229D02*
X177827988Y-128766229D01*
X177827988Y-128766229D02*
X177713702Y-128728134D01*
X177713702Y-128728134D02*
X177637512Y-128651943D01*
X177637512Y-128651943D02*
X177599417Y-128575753D01*
X177599417Y-128575753D02*
X177561321Y-128423372D01*
X177561321Y-128423372D02*
X177561321Y-128309086D01*
X177561321Y-128309086D02*
X177599417Y-128156705D01*
X177599417Y-128156705D02*
X177637512Y-128080514D01*
X177637512Y-128080514D02*
X177713702Y-128004324D01*
X177713702Y-128004324D02*
X177827988Y-127966229D01*
X177827988Y-127966229D02*
X177904179Y-127966229D01*
X177904179Y-127966229D02*
X178018464Y-128004324D01*
X178018464Y-128004324D02*
X178056560Y-128042419D01*
X178856560Y-128690038D02*
X178818464Y-128728134D01*
X178818464Y-128728134D02*
X178704179Y-128766229D01*
X178704179Y-128766229D02*
X178627988Y-128766229D01*
X178627988Y-128766229D02*
X178513702Y-128728134D01*
X178513702Y-128728134D02*
X178437512Y-128651943D01*
X178437512Y-128651943D02*
X178399417Y-128575753D01*
X178399417Y-128575753D02*
X178361321Y-128423372D01*
X178361321Y-128423372D02*
X178361321Y-128309086D01*
X178361321Y-128309086D02*
X178399417Y-128156705D01*
X178399417Y-128156705D02*
X178437512Y-128080514D01*
X178437512Y-128080514D02*
X178513702Y-128004324D01*
X178513702Y-128004324D02*
X178627988Y-127966229D01*
X178627988Y-127966229D02*
X178704179Y-127966229D01*
X178704179Y-127966229D02*
X178818464Y-128004324D01*
X178818464Y-128004324D02*
X178856560Y-128042419D01*
X176894655Y-141466227D02*
X176894655Y-140666227D01*
X176894655Y-140666227D02*
X177199417Y-140666227D01*
X177199417Y-140666227D02*
X177275607Y-140704322D01*
X177275607Y-140704322D02*
X177313702Y-140742417D01*
X177313702Y-140742417D02*
X177351798Y-140818608D01*
X177351798Y-140818608D02*
X177351798Y-140932893D01*
X177351798Y-140932893D02*
X177313702Y-141009084D01*
X177313702Y-141009084D02*
X177275607Y-141047179D01*
X177275607Y-141047179D02*
X177199417Y-141085274D01*
X177199417Y-141085274D02*
X176894655Y-141085274D01*
X178113702Y-141466227D02*
X177656559Y-141466227D01*
X177885131Y-141466227D02*
X177885131Y-140666227D01*
X177885131Y-140666227D02*
X177808940Y-140780512D01*
X177808940Y-140780512D02*
X177732750Y-140856703D01*
X177732750Y-140856703D02*
X177656559Y-140894798D01*
X178837512Y-140666227D02*
X178456560Y-140666227D01*
X178456560Y-140666227D02*
X178418464Y-141047179D01*
X178418464Y-141047179D02*
X178456560Y-141009084D01*
X178456560Y-141009084D02*
X178532750Y-140970989D01*
X178532750Y-140970989D02*
X178723226Y-140970989D01*
X178723226Y-140970989D02*
X178799417Y-141009084D01*
X178799417Y-141009084D02*
X178837512Y-141047179D01*
X178837512Y-141047179D02*
X178875607Y-141123370D01*
X178875607Y-141123370D02*
X178875607Y-141313846D01*
X178875607Y-141313846D02*
X178837512Y-141390036D01*
X178837512Y-141390036D02*
X178799417Y-141428132D01*
X178799417Y-141428132D02*
X178723226Y-141466227D01*
X178723226Y-141466227D02*
X178532750Y-141466227D01*
X178532750Y-141466227D02*
X178456560Y-141428132D01*
X178456560Y-141428132D02*
X178418464Y-141390036D01*
%TO.C,B1*%
X159916091Y-138717155D02*
X159916091Y-141217149D01*
X161416094Y-137217152D02*
X159916091Y-138717155D01*
X161416094Y-142717152D02*
X159916091Y-141217149D01*
X163916088Y-137217152D02*
X161416094Y-137217152D01*
X163916088Y-137217152D02*
X165416091Y-138717155D01*
X163916088Y-142717152D02*
X161416094Y-142717152D01*
X163916088Y-142717152D02*
X165416091Y-141217149D01*
X165416091Y-138717155D02*
X165416091Y-141217149D01*
D11*
%TO.C,D32*%
X266945694Y-205252538D02*
X267252111Y-204995423D01*
X267252111Y-204995423D02*
X266898579Y-204574098D01*
X267252111Y-204995423D02*
X267454625Y-204303331D01*
X267252111Y-204995423D02*
X267605645Y-205416746D01*
X267454625Y-204303331D02*
X267968853Y-204916168D01*
X267711740Y-204609749D02*
X268094760Y-204288356D01*
X267968853Y-204916168D02*
X267252111Y-204995423D01*
%TO.C,D4*%
X54682479Y-166093729D02*
X54988896Y-166350844D01*
X54988896Y-166350844D02*
X54635364Y-166772169D01*
X54988896Y-166350844D02*
X55342430Y-165929521D01*
X54988896Y-166350844D02*
X55705638Y-166430099D01*
X55191410Y-167042936D02*
X54988896Y-166350844D01*
X55448527Y-166736516D02*
X55831545Y-167057911D01*
X55705638Y-166430099D02*
X55191410Y-167042936D01*
%TO.C,D25*%
X285010419Y-137871619D02*
X285316836Y-137614504D01*
X285316836Y-137614504D02*
X284963304Y-137193179D01*
X285316836Y-137614504D02*
X285519350Y-136922412D01*
X285316836Y-137614504D02*
X285670370Y-138035827D01*
X285519350Y-136922412D02*
X286033578Y-137535249D01*
X285776465Y-137228830D02*
X286159485Y-136907437D01*
X286033578Y-137535249D02*
X285316836Y-137614504D01*
%TO.C,D37*%
X221771415Y-243383908D02*
X222147292Y-243247098D01*
X222147292Y-243247098D02*
X221959182Y-242730271D01*
X222147292Y-243247098D02*
X222335401Y-243763929D01*
X222147292Y-243247098D02*
X222574299Y-242666012D01*
X222574299Y-242666012D02*
X222847915Y-243417765D01*
X222711109Y-243041888D02*
X223180953Y-242870878D01*
X222847915Y-243417765D02*
X222147292Y-243247098D01*
%TO.C,D2*%
X43762861Y-149470681D02*
X44069278Y-149727796D01*
X44069278Y-149727796D02*
X43715746Y-150149121D01*
X44069278Y-149727796D02*
X44422812Y-149306473D01*
X44069278Y-149727796D02*
X44786020Y-149807051D01*
X44271792Y-150419888D02*
X44069278Y-149727796D01*
X44528909Y-150113468D02*
X44911927Y-150434863D01*
X44786020Y-149807051D02*
X44271792Y-150419888D01*
%TO.C,D33*%
X254700596Y-190659395D02*
X255007013Y-190402280D01*
X255007013Y-190402280D02*
X254653481Y-189980955D01*
X255007013Y-190402280D02*
X255209527Y-189710188D01*
X255007013Y-190402280D02*
X255360547Y-190823603D01*
X255209527Y-189710188D02*
X255723755Y-190323025D01*
X255466642Y-190016606D02*
X255849662Y-189695213D01*
X255723755Y-190323025D02*
X255007013Y-190402280D01*
%TO.C,D15*%
X121727614Y-175102062D02*
X122034031Y-175359177D01*
X122034031Y-175359177D02*
X121680499Y-175780502D01*
X122034031Y-175359177D02*
X122387565Y-174937854D01*
X122034031Y-175359177D02*
X122750773Y-175438432D01*
X122236545Y-176051269D02*
X122034031Y-175359177D01*
X122493662Y-175744849D02*
X122876680Y-176066244D01*
X122750773Y-175438432D02*
X122236545Y-176051269D01*
%TO.C,D13*%
X97237405Y-204288357D02*
X97543822Y-204545472D01*
X97543822Y-204545472D02*
X97190290Y-204966797D01*
X97543822Y-204545472D02*
X97897356Y-204124149D01*
X97543822Y-204545472D02*
X98260564Y-204624727D01*
X97746336Y-205237564D02*
X97543822Y-204545472D01*
X98003453Y-204931144D02*
X98386471Y-205252539D01*
X98260564Y-204624727D02*
X97746336Y-205237564D01*
%TO.C,D27*%
X277764338Y-158872608D02*
X278070755Y-158615493D01*
X278070755Y-158615493D02*
X277717223Y-158194168D01*
X278070755Y-158615493D02*
X278273269Y-157923401D01*
X278070755Y-158615493D02*
X278424289Y-159036816D01*
X278273269Y-157923401D02*
X278787497Y-158536238D01*
X278530384Y-158229819D02*
X278913404Y-157908426D01*
X278787497Y-158536238D02*
X278070755Y-158615493D01*
%TO.C,D34*%
X242455491Y-176066240D02*
X242761908Y-175809125D01*
X242761908Y-175809125D02*
X242408376Y-175387800D01*
X242761908Y-175809125D02*
X242964422Y-175117033D01*
X242761908Y-175809125D02*
X243115442Y-176230448D01*
X242964422Y-175117033D02*
X243478650Y-175729870D01*
X243221537Y-175423451D02*
X243604557Y-175102058D01*
X243478650Y-175729870D02*
X242761908Y-175809125D01*
%TO.C,D16*%
X74509238Y-214582965D02*
X74738665Y-214910626D01*
X74738665Y-214910626D02*
X74288136Y-215226093D01*
X74738665Y-214910626D02*
X75189201Y-214595161D01*
X74738665Y-214910626D02*
X75410474Y-215172688D01*
X74755154Y-215631549D02*
X74738665Y-214910626D01*
X75082815Y-215402119D02*
X75369602Y-215811693D01*
X75410474Y-215172688D02*
X74755154Y-215631549D01*
%TO.C,D35*%
X289962569Y-215811700D02*
X290191997Y-215484039D01*
X290191997Y-215484039D02*
X289741467Y-215168572D01*
X290191997Y-215484039D02*
X290208485Y-214763115D01*
X290191997Y-215484039D02*
X290642533Y-215799505D01*
X290208485Y-214763115D02*
X290863807Y-215221978D01*
X290536145Y-214992546D02*
X290822933Y-214582972D01*
X290863807Y-215221978D02*
X290191997Y-215484039D01*
%TO.C,D8*%
X86418772Y-157908429D02*
X86725189Y-158165544D01*
X86725189Y-158165544D02*
X86371657Y-158586869D01*
X86725189Y-158165544D02*
X87078723Y-157744221D01*
X86725189Y-158165544D02*
X87441931Y-158244799D01*
X86927703Y-158857636D02*
X86725189Y-158165544D01*
X87184820Y-158551216D02*
X87567838Y-158872611D01*
X87441931Y-158244799D02*
X86927703Y-158857636D01*
%TO.C,D5*%
X66927581Y-151500583D02*
X67233998Y-151757698D01*
X67233998Y-151757698D02*
X66880466Y-152179023D01*
X67233998Y-151757698D02*
X67587532Y-151336375D01*
X67233998Y-151757698D02*
X67950740Y-151836953D01*
X67436512Y-152449790D02*
X67233998Y-151757698D01*
X67693629Y-152143370D02*
X68076647Y-152464765D01*
X67950740Y-151836953D02*
X67436512Y-152449790D01*
%TO.C,D29*%
X279089823Y-190088803D02*
X279396240Y-189831688D01*
X279396240Y-189831688D02*
X279042708Y-189410363D01*
X279396240Y-189831688D02*
X279598754Y-189139596D01*
X279396240Y-189831688D02*
X279749774Y-190253011D01*
X279598754Y-189139596D02*
X280112982Y-189752433D01*
X279855869Y-189446014D02*
X280238889Y-189124621D01*
X280112982Y-189752433D02*
X279396240Y-189831688D01*
%TO.C,D21*%
X320420242Y-150434863D02*
X320726659Y-150177748D01*
X320726659Y-150177748D02*
X320373127Y-149756423D01*
X320726659Y-150177748D02*
X320929173Y-149485656D01*
X320726659Y-150177748D02*
X321080193Y-150599071D01*
X320929173Y-149485656D02*
X321443401Y-150098493D01*
X321186288Y-149792074D02*
X321569308Y-149470681D01*
X321443401Y-150098493D02*
X320726659Y-150177748D01*
%TO.C,D19*%
X167435280Y-249882124D02*
X167829203Y-249951584D01*
X167829203Y-249951584D02*
X167733696Y-250493226D01*
X167829203Y-249951584D02*
X167924710Y-249409941D01*
X167829203Y-249951584D02*
X168489548Y-249661851D01*
X168350629Y-250449695D02*
X167829203Y-249951584D01*
X168420089Y-250055771D02*
X168912492Y-250142596D01*
X168489548Y-249661851D02*
X168350629Y-250449695D01*
%TO.C,D11*%
X97338381Y-174531478D02*
X97644798Y-174788593D01*
X97644798Y-174788593D02*
X97291266Y-175209918D01*
X97644798Y-174788593D02*
X97998332Y-174367270D01*
X97644798Y-174788593D02*
X98361540Y-174867848D01*
X97847312Y-175480685D02*
X97644798Y-174788593D01*
X98104429Y-175174265D02*
X98487447Y-175495660D01*
X98361540Y-174867848D02*
X97847312Y-175480685D01*
%TO.C,D20*%
X332665349Y-165028011D02*
X332971766Y-164770896D01*
X332971766Y-164770896D02*
X332618234Y-164349571D01*
X332971766Y-164770896D02*
X333174280Y-164078804D01*
X332971766Y-164770896D02*
X333325300Y-165192219D01*
X333174280Y-164078804D02*
X333688508Y-164691641D01*
X333431395Y-164385222D02*
X333814415Y-164063829D01*
X333688508Y-164691641D02*
X332971766Y-164770896D01*
%TO.C,D17*%
X84461671Y-234458932D02*
X84632338Y-233758309D01*
X84495528Y-233382432D02*
X84632338Y-233758309D01*
X84632338Y-233758309D02*
X84115507Y-233946418D01*
X84632338Y-233758309D02*
X85149165Y-233570199D01*
X84632338Y-233758309D02*
X85213424Y-234185316D01*
X84837548Y-234322126D02*
X85008558Y-234791970D01*
X85213424Y-234185316D02*
X84461671Y-234458932D01*
%TO.C,D23*%
X309500631Y-167057913D02*
X309807048Y-166800798D01*
X309807048Y-166800798D02*
X309453516Y-166379473D01*
X309807048Y-166800798D02*
X310009562Y-166108706D01*
X309807048Y-166800798D02*
X310160582Y-167222121D01*
X310009562Y-166108706D02*
X310523790Y-166721543D01*
X310266677Y-166415124D02*
X310649697Y-166093731D01*
X310523790Y-166721543D02*
X309807048Y-166800798D01*
%TO.C,D28*%
X265519236Y-144279459D02*
X265825653Y-144022344D01*
X265825653Y-144022344D02*
X265472121Y-143601019D01*
X265825653Y-144022344D02*
X266028167Y-143330252D01*
X265825653Y-144022344D02*
X266179187Y-144443667D01*
X266028167Y-143330252D02*
X266542395Y-143943089D01*
X266285282Y-143636670D02*
X266668302Y-143315277D01*
X266542395Y-143943089D02*
X265825653Y-144022344D01*
%TO.C,D7*%
X74173661Y-172501576D02*
X74480078Y-172758691D01*
X74480078Y-172758691D02*
X74126546Y-173180016D01*
X74480078Y-172758691D02*
X74833612Y-172337368D01*
X74480078Y-172758691D02*
X75196820Y-172837946D01*
X74682592Y-173450783D02*
X74480078Y-172758691D01*
X74939709Y-173144363D02*
X75322727Y-173465758D01*
X75196820Y-172837946D02*
X74682592Y-173450783D01*
%TO.C,D9*%
X98663875Y-143315281D02*
X98970292Y-143572396D01*
X98970292Y-143572396D02*
X98616760Y-143993721D01*
X98970292Y-143572396D02*
X99323826Y-143151073D01*
X98970292Y-143572396D02*
X99687034Y-143651651D01*
X99172806Y-144264488D02*
X98970292Y-143572396D01*
X99429923Y-143958068D02*
X99812941Y-144279463D01*
X99687034Y-143651651D02*
X99172806Y-144264488D01*
%TO.C,D26*%
X290009438Y-173465758D02*
X290315855Y-173208643D01*
X290315855Y-173208643D02*
X289962323Y-172787318D01*
X290315855Y-173208643D02*
X290518369Y-172516551D01*
X290315855Y-173208643D02*
X290669389Y-173629966D01*
X290518369Y-172516551D02*
X291032597Y-173129388D01*
X290775484Y-172822969D02*
X291158504Y-172501576D01*
X291032597Y-173129388D02*
X290315855Y-173208643D01*
%TO.C,D38*%
X196419673Y-250142596D02*
X196813596Y-250073136D01*
X196813596Y-250073136D02*
X196718088Y-249531494D01*
X196813596Y-250073136D02*
X196909102Y-250614779D01*
X196813596Y-250073136D02*
X197335022Y-249575026D01*
X197335022Y-249575026D02*
X197473941Y-250362870D01*
X197404482Y-249968948D02*
X197896885Y-249882124D01*
X197473941Y-250362870D02*
X196813596Y-250073136D01*
%TO.C,D3*%
X56007960Y-134877534D02*
X56314377Y-135134649D01*
X56314377Y-135134649D02*
X55960845Y-135555974D01*
X56314377Y-135134649D02*
X56667911Y-134713326D01*
X56314377Y-135134649D02*
X57031119Y-135213904D01*
X56516891Y-135826741D02*
X56314377Y-135134649D01*
X56774008Y-135520321D02*
X57157026Y-135841716D01*
X57031119Y-135213904D02*
X56516891Y-135826741D01*
%TO.C,D22*%
X308175135Y-135841719D02*
X308481552Y-135584604D01*
X308481552Y-135584604D02*
X308128020Y-135163279D01*
X308481552Y-135584604D02*
X308684066Y-134892512D01*
X308481552Y-135584604D02*
X308835086Y-136005927D01*
X308684066Y-134892512D02*
X309198294Y-135505349D01*
X308941181Y-135198930D02*
X309324201Y-134877537D01*
X309198294Y-135505349D02*
X308481552Y-135584604D01*
%TO.C,D10*%
X85093284Y-189124627D02*
X85399701Y-189381742D01*
X85399701Y-189381742D02*
X85046169Y-189803067D01*
X85399701Y-189381742D02*
X85753235Y-188960419D01*
X85399701Y-189381742D02*
X86116443Y-189460997D01*
X85602215Y-190073834D02*
X85399701Y-189381742D01*
X85859332Y-189767414D02*
X86242350Y-190088809D01*
X86116443Y-189460997D02*
X85602215Y-190073834D01*
%TO.C,D30*%
X266844721Y-175495658D02*
X267151138Y-175238543D01*
X267151138Y-175238543D02*
X266797606Y-174817218D01*
X267151138Y-175238543D02*
X267353652Y-174546451D01*
X267151138Y-175238543D02*
X267504672Y-175659866D01*
X267353652Y-174546451D02*
X267867880Y-175159288D01*
X267610767Y-174852869D02*
X267993787Y-174531476D01*
X267867880Y-175159288D02*
X267151138Y-175238543D01*
%TO.C,D24*%
X297255528Y-152464765D02*
X297561945Y-152207650D01*
X297561945Y-152207650D02*
X297208413Y-151786325D01*
X297561945Y-152207650D02*
X297764459Y-151515558D01*
X297561945Y-152207650D02*
X297915479Y-152628973D01*
X297764459Y-151515558D02*
X298278687Y-152128395D01*
X298021574Y-151821976D02*
X298404594Y-151500583D01*
X298278687Y-152128395D02*
X297561945Y-152207650D01*
%TO.C,D1*%
X31517760Y-164063827D02*
X31824177Y-164320942D01*
X31824177Y-164320942D02*
X31470645Y-164742267D01*
X31824177Y-164320942D02*
X32177711Y-163899619D01*
X31824177Y-164320942D02*
X32540919Y-164400197D01*
X32026691Y-165013034D02*
X31824177Y-164320942D01*
X32283808Y-164706614D02*
X32666826Y-165028009D01*
X32540919Y-164400197D02*
X32026691Y-165013034D01*
%TO.C,D18*%
X142151215Y-242870875D02*
X142527092Y-243007685D01*
X142527092Y-243007685D02*
X142338982Y-243524512D01*
X142527092Y-243007685D02*
X142715202Y-242490854D01*
X142527092Y-243007685D02*
X143227715Y-242837018D01*
X142954099Y-243588772D02*
X142527092Y-243007685D01*
X143090909Y-243212893D02*
X143560753Y-243383905D01*
X143227715Y-242837018D02*
X142954099Y-243588772D01*
%TO.C,D14*%
X109482509Y-189695212D02*
X109788926Y-189952327D01*
X109788926Y-189952327D02*
X109435394Y-190373652D01*
X109788926Y-189952327D02*
X110142460Y-189531004D01*
X109788926Y-189952327D02*
X110505668Y-190031582D01*
X109991440Y-190644419D02*
X109788926Y-189952327D01*
X110248557Y-190337999D02*
X110631575Y-190659394D01*
X110505668Y-190031582D02*
X109991440Y-190644419D01*
%TO.C,D36*%
X280289754Y-233715476D02*
X281041508Y-233989092D01*
X280323611Y-234791976D02*
X280460421Y-234416099D01*
X280460421Y-234416099D02*
X279943590Y-234227989D01*
X280460421Y-234416099D02*
X280289754Y-233715476D01*
X280460421Y-234416099D02*
X280977248Y-234604209D01*
X280665629Y-233852282D02*
X280836641Y-233382438D01*
X281041508Y-233989092D02*
X280460421Y-234416099D01*
%TO.C,D6*%
X79172689Y-136907432D02*
X79479106Y-137164547D01*
X79479106Y-137164547D02*
X79125574Y-137585872D01*
X79479106Y-137164547D02*
X79832640Y-136743224D01*
X79479106Y-137164547D02*
X80195848Y-137243802D01*
X79681620Y-137856639D02*
X79479106Y-137164547D01*
X79938737Y-137550219D02*
X80321755Y-137871614D01*
X80195848Y-137243802D02*
X79681620Y-137856639D01*
%TO.C,D31*%
X254599612Y-160902512D02*
X254906029Y-160645397D01*
X254906029Y-160645397D02*
X254552497Y-160224072D01*
X254906029Y-160645397D02*
X255108543Y-159953305D01*
X254906029Y-160645397D02*
X255259563Y-161066720D01*
X255108543Y-159953305D02*
X255622771Y-160566142D01*
X255365658Y-160259723D02*
X255748678Y-159938330D01*
X255622771Y-160566142D02*
X254906029Y-160645397D01*
D10*
%TO.C,MCU1*%
X173776085Y-116973933D02*
X173776087Y-149993934D01*
X173776087Y-149993934D02*
X191556084Y-149993934D01*
X176316085Y-119513931D02*
X173776086Y-119513932D01*
X176316085Y-119513931D02*
X176316086Y-122053934D01*
X176316086Y-122053934D02*
X173776084Y-122053931D01*
X191556084Y-149993934D02*
X191556085Y-116973933D01*
X191556085Y-116973933D02*
X173776085Y-116973933D01*
D11*
%TO.C,D12*%
X109583484Y-159938330D02*
X109889901Y-160195445D01*
X109889901Y-160195445D02*
X109536369Y-160616770D01*
X109889901Y-160195445D02*
X110243435Y-159774122D01*
X109889901Y-160195445D02*
X110606643Y-160274700D01*
X110092415Y-160887537D02*
X109889901Y-160195445D01*
X110349532Y-160581117D02*
X110732550Y-160902512D01*
X110606643Y-160274700D02*
X110092415Y-160887537D01*
%TD*%
D12*
%TO.C,MCU1*%
X175046085Y-120783935D03*
D13*
X175046086Y-123323934D03*
X175046085Y-125863931D03*
X175046086Y-128403934D03*
X175046085Y-130943932D03*
X175046085Y-133483933D03*
X175046085Y-136023933D03*
X175046086Y-138563934D03*
X175046088Y-141103933D03*
X175046086Y-143643934D03*
X175046086Y-146183933D03*
X175046085Y-148723931D03*
X190286085Y-120783935D03*
X190286084Y-123323933D03*
X190286084Y-125863932D03*
X190286082Y-128403933D03*
X190286084Y-130943932D03*
X190286085Y-133483933D03*
X190286085Y-136023933D03*
X190286085Y-138563934D03*
X190286084Y-141103932D03*
X190286085Y-143643935D03*
X190286084Y-146183932D03*
X190286085Y-148723931D03*
%TD*%
M02*
