%TF.GenerationSoftware,KiCad,Pcbnew,8.0.1*%
%TF.CreationDate,2024-05-19T15:34:10+09:00*%
%TF.ProjectId,pcb_plate,7063625f-706c-4617-9465-2e6b69636164,v1.0.0*%
%TF.SameCoordinates,Original*%
%TF.FileFunction,Copper,L2,Bot*%
%TF.FilePolarity,Positive*%
%FSLAX46Y46*%
G04 Gerber Fmt 4.6, Leading zero omitted, Abs format (unit mm)*
G04 Created by KiCad (PCBNEW 8.0.1) date 2024-05-19 15:34:10*
%MOMM*%
%LPD*%
G01*
G04 APERTURE LIST*
G04 Aperture macros list*
%AMRotRect*
0 Rectangle, with rotation*
0 The origin of the aperture is its center*
0 $1 length*
0 $2 width*
0 $3 Rotation angle, in degrees counterclockwise*
0 Add horizontal line*
21,1,$1,$2,0,0,$3*%
G04 Aperture macros list end*
%TA.AperFunction,ComponentPad*%
%ADD10RotRect,1.778000X1.778000X40.000000*%
%TD*%
%TA.AperFunction,SMDPad,CuDef*%
%ADD11RotRect,0.900000X1.200000X40.000000*%
%TD*%
%TA.AperFunction,ComponentPad*%
%ADD12C,1.905000*%
%TD*%
%TA.AperFunction,ComponentPad*%
%ADD13RotRect,1.778000X1.778000X320.000000*%
%TD*%
%TA.AperFunction,SMDPad,CuDef*%
%ADD14RotRect,0.900000X1.200000X320.000000*%
%TD*%
%TA.AperFunction,ComponentPad*%
%ADD15C,2.286000*%
%TD*%
%TA.AperFunction,ComponentPad*%
%ADD16RotRect,1.778000X1.778000X20.000000*%
%TD*%
%TA.AperFunction,SMDPad,CuDef*%
%ADD17RotRect,0.900000X1.200000X20.000000*%
%TD*%
%TA.AperFunction,ComponentPad*%
%ADD18RotRect,1.778000X1.778000X305.000000*%
%TD*%
%TA.AperFunction,SMDPad,CuDef*%
%ADD19RotRect,0.900000X1.200000X305.000000*%
%TD*%
%TA.AperFunction,ComponentPad*%
%ADD20RotRect,1.778000X1.778000X55.000000*%
%TD*%
%TA.AperFunction,SMDPad,CuDef*%
%ADD21RotRect,0.900000X1.200000X55.000000*%
%TD*%
%TA.AperFunction,ComponentPad*%
%ADD22RotRect,1.778000X1.778000X350.000000*%
%TD*%
%TA.AperFunction,SMDPad,CuDef*%
%ADD23RotRect,0.900000X1.200000X350.000000*%
%TD*%
%TA.AperFunction,ComponentPad*%
%ADD24RotRect,1.778000X1.778000X290.000000*%
%TD*%
%TA.AperFunction,SMDPad,CuDef*%
%ADD25RotRect,0.900000X1.200000X290.000000*%
%TD*%
%TA.AperFunction,ComponentPad*%
%ADD26R,1.700000X1.700000*%
%TD*%
%TA.AperFunction,ComponentPad*%
%ADD27O,1.700000X1.700000*%
%TD*%
%TA.AperFunction,ComponentPad*%
%ADD28RotRect,1.778000X1.778000X10.000000*%
%TD*%
%TA.AperFunction,SMDPad,CuDef*%
%ADD29RotRect,0.900000X1.200000X10.000000*%
%TD*%
%TA.AperFunction,ComponentPad*%
%ADD30RotRect,1.778000X1.778000X340.000000*%
%TD*%
%TA.AperFunction,SMDPad,CuDef*%
%ADD31RotRect,0.900000X1.200000X340.000000*%
%TD*%
%TA.AperFunction,ComponentPad*%
%ADD32RotRect,1.778000X1.778000X70.000000*%
%TD*%
%TA.AperFunction,SMDPad,CuDef*%
%ADD33RotRect,0.900000X1.200000X70.000000*%
%TD*%
%TA.AperFunction,ComponentPad*%
%ADD34R,1.752600X1.752600*%
%TD*%
%TA.AperFunction,ComponentPad*%
%ADD35C,1.752600*%
%TD*%
%TA.AperFunction,ViaPad*%
%ADD36C,0.800000*%
%TD*%
%TA.AperFunction,Conductor*%
%ADD37C,0.250000*%
%TD*%
G04 APERTURE END LIST*
D10*
%TO.P,D32,1*%
%TO.N,P8*%
X264601598Y-207219468D03*
D11*
X266256255Y-205831048D03*
%TO.P,D32,2*%
%TO.N,mirror_inner_bottom*%
X268784199Y-203709846D03*
D12*
X270438856Y-202321426D03*
%TD*%
D13*
%TO.P,D4,1*%
%TO.N,P16*%
X52338383Y-164126799D03*
D14*
X53993038Y-165515218D03*
%TO.P,D4,2*%
%TO.N,ring_bottom*%
X56520986Y-167636422D03*
D12*
X58175641Y-169024841D03*
%TD*%
D15*
%TO.P,S24,1*%
%TO.N,P5*%
X293296511Y-142628264D03*
%TO.P,S24,2*%
%TO.N,mirror_ring_home*%
X290064811Y-148655718D03*
%TD*%
D10*
%TO.P,D25,1*%
%TO.N,P6*%
X282666323Y-139838549D03*
D11*
X284320980Y-138450129D03*
%TO.P,D25,2*%
%TO.N,mirror_ring_top*%
X286848924Y-136328927D03*
D12*
X288503581Y-134940507D03*
%TD*%
D15*
%TO.P,S17,1*%
%TO.N,P18*%
X95092881Y-233026463D03*
%TO.P,S17,2*%
%TO.N,space_cluster*%
X90534233Y-227928147D03*
%TD*%
D16*
%TO.P,D37,1*%
%TO.N,P9*%
X218895956Y-244430490D03*
D17*
X220925692Y-243691725D03*
%TO.P,D37,2*%
%TO.N,mirror_one_one*%
X224026676Y-242563061D03*
D12*
X226056412Y-241824296D03*
%TD*%
D13*
%TO.P,D2,1*%
%TO.N,P14*%
X41418765Y-147503751D03*
D14*
X43073420Y-148892170D03*
%TO.P,D2,2*%
%TO.N,pinky_home*%
X45601368Y-151013374D03*
D12*
X47256023Y-152401793D03*
%TD*%
D15*
%TO.P,S16,1*%
%TO.N,P5*%
X84653356Y-211496325D03*
%TO.P,S16,2*%
%TO.N,layer_cluster*%
X78930499Y-207751594D03*
%TD*%
D10*
%TO.P,D33,1*%
%TO.N,P7*%
X252356500Y-192626325D03*
D11*
X254011157Y-191237905D03*
%TO.P,D33,2*%
%TO.N,mirror_inner_home*%
X256539101Y-189116703D03*
D12*
X258193758Y-187728283D03*
%TD*%
D15*
%TO.P,S32,1*%
%TO.N,P20*%
X262986679Y-195416036D03*
%TO.P,S32,2*%
%TO.N,mirror_inner_bottom*%
X259754979Y-201443490D03*
%TD*%
%TO.P,S10,1*%
%TO.N,P19*%
X94092866Y-183517666D03*
%TO.P,S10,2*%
%TO.N,index_bottom*%
X87595803Y-181381717D03*
%TD*%
D13*
%TO.P,D15,1*%
%TO.N,P15*%
X119383518Y-173135132D03*
D14*
X121038173Y-174523551D03*
%TO.P,D15,2*%
%TO.N,inner_top*%
X123566121Y-176644755D03*
D12*
X125220776Y-178033174D03*
%TD*%
D15*
%TO.P,S29,1*%
%TO.N,P19*%
X275130807Y-180252305D03*
%TO.P,S29,2*%
%TO.N,mirror_index_bottom*%
X271899107Y-186279759D03*
%TD*%
D13*
%TO.P,D13,1*%
%TO.N,P16*%
X94893309Y-202321427D03*
D14*
X96547964Y-203709846D03*
%TO.P,D13,2*%
%TO.N,inner_bottom*%
X99075912Y-205831050D03*
D12*
X100730567Y-207219469D03*
%TD*%
D15*
%TO.P,S37,1*%
%TO.N,P19*%
X221415445Y-232786560D03*
%TO.P,S37,2*%
%TO.N,mirror_one_one*%
X216317129Y-237345208D03*
%TD*%
D10*
%TO.P,D27,1*%
%TO.N,P7*%
X275420242Y-160839538D03*
D11*
X277074899Y-159451118D03*
%TO.P,D27,2*%
%TO.N,mirror_middle_home*%
X279602843Y-157329916D03*
D12*
X281257500Y-155941496D03*
%TD*%
D15*
%TO.P,S18,1*%
%TO.N,P19*%
X148690365Y-234524026D03*
%TO.P,S18,2*%
%TO.N,one_one*%
X141854586Y-234739020D03*
%TD*%
D10*
%TO.P,D34,1*%
%TO.N,P6*%
X240111395Y-178033170D03*
D11*
X241766052Y-176644750D03*
%TO.P,D34,2*%
%TO.N,mirror_inner_top*%
X244293996Y-174523548D03*
D12*
X245948653Y-173135128D03*
%TD*%
D15*
%TO.P,S38,1*%
%TO.N,P20*%
X197909323Y-239644426D03*
%TO.P,S38,2*%
%TO.N,mirror_two_one*%
X192096860Y-243248506D03*
%TD*%
%TO.P,S26,1*%
%TO.N,P18*%
X286050429Y-163629255D03*
%TO.P,S26,2*%
%TO.N,mirror_middle_bottom*%
X282818729Y-169656709D03*
%TD*%
D18*
%TO.P,D16,1*%
%TO.N,P10*%
X72754094Y-212076360D03*
D19*
X73993021Y-213845730D03*
%TO.P,D16,2*%
%TO.N,layer_cluster*%
X75885819Y-216548928D03*
D12*
X77124746Y-218318298D03*
%TD*%
D15*
%TO.P,S8,1*%
%TO.N,P18*%
X95418356Y-152301474D03*
%TO.P,S8,2*%
%TO.N,middle_home*%
X88921293Y-150165525D03*
%TD*%
D20*
%TO.P,D35,1*%
%TO.N,P9*%
X288207425Y-218318305D03*
D21*
X289446352Y-216548938D03*
%TO.P,D35,2*%
%TO.N,mirror_layer_cluster*%
X291339150Y-213845734D03*
D12*
X292578077Y-212076367D03*
%TD*%
D15*
%TO.P,S31,1*%
%TO.N,P19*%
X250640603Y-151066016D03*
%TO.P,S31,2*%
%TO.N,mirror_index_top*%
X247408903Y-157093470D03*
%TD*%
%TO.P,S36,1*%
%TO.N,P18*%
X271976753Y-228252821D03*
%TO.P,S36,2*%
%TO.N,mirror_space_cluster*%
X272191747Y-235088600D03*
%TD*%
%TO.P,S5,1*%
%TO.N,P5*%
X75927161Y-145893622D03*
%TO.P,S5,2*%
%TO.N,ring_home*%
X69430098Y-143757673D03*
%TD*%
%TO.P,S12,1*%
%TO.N,P19*%
X118583075Y-154331376D03*
%TO.P,S12,2*%
%TO.N,index_top*%
X112086012Y-152195427D03*
%TD*%
D13*
%TO.P,D8,1*%
%TO.N,P14*%
X84074676Y-155941499D03*
D14*
X85729331Y-157329918D03*
%TO.P,D8,2*%
%TO.N,middle_home*%
X88257279Y-159451122D03*
D12*
X89911934Y-160839541D03*
%TD*%
D15*
%TO.P,S35,1*%
%TO.N,P5*%
X283592583Y-207335033D03*
%TO.P,S35,2*%
%TO.N,mirror_layer_cluster*%
X282031020Y-213993529D03*
%TD*%
D13*
%TO.P,D5,1*%
%TO.N,P14*%
X64583485Y-149533653D03*
D14*
X66238140Y-150922072D03*
%TO.P,D5,2*%
%TO.N,ring_home*%
X68766088Y-153043276D03*
D12*
X70420743Y-154431695D03*
%TD*%
D15*
%TO.P,S21,1*%
%TO.N,P4*%
X316461229Y-140598362D03*
%TO.P,S21,2*%
%TO.N,mirror_pinky_home*%
X313229529Y-146625816D03*
%TD*%
D10*
%TO.P,D29,1*%
%TO.N,P8*%
X276745727Y-192055733D03*
D11*
X278400384Y-190667313D03*
%TO.P,D29,2*%
%TO.N,mirror_index_bottom*%
X280928328Y-188546111D03*
D12*
X282582985Y-187157691D03*
%TD*%
D10*
%TO.P,D21,1*%
%TO.N,P7*%
X318076146Y-152401793D03*
D11*
X319730803Y-151013373D03*
%TO.P,D21,2*%
%TO.N,mirror_pinky_home*%
X322258747Y-148892171D03*
D12*
X323913404Y-147503751D03*
%TD*%
D15*
%TO.P,S20,1*%
%TO.N,P4*%
X328706330Y-155191513D03*
%TO.P,S20,2*%
%TO.N,mirror_pinky_bottom*%
X325474630Y-161218967D03*
%TD*%
%TO.P,S4,1*%
%TO.N,P5*%
X63682060Y-160486769D03*
%TO.P,S4,2*%
%TO.N,ring_bottom*%
X57184997Y-158350820D03*
%TD*%
D22*
%TO.P,D19,1*%
%TO.N,P10*%
X164421769Y-249350759D03*
D23*
X166548953Y-249725842D03*
%TO.P,D19,2*%
%TO.N,two_one*%
X169798819Y-250298878D03*
D12*
X171926003Y-250673961D03*
%TD*%
D15*
%TO.P,S25,1*%
%TO.N,P5*%
X281051404Y-128035122D03*
%TO.P,S25,2*%
%TO.N,mirror_ring_top*%
X277819704Y-134062576D03*
%TD*%
D13*
%TO.P,D11,1*%
%TO.N,P14*%
X94994285Y-172564548D03*
D14*
X96648940Y-173952967D03*
%TO.P,D11,2*%
%TO.N,index_home*%
X99176888Y-176074171D03*
D12*
X100831543Y-177462590D03*
%TD*%
D10*
%TO.P,D20,1*%
%TO.N,P8*%
X330321253Y-166994941D03*
D11*
X331975910Y-165606521D03*
%TO.P,D20,2*%
%TO.N,mirror_pinky_bottom*%
X334503854Y-163485319D03*
D12*
X336158511Y-162096899D03*
%TD*%
D24*
%TO.P,D17,1*%
%TO.N,P10*%
X83448946Y-230506973D03*
D25*
X84187711Y-232536709D03*
%TO.P,D17,2*%
%TO.N,space_cluster*%
X85316375Y-235637693D03*
D12*
X86055140Y-237667429D03*
%TD*%
D10*
%TO.P,D23,1*%
%TO.N,P8*%
X307156535Y-169024843D03*
D11*
X308811192Y-167636423D03*
%TO.P,D23,2*%
%TO.N,mirror_ring_bottom*%
X311339136Y-165515221D03*
D12*
X312993793Y-164126801D03*
%TD*%
D10*
%TO.P,D28,1*%
%TO.N,P6*%
X263175140Y-146246389D03*
D11*
X264829797Y-144857969D03*
%TO.P,D28,2*%
%TO.N,mirror_middle_top*%
X267357741Y-142736767D03*
D12*
X269012398Y-141348347D03*
%TD*%
D15*
%TO.P,S30,1*%
%TO.N,P19*%
X262885704Y-165659156D03*
%TO.P,S30,2*%
%TO.N,mirror_index_home*%
X259654004Y-171686610D03*
%TD*%
D13*
%TO.P,D7,1*%
%TO.N,P16*%
X71829565Y-170534646D03*
D14*
X73484220Y-171923065D03*
%TO.P,D7,2*%
%TO.N,middle_bottom*%
X76012168Y-174044269D03*
D12*
X77666823Y-175432688D03*
%TD*%
D13*
%TO.P,D9,1*%
%TO.N,P15*%
X96319779Y-141348351D03*
D14*
X97974434Y-142736770D03*
%TO.P,D9,2*%
%TO.N,middle_top*%
X100502382Y-144857974D03*
D12*
X102157037Y-146246393D03*
%TD*%
D15*
%TO.P,S1,1*%
%TO.N,P4*%
X40517342Y-158456872D03*
%TO.P,S1,2*%
%TO.N,pinky_bottom*%
X34020279Y-156320923D03*
%TD*%
D10*
%TO.P,D26,1*%
%TO.N,P8*%
X287665342Y-175432688D03*
D11*
X289319999Y-174044268D03*
%TO.P,D26,2*%
%TO.N,mirror_middle_bottom*%
X291847943Y-171923066D03*
D12*
X293502600Y-170534646D03*
%TD*%
D15*
%TO.P,S11,1*%
%TO.N,P19*%
X106337970Y-168924517D03*
%TO.P,S11,2*%
%TO.N,index_home*%
X99840907Y-166788568D03*
%TD*%
%TO.P,S27,1*%
%TO.N,P18*%
X273805327Y-149036110D03*
%TO.P,S27,2*%
%TO.N,mirror_middle_home*%
X270573627Y-155063564D03*
%TD*%
%TO.P,S19,1*%
%TO.N,P20*%
X172425673Y-240526568D03*
%TO.P,S19,2*%
%TO.N,two_one*%
X165731080Y-241925316D03*
%TD*%
%TO.P,S9,1*%
%TO.N,P18*%
X107663461Y-137708325D03*
%TO.P,S9,2*%
%TO.N,middle_top*%
X101166398Y-135572376D03*
%TD*%
D26*
%TO.P,OLED1,1*%
%TO.N,GND*%
X186716086Y-153747078D03*
D27*
%TO.P,OLED1,2*%
%TO.N,VCC*%
X184176089Y-153747077D03*
%TO.P,OLED1,3*%
%TO.N,P3*%
X181636087Y-153747078D03*
%TO.P,OLED1,4*%
%TO.N,P2*%
X179096089Y-153747077D03*
%TD*%
D28*
%TO.P,D38,1*%
%TO.N,P9*%
X193406162Y-250673961D03*
D29*
X195533347Y-250298878D03*
%TO.P,D38,2*%
%TO.N,mirror_two_one*%
X198783211Y-249725842D03*
D12*
X200910396Y-249350759D03*
%TD*%
D13*
%TO.P,D3,1*%
%TO.N,P15*%
X53663864Y-132910604D03*
D14*
X55318519Y-134299023D03*
%TO.P,D3,2*%
%TO.N,pinky_top*%
X57846467Y-136420227D03*
D12*
X59501122Y-137808646D03*
%TD*%
D10*
%TO.P,D22,1*%
%TO.N,P6*%
X305831039Y-137808649D03*
D11*
X307485696Y-136420229D03*
%TO.P,D22,2*%
%TO.N,mirror_pinky_top*%
X310013640Y-134299027D03*
D12*
X311668297Y-132910607D03*
%TD*%
D15*
%TO.P,S23,1*%
%TO.N,P5*%
X305541612Y-157221412D03*
%TO.P,S23,2*%
%TO.N,mirror_ring_bottom*%
X302309912Y-163248866D03*
%TD*%
D13*
%TO.P,D10,1*%
%TO.N,P16*%
X82749188Y-187157697D03*
D14*
X84403843Y-188546116D03*
%TO.P,D10,2*%
%TO.N,index_bottom*%
X86931791Y-190667320D03*
D12*
X88586446Y-192055739D03*
%TD*%
D10*
%TO.P,D30,1*%
%TO.N,P7*%
X264500625Y-177462588D03*
D11*
X266155282Y-176074168D03*
%TO.P,D30,2*%
%TO.N,mirror_index_home*%
X268683226Y-173952966D03*
D12*
X270337883Y-172564546D03*
%TD*%
D10*
%TO.P,D24,1*%
%TO.N,P7*%
X294911432Y-154431695D03*
D11*
X296566089Y-153043275D03*
%TO.P,D24,2*%
%TO.N,mirror_ring_home*%
X299094033Y-150922073D03*
D12*
X300748690Y-149533653D03*
%TD*%
D15*
%TO.P,S3,1*%
%TO.N,P4*%
X65007554Y-129270579D03*
%TO.P,S3,2*%
%TO.N,pinky_top*%
X58510491Y-127134630D03*
%TD*%
D13*
%TO.P,D1,1*%
%TO.N,P16*%
X29173664Y-162096897D03*
D14*
X30828319Y-163485316D03*
%TO.P,D1,2*%
%TO.N,pinky_bottom*%
X33356267Y-165606520D03*
D12*
X35010922Y-166994939D03*
%TD*%
D30*
%TO.P,D18,1*%
%TO.N,P10*%
X139275756Y-241824293D03*
D31*
X141305491Y-242563058D03*
%TO.P,D18,2*%
%TO.N,one_one*%
X144406477Y-243691722D03*
D12*
X146436212Y-244430487D03*
%TD*%
D15*
%TO.P,S22,1*%
%TO.N,P4*%
X304216124Y-126005214D03*
%TO.P,S22,2*%
%TO.N,mirror_pinky_top*%
X300984424Y-132032668D03*
%TD*%
D13*
%TO.P,D14,1*%
%TO.N,P14*%
X107138413Y-187728282D03*
D14*
X108793068Y-189116701D03*
%TO.P,D14,2*%
%TO.N,inner_home*%
X111321016Y-191237905D03*
D12*
X112975671Y-192626324D03*
%TD*%
D15*
%TO.P,S33,1*%
%TO.N,P20*%
X250741581Y-180822895D03*
%TO.P,S33,2*%
%TO.N,mirror_inner_home*%
X247509881Y-186850349D03*
%TD*%
D32*
%TO.P,D36,1*%
%TO.N,P9*%
X279277029Y-237667435D03*
D33*
X280015794Y-235637700D03*
%TO.P,D36,2*%
%TO.N,mirror_space_cluster*%
X281144458Y-232536714D03*
D12*
X281883223Y-230506979D03*
%TD*%
D15*
%TO.P,S15,1*%
%TO.N,P20*%
X130727203Y-169495107D03*
%TO.P,S15,2*%
%TO.N,inner_top*%
X124230140Y-167359158D03*
%TD*%
%TO.P,S2,1*%
%TO.N,P4*%
X52762450Y-143863732D03*
%TO.P,S2,2*%
%TO.N,pinky_home*%
X46265387Y-141727783D03*
%TD*%
D13*
%TO.P,D6,1*%
%TO.N,P15*%
X76828593Y-134940502D03*
D14*
X78483248Y-136328921D03*
%TO.P,D6,2*%
%TO.N,ring_top*%
X81011196Y-138450125D03*
D12*
X82665851Y-139838544D03*
%TD*%
D15*
%TO.P,S14,1*%
%TO.N,P20*%
X118482096Y-184088253D03*
%TO.P,S14,2*%
%TO.N,inner_home*%
X111985033Y-181952304D03*
%TD*%
%TO.P,S6,1*%
%TO.N,P5*%
X88172272Y-131300481D03*
%TO.P,S6,2*%
%TO.N,ring_top*%
X81675209Y-129164532D03*
%TD*%
%TO.P,S13,1*%
%TO.N,P20*%
X106236992Y-198681397D03*
%TO.P,S13,2*%
%TO.N,inner_bottom*%
X99739929Y-196545448D03*
%TD*%
D10*
%TO.P,D31,1*%
%TO.N,P6*%
X252255516Y-162869442D03*
D11*
X253910173Y-161481022D03*
%TO.P,D31,2*%
%TO.N,mirror_index_top*%
X256438117Y-159359820D03*
D12*
X258092774Y-157971400D03*
%TD*%
D15*
%TO.P,S7,1*%
%TO.N,P18*%
X83173254Y-166894621D03*
%TO.P,S7,2*%
%TO.N,middle_bottom*%
X76676191Y-164758672D03*
%TD*%
%TO.P,S34,1*%
%TO.N,P20*%
X238496474Y-166229743D03*
%TO.P,S34,2*%
%TO.N,mirror_inner_top*%
X235264774Y-172257197D03*
%TD*%
D34*
%TO.P,MCU1,1*%
%TO.N,RAW*%
X175046085Y-120783935D03*
D35*
%TO.P,MCU1,2*%
%TO.N,GND*%
X175046086Y-123323934D03*
%TO.P,MCU1,3*%
%TO.N,RST*%
X175046085Y-125863931D03*
%TO.P,MCU1,4*%
%TO.N,VCC*%
X175046086Y-128403934D03*
%TO.P,MCU1,5*%
%TO.N,P21*%
X175046085Y-130943932D03*
%TO.P,MCU1,6*%
%TO.N,P20*%
X175046085Y-133483933D03*
%TO.P,MCU1,7*%
%TO.N,P19*%
X175046085Y-136023933D03*
%TO.P,MCU1,8*%
%TO.N,P18*%
X175046086Y-138563934D03*
%TO.P,MCU1,9*%
%TO.N,P15*%
X175046088Y-141103933D03*
%TO.P,MCU1,10*%
%TO.N,P14*%
X175046086Y-143643934D03*
%TO.P,MCU1,11*%
%TO.N,P16*%
X175046086Y-146183933D03*
%TO.P,MCU1,12*%
%TO.N,P10*%
X175046085Y-148723931D03*
%TO.P,MCU1,13*%
%TO.N,P1*%
X190286085Y-120783935D03*
%TO.P,MCU1,14*%
%TO.N,P0*%
X190286084Y-123323933D03*
%TO.P,MCU1,15*%
%TO.N,GND*%
X190286084Y-125863932D03*
%TO.P,MCU1,16*%
X190286082Y-128403933D03*
%TO.P,MCU1,17*%
%TO.N,P2*%
X190286084Y-130943932D03*
%TO.P,MCU1,18*%
%TO.N,P3*%
X190286085Y-133483933D03*
%TO.P,MCU1,19*%
%TO.N,P4*%
X190286085Y-136023933D03*
%TO.P,MCU1,20*%
%TO.N,P5*%
X190286085Y-138563934D03*
%TO.P,MCU1,21*%
%TO.N,P6*%
X190286084Y-141103932D03*
%TO.P,MCU1,22*%
%TO.N,P7*%
X190286085Y-143643935D03*
%TO.P,MCU1,23*%
%TO.N,P8*%
X190286084Y-146183932D03*
%TO.P,MCU1,24*%
%TO.N,P9*%
X190286085Y-148723931D03*
%TD*%
D15*
%TO.P,S28,1*%
%TO.N,P18*%
X261560216Y-134442965D03*
%TO.P,S28,2*%
%TO.N,mirror_middle_top*%
X258328516Y-140470419D03*
%TD*%
D13*
%TO.P,D12,1*%
%TO.N,P15*%
X107239388Y-157971400D03*
D14*
X108894043Y-159359819D03*
%TO.P,D12,2*%
%TO.N,index_top*%
X111421991Y-161481023D03*
D12*
X113076646Y-162869442D03*
%TD*%
D36*
%TO.N,P19*%
X155200000Y-153000000D03*
X158430851Y-152830851D03*
%TO.N,GND*%
X186800000Y-132800000D03*
X186600000Y-139200000D03*
%TD*%
D37*
%TO.N,P4*%
X290767122Y-126567122D02*
X222832878Y-126567122D01*
X65007554Y-129270579D02*
X66581601Y-127696532D01*
X222832878Y-126567122D02*
X213376067Y-136023933D01*
X301621338Y-128600000D02*
X292800000Y-128600000D01*
X178657328Y-132282633D02*
X186299695Y-139925000D01*
X159717367Y-132282633D02*
X178657328Y-132282633D01*
X187075000Y-139925000D02*
X190286085Y-136713915D01*
X159600000Y-132400000D02*
X159717367Y-132282633D01*
X190286085Y-136713915D02*
X190286085Y-136023933D01*
X66581601Y-127696532D02*
X154896532Y-127696532D01*
X304216124Y-126005214D02*
X301621338Y-128600000D01*
X292800000Y-128600000D02*
X290767122Y-126567122D01*
X154896532Y-127696532D02*
X159600000Y-132400000D01*
X186299695Y-139925000D02*
X187075000Y-139925000D01*
X213376067Y-136023933D02*
X190286085Y-136023933D01*
%TO.N,pinky_bottom*%
X33356266Y-165606519D02*
X35010922Y-166994934D01*
%TO.N,pinky_home*%
X45601365Y-151013372D02*
X47256018Y-152401793D01*
%TO.N,pinky_top*%
X57846469Y-136420228D02*
X59501121Y-137808645D01*
%TO.N,P5*%
X281051404Y-128035122D02*
X223364878Y-128035122D01*
X161248837Y-134685233D02*
X180423532Y-134685233D01*
X180423532Y-134685233D02*
X186113299Y-140375000D01*
X87504323Y-130632532D02*
X157196136Y-130632532D01*
X186113299Y-140375000D02*
X188475019Y-140375000D01*
X223364878Y-128035122D02*
X212836066Y-138563934D01*
X88172272Y-131300481D02*
X87504323Y-130632532D01*
X212836066Y-138563934D02*
X190286085Y-138563934D01*
X188475019Y-140375000D02*
X190286085Y-138563934D01*
X157196136Y-130632532D02*
X161248837Y-134685233D01*
%TO.N,ring_bottom*%
X56520985Y-167636423D02*
X58175636Y-169024843D01*
%TO.N,ring_home*%
X68766090Y-153043276D02*
X70420741Y-154431696D01*
%TO.N,ring_top*%
X81011191Y-138450131D02*
X82665850Y-139838550D01*
%TO.N,P18*%
X177482152Y-141000000D02*
X175046086Y-138563934D01*
X108519070Y-138563934D02*
X107663461Y-137708325D01*
X188486415Y-141000000D02*
X177482152Y-141000000D01*
X261560216Y-134442965D02*
X256237947Y-139765234D01*
X175046086Y-138563934D02*
X108519070Y-138563934D01*
X189721181Y-139765234D02*
X188486415Y-141000000D01*
X256237947Y-139765234D02*
X189721181Y-139765234D01*
%TO.N,middle_bottom*%
X76012172Y-174044268D02*
X77666825Y-175432686D01*
%TO.N,middle_home*%
X88257274Y-159451122D02*
X89911932Y-160839545D01*
%TO.N,middle_top*%
X100502387Y-144857973D02*
X102157035Y-146246398D01*
%TO.N,P19*%
X158430851Y-152830851D02*
X155369149Y-152830851D01*
X155369149Y-152830851D02*
X155200000Y-153000000D01*
%TO.N,index_bottom*%
X86931787Y-190667316D02*
X88586443Y-192055738D01*
%TO.N,index_home*%
X99176893Y-176074170D02*
X100831546Y-177462588D01*
%TO.N,index_top*%
X111421996Y-161481023D02*
X113076650Y-162869440D01*
%TO.N,inner_bottom*%
X99075912Y-205831048D02*
X100730570Y-207219469D01*
%TO.N,inner_home*%
X111321018Y-191237903D02*
X112975670Y-192626322D01*
%TO.N,inner_top*%
X123566125Y-176644750D02*
X125220774Y-178033174D01*
%TO.N,one_one*%
X146436211Y-244430484D02*
X146436212Y-244430490D01*
X144406480Y-243691723D02*
X146436211Y-244430484D01*
%TO.N,two_one*%
X169798821Y-250298878D02*
X171926002Y-250673955D01*
X171926002Y-250673955D02*
X171926004Y-250673957D01*
%TO.N,mirror_pinky_bottom*%
X334503855Y-163485314D02*
X336158508Y-162096896D01*
%TO.N,mirror_pinky_home*%
X322258747Y-148892171D02*
X323913403Y-147503751D01*
%TO.N,mirror_pinky_top*%
X310013643Y-134299026D02*
X311668297Y-132910609D01*
%TO.N,mirror_ring_bottom*%
X311339137Y-165515221D02*
X312993792Y-164126801D01*
%TO.N,mirror_ring_home*%
X299094031Y-150922070D02*
X300748687Y-149533649D01*
%TO.N,mirror_ring_top*%
X286848927Y-136328929D02*
X288503582Y-134940509D01*
%TO.N,mirror_middle_bottom*%
X291847948Y-171923067D02*
X293502601Y-170534648D01*
%TO.N,mirror_middle_home*%
X279602844Y-157329918D02*
X281257499Y-155941498D01*
%TO.N,mirror_middle_top*%
X267357739Y-142736768D02*
X269012392Y-141348350D01*
%TO.N,mirror_index_bottom*%
X280928324Y-188546112D02*
X282582983Y-187157691D01*
%TO.N,mirror_index_home*%
X268683225Y-173952966D02*
X270337883Y-172564545D01*
%TO.N,mirror_index_top*%
X256438125Y-159359823D02*
X258092774Y-157971402D01*
%TO.N,mirror_inner_bottom*%
X268784204Y-203709847D02*
X270438859Y-202321426D01*
%TO.N,mirror_inner_home*%
X256539098Y-189116700D02*
X258193756Y-187728279D01*
%TO.N,mirror_inner_top*%
X244293997Y-174523545D02*
X245948654Y-173135130D01*
%TO.N,mirror_layer_cluster*%
X291339154Y-213845735D02*
X292578081Y-212076368D01*
%TO.N,mirror_space_cluster*%
X281144458Y-232536717D02*
X281883221Y-230506980D01*
%TO.N,mirror_one_one*%
X226056410Y-241824298D02*
X226056411Y-241824296D01*
X224026675Y-242563061D02*
X226056410Y-241824298D01*
%TO.N,mirror_two_one*%
X200910394Y-249350762D02*
X200910395Y-249350760D01*
X198783211Y-249725841D02*
X200910394Y-249350762D01*
%TO.N,P16*%
X137800000Y-165563604D02*
X137800000Y-175600000D01*
X30828421Y-163485403D02*
X36145492Y-163020220D01*
X71829570Y-170534645D02*
X72533976Y-178586118D01*
X157179671Y-146183933D02*
X137800000Y-165563604D01*
X137800000Y-175600000D02*
X104903031Y-208496969D01*
X72533976Y-178586118D02*
X82749188Y-187157693D01*
X82749188Y-187157693D02*
X84403835Y-188546116D01*
X38868682Y-165305252D02*
X52338385Y-164126799D01*
X100201409Y-208496969D02*
X94893309Y-203188869D01*
X71829570Y-170534645D02*
X73484227Y-171923066D01*
X52338385Y-164126799D02*
X53993045Y-165515227D01*
X94893311Y-202321431D02*
X96547967Y-203709848D01*
X36145492Y-163020220D02*
X38868682Y-165305252D01*
X82749188Y-187157693D02*
X83218795Y-192525343D01*
X52338385Y-164126799D02*
X53993136Y-165515304D01*
X29173658Y-162096894D02*
X30828318Y-163485318D01*
X66302632Y-171018190D02*
X71829570Y-170534645D01*
X83218795Y-192525343D02*
X94893311Y-202321431D01*
X29173658Y-162096894D02*
X30828421Y-163485403D01*
X94893309Y-203188869D02*
X94893309Y-202321427D01*
X53993136Y-165515304D02*
X59201502Y-165059635D01*
X175046086Y-146183933D02*
X157179671Y-146183933D01*
X104903031Y-208496969D02*
X100201409Y-208496969D01*
X59201502Y-165059635D02*
X66302632Y-171018190D01*
%TO.N,P14*%
X42721931Y-147389739D02*
X47099875Y-151063270D01*
X107138411Y-187728279D02*
X108793071Y-189116706D01*
X64583484Y-149533650D02*
X66383268Y-149376196D01*
X64583484Y-149533650D02*
X66238139Y-150922076D01*
X66383268Y-149376196D02*
X75139154Y-156723251D01*
X175046086Y-143643934D02*
X159083274Y-143643934D01*
X84074670Y-155941499D02*
X84779085Y-163992973D01*
X95866812Y-173296680D02*
X96336425Y-178664333D01*
X84074670Y-155941499D02*
X85729330Y-157329917D01*
X84779085Y-163992973D02*
X94994290Y-172564546D01*
X41418762Y-147503751D02*
X42721931Y-147389739D01*
X47099875Y-151063270D02*
X64583484Y-149533650D01*
X115096176Y-193903824D02*
X112153447Y-193903824D01*
X137000000Y-172000000D02*
X115096176Y-193903824D01*
X96336425Y-178664333D02*
X107138411Y-187728279D01*
X41418762Y-147503751D02*
X43073418Y-148892173D01*
X94994290Y-172564546D02*
X96648943Y-173952968D01*
X107138413Y-188888790D02*
X107138413Y-187728282D01*
X137000000Y-165727208D02*
X137000000Y-172000000D01*
X94994290Y-172564546D02*
X95866812Y-173296680D01*
X159083274Y-143643934D02*
X137000000Y-165727208D01*
X75139154Y-156723251D02*
X84074670Y-155941499D01*
X112153447Y-193903824D02*
X107138413Y-188888790D01*
%TO.N,P15*%
X97024193Y-149399827D02*
X107239393Y-157971400D01*
X53663866Y-132910608D02*
X55318521Y-134299027D01*
X55540345Y-132746435D02*
X59918287Y-136419966D01*
X132600000Y-169000000D02*
X132600000Y-173800000D01*
X119383518Y-174295640D02*
X119383518Y-173135132D01*
X107708999Y-163339050D02*
X119383523Y-173135128D01*
X79708916Y-137357393D02*
X84776399Y-136914041D01*
X76828588Y-134940506D02*
X78483243Y-136328928D01*
X53663866Y-132910608D02*
X55540345Y-132746435D01*
X84776399Y-136914041D02*
X90651957Y-141844221D01*
X124687878Y-179600000D02*
X119383518Y-174295640D01*
X119383523Y-173135128D02*
X121038179Y-174523549D01*
X132600000Y-173800000D02*
X126800000Y-179600000D01*
X90651957Y-141844221D02*
X96319781Y-141348349D01*
X96319781Y-141348349D02*
X97974433Y-142736774D01*
X107239393Y-157971400D02*
X108894048Y-159359825D01*
X107239393Y-157971400D02*
X107708999Y-163339050D01*
X160496067Y-141103933D02*
X132600000Y-169000000D01*
X59918287Y-136419966D02*
X76828588Y-134940506D01*
X96319781Y-141348349D02*
X97024193Y-149399827D01*
X175046088Y-141103933D02*
X160496067Y-141103933D01*
X126800000Y-179600000D02*
X124687878Y-179600000D01*
X76828588Y-134940506D02*
X79708916Y-137357393D01*
%TO.N,P10*%
X141305490Y-242563056D02*
X141305490Y-242563060D01*
X83448946Y-230506973D02*
X83448946Y-231453027D01*
X139275756Y-241824293D02*
X146802223Y-249350760D01*
X139275757Y-241824294D02*
X141305490Y-242563056D01*
X72309442Y-214598113D02*
X83448945Y-230506981D01*
X138566544Y-165433456D02*
X138566544Y-241115081D01*
X146802223Y-249350760D02*
X164421769Y-249350760D01*
X83448946Y-231453027D02*
X93820212Y-241824293D01*
X175046085Y-148723931D02*
X155276069Y-148723931D01*
X166548951Y-249725837D02*
X166548954Y-249725843D01*
X93820212Y-241824293D02*
X139275756Y-241824293D01*
X138566544Y-241115081D02*
X139275756Y-241824293D01*
X155276069Y-148723931D02*
X138566544Y-165433456D01*
X164421772Y-249350758D02*
X166548951Y-249725837D01*
X72754094Y-212076363D02*
X72309442Y-214598113D01*
%TO.N,P8*%
X233000000Y-195200000D02*
X233600000Y-195200000D01*
X276745728Y-192055734D02*
X278400484Y-190667229D01*
X287418569Y-178253376D02*
X287665347Y-175432686D01*
X325943309Y-170668473D02*
X330321251Y-166994942D01*
X233000000Y-176963604D02*
X233000000Y-195200000D01*
X278858118Y-185436448D02*
X287418569Y-178253376D01*
X266256356Y-205830965D02*
X266591966Y-201994924D01*
X264601602Y-207219468D02*
X266256356Y-205830965D01*
X330321251Y-166994942D02*
X331975905Y-165606518D01*
X266591966Y-201994924D02*
X276611728Y-193587346D01*
X276611728Y-193587346D02*
X276745728Y-192055734D01*
X287665347Y-175432686D02*
X289320001Y-174044270D01*
X190286084Y-146183932D02*
X202220328Y-146183932D01*
X264601602Y-207219468D02*
X266256259Y-205831046D01*
X202220328Y-146183932D02*
X233000000Y-176963604D01*
X307156531Y-169024840D02*
X308811191Y-167636419D01*
X307156531Y-169024840D02*
X325943309Y-170668473D01*
X233600000Y-195200000D02*
X245619468Y-207219468D01*
X288537873Y-174700552D02*
X299273169Y-175639768D01*
X278400484Y-190667229D02*
X278858118Y-185436448D01*
X276745728Y-192055734D02*
X278400383Y-190667314D01*
X245619468Y-207219468D02*
X264601598Y-207219468D01*
X299273169Y-175639768D02*
X307156531Y-169024840D01*
X287665347Y-175432686D02*
X288537873Y-174700552D01*
%TO.N,P7*%
X275420244Y-160839539D02*
X277074898Y-159451123D01*
X294911430Y-154431692D02*
X296566088Y-153043271D01*
X252356496Y-192626323D02*
X254011252Y-191237819D01*
X233800000Y-183000000D02*
X243426325Y-192626325D01*
X264658084Y-175662801D02*
X274873291Y-167091228D01*
X264500626Y-177462586D02*
X266155280Y-176074165D01*
X274873291Y-167091228D02*
X275420244Y-160839539D01*
X252356496Y-192626323D02*
X254011153Y-191237901D01*
X233800000Y-177127208D02*
X233800000Y-183000000D01*
X264496200Y-177513163D02*
X264500626Y-177462586D01*
X264500626Y-177462586D02*
X264658084Y-175662801D01*
X243426325Y-192626325D02*
X252356500Y-192626325D01*
X286155538Y-161778755D02*
X294911430Y-154431692D01*
X294911430Y-154431692D02*
X313698202Y-156075324D01*
X200316727Y-143643935D02*
X233800000Y-177127208D01*
X254011252Y-191237819D02*
X254476439Y-185920743D01*
X275420244Y-160839539D02*
X286155538Y-161778755D01*
X318076151Y-152401795D02*
X319730802Y-151013369D01*
X313698202Y-156075324D02*
X318076151Y-152401795D01*
X254476439Y-185920743D02*
X264496200Y-177513163D01*
X190286085Y-143643935D02*
X200316727Y-143643935D01*
%TO.N,P6*%
X301453102Y-141482181D02*
X305831042Y-137808652D01*
X252255520Y-162869441D02*
X252412979Y-161069656D01*
X273910441Y-147185609D02*
X282666326Y-139838552D01*
X240111395Y-178033168D02*
X241766152Y-176644666D01*
X241766152Y-176644666D02*
X242212695Y-171540683D01*
X263175140Y-146246395D02*
X264829794Y-144857969D01*
X305831042Y-137808652D02*
X307485698Y-136420227D01*
X252412979Y-161069656D02*
X262628190Y-152498081D01*
X263175140Y-146246395D02*
X273910441Y-147185609D01*
X282666326Y-139838552D02*
X301453102Y-141482181D01*
X262628190Y-152498081D02*
X263175140Y-146246395D01*
X235433170Y-178033170D02*
X240111395Y-178033170D01*
X242212695Y-171540683D02*
X252232452Y-163133104D01*
X252232452Y-163133104D02*
X252255520Y-162869441D01*
X190286084Y-141103932D02*
X198503932Y-141103932D01*
X198503932Y-141103932D02*
X235433170Y-178033170D01*
X282666326Y-139838552D02*
X284320982Y-138450128D01*
X240111395Y-178033168D02*
X241766053Y-176644749D01*
X252255520Y-162869441D02*
X253910175Y-161481026D01*
%TO.N,P9*%
X217894363Y-245432083D02*
X218895956Y-244430490D01*
X279277028Y-237667438D02*
X278348056Y-232398949D01*
X195533347Y-250298880D02*
X195533348Y-250298879D01*
X220925691Y-243691727D02*
X220925692Y-243691725D01*
X193406162Y-250673960D02*
X194308876Y-250673960D01*
X224326446Y-239000000D02*
X232400000Y-239000000D01*
X288207427Y-218318305D02*
X289446356Y-216548938D01*
X204123931Y-148723931D02*
X232400000Y-177000000D01*
X199550753Y-245432083D02*
X217894363Y-245432083D01*
X194308876Y-250673960D02*
X199550753Y-245432083D01*
X218895957Y-244430491D02*
X220925691Y-243691727D01*
X278348056Y-232398949D02*
X288207427Y-218318305D01*
X279277029Y-237667439D02*
X280015794Y-235637704D01*
X218895956Y-244430490D02*
X224326446Y-239000000D01*
X190286085Y-148723931D02*
X204123931Y-148723931D01*
X277944464Y-239000000D02*
X279277029Y-237667435D01*
X232400000Y-177000000D02*
X232400000Y-239000000D01*
X193406163Y-250673960D02*
X195533347Y-250298880D01*
X232400000Y-239000000D02*
X277944464Y-239000000D01*
%TO.N,GND*%
X186600000Y-133000000D02*
X186800000Y-132800000D01*
X186600000Y-139200000D02*
X186600000Y-133000000D01*
%TD*%
M02*
