M48
; DRILL file {KiCad 8.0.1} date 2024-05-19T15:34:09+0900
; FORMAT={-:-/ absolute / inch / decimal}
; #@! TF.CreationDate,2024-05-19T15:34:09+09:00
; #@! TF.GenerationSoftware,Kicad,Pcbnew,8.0.1
; #@! TF.FileFunction,NonPlated,1,2,NPTH
FMAT,2
INCH
; #@! TA.AperFunction,NonPlated,NPTH,ComponentDrill
T1C0.0670
; #@! TA.AperFunction,NonPlated,NPTH,ComponentDrill
T2C0.1570
%
G90
G05
T1
X1.2368Y-6.1988
X1.5432Y-6.4559
X1.7189Y-5.6243
X2.0253Y-5.8814
X2.1488Y-6.2787
X2.201Y-5.0498
X2.4552Y-6.5359
X2.5074Y-5.3069
X2.6309Y-5.7042
X2.9162Y-6.531
X2.9373Y-5.9613
X2.9969Y-8.1956
X3.113Y-5.1297
X3.2226Y-6.7881
X3.2263Y-8.5233
X3.3461Y-7.1855
X3.3983Y-5.9565
X3.4194Y-5.3868
X3.4533Y-8.9608
X3.5901Y-9.3366
X3.6525Y-7.4426
X3.7047Y-6.2136
X3.8242Y-7.7825
X3.8282Y-6.6109
X3.8803Y-5.382
X4.1306Y-8.0396
X4.1346Y-6.8681
X4.1868Y-5.6391
X4.3063Y-7.2079
X4.3103Y-6.0364
X4.6127Y-7.4651
X4.6167Y-6.2935
X4.7884Y-6.6334
X5.0948Y-6.8905
X5.5036Y-9.3186
X5.8795Y-9.4554
X6.4582Y-9.6144
X6.8522Y-9.6839
X7.531Y-9.6839
X7.9249Y-9.6144
X8.5036Y-9.4554
X8.8795Y-9.3186
X9.2884Y-6.8905
X9.5948Y-6.6334
X9.7665Y-6.2935
X9.7705Y-7.4651
X10.0729Y-6.0364
X10.0769Y-7.2079
X10.1964Y-5.6391
X10.2486Y-6.8681
X10.2526Y-8.0396
X10.5028Y-5.382
X10.555Y-6.6109
X10.559Y-7.7825
X10.6785Y-6.2136
X10.7307Y-7.4426
X10.7931Y-9.3366
X10.9299Y-8.9608
X10.9638Y-5.3868
X10.9849Y-5.9565
X11.0371Y-7.1855
X11.1568Y-8.5233
X11.1606Y-6.7881
X11.2702Y-5.1297
X11.3863Y-8.1956
X11.4459Y-5.9613
X11.467Y-6.531
X11.7523Y-5.7042
X11.8758Y-5.3069
X11.9279Y-6.5359
X12.1822Y-5.0498
X12.2344Y-6.2787
X12.3578Y-5.8814
X12.6643Y-5.6243
X12.8399Y-6.4559
X13.1464Y-6.1988
T2
X1.39Y-6.3274
X1.8721Y-5.7529
X2.302Y-6.4073
X2.3542Y-5.1783
X2.7841Y-5.8328
X3.0694Y-6.6596
X3.1116Y-8.3594
X3.2662Y-5.2582
X3.4993Y-7.314
X3.5217Y-9.1487
X3.5515Y-6.0851
X3.9774Y-7.911
X3.9814Y-6.7395
X4.0336Y-5.5105
X4.4595Y-7.3365
X4.4635Y-6.165
X4.9416Y-6.762
X5.6916Y-9.387
X6.6552Y-9.6491
X7.728Y-9.6491
X8.6916Y-9.387
X9.4416Y-6.762
X9.9197Y-6.165
X9.9237Y-7.3365
X10.3496Y-5.5105
X10.4018Y-6.7395
X10.4058Y-7.911
X10.8317Y-6.0851
X10.8615Y-9.1487
X10.8839Y-7.314
X11.117Y-5.2582
X11.2715Y-8.3594
X11.3138Y-6.6596
X11.5991Y-5.8328
X12.029Y-5.1783
X12.0812Y-6.4073
X12.5111Y-5.7529
X12.9931Y-6.3274
M30
