%TF.GenerationSoftware,KiCad,Pcbnew,8.0.1*%
%TF.CreationDate,2024-05-19T15:34:10+09:00*%
%TF.ProjectId,pcb_plate,7063625f-706c-4617-9465-2e6b69636164,v1.0.0*%
%TF.SameCoordinates,Original*%
%TF.FileFunction,Copper,L1,Top*%
%TF.FilePolarity,Positive*%
%FSLAX46Y46*%
G04 Gerber Fmt 4.6, Leading zero omitted, Abs format (unit mm)*
G04 Created by KiCad (PCBNEW 8.0.1) date 2024-05-19 15:34:10*
%MOMM*%
%LPD*%
G01*
G04 APERTURE LIST*
G04 Aperture macros list*
%AMRotRect*
0 Rectangle, with rotation*
0 The origin of the aperture is its center*
0 $1 length*
0 $2 width*
0 $3 Rotation angle, in degrees counterclockwise*
0 Add horizontal line*
21,1,$1,$2,0,0,$3*%
G04 Aperture macros list end*
%TA.AperFunction,SMDPad,CuDef*%
%ADD10R,1.100000X1.800000*%
%TD*%
%TA.AperFunction,ComponentPad*%
%ADD11RotRect,1.778000X1.778000X40.000000*%
%TD*%
%TA.AperFunction,SMDPad,CuDef*%
%ADD12RotRect,0.900000X1.200000X40.000000*%
%TD*%
%TA.AperFunction,ComponentPad*%
%ADD13C,1.905000*%
%TD*%
%TA.AperFunction,ComponentPad*%
%ADD14RotRect,1.778000X1.778000X320.000000*%
%TD*%
%TA.AperFunction,SMDPad,CuDef*%
%ADD15RotRect,0.900000X1.200000X320.000000*%
%TD*%
%TA.AperFunction,ComponentPad*%
%ADD16C,2.286000*%
%TD*%
%TA.AperFunction,ComponentPad*%
%ADD17RotRect,1.778000X1.778000X20.000000*%
%TD*%
%TA.AperFunction,SMDPad,CuDef*%
%ADD18RotRect,0.900000X1.200000X20.000000*%
%TD*%
%TA.AperFunction,ComponentPad*%
%ADD19RotRect,1.778000X1.778000X305.000000*%
%TD*%
%TA.AperFunction,SMDPad,CuDef*%
%ADD20RotRect,0.900000X1.200000X305.000000*%
%TD*%
%TA.AperFunction,ComponentPad*%
%ADD21RotRect,1.778000X1.778000X55.000000*%
%TD*%
%TA.AperFunction,SMDPad,CuDef*%
%ADD22RotRect,0.900000X1.200000X55.000000*%
%TD*%
%TA.AperFunction,ComponentPad*%
%ADD23RotRect,1.778000X1.778000X350.000000*%
%TD*%
%TA.AperFunction,SMDPad,CuDef*%
%ADD24RotRect,0.900000X1.200000X350.000000*%
%TD*%
%TA.AperFunction,ComponentPad*%
%ADD25RotRect,1.778000X1.778000X290.000000*%
%TD*%
%TA.AperFunction,SMDPad,CuDef*%
%ADD26RotRect,0.900000X1.200000X290.000000*%
%TD*%
%TA.AperFunction,ComponentPad*%
%ADD27R,1.700000X1.700000*%
%TD*%
%TA.AperFunction,ComponentPad*%
%ADD28O,1.700000X1.700000*%
%TD*%
%TA.AperFunction,ComponentPad*%
%ADD29RotRect,1.778000X1.778000X10.000000*%
%TD*%
%TA.AperFunction,SMDPad,CuDef*%
%ADD30RotRect,0.900000X1.200000X10.000000*%
%TD*%
%TA.AperFunction,ComponentPad*%
%ADD31RotRect,1.778000X1.778000X340.000000*%
%TD*%
%TA.AperFunction,SMDPad,CuDef*%
%ADD32RotRect,0.900000X1.200000X340.000000*%
%TD*%
%TA.AperFunction,ComponentPad*%
%ADD33RotRect,1.778000X1.778000X70.000000*%
%TD*%
%TA.AperFunction,SMDPad,CuDef*%
%ADD34RotRect,0.900000X1.200000X70.000000*%
%TD*%
%TA.AperFunction,ComponentPad*%
%ADD35R,1.752600X1.752600*%
%TD*%
%TA.AperFunction,ComponentPad*%
%ADD36C,1.752600*%
%TD*%
%TA.AperFunction,ViaPad*%
%ADD37C,0.800000*%
%TD*%
%TA.AperFunction,Conductor*%
%ADD38C,0.250000*%
%TD*%
G04 APERTURE END LIST*
D10*
%TO.P,B1,1*%
%TO.N,GND*%
X164516091Y-136867156D03*
X164516091Y-143067149D03*
%TO.P,B1,2*%
%TO.N,RST*%
X160816091Y-136867155D03*
X160816091Y-143067148D03*
%TD*%
D11*
%TO.P,D32,1*%
%TO.N,P8*%
X264601598Y-207219468D03*
D12*
X266256255Y-205831048D03*
%TO.P,D32,2*%
%TO.N,mirror_inner_bottom*%
X268784199Y-203709846D03*
D13*
X270438856Y-202321426D03*
%TD*%
D14*
%TO.P,D4,1*%
%TO.N,P16*%
X52338383Y-164126799D03*
D15*
X53993038Y-165515218D03*
%TO.P,D4,2*%
%TO.N,ring_bottom*%
X56520986Y-167636422D03*
D13*
X58175641Y-169024841D03*
%TD*%
D16*
%TO.P,S24,1*%
%TO.N,P5*%
X293296511Y-142628264D03*
%TO.P,S24,2*%
%TO.N,mirror_ring_home*%
X290064811Y-148655718D03*
%TD*%
D11*
%TO.P,D25,1*%
%TO.N,P6*%
X282666323Y-139838549D03*
D12*
X284320980Y-138450129D03*
%TO.P,D25,2*%
%TO.N,mirror_ring_top*%
X286848924Y-136328927D03*
D13*
X288503581Y-134940507D03*
%TD*%
D16*
%TO.P,S17,1*%
%TO.N,P18*%
X95092881Y-233026463D03*
%TO.P,S17,2*%
%TO.N,space_cluster*%
X90534233Y-227928147D03*
%TD*%
D17*
%TO.P,D37,1*%
%TO.N,P9*%
X218895956Y-244430490D03*
D18*
X220925692Y-243691725D03*
%TO.P,D37,2*%
%TO.N,mirror_one_one*%
X224026676Y-242563061D03*
D13*
X226056412Y-241824296D03*
%TD*%
D14*
%TO.P,D2,1*%
%TO.N,P14*%
X41418765Y-147503751D03*
D15*
X43073420Y-148892170D03*
%TO.P,D2,2*%
%TO.N,pinky_home*%
X45601368Y-151013374D03*
D13*
X47256023Y-152401793D03*
%TD*%
D16*
%TO.P,S16,1*%
%TO.N,P5*%
X84653356Y-211496325D03*
%TO.P,S16,2*%
%TO.N,layer_cluster*%
X78930499Y-207751594D03*
%TD*%
D11*
%TO.P,D33,1*%
%TO.N,P7*%
X252356500Y-192626325D03*
D12*
X254011157Y-191237905D03*
%TO.P,D33,2*%
%TO.N,mirror_inner_home*%
X256539101Y-189116703D03*
D13*
X258193758Y-187728283D03*
%TD*%
D16*
%TO.P,S32,1*%
%TO.N,P20*%
X262986679Y-195416036D03*
%TO.P,S32,2*%
%TO.N,mirror_inner_bottom*%
X259754979Y-201443490D03*
%TD*%
%TO.P,S10,1*%
%TO.N,P19*%
X94092866Y-183517666D03*
%TO.P,S10,2*%
%TO.N,index_bottom*%
X87595803Y-181381717D03*
%TD*%
D14*
%TO.P,D15,1*%
%TO.N,P15*%
X119383518Y-173135132D03*
D15*
X121038173Y-174523551D03*
%TO.P,D15,2*%
%TO.N,inner_top*%
X123566121Y-176644755D03*
D13*
X125220776Y-178033174D03*
%TD*%
D16*
%TO.P,S29,1*%
%TO.N,P19*%
X275130807Y-180252305D03*
%TO.P,S29,2*%
%TO.N,mirror_index_bottom*%
X271899107Y-186279759D03*
%TD*%
D14*
%TO.P,D13,1*%
%TO.N,P16*%
X94893309Y-202321427D03*
D15*
X96547964Y-203709846D03*
%TO.P,D13,2*%
%TO.N,inner_bottom*%
X99075912Y-205831050D03*
D13*
X100730567Y-207219469D03*
%TD*%
D16*
%TO.P,S37,1*%
%TO.N,P19*%
X221415445Y-232786560D03*
%TO.P,S37,2*%
%TO.N,mirror_one_one*%
X216317129Y-237345208D03*
%TD*%
D11*
%TO.P,D27,1*%
%TO.N,P7*%
X275420242Y-160839538D03*
D12*
X277074899Y-159451118D03*
%TO.P,D27,2*%
%TO.N,mirror_middle_home*%
X279602843Y-157329916D03*
D13*
X281257500Y-155941496D03*
%TD*%
D16*
%TO.P,S18,1*%
%TO.N,P19*%
X148690365Y-234524026D03*
%TO.P,S18,2*%
%TO.N,one_one*%
X141854586Y-234739020D03*
%TD*%
D11*
%TO.P,D34,1*%
%TO.N,P6*%
X240111395Y-178033170D03*
D12*
X241766052Y-176644750D03*
%TO.P,D34,2*%
%TO.N,mirror_inner_top*%
X244293996Y-174523548D03*
D13*
X245948653Y-173135128D03*
%TD*%
D16*
%TO.P,S38,1*%
%TO.N,P20*%
X197909323Y-239644426D03*
%TO.P,S38,2*%
%TO.N,mirror_two_one*%
X192096860Y-243248506D03*
%TD*%
%TO.P,S26,1*%
%TO.N,P18*%
X286050429Y-163629255D03*
%TO.P,S26,2*%
%TO.N,mirror_middle_bottom*%
X282818729Y-169656709D03*
%TD*%
D19*
%TO.P,D16,1*%
%TO.N,P10*%
X72754094Y-212076360D03*
D20*
X73993021Y-213845730D03*
%TO.P,D16,2*%
%TO.N,layer_cluster*%
X75885819Y-216548928D03*
D13*
X77124746Y-218318298D03*
%TD*%
D16*
%TO.P,S8,1*%
%TO.N,P18*%
X95418356Y-152301474D03*
%TO.P,S8,2*%
%TO.N,middle_home*%
X88921293Y-150165525D03*
%TD*%
D21*
%TO.P,D35,1*%
%TO.N,P9*%
X288207425Y-218318305D03*
D22*
X289446352Y-216548938D03*
%TO.P,D35,2*%
%TO.N,mirror_layer_cluster*%
X291339150Y-213845734D03*
D13*
X292578077Y-212076367D03*
%TD*%
D16*
%TO.P,S31,1*%
%TO.N,P19*%
X250640603Y-151066016D03*
%TO.P,S31,2*%
%TO.N,mirror_index_top*%
X247408903Y-157093470D03*
%TD*%
%TO.P,S36,1*%
%TO.N,P18*%
X271976753Y-228252821D03*
%TO.P,S36,2*%
%TO.N,mirror_space_cluster*%
X272191747Y-235088600D03*
%TD*%
%TO.P,S5,1*%
%TO.N,P5*%
X75927161Y-145893622D03*
%TO.P,S5,2*%
%TO.N,ring_home*%
X69430098Y-143757673D03*
%TD*%
%TO.P,S12,1*%
%TO.N,P19*%
X118583075Y-154331376D03*
%TO.P,S12,2*%
%TO.N,index_top*%
X112086012Y-152195427D03*
%TD*%
D14*
%TO.P,D8,1*%
%TO.N,P14*%
X84074676Y-155941499D03*
D15*
X85729331Y-157329918D03*
%TO.P,D8,2*%
%TO.N,middle_home*%
X88257279Y-159451122D03*
D13*
X89911934Y-160839541D03*
%TD*%
D16*
%TO.P,S35,1*%
%TO.N,P5*%
X283592583Y-207335033D03*
%TO.P,S35,2*%
%TO.N,mirror_layer_cluster*%
X282031020Y-213993529D03*
%TD*%
D14*
%TO.P,D5,1*%
%TO.N,P14*%
X64583485Y-149533653D03*
D15*
X66238140Y-150922072D03*
%TO.P,D5,2*%
%TO.N,ring_home*%
X68766088Y-153043276D03*
D13*
X70420743Y-154431695D03*
%TD*%
D16*
%TO.P,S21,1*%
%TO.N,P4*%
X316461229Y-140598362D03*
%TO.P,S21,2*%
%TO.N,mirror_pinky_home*%
X313229529Y-146625816D03*
%TD*%
D11*
%TO.P,D29,1*%
%TO.N,P8*%
X276745727Y-192055733D03*
D12*
X278400384Y-190667313D03*
%TO.P,D29,2*%
%TO.N,mirror_index_bottom*%
X280928328Y-188546111D03*
D13*
X282582985Y-187157691D03*
%TD*%
D11*
%TO.P,D21,1*%
%TO.N,P7*%
X318076146Y-152401793D03*
D12*
X319730803Y-151013373D03*
%TO.P,D21,2*%
%TO.N,mirror_pinky_home*%
X322258747Y-148892171D03*
D13*
X323913404Y-147503751D03*
%TD*%
D16*
%TO.P,S20,1*%
%TO.N,P4*%
X328706330Y-155191513D03*
%TO.P,S20,2*%
%TO.N,mirror_pinky_bottom*%
X325474630Y-161218967D03*
%TD*%
%TO.P,S4,1*%
%TO.N,P5*%
X63682060Y-160486769D03*
%TO.P,S4,2*%
%TO.N,ring_bottom*%
X57184997Y-158350820D03*
%TD*%
D23*
%TO.P,D19,1*%
%TO.N,P10*%
X164421769Y-249350759D03*
D24*
X166548953Y-249725842D03*
%TO.P,D19,2*%
%TO.N,two_one*%
X169798819Y-250298878D03*
D13*
X171926003Y-250673961D03*
%TD*%
D16*
%TO.P,S25,1*%
%TO.N,P5*%
X281051404Y-128035122D03*
%TO.P,S25,2*%
%TO.N,mirror_ring_top*%
X277819704Y-134062576D03*
%TD*%
D14*
%TO.P,D11,1*%
%TO.N,P14*%
X94994285Y-172564548D03*
D15*
X96648940Y-173952967D03*
%TO.P,D11,2*%
%TO.N,index_home*%
X99176888Y-176074171D03*
D13*
X100831543Y-177462590D03*
%TD*%
D11*
%TO.P,D20,1*%
%TO.N,P8*%
X330321253Y-166994941D03*
D12*
X331975910Y-165606521D03*
%TO.P,D20,2*%
%TO.N,mirror_pinky_bottom*%
X334503854Y-163485319D03*
D13*
X336158511Y-162096899D03*
%TD*%
D25*
%TO.P,D17,1*%
%TO.N,P10*%
X83448946Y-230506973D03*
D26*
X84187711Y-232536709D03*
%TO.P,D17,2*%
%TO.N,space_cluster*%
X85316375Y-235637693D03*
D13*
X86055140Y-237667429D03*
%TD*%
D11*
%TO.P,D23,1*%
%TO.N,P8*%
X307156535Y-169024843D03*
D12*
X308811192Y-167636423D03*
%TO.P,D23,2*%
%TO.N,mirror_ring_bottom*%
X311339136Y-165515221D03*
D13*
X312993793Y-164126801D03*
%TD*%
D11*
%TO.P,D28,1*%
%TO.N,P6*%
X263175140Y-146246389D03*
D12*
X264829797Y-144857969D03*
%TO.P,D28,2*%
%TO.N,mirror_middle_top*%
X267357741Y-142736767D03*
D13*
X269012398Y-141348347D03*
%TD*%
D16*
%TO.P,S30,1*%
%TO.N,P19*%
X262885704Y-165659156D03*
%TO.P,S30,2*%
%TO.N,mirror_index_home*%
X259654004Y-171686610D03*
%TD*%
D14*
%TO.P,D7,1*%
%TO.N,P16*%
X71829565Y-170534646D03*
D15*
X73484220Y-171923065D03*
%TO.P,D7,2*%
%TO.N,middle_bottom*%
X76012168Y-174044269D03*
D13*
X77666823Y-175432688D03*
%TD*%
D14*
%TO.P,D9,1*%
%TO.N,P15*%
X96319779Y-141348351D03*
D15*
X97974434Y-142736770D03*
%TO.P,D9,2*%
%TO.N,middle_top*%
X100502382Y-144857974D03*
D13*
X102157037Y-146246393D03*
%TD*%
D16*
%TO.P,S1,1*%
%TO.N,P4*%
X40517342Y-158456872D03*
%TO.P,S1,2*%
%TO.N,pinky_bottom*%
X34020279Y-156320923D03*
%TD*%
D11*
%TO.P,D26,1*%
%TO.N,P8*%
X287665342Y-175432688D03*
D12*
X289319999Y-174044268D03*
%TO.P,D26,2*%
%TO.N,mirror_middle_bottom*%
X291847943Y-171923066D03*
D13*
X293502600Y-170534646D03*
%TD*%
D16*
%TO.P,S11,1*%
%TO.N,P19*%
X106337970Y-168924517D03*
%TO.P,S11,2*%
%TO.N,index_home*%
X99840907Y-166788568D03*
%TD*%
%TO.P,S27,1*%
%TO.N,P18*%
X273805327Y-149036110D03*
%TO.P,S27,2*%
%TO.N,mirror_middle_home*%
X270573627Y-155063564D03*
%TD*%
%TO.P,S19,1*%
%TO.N,P20*%
X172425673Y-240526568D03*
%TO.P,S19,2*%
%TO.N,two_one*%
X165731080Y-241925316D03*
%TD*%
%TO.P,S9,1*%
%TO.N,P18*%
X107663461Y-137708325D03*
%TO.P,S9,2*%
%TO.N,middle_top*%
X101166398Y-135572376D03*
%TD*%
D27*
%TO.P,OLED1,1*%
%TO.N,GND*%
X186716086Y-153747078D03*
D28*
%TO.P,OLED1,2*%
%TO.N,VCC*%
X184176089Y-153747077D03*
%TO.P,OLED1,3*%
%TO.N,P3*%
X181636087Y-153747078D03*
%TO.P,OLED1,4*%
%TO.N,P2*%
X179096089Y-153747077D03*
%TD*%
D29*
%TO.P,D38,1*%
%TO.N,P9*%
X193406162Y-250673961D03*
D30*
X195533347Y-250298878D03*
%TO.P,D38,2*%
%TO.N,mirror_two_one*%
X198783211Y-249725842D03*
D13*
X200910396Y-249350759D03*
%TD*%
D14*
%TO.P,D3,1*%
%TO.N,P15*%
X53663864Y-132910604D03*
D15*
X55318519Y-134299023D03*
%TO.P,D3,2*%
%TO.N,pinky_top*%
X57846467Y-136420227D03*
D13*
X59501122Y-137808646D03*
%TD*%
D11*
%TO.P,D22,1*%
%TO.N,P6*%
X305831039Y-137808649D03*
D12*
X307485696Y-136420229D03*
%TO.P,D22,2*%
%TO.N,mirror_pinky_top*%
X310013640Y-134299027D03*
D13*
X311668297Y-132910607D03*
%TD*%
D16*
%TO.P,S23,1*%
%TO.N,P5*%
X305541612Y-157221412D03*
%TO.P,S23,2*%
%TO.N,mirror_ring_bottom*%
X302309912Y-163248866D03*
%TD*%
D14*
%TO.P,D10,1*%
%TO.N,P16*%
X82749188Y-187157697D03*
D15*
X84403843Y-188546116D03*
%TO.P,D10,2*%
%TO.N,index_bottom*%
X86931791Y-190667320D03*
D13*
X88586446Y-192055739D03*
%TD*%
D11*
%TO.P,D30,1*%
%TO.N,P7*%
X264500625Y-177462588D03*
D12*
X266155282Y-176074168D03*
%TO.P,D30,2*%
%TO.N,mirror_index_home*%
X268683226Y-173952966D03*
D13*
X270337883Y-172564546D03*
%TD*%
D11*
%TO.P,D24,1*%
%TO.N,P7*%
X294911432Y-154431695D03*
D12*
X296566089Y-153043275D03*
%TO.P,D24,2*%
%TO.N,mirror_ring_home*%
X299094033Y-150922073D03*
D13*
X300748690Y-149533653D03*
%TD*%
D16*
%TO.P,S3,1*%
%TO.N,P4*%
X65007554Y-129270579D03*
%TO.P,S3,2*%
%TO.N,pinky_top*%
X58510491Y-127134630D03*
%TD*%
D14*
%TO.P,D1,1*%
%TO.N,P16*%
X29173664Y-162096897D03*
D15*
X30828319Y-163485316D03*
%TO.P,D1,2*%
%TO.N,pinky_bottom*%
X33356267Y-165606520D03*
D13*
X35010922Y-166994939D03*
%TD*%
D31*
%TO.P,D18,1*%
%TO.N,P10*%
X139275756Y-241824293D03*
D32*
X141305491Y-242563058D03*
%TO.P,D18,2*%
%TO.N,one_one*%
X144406477Y-243691722D03*
D13*
X146436212Y-244430487D03*
%TD*%
D16*
%TO.P,S22,1*%
%TO.N,P4*%
X304216124Y-126005214D03*
%TO.P,S22,2*%
%TO.N,mirror_pinky_top*%
X300984424Y-132032668D03*
%TD*%
D14*
%TO.P,D14,1*%
%TO.N,P14*%
X107138413Y-187728282D03*
D15*
X108793068Y-189116701D03*
%TO.P,D14,2*%
%TO.N,inner_home*%
X111321016Y-191237905D03*
D13*
X112975671Y-192626324D03*
%TD*%
D16*
%TO.P,S33,1*%
%TO.N,P20*%
X250741581Y-180822895D03*
%TO.P,S33,2*%
%TO.N,mirror_inner_home*%
X247509881Y-186850349D03*
%TD*%
D33*
%TO.P,D36,1*%
%TO.N,P9*%
X279277029Y-237667435D03*
D34*
X280015794Y-235637700D03*
%TO.P,D36,2*%
%TO.N,mirror_space_cluster*%
X281144458Y-232536714D03*
D13*
X281883223Y-230506979D03*
%TD*%
D16*
%TO.P,S15,1*%
%TO.N,P20*%
X130727203Y-169495107D03*
%TO.P,S15,2*%
%TO.N,inner_top*%
X124230140Y-167359158D03*
%TD*%
%TO.P,S2,1*%
%TO.N,P4*%
X52762450Y-143863732D03*
%TO.P,S2,2*%
%TO.N,pinky_home*%
X46265387Y-141727783D03*
%TD*%
D14*
%TO.P,D6,1*%
%TO.N,P15*%
X76828593Y-134940502D03*
D15*
X78483248Y-136328921D03*
%TO.P,D6,2*%
%TO.N,ring_top*%
X81011196Y-138450125D03*
D13*
X82665851Y-139838544D03*
%TD*%
D16*
%TO.P,S14,1*%
%TO.N,P20*%
X118482096Y-184088253D03*
%TO.P,S14,2*%
%TO.N,inner_home*%
X111985033Y-181952304D03*
%TD*%
%TO.P,S6,1*%
%TO.N,P5*%
X88172272Y-131300481D03*
%TO.P,S6,2*%
%TO.N,ring_top*%
X81675209Y-129164532D03*
%TD*%
%TO.P,S13,1*%
%TO.N,P20*%
X106236992Y-198681397D03*
%TO.P,S13,2*%
%TO.N,inner_bottom*%
X99739929Y-196545448D03*
%TD*%
D11*
%TO.P,D31,1*%
%TO.N,P6*%
X252255516Y-162869442D03*
D12*
X253910173Y-161481022D03*
%TO.P,D31,2*%
%TO.N,mirror_index_top*%
X256438117Y-159359820D03*
D13*
X258092774Y-157971400D03*
%TD*%
D16*
%TO.P,S7,1*%
%TO.N,P18*%
X83173254Y-166894621D03*
%TO.P,S7,2*%
%TO.N,middle_bottom*%
X76676191Y-164758672D03*
%TD*%
%TO.P,S34,1*%
%TO.N,P20*%
X238496474Y-166229743D03*
%TO.P,S34,2*%
%TO.N,mirror_inner_top*%
X235264774Y-172257197D03*
%TD*%
D35*
%TO.P,MCU1,1*%
%TO.N,RAW*%
X175046085Y-120783935D03*
D36*
%TO.P,MCU1,2*%
%TO.N,GND*%
X175046086Y-123323934D03*
%TO.P,MCU1,3*%
%TO.N,RST*%
X175046085Y-125863931D03*
%TO.P,MCU1,4*%
%TO.N,VCC*%
X175046086Y-128403934D03*
%TO.P,MCU1,5*%
%TO.N,P21*%
X175046085Y-130943932D03*
%TO.P,MCU1,6*%
%TO.N,P20*%
X175046085Y-133483933D03*
%TO.P,MCU1,7*%
%TO.N,P19*%
X175046085Y-136023933D03*
%TO.P,MCU1,8*%
%TO.N,P18*%
X175046086Y-138563934D03*
%TO.P,MCU1,9*%
%TO.N,P15*%
X175046088Y-141103933D03*
%TO.P,MCU1,10*%
%TO.N,P14*%
X175046086Y-143643934D03*
%TO.P,MCU1,11*%
%TO.N,P16*%
X175046086Y-146183933D03*
%TO.P,MCU1,12*%
%TO.N,P10*%
X175046085Y-148723931D03*
%TO.P,MCU1,13*%
%TO.N,P1*%
X190286085Y-120783935D03*
%TO.P,MCU1,14*%
%TO.N,P0*%
X190286084Y-123323933D03*
%TO.P,MCU1,15*%
%TO.N,GND*%
X190286084Y-125863932D03*
%TO.P,MCU1,16*%
X190286082Y-128403933D03*
%TO.P,MCU1,17*%
%TO.N,P2*%
X190286084Y-130943932D03*
%TO.P,MCU1,18*%
%TO.N,P3*%
X190286085Y-133483933D03*
%TO.P,MCU1,19*%
%TO.N,P4*%
X190286085Y-136023933D03*
%TO.P,MCU1,20*%
%TO.N,P5*%
X190286085Y-138563934D03*
%TO.P,MCU1,21*%
%TO.N,P6*%
X190286084Y-141103932D03*
%TO.P,MCU1,22*%
%TO.N,P7*%
X190286085Y-143643935D03*
%TO.P,MCU1,23*%
%TO.N,P8*%
X190286084Y-146183932D03*
%TO.P,MCU1,24*%
%TO.N,P9*%
X190286085Y-148723931D03*
%TD*%
D16*
%TO.P,S28,1*%
%TO.N,P18*%
X261560216Y-134442965D03*
%TO.P,S28,2*%
%TO.N,mirror_middle_top*%
X258328516Y-140470419D03*
%TD*%
D14*
%TO.P,D12,1*%
%TO.N,P15*%
X107239388Y-157971400D03*
D15*
X108894043Y-159359819D03*
%TO.P,D12,2*%
%TO.N,index_top*%
X111421991Y-161481023D03*
D13*
X113076646Y-162869442D03*
%TD*%
D37*
%TO.N,P19*%
X155200000Y-153000000D03*
X158430851Y-152830851D03*
%TO.N,GND*%
X186800000Y-132800000D03*
X186600000Y-139200000D03*
%TD*%
D38*
%TO.N,P4*%
X52762449Y-143863727D02*
X53226624Y-149169251D01*
X329170509Y-149885991D02*
X328706338Y-155191517D01*
X304216124Y-126005213D02*
X309521645Y-126469389D01*
X58067967Y-143399553D02*
X52762449Y-143863727D01*
X309521645Y-126469389D02*
X316925400Y-135292839D01*
X316461227Y-140598364D02*
X321766753Y-141062538D01*
X65007556Y-129270581D02*
X65471720Y-134576102D01*
X316925400Y-135292839D02*
X316461227Y-140598364D01*
X45822867Y-157992699D02*
X40517344Y-158456873D01*
X65471720Y-134576102D02*
X58067967Y-143399553D01*
X321766753Y-141062538D02*
X329170509Y-149885991D01*
X53226624Y-149169251D02*
X45822867Y-157992699D01*
%TO.N,pinky_bottom*%
X34020278Y-156320921D02*
X32683197Y-157914393D01*
X32683197Y-157914393D02*
X33356161Y-165606432D01*
X33356161Y-165606432D02*
X35010922Y-166994934D01*
X33356266Y-165606519D02*
X35010922Y-166994934D01*
%TO.N,pinky_home*%
X46265384Y-141727774D02*
X44928298Y-143321251D01*
X45601263Y-151013290D02*
X47256018Y-152401793D01*
X45601365Y-151013372D02*
X47256018Y-152401793D01*
X44928298Y-143321251D02*
X45601263Y-151013290D01*
%TO.N,pinky_top*%
X58510491Y-127134626D02*
X57173408Y-128728103D01*
X57846374Y-136420143D02*
X59501121Y-137808645D01*
X57173408Y-128728103D02*
X57846374Y-136420143D01*
X57846469Y-136420228D02*
X59501121Y-137808645D01*
%TO.N,P5*%
X298602035Y-143092436D02*
X306005787Y-151915887D01*
X75927167Y-145893624D02*
X76391339Y-151199149D01*
X76391339Y-151199149D02*
X68987586Y-160022598D01*
X81232688Y-145429452D02*
X75927167Y-145893624D01*
X293760681Y-137322751D02*
X293296512Y-142628267D01*
X306005787Y-151915887D02*
X305541613Y-157221411D01*
X293296512Y-142628267D02*
X298602035Y-143092436D01*
X301032625Y-161004902D02*
X298039863Y-195212322D01*
X84274126Y-207161666D02*
X84653356Y-211496325D01*
X305541613Y-157221411D02*
X301032625Y-161004902D01*
X281051405Y-128035123D02*
X286356930Y-128499295D01*
X66457647Y-192211869D02*
X84274126Y-207161666D01*
X88636445Y-136606004D02*
X81232688Y-145429452D01*
X68987586Y-160022598D02*
X63682060Y-160486773D01*
X88172271Y-131300480D02*
X88636445Y-136606004D01*
X286356930Y-128499295D02*
X293760681Y-137322751D01*
X63682060Y-160486773D02*
X66457647Y-192211869D01*
X298039863Y-195212322D02*
X283592583Y-207335026D01*
%TO.N,ring_bottom*%
X56520881Y-167636338D02*
X58175636Y-169024843D01*
X55847916Y-159944298D02*
X56520881Y-167636338D01*
X57184994Y-158350823D02*
X55847916Y-159944298D01*
X56520985Y-167636423D02*
X58175636Y-169024843D01*
%TO.N,ring_home*%
X68765985Y-153043190D02*
X70420741Y-154431696D01*
X69430106Y-143757675D02*
X68093020Y-145351149D01*
X68093020Y-145351149D02*
X68765985Y-153043190D01*
X68766090Y-153043276D02*
X70420741Y-154431696D01*
%TO.N,ring_top*%
X81011091Y-138450046D02*
X82665850Y-139838550D01*
X80338125Y-130758004D02*
X81011091Y-138450046D01*
X81675206Y-129164531D02*
X80338125Y-130758004D01*
X81011191Y-138450131D02*
X82665850Y-139838550D01*
%TO.N,P18*%
X95882526Y-157606995D02*
X88478773Y-166430447D01*
X92825555Y-207110882D02*
X95092875Y-233026465D01*
X273805325Y-149036111D02*
X279110850Y-149500286D01*
X286514601Y-158323735D02*
X286050430Y-163629257D01*
X286050430Y-163629257D02*
X281541436Y-167412750D01*
X281541436Y-167412750D02*
X280383069Y-180652997D01*
X108127628Y-143013849D02*
X100723882Y-151837296D01*
X100723882Y-151837296D02*
X95418356Y-152301467D01*
X279110850Y-149500286D02*
X286514601Y-158323735D01*
X266865741Y-134907138D02*
X274269501Y-143730596D01*
X88478773Y-166430447D02*
X83173249Y-166894616D01*
X280383069Y-180652997D02*
X284104880Y-185088483D01*
X95418356Y-152301467D02*
X95882526Y-157606995D01*
X284104880Y-185088483D02*
X282219793Y-206635161D01*
X78671587Y-172259488D02*
X80840872Y-197054536D01*
X107663458Y-137708322D02*
X108127628Y-143013849D01*
X273206358Y-214198326D02*
X271976754Y-228252822D01*
X261560218Y-134442967D02*
X266865741Y-134907138D01*
X83173249Y-166894616D02*
X78671587Y-172259488D01*
X274269501Y-143730596D02*
X273805325Y-149036111D01*
X282219793Y-206635161D02*
X273206358Y-214198326D01*
X80840872Y-197054536D02*
X92825555Y-207110882D01*
%TO.N,middle_bottom*%
X76012069Y-174044181D02*
X77666825Y-175432686D01*
X76676189Y-164758667D02*
X75339102Y-166352145D01*
X75339102Y-166352145D02*
X76012069Y-174044181D01*
X76012172Y-174044268D02*
X77666825Y-175432686D01*
%TO.N,middle_home*%
X88921289Y-150165522D02*
X87584213Y-151758995D01*
X88257175Y-159451035D02*
X89911932Y-160839545D01*
X88257274Y-159451122D02*
X89911932Y-160839545D01*
X87584213Y-151758995D02*
X88257175Y-159451035D01*
%TO.N,middle_top*%
X100502387Y-144857973D02*
X102157035Y-146246398D01*
X100502275Y-144857886D02*
X102157035Y-146246398D01*
X99829315Y-137165849D02*
X100502275Y-144857886D01*
X101166395Y-135572376D02*
X99829315Y-137165849D01*
%TO.N,P19*%
X164347065Y-234524026D02*
X173023039Y-243200000D01*
X263349876Y-160353635D02*
X262885704Y-165659156D01*
X148690365Y-234524026D02*
X164347065Y-234524026D01*
X262885704Y-165659156D02*
X268191229Y-166123331D01*
X147437359Y-233271020D02*
X138671020Y-233271020D01*
X275594983Y-174946781D02*
X275130808Y-180252304D01*
X221415445Y-232786560D02*
X254226515Y-199975490D01*
X255946127Y-151530187D02*
X263349876Y-160353635D01*
X250640605Y-151066012D02*
X255946127Y-151530187D01*
X270400000Y-184983112D02*
X275130807Y-180252305D01*
X99398389Y-183053488D02*
X94092861Y-183517665D01*
X180619494Y-241780506D02*
X209805764Y-241780506D01*
X106802139Y-174230041D02*
X99398389Y-183053488D01*
X94092866Y-188692866D02*
X94092866Y-183517666D01*
X119047246Y-159636896D02*
X111643489Y-168460344D01*
X111643489Y-168460344D02*
X106337965Y-168924522D01*
X209805764Y-241780506D02*
X218799710Y-232786560D01*
X173023039Y-243200000D02*
X179200000Y-243200000D01*
X118583069Y-154331372D02*
X119047246Y-159636896D01*
X268191229Y-166123331D02*
X275594983Y-174946781D01*
X138671020Y-233271020D02*
X94092866Y-188692866D01*
X179200000Y-243200000D02*
X180619494Y-241780506D01*
X260503291Y-199975490D02*
X270400000Y-190078781D01*
X175046085Y-136023933D02*
X158430851Y-152639167D01*
X158430851Y-152639167D02*
X158430851Y-152830851D01*
X270400000Y-190078781D02*
X270400000Y-184983112D01*
X148690365Y-234524026D02*
X147437359Y-233271020D01*
X254226515Y-199975490D02*
X260503291Y-199975490D01*
X119914451Y-153000000D02*
X118583075Y-154331376D01*
X106337965Y-168924522D02*
X106802139Y-174230041D01*
X218799710Y-232786560D02*
X221415445Y-232786560D01*
X155200000Y-153000000D02*
X119914451Y-153000000D01*
%TO.N,index_bottom*%
X87595803Y-181381716D02*
X86258718Y-182975192D01*
X86931684Y-190667232D02*
X88586443Y-192055738D01*
X86258718Y-182975192D02*
X86931684Y-190667232D01*
X86931787Y-190667316D02*
X88586443Y-192055738D01*
%TO.N,index_home*%
X98503821Y-168382044D02*
X99176791Y-176074083D01*
X99840904Y-166788569D02*
X98503821Y-168382044D01*
X99176791Y-176074083D02*
X100831546Y-177462588D01*
X99176893Y-176074170D02*
X100831546Y-177462588D01*
%TO.N,index_top*%
X111421895Y-161480938D02*
X113076650Y-162869440D01*
X110748926Y-153788896D02*
X111421895Y-161480938D01*
X112086018Y-152195421D02*
X110748926Y-153788896D01*
X111421996Y-161481023D02*
X113076650Y-162869440D01*
%TO.N,P20*%
X140741289Y-169495107D02*
X130727203Y-169495107D01*
X111599556Y-198212234D02*
X106236993Y-198681400D01*
X208755574Y-239644426D02*
X252983964Y-195416036D01*
X263568693Y-188763670D02*
X262986682Y-195416038D01*
X238496479Y-166229746D02*
X244021772Y-166713144D01*
X197909323Y-239644426D02*
X208755574Y-239644426D01*
X197027181Y-240526568D02*
X197909323Y-239644426D01*
X251224981Y-175297598D02*
X250741581Y-180822889D01*
X250741581Y-180822889D02*
X257393947Y-181404897D01*
X130727200Y-169495103D02*
X131191372Y-174800633D01*
X162699105Y-230800000D02*
X138355595Y-230800000D01*
X166050000Y-144186396D02*
X140741289Y-169495107D01*
X138355595Y-230800000D02*
X106236992Y-198681397D01*
X257393947Y-181404897D02*
X263568693Y-188763670D01*
X244021772Y-166713144D02*
X251224981Y-175297598D01*
X175046085Y-133483933D02*
X166050000Y-142480018D01*
X252983964Y-195416036D02*
X262986679Y-195416036D01*
X123787617Y-183624078D02*
X118482099Y-184088249D01*
X118482099Y-184088249D02*
X118951260Y-189450814D01*
X172425673Y-240526568D02*
X197027181Y-240526568D01*
X131191372Y-174800633D02*
X123787617Y-183624078D01*
X166050000Y-142480018D02*
X166050000Y-144186396D01*
X172425673Y-240526568D02*
X162699105Y-230800000D01*
X118951260Y-189450814D02*
X111599556Y-198212234D01*
%TO.N,inner_bottom*%
X99075810Y-205830964D02*
X100730570Y-207219469D01*
X98402846Y-198138922D02*
X99075810Y-205830964D01*
X99075912Y-205831048D02*
X100730570Y-207219469D01*
X99739931Y-196545447D02*
X98402846Y-198138922D01*
%TO.N,inner_home*%
X111321018Y-191237903D02*
X112975670Y-192626322D01*
X111985034Y-181952299D02*
X110647946Y-183545777D01*
X111320918Y-191237812D02*
X112975670Y-192626322D01*
X110647946Y-183545777D02*
X111320918Y-191237812D01*
%TO.N,inner_top*%
X124230137Y-167359160D02*
X122893054Y-168952632D01*
X123566125Y-176644750D02*
X125220774Y-178033174D01*
X122893054Y-168952632D02*
X123566021Y-176644668D01*
X123566021Y-176644668D02*
X125220774Y-178033174D01*
%TO.N,layer_cluster*%
X75885748Y-216548828D02*
X77124742Y-218318299D01*
X78930498Y-207751595D02*
X77226553Y-208944712D01*
X77226553Y-208944712D02*
X75885748Y-216548828D01*
%TO.N,space_cluster*%
X85316334Y-235637582D02*
X86055144Y-237667432D01*
X88579545Y-228639592D02*
X85316334Y-235637582D01*
X90534228Y-227928150D02*
X88579545Y-228639592D01*
%TO.N,one_one*%
X146436211Y-244430484D02*
X146436212Y-244430490D01*
X141143139Y-236693704D02*
X144406351Y-243691681D01*
X144406351Y-243691681D02*
X146436212Y-244430490D01*
X141854588Y-234739020D02*
X141143139Y-236693704D01*
X144406480Y-243691723D02*
X146436211Y-244430484D01*
%TO.N,two_one*%
X165369868Y-243973842D02*
X165731080Y-241925315D01*
X171926002Y-250673955D02*
X171926004Y-250673957D01*
X169798690Y-250298854D02*
X165369868Y-243973842D01*
X169798821Y-250298878D02*
X171926002Y-250673955D01*
X171926004Y-250673957D02*
X169798690Y-250298854D01*
%TO.N,mirror_pinky_bottom*%
X334503855Y-163485314D02*
X336158508Y-162096896D01*
X325474631Y-161218967D02*
X326811718Y-162812443D01*
X326811718Y-162812443D02*
X334503744Y-163485407D01*
X334503744Y-163485407D02*
X336158508Y-162096896D01*
%TO.N,mirror_pinky_home*%
X322258644Y-148892257D02*
X323913403Y-147503751D01*
X314566609Y-148219295D02*
X322258644Y-148892257D01*
X313229526Y-146625813D02*
X314566609Y-148219295D01*
X322258747Y-148892171D02*
X323913403Y-147503751D01*
%TO.N,mirror_pinky_top*%
X300984419Y-132032668D02*
X302321507Y-133626142D01*
X302321507Y-133626142D02*
X310013548Y-134299111D01*
X310013548Y-134299111D02*
X311668297Y-132910609D01*
X310013643Y-134299026D02*
X311668297Y-132910609D01*
%TO.N,mirror_ring_bottom*%
X302309914Y-163248860D02*
X303646997Y-164842340D01*
X303646997Y-164842340D02*
X311339033Y-165515301D01*
X311339137Y-165515221D02*
X312993792Y-164126801D01*
X311339033Y-165515301D02*
X312993792Y-164126801D01*
%TO.N,mirror_ring_home*%
X290064807Y-148655720D02*
X291401895Y-150249193D01*
X299093926Y-150922159D02*
X300748687Y-149533649D01*
X299094031Y-150922070D02*
X300748687Y-149533649D01*
X291401895Y-150249193D02*
X299093926Y-150922159D01*
%TO.N,mirror_ring_top*%
X277819701Y-134062576D02*
X279156788Y-135656052D01*
X286848822Y-136329015D02*
X288503582Y-134940509D01*
X286848927Y-136328929D02*
X288503582Y-134940509D01*
X279156788Y-135656052D02*
X286848822Y-136329015D01*
%TO.N,mirror_middle_bottom*%
X291847948Y-171923067D02*
X293502601Y-170534648D01*
X282818728Y-169656713D02*
X284155811Y-171250184D01*
X291847847Y-171923150D02*
X293502601Y-170534648D01*
X284155811Y-171250184D02*
X291847847Y-171923150D01*
%TO.N,mirror_middle_home*%
X279602844Y-157329918D02*
X281257499Y-155941498D01*
X271910709Y-156657041D02*
X279602743Y-157330002D01*
X279602743Y-157330002D02*
X281257499Y-155941498D01*
X270573625Y-155063563D02*
X271910709Y-156657041D01*
%TO.N,mirror_middle_top*%
X258328513Y-140470418D02*
X259665601Y-142063893D01*
X267357631Y-142736860D02*
X269012392Y-141348350D01*
X267357739Y-142736768D02*
X269012392Y-141348350D01*
X259665601Y-142063893D02*
X267357631Y-142736860D01*
%TO.N,mirror_index_bottom*%
X280928229Y-188546195D02*
X282582983Y-187157691D01*
X273236192Y-187873231D02*
X280928229Y-188546195D01*
X271899106Y-186279754D02*
X273236192Y-187873231D01*
X280928324Y-188546112D02*
X282582983Y-187157691D01*
%TO.N,mirror_index_home*%
X259654001Y-171686607D02*
X260991085Y-173280081D01*
X268683225Y-173952966D02*
X270337883Y-172564545D01*
X268683126Y-173953051D02*
X270337883Y-172564545D01*
X260991085Y-173280081D02*
X268683126Y-173953051D01*
%TO.N,mirror_index_top*%
X256438021Y-159359907D02*
X258092774Y-157971402D01*
X248745984Y-158686941D02*
X256438021Y-159359907D01*
X247408904Y-157093464D02*
X248745984Y-158686941D01*
X256438125Y-159359823D02*
X258092774Y-157971402D01*
%TO.N,mirror_inner_bottom*%
X259754978Y-201443488D02*
X261092064Y-203036964D01*
X268784204Y-203709847D02*
X270438859Y-202321426D01*
X261092064Y-203036964D02*
X268784104Y-203709931D01*
X268784104Y-203709931D02*
X270438859Y-202321426D01*
%TO.N,mirror_inner_home*%
X248846963Y-188443822D02*
X256538997Y-189116783D01*
X256539098Y-189116700D02*
X258193756Y-187728279D01*
X256538997Y-189116783D02*
X258193756Y-187728279D01*
X247509879Y-186850344D02*
X248846963Y-188443822D01*
%TO.N,mirror_inner_top*%
X236601858Y-173850673D02*
X244293891Y-174523639D01*
X235264777Y-172257197D02*
X236601858Y-173850673D01*
X244293891Y-174523639D02*
X245948654Y-173135130D01*
X244293997Y-174523545D02*
X245948654Y-173135130D01*
%TO.N,mirror_layer_cluster*%
X291339080Y-213845837D02*
X292578081Y-212076368D01*
X291339154Y-213845735D02*
X292578081Y-212076368D01*
X282031020Y-213993529D02*
X283734968Y-215186647D01*
X283734968Y-215186647D02*
X291339080Y-213845837D01*
%TO.N,mirror_space_cluster*%
X272191747Y-235088602D02*
X274146430Y-235800047D01*
X281883221Y-230506980D02*
X281144458Y-232536717D01*
X281144416Y-232536832D02*
X281883221Y-230506980D01*
X274146430Y-235800047D02*
X281144416Y-232536832D01*
%TO.N,mirror_one_one*%
X217028576Y-239299895D02*
X224026554Y-242563104D01*
X216317127Y-237345207D02*
X217028576Y-239299895D01*
X224026554Y-242563104D02*
X226056411Y-241824296D01*
X224026675Y-242563061D02*
X226056410Y-241824298D01*
X226056410Y-241824298D02*
X226056411Y-241824296D01*
%TO.N,mirror_two_one*%
X198783211Y-249725841D02*
X200910394Y-249350762D01*
X200910394Y-249350762D02*
X200910395Y-249350760D01*
X198783091Y-249725862D02*
X200910395Y-249350760D01*
X192458069Y-245297035D02*
X198783091Y-249725862D01*
X192096860Y-243248507D02*
X192458069Y-245297035D01*
%TO.N,P16*%
X71829570Y-170534645D02*
X73484227Y-171923066D01*
X94893311Y-202321431D02*
X96547967Y-203709848D01*
X52338385Y-164126799D02*
X53993045Y-165515227D01*
X82749188Y-187157693D02*
X84403835Y-188546116D01*
X29173658Y-162096894D02*
X30828318Y-163485318D01*
%TO.N,P14*%
X64583484Y-149533650D02*
X66238139Y-150922076D01*
X107138411Y-187728279D02*
X108793071Y-189116706D01*
X84074670Y-155941499D02*
X85729330Y-157329917D01*
X41418762Y-147503751D02*
X43073418Y-148892173D01*
X94994290Y-172564546D02*
X96648943Y-173952968D01*
%TO.N,P15*%
X53663866Y-132910608D02*
X55318521Y-134299027D01*
X107239393Y-157971400D02*
X108894048Y-159359825D01*
X96319781Y-141348349D02*
X97974433Y-142736774D01*
X119383523Y-173135128D02*
X121038179Y-174523549D01*
X76828588Y-134940506D02*
X78483243Y-136328928D01*
%TO.N,P10*%
X139275757Y-241824294D02*
X141305490Y-242563056D01*
X141305490Y-242563056D02*
X141305490Y-242563060D01*
X164421772Y-249350758D02*
X166548951Y-249725837D01*
X166548951Y-249725837D02*
X166548954Y-249725843D01*
%TO.N,P8*%
X330321251Y-166994942D02*
X331975905Y-165606518D01*
X264601602Y-207219468D02*
X266256259Y-205831046D01*
X276745728Y-192055734D02*
X278400383Y-190667314D01*
X287665347Y-175432686D02*
X289320001Y-174044270D01*
X307156531Y-169024840D02*
X308811191Y-167636419D01*
%TO.N,P7*%
X275420244Y-160839539D02*
X277074898Y-159451123D01*
X264500626Y-177462586D02*
X266155280Y-176074165D01*
X318076151Y-152401795D02*
X319730802Y-151013369D01*
X294911430Y-154431692D02*
X296566088Y-153043271D01*
X252356496Y-192626323D02*
X254011153Y-191237901D01*
%TO.N,P6*%
X282666326Y-139838552D02*
X284320982Y-138450128D01*
X240111395Y-178033168D02*
X241766053Y-176644749D01*
X263175140Y-146246395D02*
X264829794Y-144857969D01*
X252255520Y-162869441D02*
X253910175Y-161481026D01*
X305831042Y-137808652D02*
X307485698Y-136420227D01*
%TO.N,P9*%
X218895957Y-244430491D02*
X220925691Y-243691727D01*
X220925691Y-243691727D02*
X220925692Y-243691725D01*
X193406163Y-250673960D02*
X195533347Y-250298880D01*
X280015794Y-235637704D02*
X279277029Y-237667439D01*
X288207427Y-218318305D02*
X289446356Y-216548938D01*
X195533347Y-250298880D02*
X195533348Y-250298879D01*
%TO.N,GND*%
X164516091Y-133853929D02*
X175046086Y-123323934D01*
X186716086Y-153747078D02*
X186716086Y-139316086D01*
X164516091Y-136867156D02*
X164516091Y-143067149D01*
X186800000Y-132800000D02*
X187200000Y-132400000D01*
X186716086Y-139316086D02*
X186600000Y-139200000D01*
X187746086Y-123323934D02*
X190286084Y-125863932D01*
X187200000Y-131490015D02*
X190286082Y-128403933D01*
X190286084Y-128403931D02*
X190286082Y-128403933D01*
X190286084Y-125863932D02*
X190286084Y-128403931D01*
X175046086Y-123323934D02*
X187746086Y-123323934D01*
X187200000Y-132400000D02*
X187200000Y-131490015D01*
X164516091Y-136867156D02*
X164516091Y-133853929D01*
%TO.N,RST*%
X160816091Y-136867155D02*
X160816091Y-143067148D01*
X165600000Y-134000000D02*
X165800000Y-133800000D01*
X167110016Y-133800000D02*
X175046085Y-125863931D01*
X162041092Y-144292149D02*
X165307851Y-144292149D01*
X165307851Y-144292149D02*
X165600000Y-144000000D01*
X165600000Y-144000000D02*
X165600000Y-134000000D01*
X165800000Y-133800000D02*
X167110016Y-133800000D01*
X160816091Y-143067148D02*
X162041092Y-144292149D01*
%TO.N,VCC*%
X184176089Y-153747077D02*
X183001089Y-154922077D01*
X183001089Y-154922077D02*
X178609388Y-154922077D01*
X176247385Y-152560074D02*
X176247385Y-129605233D01*
X176247385Y-129605233D02*
X175046086Y-128403934D01*
X178609388Y-154922077D02*
X176247385Y-152560074D01*
%TO.N,P2*%
X179096089Y-153747077D02*
X179096089Y-142133927D01*
X179096089Y-142133927D02*
X190286084Y-130943932D01*
%TO.N,P3*%
X181636087Y-142133931D02*
X181636087Y-153747078D01*
X190286085Y-133483933D02*
X181636087Y-142133931D01*
%TD*%
M02*
