M48
; DRILL file {KiCad 8.0.1} date 2024-05-19T15:34:09+0900
; FORMAT={-:-/ absolute / inch / decimal}
; #@! TF.CreationDate,2024-05-19T15:34:09+09:00
; #@! TF.GenerationSoftware,Kicad,Pcbnew,8.0.1
; #@! TF.FileFunction,Plated,1,2,PTH
FMAT,2
INCH
; #@! TA.AperFunction,Plated,PTH,ViaDrill
T1C0.0157
; #@! TA.AperFunction,Plated,PTH,ComponentDrill
T2C0.0390
; #@! TA.AperFunction,Plated,PTH,ComponentDrill
T3C0.0394
; #@! TA.AperFunction,Plated,PTH,ComponentDrill
T4C0.0430
; #@! TA.AperFunction,Plated,PTH,ComponentDrill
T5C0.0590
%
G90
G05
T1
X6.1102Y-6.0236
X6.2374Y-6.017
X7.3465Y-5.4803
X7.3543Y-5.2283
T2
X1.1486Y-6.3818
X1.3784Y-6.5746
X1.6307Y-5.8072
X1.8605Y-6.0001
X2.0606Y-6.4617
X2.1128Y-5.2327
X2.2904Y-6.6545
X2.3426Y-5.4255
X2.5427Y-5.8872
X2.7725Y-6.08
X2.8279Y-6.714
X2.8643Y-8.3495
X3.0247Y-5.3126
X3.0364Y-8.5952
X3.0577Y-6.9068
X3.2546Y-5.5055
X3.2578Y-7.3684
X3.2854Y-9.0751
X3.31Y-6.1394
X3.388Y-9.357
X3.4877Y-7.5612
X3.5398Y-6.3323
X3.736Y-7.9654
X3.7399Y-6.7939
X3.7921Y-5.5649
X3.9658Y-8.1582
X3.9697Y-6.9867
X4.0219Y-5.7577
X4.218Y-7.3909
X4.222Y-6.2193
X4.4479Y-7.5837
X4.4518Y-6.4122
X4.7001Y-6.8163
X4.93Y-7.0092
X5.4833Y-9.5206
X5.7652Y-9.6232
X6.4733Y-9.817
X6.7687Y-9.8691
X7.6144Y-9.8691
X7.9099Y-9.817
X8.618Y-9.6232
X8.8999Y-9.5206
X9.4532Y-7.0092
X9.683Y-6.8163
X9.9313Y-6.4122
X9.9353Y-7.5837
X10.1611Y-6.2193
X10.1651Y-7.3909
X10.3612Y-5.7577
X10.4134Y-6.9867
X10.4174Y-8.1582
X10.591Y-5.5649
X10.6432Y-6.7939
X10.6472Y-7.9654
X10.8433Y-6.3323
X10.8955Y-7.5612
X10.9952Y-9.357
X11.0731Y-6.1394
X11.0978Y-9.0751
X11.1253Y-7.3684
X11.1286Y-5.5055
X11.3254Y-6.9068
X11.3467Y-8.5952
X11.3584Y-5.3126
X11.5188Y-8.3495
X11.5552Y-6.714
X11.6107Y-6.08
X11.8405Y-5.8872
X12.0406Y-5.4255
X12.0928Y-6.6545
X12.2704Y-5.2327
X12.3226Y-6.4617
X12.5227Y-6.0001
X12.7525Y-5.8072
X13.0048Y-6.5746
X13.2346Y-6.3818
T3
X7.051Y-6.053
X7.151Y-6.053
X7.251Y-6.053
X7.351Y-6.053
T4
X6.8916Y-4.7553
X6.8916Y-4.9553
X6.8916Y-5.1553
X6.8916Y-5.2553
X6.8916Y-5.3553
X6.8916Y-5.8553
X6.8916Y-4.8553
X6.8916Y-5.0553
X6.8916Y-5.4553
X6.8916Y-5.6553
X6.8916Y-5.7553
X6.8916Y-5.5553
X7.4916Y-5.0553
X7.4916Y-4.8553
X7.4916Y-4.9553
X7.4916Y-5.1553
X7.4916Y-5.5553
X7.4916Y-5.7553
X7.4916Y-4.7553
X7.4916Y-5.2553
X7.4916Y-5.3553
X7.4916Y-5.4553
X7.4916Y-5.6553
X7.4916Y-5.8553
T5
X1.3394Y-6.1544
X1.5952Y-6.2385
X1.8215Y-5.5798
X2.0773Y-5.6639
X2.2514Y-6.2343
X2.3036Y-5.0053
X2.5072Y-6.3184
X2.5594Y-5.0894
X2.7335Y-5.6598
X2.9893Y-5.7438
X3.0187Y-6.4866
X3.1075Y-8.1792
X3.2156Y-5.0852
X3.2745Y-6.5707
X3.3328Y-8.3266
X3.4487Y-7.141
X3.4713Y-5.1693
X3.5008Y-5.912
X3.5643Y-8.9735
X3.7044Y-7.2251
X3.7438Y-9.1743
X3.7566Y-5.9961
X3.9268Y-7.738
X3.9307Y-6.5665
X3.9829Y-5.3375
X4.1826Y-7.8221
X4.1865Y-6.6506
X4.2387Y-5.4216
X4.4089Y-7.1635
X4.4128Y-5.9919
X4.6646Y-7.2476
X4.6686Y-6.076
X4.891Y-6.5889
X5.1467Y-6.673
X5.5848Y-9.2417
X5.854Y-9.2332
X6.5248Y-9.5246
X6.7884Y-9.4695
X7.5629Y-9.5767
X7.7917Y-9.4348
X8.5164Y-9.3443
X8.7171Y-9.1648
X9.2624Y-6.7818
X9.3896Y-6.5445
X9.7405Y-6.1848
X9.7445Y-7.3563
X9.8677Y-5.9475
X9.8717Y-7.119
X10.1704Y-5.5303
X10.2226Y-6.7593
X10.2266Y-7.9308
X10.2976Y-5.293
X10.3498Y-6.522
X10.3538Y-7.6935
X10.6525Y-6.1049
X10.7047Y-7.3338
X10.7077Y-8.9863
X10.7162Y-9.2555
X10.7797Y-5.8676
X10.8319Y-7.0965
X10.9378Y-5.2781
X11.065Y-5.0408
X11.1036Y-8.4249
X11.1346Y-6.6794
X11.1651Y-8.1628
X11.2618Y-6.4421
X11.4199Y-5.8526
X11.5471Y-5.6153
X11.8498Y-5.1981
X11.902Y-6.4271
X11.977Y-4.9608
X12.0292Y-6.1898
X12.3319Y-5.7727
X12.4591Y-5.5354
X12.814Y-6.3472
X12.9412Y-6.1099
M30
