M48
; DRILL file {KiCad 8.0.1} date 2024-05-01T11:58:36+0900
; FORMAT={-:-/ absolute / inch / decimal}
; #@! TF.CreationDate,2024-05-01T11:58:36+09:00
; #@! TF.GenerationSoftware,Kicad,Pcbnew,8.0.1
; #@! TF.FileFunction,Plated,1,2,PTH
FMAT,2
INCH
; #@! TA.AperFunction,Plated,PTH,ComponentDrill
T1C0.0157
; #@! TA.AperFunction,Plated,PTH,ComponentDrill
T2C0.0866
%
G90
G05
T1
X1.8339Y-5.0164
X1.836Y-5.066
X1.8675Y-4.9797
X1.8727Y-5.0996
X1.9171Y-4.9775
X1.9224Y-5.0975
X1.9538Y-5.0111
X1.956Y-5.0608
X2.0157Y-2.7684
X2.0178Y-2.818
X2.0493Y-2.7317
X2.0545Y-2.8516
X2.0989Y-2.7295
X2.1042Y-2.8495
X2.1356Y-2.7631
X2.1378Y-2.8128
X4.7011Y-6.2885
X4.716Y-6.336
X4.7241Y-6.2444
X4.7601Y-6.3589
X4.7715Y-6.2295
X4.8076Y-6.344
X4.8156Y-6.2524
X4.8305Y-6.2999
X4.924Y-3.1107
X4.9262Y-3.1603
X4.9576Y-3.074
X4.9628Y-3.1939
X5.0072Y-3.0718
X5.0125Y-3.1918
X5.0439Y-3.1054
X5.0461Y-3.1551
X6.5345Y-3.06
X6.5367Y-3.1097
X6.5681Y-3.0234
X6.5733Y-3.1433
X6.6178Y-3.0212
X6.623Y-3.1411
X6.6544Y-3.0548
X6.6566Y-3.1045
X8.0392Y-6.7847
X8.0583Y-6.7387
X8.0583Y-6.8306
X8.1042Y-6.7197
X8.1042Y-6.8496
X8.1501Y-6.7387
X8.1501Y-6.8306
X8.1691Y-6.7847
X9.5518Y-3.1045
X9.554Y-3.0548
X9.5854Y-3.1411
X9.5906Y-3.0212
X9.635Y-3.1433
X9.6403Y-3.0234
X9.6717Y-3.1097
X9.6739Y-3.06
X11.1623Y-3.1551
X11.1645Y-3.1054
X11.1959Y-3.1918
X11.2011Y-3.0718
X11.2456Y-3.1939
X11.2508Y-3.074
X11.2822Y-3.1603
X11.2844Y-3.1107
X11.3778Y-6.2999
X11.3928Y-6.2524
X11.4008Y-6.344
X11.4369Y-6.2295
X11.4482Y-6.3589
X11.4843Y-6.2444
X11.4923Y-6.336
X11.5073Y-6.2885
X14.0706Y-2.8128
X14.0728Y-2.7631
X14.1042Y-2.8495
X14.1094Y-2.7295
X14.1539Y-2.8516
X14.1591Y-2.7317
X14.1905Y-2.818
X14.1927Y-2.7684
X14.2524Y-5.0608
X14.2546Y-5.0111
X14.286Y-5.0975
X14.2912Y-4.9775
X14.3357Y-5.0996
X14.3409Y-4.9797
X14.3723Y-5.066
X14.3745Y-5.0164
T2
X1.8949Y-5.0386
X2.0767Y-2.7906
X4.7658Y-6.2942
X4.985Y-3.1329
X6.5955Y-3.0822
X8.1042Y-6.7847
X9.6128Y-3.0822
X11.2233Y-3.1329
X11.4426Y-6.2942
X14.1317Y-2.7906
X14.3135Y-5.0386
M30
