M48
; DRILL file {KiCad 8.0.1} date 2024-05-19T15:37:57+0900
; FORMAT={-:-/ absolute / inch / decimal}
; #@! TF.CreationDate,2024-05-19T15:37:57+09:00
; #@! TF.GenerationSoftware,Kicad,Pcbnew,8.0.1
; #@! TF.FileFunction,Plated,1,2,PTH
FMAT,2
INCH
; #@! TA.AperFunction,Plated,PTH,ComponentDrill
T1C0.0157
; #@! TA.AperFunction,Plated,PTH,ComponentDrill
T2C0.0866
%
G90
G05
T1
X1.8034Y-6.9084
X1.8184Y-6.861
X1.8264Y-6.9525
X1.8625Y-6.8381
X1.8738Y-6.9675
X1.9099Y-6.853
X1.9179Y-6.9445
X1.9329Y-6.8971
X2.7419Y-4.8566
X2.7568Y-4.8092
X2.7648Y-4.9007
X2.8009Y-4.7862
X2.8123Y-4.9157
X2.8483Y-4.8012
X2.8564Y-4.8927
X2.8713Y-4.8453
X4.0758Y-9.0851
X4.0779Y-9.0354
X4.1094Y-9.1217
X4.1146Y-9.0018
X4.159Y-9.1239
X4.1643Y-9.004
X4.1957Y-9.0903
X4.1979Y-9.0406
X5.359Y-6.1715
X5.3739Y-6.1241
X5.3819Y-6.2156
X5.418Y-6.1011
X5.4294Y-6.2305
X5.4655Y-6.1161
X5.4735Y-6.2076
X5.4884Y-6.1602
X5.5439Y-8.2847
X5.5588Y-8.2373
X5.5668Y-8.3288
X5.6029Y-8.2144
X5.6142Y-8.3438
X5.6503Y-8.2293
X5.6583Y-8.3208
X5.6733Y-8.2734
X6.2579Y-6.6712
X6.2579Y-8.4086
X6.277Y-6.6253
X6.277Y-6.7171
X6.277Y-8.3627
X6.277Y-8.4545
X6.3229Y-6.6062
X6.3229Y-6.7362
X6.3229Y-8.3436
X6.3229Y-8.4736
X6.3232Y-5.0224
X6.3381Y-4.975
X6.3461Y-5.0665
X6.3688Y-6.6253
X6.3688Y-6.7171
X6.3688Y-8.3627
X6.3688Y-8.4545
X6.3822Y-4.952
X6.3879Y-6.6712
X6.3879Y-8.4086
X6.3935Y-5.0815
X6.4296Y-4.967
X6.4376Y-5.0585
X6.4526Y-5.0111
X7.1266Y-9.7149
X7.1457Y-9.669
X7.1457Y-9.7608
X7.1916Y-9.6499
X7.1916Y-9.7799
X7.2375Y-9.669
X7.2375Y-9.7608
X7.2566Y-9.7149
X7.9306Y-5.0111
X7.9456Y-5.0585
X7.9536Y-4.967
X7.9897Y-5.0815
X7.9953Y-6.6712
X7.9953Y-8.4086
X8.001Y-4.952
X8.0144Y-6.6253
X8.0144Y-6.7171
X8.0144Y-8.3627
X8.0144Y-8.4545
X8.0371Y-5.0665
X8.0451Y-4.975
X8.0601Y-5.0224
X8.0603Y-6.6062
X8.0603Y-6.7362
X8.0603Y-8.3436
X8.0603Y-8.4736
X8.1062Y-6.6253
X8.1062Y-6.7171
X8.1062Y-8.3627
X8.1062Y-8.4545
X8.1253Y-6.6712
X8.1253Y-8.4086
X8.7099Y-8.2734
X8.7249Y-8.3208
X8.7329Y-8.2293
X8.769Y-8.3438
X8.7803Y-8.2144
X8.8164Y-8.3288
X8.8244Y-8.2373
X8.8393Y-8.2847
X8.8948Y-6.1602
X8.9098Y-6.2076
X8.9178Y-6.1161
X8.9539Y-6.2305
X8.9652Y-6.1011
X9.0013Y-6.2156
X9.0093Y-6.1241
X9.0242Y-6.1715
X10.1854Y-9.0406
X10.1875Y-9.0903
X10.2189Y-9.004
X10.2242Y-9.1239
X10.2686Y-9.0018
X10.2738Y-9.1217
X10.3053Y-9.0354
X10.3074Y-9.0851
X11.5119Y-4.8453
X11.5269Y-4.8927
X11.5349Y-4.8012
X11.571Y-4.9157
X11.5823Y-4.7862
X11.6184Y-4.9007
X11.6264Y-4.8092
X11.6413Y-4.8566
X12.4503Y-6.8971
X12.4653Y-6.9445
X12.4733Y-6.853
X12.5094Y-6.9675
X12.5207Y-6.8381
X12.5568Y-6.9525
X12.5648Y-6.861
X12.5798Y-6.9084
T2
X1.8682Y-6.9028
X2.8066Y-4.851
X4.1368Y-9.0628
X5.4237Y-6.1658
X5.6086Y-8.2791
X6.3229Y-6.6712
X6.3229Y-8.4086
X6.3879Y-5.0168
X7.1916Y-9.7149
X7.9953Y-5.0168
X8.0603Y-6.6712
X8.0603Y-8.4086
X8.7746Y-8.2791
X8.9595Y-6.1658
X10.2464Y-9.0628
X11.5766Y-4.851
X12.5151Y-6.9028
M30
