%TF.GenerationSoftware,KiCad,Pcbnew,8.0.1*%
%TF.CreationDate,2024-05-19T15:37:59+09:00*%
%TF.ProjectId,top_plate,746f705f-706c-4617-9465-2e6b69636164,v1.0.0*%
%TF.SameCoordinates,Original*%
%TF.FileFunction,Profile,NP*%
%FSLAX46Y46*%
G04 Gerber Fmt 4.6, Leading zero omitted, Abs format (unit mm)*
G04 Created by KiCad (PCBNEW 8.0.1) date 2024-05-19 15:37:59*
%MOMM*%
%LPD*%
G01*
G04 APERTURE LIST*
%TA.AperFunction,Profile*%
%ADD10C,0.150000*%
%TD*%
G04 APERTURE END LIST*
D10*
X22038247Y-158198014D02*
X56889715Y-116663652D01*
X60719937Y-114877590D02*
X170666874Y-114877590D01*
X194666874Y-114877590D02*
X304613810Y-114877590D01*
X308444032Y-116663652D02*
X343295500Y-158198014D01*
X343133079Y-164810075D02*
X302416007Y-208758496D01*
X302043849Y-209210649D02*
X290532430Y-224996846D01*
X290532430Y-224996846D02*
X289104709Y-227699472D01*
X289104709Y-227699472D02*
X283913357Y-242953614D01*
X278993319Y-246339241D02*
X236394377Y-244747980D01*
X234497635Y-245046032D02*
X213935477Y-252530045D01*
X213935477Y-252530045D02*
X209531982Y-253811011D01*
X209531982Y-253811011D02*
X187450074Y-257704647D01*
X186581833Y-257780608D02*
X178751914Y-257780608D01*
X177883673Y-257704647D02*
X155801765Y-253811011D01*
X155801765Y-253811011D02*
X151398270Y-252530045D01*
X151398270Y-252530045D02*
X130836112Y-245046032D01*
X128939370Y-244747980D02*
X86340428Y-246339241D01*
X81420390Y-242953614D02*
X76229038Y-227699472D01*
X76229038Y-227699472D02*
X74801317Y-224996846D01*
X74801317Y-224996846D02*
X63289898Y-209210649D01*
X62917740Y-208758496D02*
X22200668Y-164810075D01*
X56889716Y-116663653D02*
G75*
G02*
X60719937Y-114877591I3830221J-3213937D01*
G01*
X304613810Y-114877590D02*
G75*
G02*
X308444032Y-116663652I0J-5000000D01*
G01*
X343295501Y-158198014D02*
G75*
G02*
X343133079Y-164810075I-3830223J-3213938D01*
G01*
X302043850Y-209210649D02*
G75*
G02*
X302416008Y-208758496I4039958J-2945969D01*
G01*
X283913356Y-242953614D02*
G75*
G02*
X278993319Y-246339240I-4733395J1610888D01*
G01*
X234497635Y-245046033D02*
G75*
G02*
X236394377Y-244747981I1710100J-4698462D01*
G01*
X187450074Y-257704647D02*
G75*
G02*
X186581833Y-257780608I-868241J4924039D01*
G01*
X178751914Y-257780608D02*
G75*
G02*
X177883673Y-257704647I0J5000000D01*
G01*
X128939370Y-244747981D02*
G75*
G02*
X130836112Y-245046033I186642J-4996514D01*
G01*
X86340428Y-246339240D02*
G75*
G02*
X81420391Y-242953614I-186642J4996514D01*
G01*
X62917741Y-208758496D02*
G75*
G02*
X63289898Y-209210649I-3667802J-3398122D01*
G01*
X22200669Y-164810074D02*
G75*
G02*
X22038248Y-158198015I3667800J3398122D01*
G01*
X25431104Y-161030864D02*
X36171047Y-170042746D01*
X36171047Y-170042746D02*
X45182929Y-159302803D01*
X45182929Y-159302803D02*
X34442986Y-150290921D01*
X34442986Y-150290921D02*
X25431104Y-161030864D01*
X37676208Y-146437717D02*
X48416151Y-155449600D01*
X48416151Y-155449600D02*
X57428033Y-144709657D01*
X57428033Y-144709657D02*
X46688090Y-135697774D01*
X46688090Y-135697774D02*
X37676208Y-146437717D01*
X49921312Y-131844571D02*
X60661255Y-140856453D01*
X60661255Y-140856453D02*
X69673137Y-130116510D01*
X69673137Y-130116510D02*
X58933194Y-121104628D01*
X58933194Y-121104628D02*
X49921312Y-131844571D01*
X48595823Y-163060765D02*
X59335767Y-172072648D01*
X59335767Y-172072648D02*
X68347649Y-161332704D01*
X68347649Y-161332704D02*
X57607706Y-152320822D01*
X57607706Y-152320822D02*
X48595823Y-163060765D01*
X60840927Y-148467619D02*
X71580870Y-157479501D01*
X71580870Y-157479501D02*
X80592753Y-146739558D01*
X80592753Y-146739558D02*
X69852810Y-137727675D01*
X69852810Y-137727675D02*
X60840927Y-148467619D01*
X73086031Y-133874472D02*
X83825974Y-142886354D01*
X83825974Y-142886354D02*
X92837857Y-132146411D01*
X92837857Y-132146411D02*
X82097914Y-123134529D01*
X82097914Y-123134529D02*
X73086031Y-133874472D01*
X68087012Y-169468611D02*
X78826955Y-178480493D01*
X78826955Y-178480493D02*
X87838837Y-167740550D01*
X87838837Y-167740550D02*
X77098894Y-158728667D01*
X77098894Y-158728667D02*
X68087012Y-169468611D01*
X80332116Y-154875464D02*
X91072059Y-163887346D01*
X91072059Y-163887346D02*
X100083941Y-153147403D01*
X100083941Y-153147403D02*
X89343998Y-144135521D01*
X89343998Y-144135521D02*
X80332116Y-154875464D01*
X92577220Y-140282317D02*
X103317163Y-149294200D01*
X103317163Y-149294200D02*
X112329045Y-138554256D01*
X112329045Y-138554256D02*
X101589102Y-129542374D01*
X101589102Y-129542374D02*
X92577220Y-140282317D01*
X79006627Y-186091659D02*
X89746570Y-195103541D01*
X89746570Y-195103541D02*
X98758452Y-184363598D01*
X98758452Y-184363598D02*
X88018509Y-175351715D01*
X88018509Y-175351715D02*
X79006627Y-186091659D01*
X91251731Y-171498512D02*
X101991674Y-180510394D01*
X101991674Y-180510394D02*
X111003556Y-169770451D01*
X111003556Y-169770451D02*
X100263613Y-160758569D01*
X100263613Y-160758569D02*
X91251731Y-171498512D01*
X103496835Y-156905365D02*
X114236778Y-165917248D01*
X114236778Y-165917248D02*
X123248660Y-155177305D01*
X123248660Y-155177305D02*
X112508717Y-146165422D01*
X112508717Y-146165422D02*
X103496835Y-156905365D01*
X91150753Y-201255392D02*
X101890696Y-210267274D01*
X101890696Y-210267274D02*
X110902578Y-199527331D01*
X110902578Y-199527331D02*
X100162635Y-190515449D01*
X100162635Y-190515449D02*
X91150753Y-201255392D01*
X103395857Y-186662245D02*
X114135800Y-195674128D01*
X114135800Y-195674128D02*
X123147682Y-184934184D01*
X123147682Y-184934184D02*
X112407739Y-175922302D01*
X112407739Y-175922302D02*
X103395857Y-186662245D01*
X115640961Y-172069099D02*
X126380904Y-181080981D01*
X126380904Y-181080981D02*
X135392786Y-170341038D01*
X135392786Y-170341038D02*
X124652843Y-161329155D01*
X124652843Y-161329155D02*
X115640961Y-172069099D01*
X69272941Y-210059100D02*
X77314483Y-221543612D01*
X77314483Y-221543612D02*
X88798994Y-213502070D01*
X88798994Y-213502070D02*
X80757453Y-202017559D01*
X80757453Y-202017559D02*
X69272941Y-210059100D01*
X80466488Y-227638559D02*
X85261610Y-240813049D01*
X85261610Y-240813049D02*
X98436101Y-236017927D01*
X98436101Y-236017927D02*
X93640978Y-222843436D01*
X93640978Y-222843436D02*
X80466488Y-227638559D01*
X135582067Y-242069752D02*
X148756558Y-246864875D01*
X148756558Y-246864875D02*
X153551680Y-233690384D01*
X153551680Y-233690384D02*
X140377189Y-228895262D01*
X140377189Y-228895262D02*
X135582067Y-242069752D01*
X160922140Y-250225686D02*
X174729145Y-252660233D01*
X174729145Y-252660233D02*
X177163693Y-238853229D01*
X177163693Y-238853229D02*
X163356688Y-236418681D01*
X163356688Y-236418681D02*
X160922140Y-250225686D01*
X329162700Y-170042746D02*
X339902643Y-161030864D01*
X339902643Y-161030864D02*
X330890761Y-150290921D01*
X330890761Y-150290921D02*
X320150818Y-159302803D01*
X320150818Y-159302803D02*
X329162700Y-170042746D01*
X316917596Y-155449600D02*
X327657539Y-146437717D01*
X327657539Y-146437717D02*
X318645657Y-135697774D01*
X318645657Y-135697774D02*
X307905714Y-144709657D01*
X307905714Y-144709657D02*
X316917596Y-155449600D01*
X304672492Y-140856453D02*
X315412435Y-131844571D01*
X315412435Y-131844571D02*
X306400553Y-121104628D01*
X306400553Y-121104628D02*
X295660610Y-130116510D01*
X295660610Y-130116510D02*
X304672492Y-140856453D01*
X305997981Y-172072648D02*
X316737924Y-163060765D01*
X316737924Y-163060765D02*
X307726041Y-152320822D01*
X307726041Y-152320822D02*
X296986098Y-161332704D01*
X296986098Y-161332704D02*
X305997981Y-172072648D01*
X293752877Y-157479501D02*
X304492820Y-148467619D01*
X304492820Y-148467619D02*
X295480937Y-137727675D01*
X295480937Y-137727675D02*
X284740994Y-146739558D01*
X284740994Y-146739558D02*
X293752877Y-157479501D01*
X281507773Y-142886354D02*
X292247716Y-133874472D01*
X292247716Y-133874472D02*
X283235833Y-123134529D01*
X283235833Y-123134529D02*
X272495890Y-132146411D01*
X272495890Y-132146411D02*
X281507773Y-142886354D01*
X286506792Y-178480493D02*
X297246735Y-169468611D01*
X297246735Y-169468611D02*
X288234853Y-158728667D01*
X288234853Y-158728667D02*
X277494910Y-167740550D01*
X277494910Y-167740550D02*
X286506792Y-178480493D01*
X274261688Y-163887346D02*
X285001632Y-154875464D01*
X285001632Y-154875464D02*
X275989749Y-144135521D01*
X275989749Y-144135521D02*
X265249806Y-153147403D01*
X265249806Y-153147403D02*
X274261688Y-163887346D01*
X262016584Y-149294200D02*
X272756528Y-140282317D01*
X272756528Y-140282317D02*
X263744645Y-129542374D01*
X263744645Y-129542374D02*
X253004702Y-138554256D01*
X253004702Y-138554256D02*
X262016584Y-149294200D01*
X275587177Y-195103541D02*
X286327120Y-186091659D01*
X286327120Y-186091659D02*
X277315238Y-175351715D01*
X277315238Y-175351715D02*
X266575295Y-184363598D01*
X266575295Y-184363598D02*
X275587177Y-195103541D01*
X263342073Y-180510394D02*
X274082016Y-171498512D01*
X274082016Y-171498512D02*
X265070134Y-160758569D01*
X265070134Y-160758569D02*
X254330191Y-169770451D01*
X254330191Y-169770451D02*
X263342073Y-180510394D01*
X251096969Y-165917248D02*
X261836912Y-156905365D01*
X261836912Y-156905365D02*
X252825030Y-146165422D01*
X252825030Y-146165422D02*
X242085087Y-155177305D01*
X242085087Y-155177305D02*
X251096969Y-165917248D01*
X263443051Y-210267274D02*
X274182994Y-201255392D01*
X274182994Y-201255392D02*
X265171112Y-190515449D01*
X265171112Y-190515449D02*
X254431169Y-199527331D01*
X254431169Y-199527331D02*
X263443051Y-210267274D01*
X251197947Y-195674128D02*
X261937890Y-186662245D01*
X261937890Y-186662245D02*
X252926008Y-175922302D01*
X252926008Y-175922302D02*
X242186065Y-184934184D01*
X242186065Y-184934184D02*
X251197947Y-195674128D01*
X238952843Y-181080981D02*
X249692786Y-172069099D01*
X249692786Y-172069099D02*
X240680904Y-161329155D01*
X240680904Y-161329155D02*
X229940961Y-170341038D01*
X229940961Y-170341038D02*
X238952843Y-181080981D01*
X288019265Y-221543612D02*
X296060806Y-210059100D01*
X296060806Y-210059100D02*
X284576295Y-202017559D01*
X284576295Y-202017559D02*
X276534753Y-213502070D01*
X276534753Y-213502070D02*
X288019265Y-221543612D01*
X280072137Y-240813049D02*
X284867260Y-227638559D01*
X284867260Y-227638559D02*
X271692769Y-222843436D01*
X271692769Y-222843436D02*
X266897647Y-236017927D01*
X266897647Y-236017927D02*
X280072137Y-240813049D01*
X216577189Y-246864875D02*
X229751680Y-242069752D01*
X229751680Y-242069752D02*
X224956558Y-228895262D01*
X224956558Y-228895262D02*
X211782067Y-233690384D01*
X211782067Y-233690384D02*
X216577189Y-246864875D01*
X190604602Y-252660233D02*
X204411607Y-250225686D01*
X204411607Y-250225686D02*
X201977059Y-236418681D01*
X201977059Y-236418681D02*
X188170054Y-238853229D01*
X188170054Y-238853229D02*
X190604602Y-252660233D01*
X203596874Y-191513215D02*
G75*
G02*
X161736874Y-191513215I-20930000J0D01*
G01*
X161736874Y-191513215D02*
G75*
G02*
X203596874Y-191513215I20930000J0D01*
G01*
X170666874Y-114877590D02*
X170666874Y-159205068D01*
X170666874Y-159205068D02*
X194666874Y-159205068D01*
X194666874Y-159205068D02*
X194666874Y-114877590D01*
X164666874Y-139418287D02*
G75*
G02*
X160666874Y-139418287I-2000000J0D01*
G01*
X160666874Y-139418287D02*
G75*
G02*
X164666874Y-139418287I2000000J0D01*
G01*
M02*
