M48
; DRILL file {KiCad 8.0.1} date 2024-05-01T11:59:13+0900
; FORMAT={-:-/ absolute / inch / decimal}
; #@! TF.CreationDate,2024-05-01T11:59:13+09:00
; #@! TF.GenerationSoftware,Kicad,Pcbnew,8.0.1
; #@! TF.FileFunction,Plated,1,2,PTH
FMAT,2
INCH
; #@! TA.AperFunction,Plated,PTH,ViaDrill
T1C0.0157
; #@! TA.AperFunction,Plated,PTH,ComponentDrill
T2C0.0390
; #@! TA.AperFunction,Plated,PTH,ComponentDrill
T3C0.0394
; #@! TA.AperFunction,Plated,PTH,ComponentDrill
T4C0.0430
; #@! TA.AperFunction,Plated,PTH,ComponentDrill
T5C0.0590
%
G90
G05
T1
X5.4742Y-6.2581
X7.0254Y-5.3841
X7.3955Y-5.3841
X7.4112Y-5.203
X7.671Y-5.203
X7.9624Y-5.3841
X8.1277Y-6.9589
X8.1277Y-7.1951
X8.2065Y-4.0219
X8.427Y-4.0219
X8.427Y-4.1242
X8.4978Y-5.4549
X8.7577Y-5.203
T2
X1.2858Y-5.4403
X1.5423Y-4.7355
X1.5677Y-5.5429
X1.7989Y-4.0308
X1.8242Y-4.8381
X2.0808Y-4.1334
X2.1702Y-5.2035
X2.4267Y-4.4987
X2.4521Y-5.3061
X2.6832Y-3.7939
X2.7086Y-4.6013
X2.9651Y-3.8965
X2.9775Y-5.1781
X3.234Y-4.4733
X3.2594Y-5.2807
X3.4906Y-3.7685
X3.5159Y-4.5759
X3.5711Y-6.7025
X3.6053Y-5.646
X3.7725Y-3.8712
X3.8168Y-6.8746
X3.8619Y-4.9413
X3.8872Y-5.7486
X4.1184Y-4.2365
X4.1438Y-5.0439
X4.2149Y-7.2404
X4.2588Y-6.0435
X4.4003Y-4.3391
X4.4078Y-7.4702
X4.5153Y-5.3387
X4.5407Y-6.1461
X4.7718Y-4.634
X4.7972Y-5.4413
X5.0537Y-4.7366
X6.6207Y-6.9081
X6.8505Y-7.1009
X7.6498Y-7.4836
X7.9453Y-7.5357
X8.765Y-7.5357
X9.0604Y-7.4836
X9.8597Y-7.1009
X10.0895Y-6.9081
X11.6565Y-4.7366
X11.913Y-5.4413
X11.9384Y-4.634
X12.1695Y-6.1461
X12.1949Y-5.3387
X12.3025Y-7.4702
X12.31Y-4.3391
X12.4514Y-6.0435
X12.4953Y-7.2404
X12.5665Y-5.0439
X12.5919Y-4.2365
X12.823Y-5.7486
X12.8484Y-4.9413
X12.8934Y-6.8746
X12.9378Y-3.8712
X13.1049Y-5.646
X13.1391Y-6.7025
X13.1943Y-4.5759
X13.2197Y-3.7685
X13.4508Y-5.2807
X13.4762Y-4.4733
X13.7327Y-5.1781
X13.7451Y-3.8965
X14.0017Y-4.6013
X14.0271Y-3.7939
X14.2582Y-5.3061
X14.2836Y-4.4987
X14.5401Y-5.2035
X14.6295Y-4.1334
X14.886Y-4.8381
X14.9114Y-4.0308
X15.1425Y-5.5429
X15.1679Y-4.7355
X15.4244Y-5.4403
T3
X8.2047Y-4.831
X8.3047Y-4.831
X8.4047Y-4.831
X8.5047Y-4.831
T4
X8.0551Y-3.8172
X8.0551Y-3.5172
X8.0551Y-3.7172
X8.0551Y-4.0172
X8.0551Y-4.1172
X8.0551Y-4.3172
X8.0551Y-4.4172
X8.0551Y-4.6172
X8.0551Y-3.6172
X8.0551Y-3.9172
X8.0551Y-4.2172
X8.0551Y-4.5172
X8.6551Y-3.6172
X8.6551Y-3.9172
X8.6551Y-4.2172
X8.6551Y-4.5172
X8.6551Y-3.5172
X8.6551Y-3.7172
X8.6551Y-3.8172
X8.6551Y-4.0172
X8.6551Y-4.1172
X8.6551Y-4.4172
X8.6551Y-4.6172
X8.6551Y-4.3172
T5
X1.3873Y-5.1614
X1.6439Y-4.4566
X1.6565Y-5.1529
X1.9004Y-3.7518
X1.913Y-4.4481
X2.1695Y-3.7434
X2.2717Y-4.9245
X2.5282Y-4.2198
X2.5408Y-4.9161
X2.7847Y-3.515
X2.7973Y-4.2113
X3.0538Y-3.5065
X3.0791Y-4.8991
X3.3356Y-4.1944
X3.3482Y-4.8907
X3.5921Y-3.4896
X3.6047Y-4.1859
X3.7069Y-5.3671
X3.7414Y-6.4593
X3.8612Y-3.4811
X3.9634Y-4.6623
X3.976Y-5.3586
X4.0035Y-6.5208
X4.2199Y-3.9575
X4.2325Y-4.6539
X4.3603Y-5.7646
X4.4423Y-7.0495
X4.489Y-3.9491
X4.6169Y-5.0598
X4.6295Y-5.7561
X4.6796Y-7.1768
X4.8734Y-4.355
X4.886Y-5.0513
X5.1425Y-4.3466
X6.8115Y-6.6807
X7.0673Y-6.7648
X7.7014Y-7.1912
X7.965Y-7.1362
X8.7134Y-7.2433
X8.9422Y-7.1014
X9.6689Y-6.8735
X9.7961Y-6.6362
X11.555Y-4.4576
X11.7557Y-4.2781
X11.8115Y-5.1624
X12.0122Y-4.9829
X12.068Y-5.8672
X12.0751Y-7.2794
X12.1591Y-7.0236
X12.2084Y-4.0602
X12.2687Y-5.6877
X12.4091Y-3.8807
X12.4649Y-4.7649
X12.6657Y-4.5854
X12.7215Y-5.4697
X12.7231Y-6.6314
X12.8362Y-3.5922
X12.8706Y-6.4061
X12.9222Y-5.2902
X13.037Y-3.4127
X13.0928Y-4.297
X13.2935Y-4.1175
X13.3493Y-5.0017
X13.55Y-4.8223
X13.6436Y-3.6176
X13.8443Y-3.4381
X13.9001Y-4.3224
X14.1009Y-4.1429
X14.1566Y-5.0271
X14.3574Y-4.8477
X14.5279Y-3.8544
X14.7287Y-3.6749
X14.7845Y-4.5592
X14.9852Y-4.3797
X15.041Y-5.264
X15.2417Y-5.0845
M30
