%TF.GenerationSoftware,KiCad,Pcbnew,8.0.1*%
%TF.CreationDate,2024-05-01T11:59:16+09:00*%
%TF.ProjectId,pcb_plate,7063625f-706c-4617-9465-2e6b69636164,v1.0.0*%
%TF.SameCoordinates,Original*%
%TF.FileFunction,Paste,Bot*%
%TF.FilePolarity,Positive*%
%FSLAX46Y46*%
G04 Gerber Fmt 4.6, Leading zero omitted, Abs format (unit mm)*
G04 Created by KiCad (PCBNEW 8.0.1) date 2024-05-01 11:59:16*
%MOMM*%
%LPD*%
G01*
G04 APERTURE LIST*
G04 Aperture macros list*
%AMRotRect*
0 Rectangle, with rotation*
0 The origin of the aperture is its center*
0 $1 length*
0 $2 width*
0 $3 Rotation angle, in degrees counterclockwise*
0 Add horizontal line*
21,1,$1,$2,0,0,$3*%
G04 Aperture macros list end*
%ADD10RotRect,0.900000X1.200000X340.000000*%
%ADD11RotRect,0.900000X1.200000X20.000000*%
%ADD12RotRect,0.900000X1.200000X310.000000*%
%ADD13RotRect,0.900000X1.200000X35.000000*%
%ADD14RotRect,0.900000X1.200000X40.000000*%
%ADD15RotRect,0.900000X1.200000X50.000000*%
%ADD16RotRect,0.900000X1.200000X350.000000*%
%ADD17RotRect,0.900000X1.200000X320.000000*%
%ADD18RotRect,0.900000X1.200000X325.000000*%
%ADD19RotRect,0.900000X1.200000X10.000000*%
G04 APERTURE END LIST*
D10*
%TO.C,D4*%
X57151549Y-132907162D03*
X60252535Y-134035826D03*
%TD*%
D11*
%TO.C,D29*%
X327733626Y-145276684D03*
X330834608Y-144148020D03*
%TD*%
%TO.C,D26*%
X343680124Y-133390855D03*
X346781106Y-132262191D03*
%TD*%
%TO.C,D27*%
X337164639Y-115489708D03*
X340265621Y-114361044D03*
%TD*%
D10*
%TO.C,D12*%
X106636360Y-108345727D03*
X109737346Y-109474391D03*
%TD*%
D12*
%TO.C,D17*%
X108447959Y-185559584D03*
X110569161Y-188087528D03*
%TD*%
D11*
%TO.C,D28*%
X330649152Y-97588570D03*
X333750134Y-96459906D03*
%TD*%
%TO.C,D34*%
X298104614Y-119570114D03*
X301205596Y-118441450D03*
%TD*%
D13*
%TO.C,D35*%
X329261407Y-173375393D03*
X331964605Y-171482595D03*
%TD*%
D11*
%TO.C,D20*%
X386649442Y-140051154D03*
X389750424Y-138922490D03*
%TD*%
D10*
%TO.C,D14*%
X116718924Y-136342592D03*
X119819910Y-137471256D03*
%TD*%
D14*
%TO.C,D37*%
X252091180Y-178975437D03*
X254619124Y-176854235D03*
%TD*%
D10*
%TO.C,D7*%
X77658888Y-132262200D03*
X80759874Y-133390864D03*
%TD*%
%TO.C,D1*%
X34689571Y-138922484D03*
X37790557Y-140051148D03*
%TD*%
%TO.C,D15*%
X123234406Y-118441449D03*
X126335392Y-119570113D03*
%TD*%
D11*
%TO.C,D24*%
X357671982Y-116134682D03*
X360772964Y-115006018D03*
%TD*%
D15*
%TO.C,D36*%
X313870837Y-188087528D03*
X315992041Y-185559580D03*
%TD*%
D11*
%TO.C,D33*%
X304620093Y-137471252D03*
X307721075Y-136342588D03*
%TD*%
%TO.C,D21*%
X380133960Y-122150006D03*
X383234942Y-121021342D03*
%TD*%
D10*
%TO.C,D9*%
X90689863Y-96459908D03*
X93790849Y-97588572D03*
%TD*%
D16*
%TO.C,D19*%
X196433214Y-190457782D03*
X199683080Y-191030818D03*
%TD*%
D10*
%TO.C,D13*%
X110203438Y-154243734D03*
X113304424Y-155372398D03*
%TD*%
D11*
%TO.C,D30*%
X321218142Y-127375542D03*
X324319124Y-126246878D03*
%TD*%
D17*
%TO.C,D18*%
X169820880Y-176854242D03*
X172348828Y-178975446D03*
%TD*%
D10*
%TO.C,D11*%
X100120880Y-126246877D03*
X103221866Y-127375541D03*
%TD*%
D11*
%TO.C,D23*%
X364187462Y-134035835D03*
X367288444Y-132907171D03*
%TD*%
D10*
%TO.C,D3*%
X47720538Y-103120198D03*
X50821524Y-104248862D03*
%TD*%
D11*
%TO.C,D22*%
X373618476Y-104248858D03*
X376719458Y-103120194D03*
%TD*%
D10*
%TO.C,D5*%
X63667038Y-115006019D03*
X66768024Y-116134683D03*
%TD*%
D11*
%TO.C,D31*%
X314702655Y-109474394D03*
X317803637Y-108345730D03*
%TD*%
D10*
%TO.C,D8*%
X84174376Y-114361048D03*
X87275362Y-115489712D03*
%TD*%
D18*
%TO.C,D16*%
X92475401Y-171482596D03*
X95178603Y-173375396D03*
%TD*%
D11*
%TO.C,D32*%
X311135571Y-155372400D03*
X314236553Y-154243736D03*
%TD*%
D19*
%TO.C,D38*%
X224756917Y-191030820D03*
X228006779Y-190457786D03*
%TD*%
D10*
%TO.C,D10*%
X93605399Y-144148022D03*
X96706385Y-145276686D03*
%TD*%
%TO.C,D2*%
X41205053Y-121021340D03*
X44306039Y-122150004D03*
%TD*%
D11*
%TO.C,D25*%
X351156495Y-98233541D03*
X354257477Y-97104877D03*
%TD*%
D10*
%TO.C,D6*%
X70182522Y-97104882D03*
X73283508Y-98233546D03*
%TD*%
M02*
