%TF.GenerationSoftware,KiCad,Pcbnew,8.0.1*%
%TF.CreationDate,2024-05-01T11:59:16+09:00*%
%TF.ProjectId,pcb_plate,7063625f-706c-4617-9465-2e6b69636164,v1.0.0*%
%TF.SameCoordinates,Original*%
%TF.FileFunction,Soldermask,Top*%
%TF.FilePolarity,Negative*%
%FSLAX46Y46*%
G04 Gerber Fmt 4.6, Leading zero omitted, Abs format (unit mm)*
G04 Created by KiCad (PCBNEW 8.0.1) date 2024-05-01 11:59:16*
%MOMM*%
%LPD*%
G01*
G04 APERTURE LIST*
G04 Aperture macros list*
%AMRoundRect*
0 Rectangle with rounded corners*
0 $1 Rounding radius*
0 $2 $3 $4 $5 $6 $7 $8 $9 X,Y pos of 4 corners*
0 Add a 4 corners polygon primitive as box body*
4,1,4,$2,$3,$4,$5,$6,$7,$8,$9,$2,$3,0*
0 Add four circle primitives for the rounded corners*
1,1,$1+$1,$2,$3*
1,1,$1+$1,$4,$5*
1,1,$1+$1,$6,$7*
1,1,$1+$1,$8,$9*
0 Add four rect primitives between the rounded corners*
20,1,$1+$1,$2,$3,$4,$5,0*
20,1,$1+$1,$4,$5,$6,$7,0*
20,1,$1+$1,$6,$7,$8,$9,0*
20,1,$1+$1,$8,$9,$2,$3,0*%
G04 Aperture macros list end*
%ADD10RoundRect,0.050000X-0.550000X0.900000X-0.550000X-0.900000X0.550000X-0.900000X0.550000X0.900000X0*%
%ADD11RoundRect,0.050000X-1.139443X-0.531331X0.531331X-1.139443X1.139443X0.531331X-0.531331X1.139443X0*%
%ADD12RoundRect,0.050000X-0.628074X-0.409907X0.217650X-0.717725X0.628074X0.409907X-0.217650X0.717725X0*%
%ADD13C,2.005000*%
%ADD14RoundRect,0.050000X-0.531331X-1.139443X1.139443X-0.531331X0.531331X1.139443X-1.139443X0.531331X0*%
%ADD15RoundRect,0.050000X-0.217650X-0.717725X0.628074X-0.409907X0.217650X0.717725X-0.628074X0.409907X0*%
%ADD16C,1.801800*%
%ADD17C,4.087800*%
%ADD18C,2.386000*%
%ADD19RoundRect,0.050000X-1.252452X0.109575X-0.109575X-1.252452X1.252452X-0.109575X0.109575X1.252452X0*%
%ADD20RoundRect,0.050000X-0.748881X-0.040953X-0.170372X-0.730393X0.748881X0.040953X0.170372X0.730393X0*%
%ADD21RoundRect,0.050000X-0.218317X-1.238136X1.238136X-0.218317X0.218317X1.238136X-1.238136X0.218317X0*%
%ADD22RoundRect,0.050000X-0.024473X-0.749601X0.712764X-0.233382X0.024473X0.749601X-0.712764X0.233382X0*%
%ADD23RoundRect,0.050000X-0.109575X-1.252452X1.252452X-0.109575X0.109575X1.252452X-1.252452X0.109575X0*%
%ADD24RoundRect,0.050000X0.040953X-0.748881X0.730393X-0.170372X-0.040953X0.748881X-0.730393X0.170372X0*%
%ADD25RoundRect,0.050000X-0.850000X-0.850000X0.850000X-0.850000X0.850000X0.850000X-0.850000X0.850000X0*%
%ADD26O,1.800000X1.800000*%
%ADD27RoundRect,0.050000X0.109575X-1.252452X1.252452X0.109575X-0.109575X1.252452X-1.252452X-0.109575X0*%
%ADD28RoundRect,0.050000X0.170372X-0.730393X0.748881X-0.040953X-0.170372X0.730393X-0.748881X0.040953X0*%
%ADD29RoundRect,0.050000X-1.029867X-0.721121X0.721121X-1.029867X1.029867X0.721121X-0.721121X1.029867X0*%
%ADD30RoundRect,0.050000X-0.547352X-0.512743X0.338975X-0.669026X0.547352X0.512743X-0.338975X0.669026X0*%
%ADD31RoundRect,0.050000X-1.252452X-0.109575X0.109575X-1.252452X1.252452X0.109575X-0.109575X1.252452X0*%
%ADD32RoundRect,0.050000X-0.730393X-0.170372X-0.040953X-0.748881X0.730393X0.170372X0.040953X0.748881X0*%
%ADD33RoundRect,0.050000X-0.876300X0.876300X-0.876300X-0.876300X0.876300X-0.876300X0.876300X0.876300X0*%
%ADD34C,1.852600*%
%ADD35RoundRect,0.050000X-1.238136X-0.218317X0.218317X-1.238136X1.238136X0.218317X-0.218317X1.238136X0*%
%ADD36RoundRect,0.050000X-0.712764X-0.233382X0.024473X-0.749601X0.712764X0.233382X-0.024473X0.749601X0*%
%ADD37RoundRect,0.050000X-0.721121X-1.029867X1.029867X-0.721121X0.721121X1.029867X-1.029867X0.721121X0*%
%ADD38RoundRect,0.050000X-0.338975X-0.669026X0.547352X-0.512743X0.338975X0.669026X-0.547352X0.512743X0*%
G04 APERTURE END LIST*
D10*
%TO.C,B1*%
X199070001Y-89225774D03*
X199070001Y-95425774D03*
X195370001Y-89225774D03*
X195370001Y-95425774D03*
%TD*%
D11*
%TO.C,D4*%
X55121814Y-132168397D03*
D12*
X57151549Y-132907162D03*
X60252535Y-134035826D03*
D13*
X62282270Y-134774591D03*
%TD*%
D14*
%TO.C,D29*%
X325703889Y-146015449D03*
D15*
X327733626Y-145276684D03*
X330834608Y-144148020D03*
D13*
X332864345Y-143409255D03*
%TD*%
D14*
%TO.C,D26*%
X341650387Y-134129620D03*
D15*
X343680124Y-133390855D03*
X346781106Y-132262191D03*
D13*
X348810843Y-131523426D03*
%TD*%
D16*
%TO.C,S38*%
X220510783Y-186702400D03*
D17*
X225513607Y-185820266D03*
D16*
X230516431Y-184938132D03*
D18*
X227132887Y-180376374D03*
X221320423Y-183980452D03*
%TD*%
D16*
%TO.C,S36*%
X307835854Y-187501123D03*
D17*
X311101215Y-183609617D03*
D16*
X314366576Y-179718111D03*
D18*
X308842388Y-178398502D03*
X306706441Y-184895563D03*
%TD*%
D14*
%TO.C,D27*%
X335134902Y-116228473D03*
D15*
X337164639Y-115489708D03*
X340265621Y-114361044D03*
D13*
X342295358Y-113622279D03*
%TD*%
D16*
%TO.C,S30*%
X316284894Y-123850208D03*
D17*
X321058533Y-122112746D03*
D16*
X325832172Y-120375284D03*
D18*
X321707891Y-116470374D03*
X316609574Y-121029020D03*
%TD*%
D11*
%TO.C,D12*%
X104606625Y-107606962D03*
D12*
X106636360Y-108345727D03*
X109737346Y-109474391D03*
D13*
X111767081Y-110213156D03*
%TD*%
D16*
%TO.C,S11*%
X98607830Y-120375285D03*
D17*
X103381469Y-122112747D03*
D16*
X108155108Y-123850209D03*
D18*
X107505751Y-118207838D03*
X100669973Y-118422829D03*
%TD*%
D19*
%TO.C,D17*%
X107059539Y-183904927D03*
D20*
X108447959Y-185559584D03*
X110569161Y-188087528D03*
D13*
X111957581Y-189742185D03*
%TD*%
D14*
%TO.C,D28*%
X328619415Y-98327335D03*
D15*
X330649152Y-97588570D03*
X333750134Y-96459906D03*
D13*
X335779871Y-95721141D03*
%TD*%
D14*
%TO.C,D34*%
X296074877Y-120308879D03*
D15*
X298104614Y-119570114D03*
X301205596Y-118441450D03*
D13*
X303235333Y-117702685D03*
%TD*%
D21*
%TO.C,D35*%
X327492037Y-174614320D03*
D22*
X329261407Y-173375393D03*
X331964605Y-171482595D03*
D13*
X333733975Y-170243668D03*
%TD*%
D14*
%TO.C,D20*%
X384619705Y-140789919D03*
D15*
X386649442Y-140051154D03*
X389750424Y-138922490D03*
D13*
X391780161Y-138183725D03*
%TD*%
D16*
%TO.C,S2*%
X39692004Y-115149745D03*
D17*
X44465643Y-116887207D03*
D16*
X49239282Y-118624669D03*
D18*
X48589925Y-112982298D03*
X41754147Y-113197289D03*
%TD*%
D16*
%TO.C,S25*%
X346223247Y-94708215D03*
D17*
X350996886Y-92970753D03*
D16*
X355770525Y-91233291D03*
D18*
X351646244Y-87328381D03*
X346547927Y-91887027D03*
%TD*%
D11*
%TO.C,D14*%
X114689189Y-135603827D03*
D12*
X116718924Y-136342592D03*
X119819910Y-137471256D03*
D13*
X121849645Y-138210021D03*
%TD*%
D23*
%TO.C,D37*%
X250436523Y-180363857D03*
D24*
X252091180Y-178975437D03*
X254619124Y-176854235D03*
D13*
X256273781Y-175465815D03*
%TD*%
D25*
%TO.C,OLED1*%
X216020000Y-122707314D03*
D26*
X213480000Y-122707314D03*
X210939998Y-122707315D03*
X208400000Y-122707314D03*
%TD*%
D16*
%TO.C,S3*%
X46207495Y-97248599D03*
D17*
X50981134Y-98986061D03*
D16*
X55754773Y-100723523D03*
D18*
X55105416Y-95081152D03*
X48269638Y-95296143D03*
%TD*%
D16*
%TO.C,S21*%
X375200714Y-118624672D03*
D17*
X379974353Y-116887210D03*
D16*
X384747992Y-115149748D03*
D18*
X380623711Y-111244838D03*
X375525394Y-115803484D03*
%TD*%
D16*
%TO.C,S29*%
X322800376Y-141751356D03*
D17*
X327574015Y-140013894D03*
D16*
X332347654Y-138276432D03*
D18*
X328223373Y-134371522D03*
X323125056Y-138930168D03*
%TD*%
D16*
%TO.C,S12*%
X105123311Y-102474139D03*
D17*
X109896950Y-104211601D03*
D16*
X114670589Y-105949063D03*
D18*
X114021232Y-100306692D03*
X107185454Y-100521683D03*
%TD*%
D11*
%TO.C,D7*%
X75629153Y-131523435D03*
D12*
X77658888Y-132262200D03*
X80759874Y-133390864D03*
D13*
X82789609Y-134129629D03*
%TD*%
D16*
%TO.C,S13*%
X108690392Y-148372136D03*
D17*
X113464031Y-150109598D03*
D16*
X118237670Y-151847060D03*
D18*
X117588313Y-146204689D03*
X110752535Y-146419680D03*
%TD*%
D16*
%TO.C,S32*%
X306202330Y-151847067D03*
D17*
X310975969Y-150109605D03*
D16*
X315749608Y-148372143D03*
D18*
X311625327Y-144467233D03*
X306527010Y-149025879D03*
%TD*%
D16*
%TO.C,S31*%
X309769406Y-105949063D03*
D17*
X314543045Y-104211601D03*
D16*
X319316684Y-102474139D03*
D18*
X315192403Y-98569229D03*
X310094086Y-103127875D03*
%TD*%
D16*
%TO.C,S27*%
X332231390Y-111964378D03*
D17*
X337005029Y-110226916D03*
D16*
X341778668Y-108489454D03*
D18*
X337654387Y-104584544D03*
X332556070Y-109143190D03*
%TD*%
D16*
%TO.C,S5*%
X62153992Y-109134429D03*
D17*
X66927631Y-110871891D03*
D16*
X71701270Y-112609353D03*
D18*
X71051913Y-106966982D03*
X64216135Y-107181973D03*
%TD*%
D11*
%TO.C,D1*%
X32659836Y-138183719D03*
D12*
X34689571Y-138922484D03*
X37790557Y-140051148D03*
D13*
X39820292Y-140789913D03*
%TD*%
D16*
%TO.C,S23*%
X359254218Y-130510496D03*
D17*
X364027857Y-128773034D03*
D16*
X368801496Y-127035572D03*
D18*
X364677215Y-123130662D03*
X359578898Y-127689308D03*
%TD*%
D16*
%TO.C,S4*%
X55638509Y-127035577D03*
D17*
X60412148Y-128773039D03*
D16*
X65185787Y-130510501D03*
D18*
X64536430Y-124868130D03*
X57700652Y-125083121D03*
%TD*%
D16*
%TO.C,S22*%
X368685230Y-100723529D03*
D17*
X373458869Y-98986067D03*
D16*
X378232508Y-97248605D03*
D18*
X374108227Y-93343695D03*
X369009910Y-97902341D03*
%TD*%
D16*
%TO.C,S8*%
X82661334Y-108489457D03*
D17*
X87434973Y-110226919D03*
D16*
X92208612Y-111964381D03*
D18*
X91559255Y-106322010D03*
X84723477Y-106537001D03*
%TD*%
D11*
%TO.C,D15*%
X121204671Y-117702684D03*
D12*
X123234406Y-118441449D03*
X126335392Y-119570113D03*
D13*
X128365127Y-120308878D03*
%TD*%
D14*
%TO.C,D24*%
X355642245Y-116873447D03*
D15*
X357671982Y-116134682D03*
X360772964Y-115006018D03*
D13*
X362802701Y-114267253D03*
%TD*%
D27*
%TO.C,D36*%
X312482418Y-189742183D03*
D28*
X313870837Y-188087528D03*
X315992041Y-185559580D03*
D13*
X317380460Y-183904925D03*
%TD*%
D16*
%TO.C,S9*%
X89176812Y-90588313D03*
D17*
X93950451Y-92325775D03*
D16*
X98724090Y-94063237D03*
D18*
X98074733Y-88420866D03*
X91238955Y-88635857D03*
%TD*%
D16*
%TO.C,S28*%
X325715906Y-94063233D03*
D17*
X330489545Y-92325771D03*
D16*
X335263184Y-90588309D03*
D18*
X331138903Y-86683399D03*
X326040586Y-91242045D03*
%TD*%
D14*
%TO.C,D33*%
X302590356Y-138210017D03*
D15*
X304620093Y-137471252D03*
X307721075Y-136342588D03*
D13*
X309750812Y-135603823D03*
%TD*%
D14*
%TO.C,D21*%
X378104223Y-122888771D03*
D15*
X380133960Y-122150006D03*
X383234942Y-121021342D03*
D13*
X385264679Y-120282577D03*
%TD*%
D16*
%TO.C,S19*%
X193923560Y-184938134D03*
D17*
X198926383Y-185820268D03*
D16*
X203929206Y-186702402D03*
D18*
X202309926Y-181258510D03*
X195615333Y-182657257D03*
%TD*%
D11*
%TO.C,D9*%
X88660128Y-95721143D03*
D12*
X90689863Y-96459908D03*
X93790849Y-97588572D03*
D13*
X95820584Y-98327337D03*
%TD*%
D16*
%TO.C,S18*%
X170407282Y-170819253D03*
D17*
X174298788Y-174084614D03*
D16*
X178190294Y-177349975D03*
D18*
X179509903Y-171825787D03*
X173012842Y-169689840D03*
%TD*%
D29*
%TO.C,D19*%
X194306030Y-190082699D03*
D30*
X196433214Y-190457782D03*
X199683080Y-191030818D03*
D13*
X201810264Y-191405901D03*
%TD*%
D16*
%TO.C,S10*%
X92092341Y-138276428D03*
D17*
X96865980Y-140013890D03*
D16*
X101639619Y-141751352D03*
D18*
X100990262Y-136108981D03*
X94154484Y-136323972D03*
%TD*%
D16*
%TO.C,S20*%
X381716200Y-136525815D03*
D17*
X386489839Y-134788353D03*
D16*
X391263478Y-133050891D03*
D18*
X387139197Y-129145981D03*
X382040880Y-133704627D03*
%TD*%
D11*
%TO.C,D13*%
X108173703Y-153504969D03*
D12*
X110203438Y-154243734D03*
X113304424Y-155372398D03*
D13*
X115334159Y-156111163D03*
%TD*%
D14*
%TO.C,D30*%
X319188405Y-128114307D03*
D15*
X321218142Y-127375542D03*
X324319124Y-126246878D03*
D13*
X326348861Y-125508113D03*
%TD*%
D31*
%TO.C,D18*%
X168166225Y-175465823D03*
D32*
X169820880Y-176854242D03*
X172348828Y-178975446D03*
D13*
X174003483Y-180363865D03*
%TD*%
D16*
%TO.C,S16*%
X92533588Y-165419469D03*
D17*
X96694880Y-168333237D03*
D16*
X100856172Y-171247005D03*
D18*
X101689295Y-165628828D03*
X95030798Y-164067264D03*
%TD*%
D33*
%TO.C,MCU1*%
X204600004Y-89337315D03*
D34*
X204600005Y-91877314D03*
X204600004Y-94417311D03*
X204600003Y-96957312D03*
X204600005Y-99497312D03*
X204600004Y-102037313D03*
X204600004Y-104577313D03*
X204600005Y-107117314D03*
X204600004Y-109657316D03*
X204600004Y-112197315D03*
X204600006Y-114737313D03*
X204600004Y-117277309D03*
X219840004Y-89337317D03*
X219840002Y-91877313D03*
X219840004Y-94417311D03*
X219840004Y-96957310D03*
X219840003Y-99497312D03*
X219840004Y-102037313D03*
X219840004Y-104577313D03*
X219840003Y-107117314D03*
X219840005Y-109657314D03*
X219840004Y-112197315D03*
X219840003Y-114737312D03*
X219840004Y-117277311D03*
%TD*%
D11*
%TO.C,D11*%
X98091145Y-125508112D03*
D12*
X100120880Y-126246877D03*
X103221866Y-127375541D03*
D13*
X105251601Y-128114306D03*
%TD*%
D14*
%TO.C,D23*%
X362157725Y-134774600D03*
D15*
X364187462Y-134035835D03*
X367288444Y-132907171D03*
D13*
X369318181Y-132168406D03*
%TD*%
D11*
%TO.C,D3*%
X45690803Y-102381433D03*
D12*
X47720538Y-103120198D03*
X50821524Y-104248862D03*
D13*
X52851259Y-104987627D03*
%TD*%
D14*
%TO.C,D22*%
X371588739Y-104987623D03*
D15*
X373618476Y-104248858D03*
X376719458Y-103120194D03*
D13*
X378749195Y-102381429D03*
%TD*%
D16*
%TO.C,S26*%
X338746877Y-129865520D03*
D17*
X343520516Y-128128058D03*
D16*
X348294155Y-126390596D03*
D18*
X344169874Y-122485686D03*
X339071557Y-127044332D03*
%TD*%
D16*
%TO.C,S7*%
X76145845Y-126390599D03*
D17*
X80919484Y-128128061D03*
D16*
X85693123Y-129865523D03*
D18*
X85043766Y-124223152D03*
X78207988Y-124438143D03*
%TD*%
D11*
%TO.C,D5*%
X61637303Y-114267254D03*
D12*
X63667038Y-115006019D03*
X66768024Y-116134683D03*
D13*
X68797759Y-116873448D03*
%TD*%
D16*
%TO.C,S15*%
X121721357Y-112569847D03*
D17*
X126494996Y-114307309D03*
D16*
X131268635Y-116044771D03*
D18*
X130619278Y-110402400D03*
X123783500Y-110617391D03*
%TD*%
D16*
%TO.C,S24*%
X352738733Y-112609352D03*
D17*
X357512372Y-110871890D03*
D16*
X362286011Y-109134428D03*
D18*
X358161730Y-105229518D03*
X353063413Y-109788164D03*
%TD*%
D16*
%TO.C,S34*%
X293171360Y-116044778D03*
D17*
X297944999Y-114307316D03*
D16*
X302718638Y-112569854D03*
D18*
X298594357Y-108664944D03*
X293496040Y-113223590D03*
%TD*%
D14*
%TO.C,D31*%
X312672918Y-110213159D03*
D15*
X314702655Y-109474394D03*
X317803637Y-108345730D03*
D13*
X319833374Y-107606965D03*
%TD*%
D11*
%TO.C,D8*%
X82144641Y-113622283D03*
D12*
X84174376Y-114361048D03*
X87275362Y-115489712D03*
D13*
X89305097Y-116228477D03*
%TD*%
D35*
%TO.C,D16*%
X90706033Y-170243670D03*
D36*
X92475401Y-171482596D03*
X95178603Y-173375396D03*
D13*
X96947971Y-174614322D03*
%TD*%
D16*
%TO.C,S35*%
X323583828Y-171247005D03*
D17*
X327745120Y-168333237D03*
D16*
X331906412Y-165419469D03*
D18*
X326911996Y-162715058D03*
X323167267Y-168437914D03*
%TD*%
D16*
%TO.C,S17*%
X110073427Y-179718113D03*
D17*
X113338788Y-183609619D03*
D16*
X116604149Y-187501125D03*
D18*
X118862976Y-182290011D03*
X112835523Y-179058309D03*
%TD*%
D16*
%TO.C,S37*%
X246249700Y-177349975D03*
D17*
X250141206Y-174084614D03*
D16*
X254032712Y-170819253D03*
D18*
X248821598Y-168560426D03*
X245589896Y-174587879D03*
%TD*%
D14*
%TO.C,D32*%
X309105834Y-156111165D03*
D15*
X311135571Y-155372400D03*
X314236553Y-154243736D03*
D13*
X316266290Y-153504971D03*
%TD*%
D37*
%TO.C,D38*%
X222629731Y-191405904D03*
D38*
X224756917Y-191030820D03*
X228006779Y-190457786D03*
D13*
X230133965Y-190082702D03*
%TD*%
D16*
%TO.C,S33*%
X299686840Y-133945921D03*
D17*
X304460479Y-132208459D03*
D16*
X309234118Y-130470997D03*
D18*
X305109837Y-126566087D03*
X300011520Y-131124733D03*
%TD*%
D11*
%TO.C,D10*%
X91575664Y-143409257D03*
D12*
X93605399Y-144148022D03*
X96706385Y-145276686D03*
D13*
X98736120Y-146015451D03*
%TD*%
D16*
%TO.C,S6*%
X68669473Y-91233286D03*
D17*
X73443112Y-92970748D03*
D16*
X78216751Y-94708210D03*
D18*
X77567394Y-89065839D03*
X70731616Y-89280830D03*
%TD*%
D16*
%TO.C,S1*%
X33176525Y-133050896D03*
D17*
X37950164Y-134788358D03*
D16*
X42723803Y-136525820D03*
D18*
X42074446Y-130883449D03*
X35238668Y-131098440D03*
%TD*%
D11*
%TO.C,D2*%
X39175318Y-120282575D03*
D12*
X41205053Y-121021340D03*
X44306039Y-122150004D03*
D13*
X46335774Y-122888769D03*
%TD*%
D14*
%TO.C,D25*%
X349126758Y-98972306D03*
D15*
X351156495Y-98233541D03*
X354257477Y-97104877D03*
D13*
X356287214Y-96366112D03*
%TD*%
D11*
%TO.C,D6*%
X68152787Y-96366117D03*
D12*
X70182522Y-97104882D03*
X73283508Y-98233546D03*
D13*
X75313243Y-98972311D03*
%TD*%
D16*
%TO.C,S14*%
X115205874Y-130470995D03*
D17*
X119979513Y-132208457D03*
D16*
X124753152Y-133945919D03*
D18*
X124103795Y-128303548D03*
X117268017Y-128518539D03*
%TD*%
M02*
