0
SECTION
2
HEADER
9
$INSUNITS
70
4
0
ENDSEC
0
SECTION
2
TABLES
0
TABLE
2
LTYPE
0
LTYPE
72
65
70
64
2
CONTINUOUS
3
______
73
0
40
0
0
ENDTAB
0
TABLE
2
LAYER
0
ENDTAB
0
ENDSEC
0
SECTION
2
ENTITIES
0
LINE
8
0
10
18.4345282
20
-120.5987736
11
36.8856667
21
-69.9046875
0
LINE
8
0
10
40.2907074
20
-66.7849787
11
59.6795965
21
-61.5926356
0
LINE
8
0
10
60.8158424
20
-61.4249161
11
79.7829251
21
-60.8283845
0
LINE
8
0
10
81.6502022
20
-61.1274502
11
101.3982687
21
-68.3151587
0
LINE
8
0
10
103.1083693
20
-68.6166955
11
308.5842397
21
-68.6166955
0
LINE
8
0
10
310.2943403
20
-68.3151587
11
330.0424068
21
-61.1274502
0
LINE
8
0
10
331.9096839
20
-60.8283845
11
350.8767666
21
-61.4249161
0
LINE
8
0
10
352.0130125
20
-61.5926356
11
371.4019016
21
-66.7849787
0
LINE
8
0
10
374.8069423
20
-69.9046875
11
393.2580808
21
-120.5987736
0
LINE
8
0
10
390.8439966
20
-126.7565267
11
337.5512194
21
-154.1284747
0
LINE
8
0
10
337.0468604
20
-154.4260742
11
320.830467
21
-165.3231103
0
LINE
8
0
10
320.830467
20
-165.3231103
11
318.5644954
21
-167.3744383
0
LINE
8
0
10
318.5644954
20
-167.3744383
11
308.7112001
21
-179.6317992
0
LINE
8
0
10
302.4953398
20
-180.928905
11
262.8376721
21
-160.1690253
0
LINE
8
0
10
257.3048546
20
-160.7685659
11
242.8230379
21
-172.920253
0
LINE
8
0
10
241.8146914
20
-173.5772755
11
233.0187052
21
-177.9007201
0
LINE
8
0
10
231.6813545
20
-178.3375142
11
210.2991562
21
-182.1077727
0
LINE
8
0
10
209.4309153
20
-182.1837339
11
202.2616937
21
-182.1837339
0
LINE
8
0
10
201.3934528
20
-182.1077727
11
180.0112545
21
-178.3375142
0
LINE
8
0
10
178.6739038
20
-177.9007201
11
169.8779176
21
-173.5772755
0
LINE
8
0
10
168.8695711
20
-172.920253
11
154.3877544
21
-160.7685659
0
LINE
8
0
10
148.8549369
20
-160.1690253
11
109.1972692
21
-180.928905
0
LINE
8
0
10
102.9814089
20
-179.6317992
11
93.1281136
21
-167.3744383
0
LINE
8
0
10
93.1281136
20
-167.3744383
11
90.862142
21
-165.3231103
0
LINE
8
0
10
90.862142
20
-165.3231103
11
74.6457486
21
-154.4260742
0
LINE
8
0
10
74.1413896
20
-154.1284747
11
20.8486124
21
-126.7565267
0
ARC
8
0
10
41.5841298
20
-71.614788
40
5
50
104.9920189
51
160.0000019
0
ARC
8
0
10
60.9730189
20
-66.422445
40
5
50
91.8014068
51
104.9920189
0
ARC
8
0
10
79.9401016
20
-65.8259134
40
5
50
70.0000019
51
91.8014068
0
ARC
8
0
10
103.1083693
20
-63.6166955
40
5
50
250.0000019
51
270
0
ARC
8
0
10
308.5842397
20
-63.6166955
40
5
50
270
51
289.9999981
0
ARC
8
0
10
331.7525074
20
-65.8259134
40
5
50
88.1985932
51
109.9999981
0
ARC
8
0
10
350.7195901
20
-66.422445
40
5
50
75.0079811
51
88.1985932
0
ARC
8
0
10
370.1084792
20
-71.614788
40
5
50
19.9999981
51
75.0079811
0
ARC
8
0
10
388.5596176
20
-122.3088742
40
5
50
297.1856915
51
19.9999981
0
ARC
8
0
10
339.8355984
20
-158.5761272
40
5
50
117.1856915
51
123.9001723
0
ARC
8
0
10
304.8142191
20
-176.4991423
40
5
50
242.3689723
51
321.2053241
0
ARC
8
0
10
260.5187927
20
-164.5987881
40
5
50
62.3689723
51
130.0000012
0
ARC
8
0
10
239.6090998
20
-169.0900308
40
5
50
296.1752565
51
310.0000012
0
ARC
8
0
10
230.8131135
20
-173.4134754
40
5
50
280.0000008
51
296.1752565
0
ARC
8
0
10
209.4309153
20
-177.1837339
40
5
50
270
51
280.0000008
0
ARC
8
0
10
202.2616937
20
-177.1837339
40
5
50
259.9999992
51
270
0
ARC
8
0
10
180.8794955
20
-173.4134754
40
5
50
243.8247435
51
259.9999992
0
ARC
8
0
10
172.0835092
20
-169.0900308
40
5
50
229.9999988
51
243.8247435
0
ARC
8
0
10
151.1738163
20
-164.5987881
40
5
50
49.9999988
51
117.6310277
0
ARC
8
0
10
106.8783899
20
-176.4991423
40
5
50
218.7946759
51
297.6310277
0
ARC
8
0
10
71.8570106
20
-158.5761272
40
5
50
56.0998277
51
62.8143085
0
ARC
8
0
10
23.1329914
20
-122.3088742
40
5
50
160.0000019
51
242.8143085
0
ENDSEC
0
EOF