0
SECTION
2
HEADER
9
$INSUNITS
70
4
0
ENDSEC
0
SECTION
2
TABLES
0
TABLE
2
LTYPE
0
LTYPE
72
65
70
64
2
CONTINUOUS
3
______
73
0
40
0
0
ENDTAB
0
TABLE
2
LAYER
0
ENDTAB
0
ENDSEC
0
SECTION
2
ENTITIES
0
LINE
8
0
10
22.6044798
20
-122.0943794
11
35.7601764
21
-126.8826614
0
LINE
8
0
10
35.7601764
20
-126.8826614
11
40.5484584
21
-113.7269648
0
LINE
8
0
10
40.5484584
20
-113.7269648
11
27.3927618
21
-108.9386828
0
LINE
8
0
10
27.3927618
20
-108.9386828
11
22.6044798
21
-122.0943794
0
LINE
8
0
10
29.1028625
20
-104.2402196
11
42.2585591
21
-109.0285016
0
LINE
8
0
10
42.2585591
20
-109.0285016
11
47.0468411
21
-95.872805
0
LINE
8
0
10
47.0468411
20
-95.872805
11
33.8911445
21
-91.084523
0
LINE
8
0
10
33.8911445
20
-91.084523
11
29.1028625
21
-104.2402196
0
LINE
8
0
10
35.6012453
20
-86.3860598
11
48.7569419
21
-91.1743418
0
LINE
8
0
10
48.7569419
20
-91.1743418
11
53.5452239
21
-78.0186452
0
LINE
8
0
10
53.5452239
20
-78.0186452
11
40.3895273
21
-73.2303632
0
LINE
8
0
10
40.3895273
20
-73.2303632
11
35.6012453
21
-86.3860598
0
LINE
8
0
10
45.0075075
20
-116.0948503
11
58.1632041
21
-120.8831323
0
LINE
8
0
10
58.1632041
20
-120.8831323
11
62.9514861
21
-107.7274357
0
LINE
8
0
10
62.9514861
20
-107.7274357
11
49.7957895
21
-102.9391537
0
LINE
8
0
10
49.7957895
20
-102.9391537
11
45.0075075
21
-116.0948503
0
LINE
8
0
10
51.5058902
20
-98.2406905
11
64.6615868
21
-103.0289725
0
LINE
8
0
10
64.6615868
20
-103.0289725
11
69.4498688
21
-89.8732759
0
LINE
8
0
10
69.4498688
20
-89.8732759
11
56.2941722
21
-85.0849939
0
LINE
8
0
10
56.2941722
20
-85.0849939
11
51.5058902
21
-98.2406905
0
LINE
8
0
10
58.004273
20
-80.3865307
11
71.1599696
21
-85.1748127
0
LINE
8
0
10
71.1599696
20
-85.1748127
11
75.9482516
21
-72.0191161
0
LINE
8
0
10
75.9482516
20
-72.0191161
11
62.792555
21
-67.2308341
0
LINE
8
0
10
62.792555
20
-67.2308341
11
58.004273
21
-80.3865307
0
LINE
8
0
10
65.4610204
20
-115.4515691
11
78.616717
21
-120.2398511
0
LINE
8
0
10
78.616717
20
-120.2398511
11
83.404999
21
-107.0841545
0
LINE
8
0
10
83.404999
20
-107.0841545
11
70.2493024
21
-102.2958725
0
LINE
8
0
10
70.2493024
20
-102.2958725
11
65.4610204
21
-115.4515691
0
LINE
8
0
10
71.9594031
20
-97.5974093
11
85.1150997
21
-102.3856913
0
LINE
8
0
10
85.1150997
20
-102.3856913
11
89.9033817
21
-89.2299947
0
LINE
8
0
10
89.9033817
20
-89.2299947
11
76.7476851
21
-84.4417127
0
LINE
8
0
10
76.7476851
20
-84.4417127
11
71.9594031
21
-97.5974093
0
LINE
8
0
10
78.4577859
20
-79.7432495
11
91.6134825
21
-84.5315315
0
LINE
8
0
10
91.6134825
20
-84.5315315
11
96.4017645
21
-71.3758349
0
LINE
8
0
10
96.4017645
20
-71.3758349
11
83.2460679
21
-66.5875529
0
LINE
8
0
10
83.2460679
20
-66.5875529
11
78.4577859
21
-79.7432495
0
LINE
8
0
10
81.3656654
20
-127.3061997
11
94.521362
21
-132.0944817
0
LINE
8
0
10
94.521362
20
-132.0944817
11
99.309644
21
-118.9387851
0
LINE
8
0
10
99.309644
20
-118.9387851
11
86.1539474
21
-114.1505031
0
LINE
8
0
10
86.1539474
20
-114.1505031
11
81.3656654
21
-127.3061997
0
LINE
8
0
10
87.8640481
20
-109.45204
11
101.0197447
21
-114.240322
0
LINE
8
0
10
101.0197447
20
-114.240322
11
105.8080267
21
-101.0846254
0
LINE
8
0
10
105.8080267
20
-101.0846254
11
92.6523301
21
-96.2963434
0
LINE
8
0
10
92.6523301
20
-96.2963434
11
87.8640481
21
-109.45204
0
LINE
8
0
10
94.3624308
20
-91.5978802
11
107.5181274
21
-96.3861622
0
LINE
8
0
10
107.5181274
20
-96.3861622
11
112.3064094
21
-83.2304656
0
LINE
8
0
10
112.3064094
20
-83.2304656
11
99.1507128
21
-78.4421836
0
LINE
8
0
10
99.1507128
20
-78.4421836
11
94.3624308
21
-91.5978802
0
LINE
8
0
10
97.9201486
20
-137.3754144
11
111.0758452
21
-142.1636964
0
LINE
8
0
10
111.0758452
20
-142.1636964
11
115.8641272
21
-129.0079998
0
LINE
8
0
10
115.8641272
20
-129.0079998
11
102.7084306
21
-124.2197178
0
LINE
8
0
10
102.7084306
20
-124.2197178
11
97.9201486
21
-137.3754144
0
LINE
8
0
10
104.4185314
20
-119.5212546
11
117.574228
21
-124.3095366
0
LINE
8
0
10
117.574228
20
-124.3095366
11
122.36251
21
-111.15384
0
LINE
8
0
10
122.36251
20
-111.15384
11
109.2068134
21
-106.365558
0
LINE
8
0
10
109.2068134
20
-106.365558
11
104.4185314
21
-119.5212546
0
LINE
8
0
10
110.9169141
20
-101.6670948
11
124.0726107
21
-106.4553768
0
LINE
8
0
10
124.0726107
20
-106.4553768
11
128.8608927
21
-93.2996802
0
LINE
8
0
10
128.8608927
20
-93.2996802
11
115.7051961
21
-88.5113982
0
LINE
8
0
10
115.7051961
20
-88.5113982
11
110.9169141
21
-101.6670948
0
LINE
8
0
10
80.4178994
20
-153.0865368
11
91.8860281
21
-161.1166069
0
LINE
8
0
10
91.8860281
20
-161.1166069
11
99.9160982
21
-149.6484782
0
LINE
8
0
10
99.9160982
20
-149.6484782
11
88.4479695
21
-141.6184081
0
LINE
8
0
10
88.4479695
20
-141.6184081
11
80.4178994
21
-153.0865368
0
LINE
8
0
10
96.9081247
20
-165.752415
11
105.9071513
21
-176.4770372
0
LINE
8
0
10
105.9071513
20
-176.4770372
11
116.6317735
21
-167.4780106
0
LINE
8
0
10
116.6317735
20
-167.4780106
11
107.6327469
21
-156.7533884
0
LINE
8
0
10
107.6327469
20
-156.7533884
11
96.9081247
21
-165.752415
0
LINE
8
0
10
161.5081247
20
-152.2780106
11
172.2327469
21
-161.2770372
0
LINE
8
0
10
172.2327469
20
-161.2770372
11
181.2317735
21
-150.552415
0
LINE
8
0
10
181.2317735
20
-150.552415
11
170.5071513
21
-141.5533884
0
LINE
8
0
10
170.5071513
20
-141.5533884
11
161.5081247
21
-152.2780106
0
LINE
8
0
10
375.0176304
20
-126.8826614
11
388.173327
21
-122.0943794
0
LINE
8
0
10
388.173327
20
-122.0943794
11
383.385045
21
-108.9386828
0
LINE
8
0
10
383.385045
20
-108.9386828
11
370.2293484
21
-113.7269648
0
LINE
8
0
10
370.2293484
20
-113.7269648
11
375.0176304
21
-126.8826614
0
LINE
8
0
10
368.5192477
20
-109.0285016
11
381.6749443
21
-104.2402196
0
LINE
8
0
10
381.6749443
20
-104.2402196
11
376.8866623
21
-91.084523
0
LINE
8
0
10
376.8866623
20
-91.084523
11
363.7309657
21
-95.872805
0
LINE
8
0
10
363.7309657
20
-95.872805
11
368.5192477
21
-109.0285016
0
LINE
8
0
10
362.0208649
20
-91.1743418
11
375.1765615
21
-86.3860598
0
LINE
8
0
10
375.1765615
20
-86.3860598
11
370.3882795
21
-73.2303632
0
LINE
8
0
10
370.3882795
20
-73.2303632
11
357.2325829
21
-78.0186452
0
LINE
8
0
10
357.2325829
20
-78.0186452
11
362.0208649
21
-91.1743418
0
LINE
8
0
10
352.6146027
20
-120.8831323
11
365.7702993
21
-116.0948503
0
LINE
8
0
10
365.7702993
20
-116.0948503
11
360.9820173
21
-102.9391537
0
LINE
8
0
10
360.9820173
20
-102.9391537
11
347.8263207
21
-107.7274357
0
LINE
8
0
10
347.8263207
20
-107.7274357
11
352.6146027
21
-120.8831323
0
LINE
8
0
10
346.11622
20
-103.0289725
11
359.2719166
21
-98.2406905
0
LINE
8
0
10
359.2719166
20
-98.2406905
11
354.4836346
21
-85.0849939
0
LINE
8
0
10
354.4836346
20
-85.0849939
11
341.327938
21
-89.8732759
0
LINE
8
0
10
341.327938
20
-89.8732759
11
346.11622
21
-103.0289725
0
LINE
8
0
10
339.6178372
20
-85.1748127
11
352.7735338
21
-80.3865307
0
LINE
8
0
10
352.7735338
20
-80.3865307
11
347.9852518
21
-67.2308341
0
LINE
8
0
10
347.9852518
20
-67.2308341
11
334.8295552
21
-72.0191161
0
LINE
8
0
10
334.8295552
20
-72.0191161
11
339.6178372
21
-85.1748127
0
LINE
8
0
10
332.1610898
20
-120.2398511
11
345.3167864
21
-115.4515691
0
LINE
8
0
10
345.3167864
20
-115.4515691
11
340.5285044
21
-102.2958725
0
LINE
8
0
10
340.5285044
20
-102.2958725
11
327.3728078
21
-107.0841545
0
LINE
8
0
10
327.3728078
20
-107.0841545
11
332.1610898
21
-120.2398511
0
LINE
8
0
10
325.6627071
20
-102.3856913
11
338.8184037
21
-97.5974093
0
LINE
8
0
10
338.8184037
20
-97.5974093
11
334.0301217
21
-84.4417127
0
LINE
8
0
10
334.0301217
20
-84.4417127
11
320.8744251
21
-89.2299947
0
LINE
8
0
10
320.8744251
20
-89.2299947
11
325.6627071
21
-102.3856913
0
LINE
8
0
10
319.1643243
20
-84.5315315
11
332.3200209
21
-79.7432495
0
LINE
8
0
10
332.3200209
20
-79.7432495
11
327.5317389
21
-66.5875529
0
LINE
8
0
10
327.5317389
20
-66.5875529
11
314.3760423
21
-71.3758349
0
LINE
8
0
10
314.3760423
20
-71.3758349
11
319.1643243
21
-84.5315315
0
LINE
8
0
10
316.2564448
20
-132.0944817
11
329.4121414
21
-127.3061997
0
LINE
8
0
10
329.4121414
20
-127.3061997
11
324.6238594
21
-114.1505031
0
LINE
8
0
10
324.6238594
20
-114.1505031
11
311.4681628
21
-118.9387851
0
LINE
8
0
10
311.4681628
20
-118.9387851
11
316.2564448
21
-132.0944817
0
LINE
8
0
10
309.7580621
20
-114.240322
11
322.9137587
21
-109.45204
0
LINE
8
0
10
322.9137587
20
-109.45204
11
318.1254767
21
-96.2963434
0
LINE
8
0
10
318.1254767
20
-96.2963434
11
304.9697801
21
-101.0846254
0
LINE
8
0
10
304.9697801
20
-101.0846254
11
309.7580621
21
-114.240322
0
LINE
8
0
10
303.2596794
20
-96.3861622
11
316.415376
21
-91.5978802
0
LINE
8
0
10
316.415376
20
-91.5978802
11
311.627094
21
-78.4421836
0
LINE
8
0
10
311.627094
20
-78.4421836
11
298.4713974
21
-83.2304656
0
LINE
8
0
10
298.4713974
20
-83.2304656
11
303.2596794
21
-96.3861622
0
LINE
8
0
10
299.7019616
20
-142.1636964
11
312.8576582
21
-137.3754144
0
LINE
8
0
10
312.8576582
20
-137.3754144
11
308.0693762
21
-124.2197178
0
LINE
8
0
10
308.0693762
20
-124.2197178
11
294.9136796
21
-129.0079998
0
LINE
8
0
10
294.9136796
20
-129.0079998
11
299.7019616
21
-142.1636964
0
LINE
8
0
10
293.2035788
20
-124.3095366
11
306.3592754
21
-119.5212546
0
LINE
8
0
10
306.3592754
20
-119.5212546
11
301.5709934
21
-106.365558
0
LINE
8
0
10
301.5709934
20
-106.365558
11
288.4152968
21
-111.15384
0
LINE
8
0
10
288.4152968
20
-111.15384
11
293.2035788
21
-124.3095366
0
LINE
8
0
10
286.7051961
20
-106.4553768
11
299.8608927
21
-101.6670948
0
LINE
8
0
10
299.8608927
20
-101.6670948
11
295.0726107
21
-88.5113982
0
LINE
8
0
10
295.0726107
20
-88.5113982
11
281.9169141
21
-93.2996802
0
LINE
8
0
10
281.9169141
20
-93.2996802
11
286.7051961
21
-106.4553768
0
LINE
8
0
10
318.8917787
20
-161.1166069
11
330.3599074
21
-153.0865368
0
LINE
8
0
10
330.3599074
20
-153.0865368
11
322.3298373
21
-141.6184081
0
LINE
8
0
10
322.3298373
20
-141.6184081
11
310.8617086
21
-149.6484782
0
LINE
8
0
10
310.8617086
20
-149.6484782
11
318.8917787
21
-161.1166069
0
LINE
8
0
10
304.8706555
20
-176.4770372
11
313.8696821
21
-165.752415
0
LINE
8
0
10
313.8696821
20
-165.752415
11
303.1450599
21
-156.7533884
0
LINE
8
0
10
303.1450599
20
-156.7533884
11
294.1460333
21
-167.4780106
0
LINE
8
0
10
294.1460333
20
-167.4780106
11
304.8706555
21
-176.4770372
0
LINE
8
0
10
238.5450599
20
-161.2770372
11
249.2696821
21
-152.2780106
0
LINE
8
0
10
249.2696821
20
-152.2780106
11
240.2706555
21
-141.5533884
0
LINE
8
0
10
240.2706555
20
-141.5533884
11
229.5460333
21
-150.552415
0
LINE
8
0
10
229.5460333
20
-150.552415
11
238.5450599
21
-161.2770372
0
ENDSEC
0
EOF