0
SECTION
2
HEADER
9
$INSUNITS
70
4
0
ENDSEC
0
SECTION
2
TABLES
0
TABLE
2
LTYPE
0
LTYPE
72
65
70
64
2
CONTINUOUS
3
______
73
0
40
0
0
ENDTAB
0
TABLE
2
LAYER
0
ENDTAB
0
ENDSEC
0
SECTION
2
ENTITIES
0
LINE
8
0
10
7.7498903
20
-162.6345597
11
21.2132034
21
-176.0978728
0
LINE
8
0
10
21.2132034
20
-176.0978728
11
34.6765165
21
-162.6345597
0
LINE
8
0
10
34.6765165
20
-162.6345597
11
21.2132034
21
-149.1712466
0
LINE
8
0
10
21.2132034
20
-149.1712466
11
7.7498903
21
-162.6345597
0
LINE
8
0
10
21.2202745
20
-149.1641755
11
34.6835876
21
-162.6274886
0
LINE
8
0
10
34.6835876
20
-162.6274886
11
48.1469007
21
-149.1641755
0
LINE
8
0
10
48.1469007
20
-149.1641755
11
34.6835876
21
-135.7008624
0
LINE
8
0
10
34.6835876
20
-135.7008624
11
21.2202745
21
-149.1641755
0
LINE
8
0
10
34.6906587
20
-135.6937913
11
48.1539718
21
-149.1571044
0
LINE
8
0
10
48.1539718
20
-149.1571044
11
61.6172849
21
-135.6937913
0
LINE
8
0
10
61.6172849
20
-135.6937913
11
48.1539718
21
-122.2304782
0
LINE
8
0
10
48.1539718
20
-122.2304782
11
34.6906587
21
-135.6937913
0
LINE
8
0
10
30.6495434
20
-166.6756749
11
44.1128565
21
-180.138988
0
LINE
8
0
10
44.1128565
20
-180.138988
11
57.5761696
21
-166.6756749
0
LINE
8
0
10
57.5761696
20
-166.6756749
11
44.1128565
21
-153.2123618
0
LINE
8
0
10
44.1128565
20
-153.2123618
11
30.6495434
21
-166.6756749
0
LINE
8
0
10
44.1199276
20
-153.2052907
11
57.5832407
21
-166.6686038
0
LINE
8
0
10
57.5832407
20
-166.6686038
11
71.0465538
21
-153.2052907
0
LINE
8
0
10
71.0465538
20
-153.2052907
11
57.5832407
21
-139.7419776
0
LINE
8
0
10
57.5832407
20
-139.7419776
11
44.1199276
21
-153.2052907
0
LINE
8
0
10
57.5903118
20
-139.7349066
11
71.0536249
21
-153.1982197
0
LINE
8
0
10
71.0536249
20
-153.1982197
11
84.516938
21
-139.7349066
0
LINE
8
0
10
84.516938
20
-139.7349066
11
71.0536249
21
-126.2715935
0
LINE
8
0
10
71.0536249
20
-126.2715935
11
57.5903118
21
-139.7349066
0
LINE
8
0
10
49.5080813
20
-174.7579054
11
62.9713944
21
-188.2212185
0
LINE
8
0
10
62.9713944
20
-188.2212185
11
76.4347075
21
-174.7579054
0
LINE
8
0
10
76.4347075
20
-174.7579054
11
62.9713944
21
-161.2945923
0
LINE
8
0
10
62.9713944
20
-161.2945923
11
49.5080813
21
-174.7579054
0
LINE
8
0
10
62.9784655
20
-161.2875213
11
76.4417786
21
-174.7508344
0
LINE
8
0
10
76.4417786
20
-174.7508344
11
89.9050917
21
-161.2875213
0
LINE
8
0
10
89.9050917
20
-161.2875213
11
76.4417786
21
-147.8242082
0
LINE
8
0
10
76.4417786
20
-147.8242082
11
62.9784655
21
-161.2875213
0
LINE
8
0
10
76.4488497
20
-147.8171371
11
89.9121628
21
-161.2804502
0
LINE
8
0
10
89.9121628
20
-161.2804502
11
103.3754759
21
-147.8171371
0
LINE
8
0
10
103.3754759
20
-147.8171371
11
89.9121628
21
-134.353824
0
LINE
8
0
10
89.9121628
20
-134.353824
11
76.4488497
21
-147.8171371
0
LINE
8
0
10
58.9373502
20
-192.2694049
11
72.4006633
21
-205.732718
0
LINE
8
0
10
72.4006633
20
-205.732718
11
85.8639764
21
-192.2694049
0
LINE
8
0
10
85.8639764
20
-192.2694049
11
72.4006633
21
-178.8060918
0
LINE
8
0
10
72.4006633
20
-178.8060918
11
58.9373502
21
-192.2694049
0
LINE
8
0
10
72.4077344
20
-178.7990207
11
85.8710475
21
-192.2623338
0
LINE
8
0
10
85.8710475
20
-192.2623338
11
99.3343606
21
-178.7990207
0
LINE
8
0
10
99.3343606
20
-178.7990207
11
85.8710475
21
-165.3357076
0
LINE
8
0
10
85.8710475
20
-165.3357076
11
72.4077344
21
-178.7990207
0
LINE
8
0
10
85.8781186
20
-165.3286365
11
99.3414317
21
-178.7919496
0
LINE
8
0
10
99.3414317
20
-178.7919496
11
112.8047448
21
-165.3286365
0
LINE
8
0
10
112.8047448
20
-165.3286365
11
99.3414317
21
-151.8653234
0
LINE
8
0
10
99.3414317
20
-151.8653234
11
85.8781186
21
-165.3286365
0
LINE
8
0
10
69.7136576
20
-208.4338659
11
83.1769707
21
-221.897179
0
LINE
8
0
10
83.1769707
20
-221.897179
11
96.6402838
21
-208.4338659
0
LINE
8
0
10
96.6402838
20
-208.4338659
11
83.1769707
21
-194.9705528
0
LINE
8
0
10
83.1769707
20
-194.9705528
11
69.7136576
21
-208.4338659
0
LINE
8
0
10
83.1840418
20
-194.9634817
11
96.6473549
21
-208.4267948
0
LINE
8
0
10
96.6473549
20
-208.4267948
11
110.110668
21
-194.9634817
0
LINE
8
0
10
110.110668
20
-194.9634817
11
96.6473549
21
-181.5001686
0
LINE
8
0
10
96.6473549
20
-181.5001686
11
83.1840418
21
-194.9634817
0
LINE
8
0
10
96.6544259
20
-181.4930975
11
110.117739
21
-194.9564106
0
LINE
8
0
10
110.117739
20
-194.9564106
11
123.5810521
21
-181.4930975
0
LINE
8
0
10
123.5810521
20
-181.4930975
11
110.117739
21
-168.0297844
0
LINE
8
0
10
110.117739
20
-168.0297844
11
96.6544259
21
-181.4930975
0
LINE
8
0
10
47.2727558
20
-214.378573
11
56.7927558
21
-230.8676966
0
LINE
8
0
10
56.7927558
20
-230.8676966
11
73.2818794
21
-221.3476966
0
LINE
8
0
10
73.2818794
20
-221.3476966
11
63.7618794
21
-204.858573
0
LINE
8
0
10
63.7618794
20
-204.858573
11
47.2727558
21
-214.378573
0
LINE
8
0
10
57.2461709
20
-232.0106035
11
62.1740855
21
-250.4018313
0
LINE
8
0
10
62.1740855
20
-250.4018313
11
80.5653133
21
-245.4739167
0
LINE
8
0
10
80.5653133
20
-245.4739167
11
75.6373987
21
-227.0826889
0
LINE
8
0
10
75.6373987
20
-227.0826889
11
57.2461709
21
-232.0106035
0
LINE
8
0
10
81.4688366
20
-238.7171021
11
99.3605841
21
-245.2291656
0
LINE
8
0
10
99.3605841
20
-245.2291656
11
105.8726476
21
-227.3374181
0
LINE
8
0
10
105.8726476
20
-227.3374181
11
87.9809001
21
-220.8253546
0
LINE
8
0
10
87.9809001
20
-220.8253546
11
81.4688366
21
-238.7171021
0
LINE
8
0
10
256.1722746
20
-176.0978728
11
269.6355877
21
-162.6345597
0
LINE
8
0
10
269.6355877
20
-162.6345597
11
256.1722746
21
-149.1712466
0
LINE
8
0
10
256.1722746
20
-149.1712466
11
242.7089615
21
-162.6345597
0
LINE
8
0
10
242.7089615
20
-162.6345597
11
256.1722746
21
-176.0978728
0
LINE
8
0
10
242.7018904
20
-162.6274886
11
256.1652035
21
-149.1641755
0
LINE
8
0
10
256.1652035
20
-149.1641755
11
242.7018904
21
-135.7008624
0
LINE
8
0
10
242.7018904
20
-135.7008624
11
229.2385773
21
-149.1641755
0
LINE
8
0
10
229.2385773
20
-149.1641755
11
242.7018904
21
-162.6274886
0
LINE
8
0
10
229.2315062
20
-149.1571044
11
242.6948193
21
-135.6937913
0
LINE
8
0
10
242.6948193
20
-135.6937913
11
229.2315062
21
-122.2304782
0
LINE
8
0
10
229.2315062
20
-122.2304782
11
215.7681931
21
-135.6937913
0
LINE
8
0
10
215.7681931
20
-135.6937913
11
229.2315062
21
-149.1571044
0
LINE
8
0
10
233.2726215
20
-180.138988
11
246.7359346
21
-166.6756749
0
LINE
8
0
10
246.7359346
20
-166.6756749
11
233.2726215
21
-153.2123618
0
LINE
8
0
10
233.2726215
20
-153.2123618
11
219.8093084
21
-166.6756749
0
LINE
8
0
10
219.8093084
20
-166.6756749
11
233.2726215
21
-180.138988
0
LINE
8
0
10
219.8022373
20
-166.6686038
11
233.2655504
21
-153.2052907
0
LINE
8
0
10
233.2655504
20
-153.2052907
11
219.8022373
21
-139.7419776
0
LINE
8
0
10
219.8022373
20
-139.7419776
11
206.3389242
21
-153.2052907
0
LINE
8
0
10
206.3389242
20
-153.2052907
11
219.8022373
21
-166.6686038
0
LINE
8
0
10
206.3318531
20
-153.1982197
11
219.7951662
21
-139.7349066
0
LINE
8
0
10
219.7951662
20
-139.7349066
11
206.3318531
21
-126.2715935
0
LINE
8
0
10
206.3318531
20
-126.2715935
11
192.86854
21
-139.7349066
0
LINE
8
0
10
192.86854
20
-139.7349066
11
206.3318531
21
-153.1982197
0
LINE
8
0
10
214.4140836
20
-188.2212185
11
227.8773967
21
-174.7579054
0
LINE
8
0
10
227.8773967
20
-174.7579054
11
214.4140836
21
-161.2945923
0
LINE
8
0
10
214.4140836
20
-161.2945923
11
200.9507705
21
-174.7579054
0
LINE
8
0
10
200.9507705
20
-174.7579054
11
214.4140836
21
-188.2212185
0
LINE
8
0
10
200.9436994
20
-174.7508344
11
214.4070125
21
-161.2875213
0
LINE
8
0
10
214.4070125
20
-161.2875213
11
200.9436994
21
-147.8242082
0
LINE
8
0
10
200.9436994
20
-147.8242082
11
187.4803863
21
-161.2875213
0
LINE
8
0
10
187.4803863
20
-161.2875213
11
200.9436994
21
-174.7508344
0
LINE
8
0
10
187.4733152
20
-161.2804502
11
200.9366283
21
-147.8171371
0
LINE
8
0
10
200.9366283
20
-147.8171371
11
187.4733152
21
-134.353824
0
LINE
8
0
10
187.4733152
20
-134.353824
11
174.0100021
21
-147.8171371
0
LINE
8
0
10
174.0100021
20
-147.8171371
11
187.4733152
21
-161.2804502
0
LINE
8
0
10
204.9848147
20
-205.732718
11
218.4481278
21
-192.2694049
0
LINE
8
0
10
218.4481278
20
-192.2694049
11
204.9848147
21
-178.8060918
0
LINE
8
0
10
204.9848147
20
-178.8060918
11
191.5215016
21
-192.2694049
0
LINE
8
0
10
191.5215016
20
-192.2694049
11
204.9848147
21
-205.732718
0
LINE
8
0
10
191.5144305
20
-192.2623338
11
204.9777436
21
-178.7990207
0
LINE
8
0
10
204.9777436
20
-178.7990207
11
191.5144305
21
-165.3357076
0
LINE
8
0
10
191.5144305
20
-165.3357076
11
178.0511174
21
-178.7990207
0
LINE
8
0
10
178.0511174
20
-178.7990207
11
191.5144305
21
-192.2623338
0
LINE
8
0
10
178.0440463
20
-178.7919496
11
191.5073594
21
-165.3286365
0
LINE
8
0
10
191.5073594
20
-165.3286365
11
178.0440463
21
-151.8653234
0
LINE
8
0
10
178.0440463
20
-151.8653234
11
164.5807332
21
-165.3286365
0
LINE
8
0
10
164.5807332
20
-165.3286365
11
178.0440463
21
-178.7919496
0
LINE
8
0
10
194.2085073
20
-221.897179
11
207.6718204
21
-208.4338659
0
LINE
8
0
10
207.6718204
20
-208.4338659
11
194.2085073
21
-194.9705528
0
LINE
8
0
10
194.2085073
20
-194.9705528
11
180.7451942
21
-208.4338659
0
LINE
8
0
10
180.7451942
20
-208.4338659
11
194.2085073
21
-221.897179
0
LINE
8
0
10
180.7381231
20
-208.4267948
11
194.2014362
21
-194.9634817
0
LINE
8
0
10
194.2014362
20
-194.9634817
11
180.7381231
21
-181.5001686
0
LINE
8
0
10
180.7381231
20
-181.5001686
11
167.27481
21
-194.9634817
0
LINE
8
0
10
167.27481
20
-194.9634817
11
180.7381231
21
-208.4267948
0
LINE
8
0
10
167.267739
20
-194.9564106
11
180.7310521
21
-181.4930975
0
LINE
8
0
10
180.7310521
20
-181.4930975
11
167.267739
21
-168.0297844
0
LINE
8
0
10
167.267739
20
-168.0297844
11
153.8044259
21
-181.4930975
0
LINE
8
0
10
153.8044259
20
-181.4930975
11
167.267739
21
-194.9564106
0
LINE
8
0
10
220.5927222
20
-230.8676966
11
230.1127222
21
-214.378573
0
LINE
8
0
10
230.1127222
20
-214.378573
11
213.6235986
21
-204.858573
0
LINE
8
0
10
213.6235986
20
-204.858573
11
204.1035986
21
-221.3476966
0
LINE
8
0
10
204.1035986
20
-221.3476966
11
220.5927222
21
-230.8676966
0
LINE
8
0
10
215.2113925
20
-250.4018313
11
220.1393071
21
-232.0106035
0
LINE
8
0
10
220.1393071
20
-232.0106035
11
201.7480793
21
-227.0826889
0
LINE
8
0
10
201.7480793
20
-227.0826889
11
196.8201647
21
-245.4739167
0
LINE
8
0
10
196.8201647
20
-245.4739167
11
215.2113925
21
-250.4018313
0
LINE
8
0
10
178.0248939
20
-245.2291656
11
195.9166414
21
-238.7171021
0
LINE
8
0
10
195.9166414
20
-238.7171021
11
189.4045779
21
-220.8253546
0
LINE
8
0
10
189.4045779
20
-220.8253546
11
171.5128304
21
-227.3374181
0
LINE
8
0
10
171.5128304
20
-227.3374181
11
178.0248939
21
-245.2291656
0
ENDSEC
0
EOF