0
SECTION
2
HEADER
9
$INSUNITS
70
4
0
ENDSEC
0
SECTION
2
TABLES
0
TABLE
2
LTYPE
0
LTYPE
72
65
70
64
2
CONTINUOUS
3
______
73
0
40
0
0
ENDTAB
0
TABLE
2
LAYER
0
ENDTAB
0
ENDSEC
0
SECTION
2
ENTITIES
0
LINE
8
0
10
19.3745636
20
-123.6005141
11
37.2663111
21
-130.1125776
0
LINE
8
0
10
37.2663111
20
-130.1125776
11
43.7783746
21
-112.2208301
0
LINE
8
0
10
43.7783746
20
-112.2208301
11
25.8866271
21
-105.7087666
0
LINE
8
0
10
25.8866271
20
-105.7087666
11
19.3745636
21
-123.6005141
0
LINE
8
0
10
25.8900474
20
-105.6993697
11
43.7817949
21
-112.2114332
0
LINE
8
0
10
43.7817949
20
-112.2114332
11
50.2938584
21
-94.3196857
0
LINE
8
0
10
50.2938584
20
-94.3196857
11
32.4021109
21
-87.8076222
0
LINE
8
0
10
32.4021109
20
-87.8076222
11
25.8900474
21
-105.6993697
0
LINE
8
0
10
32.4055311
20
-87.7982253
11
50.2972786
21
-94.3102888
0
LINE
8
0
10
50.2972786
20
-94.3102888
11
56.8093421
21
-76.4185413
0
LINE
8
0
10
56.8093421
20
-76.4185413
11
38.9175946
21
-69.9064778
0
LINE
8
0
10
38.9175946
20
-69.9064778
11
32.4055311
21
-87.7982253
0
LINE
8
0
10
41.8365467
20
-117.5851967
11
59.7282942
21
-124.0972602
0
LINE
8
0
10
59.7282942
20
-124.0972602
11
66.2403577
21
-106.2055127
0
LINE
8
0
10
66.2403577
20
-106.2055127
11
48.3486102
21
-99.6934492
0
LINE
8
0
10
48.3486102
20
-99.6934492
11
41.8365467
21
-117.5851967
0
LINE
8
0
10
48.3520304
20
-99.6840523
11
66.2437779
21
-106.1961158
0
LINE
8
0
10
66.2437779
20
-106.1961158
11
72.7558414
21
-88.3043683
0
LINE
8
0
10
72.7558414
20
-88.3043683
11
54.8640939
21
-81.7923048
0
LINE
8
0
10
54.8640939
20
-81.7923048
11
48.3520304
21
-99.6840523
0
LINE
8
0
10
54.8675141
20
-81.7829079
11
72.7592616
21
-88.2949714
0
LINE
8
0
10
72.7592616
20
-88.2949714
11
79.2713251
21
-70.4032239
0
LINE
8
0
10
79.2713251
20
-70.4032239
11
61.3795776
21
-63.8911604
0
LINE
8
0
10
61.3795776
20
-63.8911604
11
54.8675141
21
-81.7829079
0
LINE
8
0
10
62.3438846
20
-116.9402227
11
80.2356321
21
-123.4522862
0
LINE
8
0
10
80.2356321
20
-123.4522862
11
86.7476956
21
-105.5605387
0
LINE
8
0
10
86.7476956
20
-105.5605387
11
68.8559481
21
-99.0484752
0
LINE
8
0
10
68.8559481
20
-99.0484752
11
62.3438846
21
-116.9402227
0
LINE
8
0
10
68.8593683
20
-99.0390783
11
86.7511158
21
-105.5511418
0
LINE
8
0
10
86.7511158
20
-105.5511418
11
93.2631793
21
-87.6593943
0
LINE
8
0
10
93.2631793
20
-87.6593943
11
75.3714318
21
-81.1473308
0
LINE
8
0
10
75.3714318
20
-81.1473308
11
68.8593683
21
-99.0390783
0
LINE
8
0
10
75.374852
20
-81.1379339
11
93.2665995
21
-87.6499974
0
LINE
8
0
10
93.2665995
20
-87.6499974
11
99.778663
21
-69.7582499
0
LINE
8
0
10
99.778663
20
-69.7582499
11
81.8869155
21
-63.2461864
0
LINE
8
0
10
81.8869155
20
-63.2461864
11
75.374852
21
-81.1379339
0
LINE
8
0
10
78.2903839
20
-128.8260498
11
96.1821314
21
-135.3381133
0
LINE
8
0
10
96.1821314
20
-135.3381133
11
102.6941949
21
-117.4463658
0
LINE
8
0
10
102.6941949
20
-117.4463658
11
84.8024474
21
-110.9343023
0
LINE
8
0
10
84.8024474
20
-110.9343023
11
78.2903839
21
-128.8260498
0
LINE
8
0
10
84.8058676
20
-110.9249053
11
102.6976151
21
-117.4369688
0
LINE
8
0
10
102.6976151
20
-117.4369688
11
109.2096786
21
-99.5452213
0
LINE
8
0
10
109.2096786
20
-99.5452213
11
91.3179311
21
-93.0331578
0
LINE
8
0
10
91.3179311
20
-93.0331578
11
84.8058676
21
-110.9249053
0
LINE
8
0
10
91.3213513
20
-93.0237609
11
109.2130988
21
-99.5358244
0
LINE
8
0
10
109.2130988
20
-99.5358244
11
115.7251623
21
-81.6440769
0
LINE
8
0
10
115.7251623
20
-81.6440769
11
97.8334148
21
-75.1320134
0
LINE
8
0
10
97.8334148
20
-75.1320134
11
91.3213513
21
-93.0237609
0
LINE
8
0
10
94.8884316
20
-138.9217624
11
112.7801791
21
-145.4338259
0
LINE
8
0
10
112.7801791
20
-145.4338259
11
119.2922426
21
-127.5420784
0
LINE
8
0
10
119.2922426
20
-127.5420784
11
101.4004951
21
-121.0300149
0
LINE
8
0
10
101.4004951
20
-121.0300149
11
94.8884316
21
-138.9217624
0
LINE
8
0
10
101.4039153
20
-121.020618
11
119.2956628
21
-127.5326815
0
LINE
8
0
10
119.2956628
20
-127.5326815
11
125.8077263
21
-109.640934
0
LINE
8
0
10
125.8077263
20
-109.640934
11
107.9159788
21
-103.1288705
0
LINE
8
0
10
107.9159788
20
-103.1288705
11
101.4039153
21
-121.020618
0
LINE
8
0
10
107.919399
20
-103.1194735
11
125.8111465
21
-109.631537
0
LINE
8
0
10
125.8111465
20
-109.631537
11
132.32321
21
-91.7397895
0
LINE
8
0
10
132.32321
20
-91.7397895
11
114.4314625
21
-85.227726
0
LINE
8
0
10
114.4314625
20
-85.227726
11
107.919399
21
-103.1194735
0
LINE
8
0
10
77.0624093
20
-153.7934316
11
92.6590642
21
-164.7143269
0
LINE
8
0
10
92.6590642
20
-164.7143269
11
103.5799595
21
-149.117672
0
LINE
8
0
10
103.5799595
20
-149.117672
11
87.9833046
21
-138.1967767
0
LINE
8
0
10
87.9833046
20
-138.1967767
11
77.0624093
21
-153.7934316
0
LINE
8
0
10
93.5530113
20
-165.5585308
11
105.7916873
21
-180.144017
0
LINE
8
0
10
105.7916873
20
-180.144017
11
120.3771735
21
-167.905341
0
LINE
8
0
10
120.3771735
20
-167.905341
11
108.1384975
21
-153.3198548
0
LINE
8
0
10
108.1384975
20
-153.3198548
11
93.5530113
21
-165.5585308
0
LINE
8
0
10
154.5130113
20
-158.380341
11
169.0984975
21
-170.619017
0
LINE
8
0
10
169.0984975
20
-170.619017
11
181.3371735
21
-156.0335308
0
LINE
8
0
10
181.3371735
20
-156.0335308
11
166.7516873
21
-143.7948548
0
LINE
8
0
10
166.7516873
20
-143.7948548
11
154.5130113
21
-158.380341
0
LINE
8
0
10
181.5241958
20
-176.6648218
11
200.2749355
21
-179.9710831
0
LINE
8
0
10
200.2749355
20
-179.9710831
11
203.5811968
21
-161.2203434
0
LINE
8
0
10
203.5811968
20
-161.2203434
11
184.8304571
21
-157.9140821
0
LINE
8
0
10
184.8304571
20
-157.9140821
11
181.5241958
21
-176.6648218
0
LINE
8
0
10
374.4262979
20
-130.1125776
11
392.3180454
21
-123.6005141
0
LINE
8
0
10
392.3180454
20
-123.6005141
11
385.8059819
21
-105.7087666
0
LINE
8
0
10
385.8059819
20
-105.7087666
11
367.9142344
21
-112.2208301
0
LINE
8
0
10
367.9142344
20
-112.2208301
11
374.4262979
21
-130.1125776
0
LINE
8
0
10
367.9108141
20
-112.2114332
11
385.8025616
21
-105.6993697
0
LINE
8
0
10
385.8025616
20
-105.6993697
11
379.2904981
21
-87.8076222
0
LINE
8
0
10
379.2904981
20
-87.8076222
11
361.3987506
21
-94.3196857
0
LINE
8
0
10
361.3987506
20
-94.3196857
11
367.9108141
21
-112.2114332
0
LINE
8
0
10
361.3953304
20
-94.3102888
11
379.2870779
21
-87.7982253
0
LINE
8
0
10
379.2870779
20
-87.7982253
11
372.7750144
21
-69.9064778
0
LINE
8
0
10
372.7750144
20
-69.9064778
11
354.8832669
21
-76.4185413
0
LINE
8
0
10
354.8832669
20
-76.4185413
11
361.3953304
21
-94.3102888
0
LINE
8
0
10
351.9643148
20
-124.0972602
11
369.8560623
21
-117.5851967
0
LINE
8
0
10
369.8560623
20
-117.5851967
11
363.3439988
21
-99.6934492
0
LINE
8
0
10
363.3439988
20
-99.6934492
11
345.4522513
21
-106.2055127
0
LINE
8
0
10
345.4522513
20
-106.2055127
11
351.9643148
21
-124.0972602
0
LINE
8
0
10
345.4488311
20
-106.1961158
11
363.3405786
21
-99.6840523
0
LINE
8
0
10
363.3405786
20
-99.6840523
11
356.8285151
21
-81.7923048
0
LINE
8
0
10
356.8285151
20
-81.7923048
11
338.9367676
21
-88.3043683
0
LINE
8
0
10
338.9367676
20
-88.3043683
11
345.4488311
21
-106.1961158
0
LINE
8
0
10
338.9333474
20
-88.2949714
11
356.8250949
21
-81.7829079
0
LINE
8
0
10
356.8250949
20
-81.7829079
11
350.3130314
21
-63.8911604
0
LINE
8
0
10
350.3130314
20
-63.8911604
11
332.4212839
21
-70.4032239
0
LINE
8
0
10
332.4212839
20
-70.4032239
11
338.9333474
21
-88.2949714
0
LINE
8
0
10
331.4569769
20
-123.4522862
11
349.3487244
21
-116.9402227
0
LINE
8
0
10
349.3487244
20
-116.9402227
11
342.8366609
21
-99.0484752
0
LINE
8
0
10
342.8366609
20
-99.0484752
11
324.9449134
21
-105.5605387
0
LINE
8
0
10
324.9449134
20
-105.5605387
11
331.4569769
21
-123.4522862
0
LINE
8
0
10
324.9414932
20
-105.5511418
11
342.8332407
21
-99.0390783
0
LINE
8
0
10
342.8332407
20
-99.0390783
11
336.3211772
21
-81.1473308
0
LINE
8
0
10
336.3211772
20
-81.1473308
11
318.4294297
21
-87.6593943
0
LINE
8
0
10
318.4294297
20
-87.6593943
11
324.9414932
21
-105.5511418
0
LINE
8
0
10
318.4260095
20
-87.6499974
11
336.317757
21
-81.1379339
0
LINE
8
0
10
336.317757
20
-81.1379339
11
329.8056935
21
-63.2461864
0
LINE
8
0
10
329.8056935
20
-63.2461864
11
311.913946
21
-69.7582499
0
LINE
8
0
10
311.913946
20
-69.7582499
11
318.4260095
21
-87.6499974
0
LINE
8
0
10
315.5104776
20
-135.3381133
11
333.4022251
21
-128.8260498
0
LINE
8
0
10
333.4022251
20
-128.8260498
11
326.8901616
21
-110.9343023
0
LINE
8
0
10
326.8901616
20
-110.9343023
11
308.9984141
21
-117.4463658
0
LINE
8
0
10
308.9984141
20
-117.4463658
11
315.5104776
21
-135.3381133
0
LINE
8
0
10
308.9949939
20
-117.4369688
11
326.8867414
21
-110.9249053
0
LINE
8
0
10
326.8867414
20
-110.9249053
11
320.3746779
21
-93.0331578
0
LINE
8
0
10
320.3746779
20
-93.0331578
11
302.4829304
21
-99.5452213
0
LINE
8
0
10
302.4829304
20
-99.5452213
11
308.9949939
21
-117.4369688
0
LINE
8
0
10
302.4795102
20
-99.5358244
11
320.3712577
21
-93.0237609
0
LINE
8
0
10
320.3712577
20
-93.0237609
11
313.8591942
21
-75.1320134
0
LINE
8
0
10
313.8591942
20
-75.1320134
11
295.9674467
21
-81.6440769
0
LINE
8
0
10
295.9674467
20
-81.6440769
11
302.4795102
21
-99.5358244
0
LINE
8
0
10
298.9124299
20
-145.4338259
11
316.8041774
21
-138.9217624
0
LINE
8
0
10
316.8041774
20
-138.9217624
11
310.2921139
21
-121.0300149
0
LINE
8
0
10
310.2921139
20
-121.0300149
11
292.4003664
21
-127.5420784
0
LINE
8
0
10
292.4003664
20
-127.5420784
11
298.9124299
21
-145.4338259
0
LINE
8
0
10
292.3969462
20
-127.5326815
11
310.2886937
21
-121.020618
0
LINE
8
0
10
310.2886937
20
-121.020618
11
303.7766302
21
-103.1288705
0
LINE
8
0
10
303.7766302
20
-103.1288705
11
285.8848827
21
-109.640934
0
LINE
8
0
10
285.8848827
20
-109.640934
11
292.3969462
21
-127.5326815
0
LINE
8
0
10
285.8814625
20
-109.631537
11
303.77321
21
-103.1194735
0
LINE
8
0
10
303.77321
20
-103.1194735
11
297.2611465
21
-85.227726
0
LINE
8
0
10
297.2611465
20
-85.227726
11
279.369399
21
-91.7397895
0
LINE
8
0
10
279.369399
20
-91.7397895
11
285.8814625
21
-109.631537
0
LINE
8
0
10
319.0335448
20
-164.7143269
11
334.6301997
21
-153.7934316
0
LINE
8
0
10
334.6301997
20
-153.7934316
11
323.7093044
21
-138.1967767
0
LINE
8
0
10
323.7093044
20
-138.1967767
11
308.1126495
21
-149.117672
0
LINE
8
0
10
308.1126495
20
-149.117672
11
319.0335448
21
-164.7143269
0
LINE
8
0
10
305.9009217
20
-180.144017
11
318.1395977
21
-165.5585308
0
LINE
8
0
10
318.1395977
20
-165.5585308
11
303.5541115
21
-153.3198548
0
LINE
8
0
10
303.5541115
20
-153.3198548
11
291.3154355
21
-167.905341
0
LINE
8
0
10
291.3154355
20
-167.905341
11
305.9009217
21
-180.144017
0
LINE
8
0
10
242.5941115
20
-170.619017
11
257.1795977
21
-158.380341
0
LINE
8
0
10
257.1795977
20
-158.380341
11
244.9409217
21
-143.7948548
0
LINE
8
0
10
244.9409217
20
-143.7948548
11
230.3554355
21
-156.0335308
0
LINE
8
0
10
230.3554355
20
-156.0335308
11
242.5941115
21
-170.619017
0
LINE
8
0
10
211.4176735
20
-179.9710831
11
230.1684132
21
-176.6648218
0
LINE
8
0
10
230.1684132
20
-176.6648218
11
226.8621519
21
-157.9140821
0
LINE
8
0
10
226.8621519
20
-157.9140821
11
208.1114122
21
-161.2203434
0
LINE
8
0
10
208.1114122
20
-161.2203434
11
211.4176735
21
-179.9710831
0
ENDSEC
0
EOF