0
SECTION
2
HEADER
9
$INSUNITS
70
4
0
ENDSEC
0
SECTION
2
TABLES
0
TABLE
2
LTYPE
0
LTYPE
72
65
70
64
2
CONTINUOUS
3
______
73
0
40
0
0
ENDTAB
0
TABLE
2
LAYER
0
ENDTAB
0
ENDSEC
0
SECTION
2
ENTITIES
0
LINE
8
0
10
19.720626
20
-123.4391425
11
37.1049395
21
-129.7665152
0
LINE
8
0
10
37.1049395
20
-129.7665152
11
43.4323122
21
-112.3822017
0
LINE
8
0
10
43.4323122
20
-112.3822017
11
26.0479987
21
-106.054829
0
LINE
8
0
10
26.0479987
20
-106.054829
11
19.720626
21
-123.4391425
0
LINE
8
0
10
26.2190087
20
-105.5849827
11
43.6033222
21
-111.9123554
0
LINE
8
0
10
43.6033222
20
-111.9123554
11
49.9306949
21
-94.5280419
0
LINE
8
0
10
49.9306949
20
-94.5280419
11
32.5463814
21
-88.2006692
0
LINE
8
0
10
32.5463814
20
-88.2006692
11
26.2190087
21
-105.5849827
0
LINE
8
0
10
32.7173915
20
-87.7308229
11
50.101705
21
-94.0581956
0
LINE
8
0
10
50.101705
20
-94.0581956
11
56.4290777
21
-76.6738821
0
LINE
8
0
10
56.4290777
20
-76.6738821
11
39.0447642
21
-70.3465094
0
LINE
8
0
10
39.0447642
20
-70.3465094
11
32.7173915
21
-87.7308229
0
LINE
8
0
10
42.1236537
20
-117.4396134
11
59.5079672
21
-123.7669861
0
LINE
8
0
10
59.5079672
20
-123.7669861
11
65.8353399
21
-106.3826726
0
LINE
8
0
10
65.8353399
20
-106.3826726
11
48.4510264
21
-100.0552999
0
LINE
8
0
10
48.4510264
20
-100.0552999
11
42.1236537
21
-117.4396134
0
LINE
8
0
10
48.6220364
20
-99.5854536
11
66.0063499
21
-105.9128263
0
LINE
8
0
10
66.0063499
20
-105.9128263
11
72.3337226
21
-88.5285128
0
LINE
8
0
10
72.3337226
20
-88.5285128
11
54.9494091
21
-82.2011401
0
LINE
8
0
10
54.9494091
20
-82.2011401
11
48.6220364
21
-99.5854536
0
LINE
8
0
10
55.1204192
20
-81.7312938
11
72.5047327
21
-88.0586665
0
LINE
8
0
10
72.5047327
20
-88.0586665
11
78.8321054
21
-70.674353
0
LINE
8
0
10
78.8321054
20
-70.674353
11
61.4477919
21
-64.3469803
0
LINE
8
0
10
61.4477919
20
-64.3469803
11
55.1204192
21
-81.7312938
0
LINE
8
0
10
62.5771666
20
-116.7963322
11
79.9614801
21
-123.1237049
0
LINE
8
0
10
79.9614801
20
-123.1237049
11
86.2888528
21
-105.7393914
0
LINE
8
0
10
86.2888528
20
-105.7393914
11
68.9045393
21
-99.4120187
0
LINE
8
0
10
68.9045393
20
-99.4120187
11
62.5771666
21
-116.7963322
0
LINE
8
0
10
69.0755493
20
-98.9421724
11
86.4598628
21
-105.2695451
0
LINE
8
0
10
86.4598628
20
-105.2695451
11
92.7872355
21
-87.8852316
0
LINE
8
0
10
92.7872355
20
-87.8852316
11
75.402922
21
-81.5578589
0
LINE
8
0
10
75.402922
20
-81.5578589
11
69.0755493
21
-98.9421724
0
LINE
8
0
10
75.5739321
20
-81.0880126
11
92.9582456
21
-87.4153853
0
LINE
8
0
10
92.9582456
20
-87.4153853
11
99.2856183
21
-70.0310718
0
LINE
8
0
10
99.2856183
20
-70.0310718
11
81.9013048
21
-63.7036991
0
LINE
8
0
10
81.9013048
20
-63.7036991
11
75.5739321
21
-81.0880126
0
LINE
8
0
10
78.4818116
20
-128.6509628
11
95.8661251
21
-134.9783355
0
LINE
8
0
10
95.8661251
20
-134.9783355
11
102.1934978
21
-117.594022
0
LINE
8
0
10
102.1934978
20
-117.594022
11
84.8091843
21
-111.2666493
0
LINE
8
0
10
84.8091843
20
-111.2666493
11
78.4818116
21
-128.6509628
0
LINE
8
0
10
84.9801943
20
-110.7968031
11
102.3645078
21
-117.1241758
0
LINE
8
0
10
102.3645078
20
-117.1241758
11
108.6918805
21
-99.7398623
0
LINE
8
0
10
108.6918805
20
-99.7398623
11
91.307567
21
-93.4124896
0
LINE
8
0
10
91.307567
20
-93.4124896
11
84.9801943
21
-110.7968031
0
LINE
8
0
10
91.478577
20
-92.9426433
11
108.8628905
21
-99.270016
0
LINE
8
0
10
108.8628905
20
-99.270016
11
115.1902632
21
-81.8857025
0
LINE
8
0
10
115.1902632
20
-81.8857025
11
97.8059497
21
-75.5583298
0
LINE
8
0
10
97.8059497
20
-75.5583298
11
91.478577
21
-92.9426433
0
LINE
8
0
10
95.0362948
20
-138.7201775
11
112.4206083
21
-145.0475502
0
LINE
8
0
10
112.4206083
20
-145.0475502
11
118.747981
21
-127.6632367
0
LINE
8
0
10
118.747981
20
-127.6632367
11
101.3636675
21
-121.335864
0
LINE
8
0
10
101.3636675
20
-121.335864
11
95.0362948
21
-138.7201775
0
LINE
8
0
10
101.5346776
20
-120.8660177
11
118.9189911
21
-127.1933904
0
LINE
8
0
10
118.9189911
20
-127.1933904
11
125.2463638
21
-109.8090769
0
LINE
8
0
10
125.2463638
20
-109.8090769
11
107.8620503
21
-103.4817042
0
LINE
8
0
10
107.8620503
20
-103.4817042
11
101.5346776
21
-120.8660177
0
LINE
8
0
10
108.0330603
20
-103.0118579
11
125.4173738
21
-109.3392306
0
LINE
8
0
10
125.4173738
20
-109.3392306
11
131.7447465
21
-91.9549171
0
LINE
8
0
10
131.7447465
20
-91.9549171
11
114.360433
21
-85.6275444
0
LINE
8
0
10
114.360433
20
-85.6275444
11
108.0330603
21
-103.0118579
0
LINE
8
0
10
77.2842604
20
-153.6390819
11
92.4385732
21
-164.2502459
0
LINE
8
0
10
92.4385732
20
-164.2502459
11
103.0497372
21
-149.0959331
0
LINE
8
0
10
103.0497372
20
-149.0959331
11
87.8954244
21
-138.4847691
0
LINE
8
0
10
87.8954244
20
-138.4847691
11
77.2842604
21
-153.6390819
0
LINE
8
0
10
93.7382526
20
-165.4750871
11
105.6298234
21
-179.6469093
0
LINE
8
0
10
105.6298234
20
-179.6469093
11
119.8016456
21
-167.7553385
0
LINE
8
0
10
119.8016456
20
-167.7553385
11
107.9100748
21
-153.5835163
0
LINE
8
0
10
107.9100748
20
-153.5835163
11
93.7382526
21
-165.4750871
0
LINE
8
0
10
158.3382526
20
-152.5553385
11
172.5100748
21
-164.4469093
0
LINE
8
0
10
172.5100748
20
-164.4469093
11
184.4016456
21
-150.2750871
0
LINE
8
0
10
184.4016456
20
-150.2750871
11
170.2298234
21
-138.3835163
0
LINE
8
0
10
170.2298234
20
-138.3835163
11
158.3382526
21
-152.5553385
0
LINE
8
0
10
373.6728673
20
-129.7665152
11
391.0571808
21
-123.4391425
0
LINE
8
0
10
391.0571808
20
-123.4391425
11
384.7298081
21
-106.054829
0
LINE
8
0
10
384.7298081
20
-106.054829
11
367.3454946
21
-112.3822017
0
LINE
8
0
10
367.3454946
20
-112.3822017
11
373.6728673
21
-129.7665152
0
LINE
8
0
10
367.1744846
20
-111.9123554
11
384.5587981
21
-105.5849827
0
LINE
8
0
10
384.5587981
20
-105.5849827
11
378.2314254
21
-88.2006692
0
LINE
8
0
10
378.2314254
20
-88.2006692
11
360.8471119
21
-94.5280419
0
LINE
8
0
10
360.8471119
20
-94.5280419
11
367.1744846
21
-111.9123554
0
LINE
8
0
10
360.6761018
20
-94.0581956
11
378.0604153
21
-87.7308229
0
LINE
8
0
10
378.0604153
20
-87.7308229
11
371.7330426
21
-70.3465094
0
LINE
8
0
10
371.7330426
20
-70.3465094
11
354.3487291
21
-76.6738821
0
LINE
8
0
10
354.3487291
20
-76.6738821
11
360.6761018
21
-94.0581956
0
LINE
8
0
10
351.2698396
20
-123.7669861
11
368.6541531
21
-117.4396134
0
LINE
8
0
10
368.6541531
20
-117.4396134
11
362.3267804
21
-100.0552999
0
LINE
8
0
10
362.3267804
20
-100.0552999
11
344.9424669
21
-106.3826726
0
LINE
8
0
10
344.9424669
20
-106.3826726
11
351.2698396
21
-123.7669861
0
LINE
8
0
10
344.7714569
20
-105.9128263
11
362.1557704
21
-99.5854536
0
LINE
8
0
10
362.1557704
20
-99.5854536
11
355.8283977
21
-82.2011401
0
LINE
8
0
10
355.8283977
20
-82.2011401
11
338.4440842
21
-88.5285128
0
LINE
8
0
10
338.4440842
20
-88.5285128
11
344.7714569
21
-105.9128263
0
LINE
8
0
10
338.2730741
20
-88.0586665
11
355.6573876
21
-81.7312938
0
LINE
8
0
10
355.6573876
20
-81.7312938
11
349.3300149
21
-64.3469803
0
LINE
8
0
10
349.3300149
20
-64.3469803
11
331.9457014
21
-70.674353
0
LINE
8
0
10
331.9457014
20
-70.674353
11
338.2730741
21
-88.0586665
0
LINE
8
0
10
330.8163267
20
-123.1237049
11
348.2006402
21
-116.7963322
0
LINE
8
0
10
348.2006402
20
-116.7963322
11
341.8732675
21
-99.4120187
0
LINE
8
0
10
341.8732675
20
-99.4120187
11
324.488954
21
-105.7393914
0
LINE
8
0
10
324.488954
20
-105.7393914
11
330.8163267
21
-123.1237049
0
LINE
8
0
10
324.317944
20
-105.2695451
11
341.7022575
21
-98.9421724
0
LINE
8
0
10
341.7022575
20
-98.9421724
11
335.3748848
21
-81.5578589
0
LINE
8
0
10
335.3748848
20
-81.5578589
11
317.9905713
21
-87.8852316
0
LINE
8
0
10
317.9905713
20
-87.8852316
11
324.317944
21
-105.2695451
0
LINE
8
0
10
317.8195612
20
-87.4153853
11
335.2038747
21
-81.0880126
0
LINE
8
0
10
335.2038747
20
-81.0880126
11
328.876502
21
-63.7036991
0
LINE
8
0
10
328.876502
20
-63.7036991
11
311.4921885
21
-70.0310718
0
LINE
8
0
10
311.4921885
20
-70.0310718
11
317.8195612
21
-87.4153853
0
LINE
8
0
10
314.9116817
20
-134.9783355
11
332.2959952
21
-128.6509628
0
LINE
8
0
10
332.2959952
20
-128.6509628
11
325.9686225
21
-111.2666493
0
LINE
8
0
10
325.9686225
20
-111.2666493
11
308.584309
21
-117.594022
0
LINE
8
0
10
308.584309
20
-117.594022
11
314.9116817
21
-134.9783355
0
LINE
8
0
10
308.413299
20
-117.1241758
11
325.7976125
21
-110.7968031
0
LINE
8
0
10
325.7976125
20
-110.7968031
11
319.4702398
21
-93.4124896
0
LINE
8
0
10
319.4702398
20
-93.4124896
11
302.0859263
21
-99.7398623
0
LINE
8
0
10
302.0859263
20
-99.7398623
11
308.413299
21
-117.1241758
0
LINE
8
0
10
301.9149163
20
-99.270016
11
319.2992298
21
-92.9426433
0
LINE
8
0
10
319.2992298
20
-92.9426433
11
312.9718571
21
-75.5583298
0
LINE
8
0
10
312.9718571
20
-75.5583298
11
295.5875436
21
-81.8857025
0
LINE
8
0
10
295.5875436
20
-81.8857025
11
301.9149163
21
-99.270016
0
LINE
8
0
10
298.3571985
20
-145.0475502
11
315.741512
21
-138.7201775
0
LINE
8
0
10
315.741512
20
-138.7201775
11
309.4141393
21
-121.335864
0
LINE
8
0
10
309.4141393
20
-121.335864
11
292.0298258
21
-127.6632367
0
LINE
8
0
10
292.0298258
20
-127.6632367
11
298.3571985
21
-145.0475502
0
LINE
8
0
10
291.8588157
20
-127.1933904
11
309.2431292
21
-120.8660177
0
LINE
8
0
10
309.2431292
20
-120.8660177
11
302.9157565
21
-103.4817042
0
LINE
8
0
10
302.9157565
20
-103.4817042
11
285.531443
21
-109.8090769
0
LINE
8
0
10
285.531443
20
-109.8090769
11
291.8588157
21
-127.1933904
0
LINE
8
0
10
285.360433
20
-109.3392306
11
302.7447465
21
-103.0118579
0
LINE
8
0
10
302.7447465
20
-103.0118579
11
296.4173738
21
-85.6275444
0
LINE
8
0
10
296.4173738
20
-85.6275444
11
279.0330603
21
-91.9549171
0
LINE
8
0
10
279.0330603
20
-91.9549171
11
285.360433
21
-109.3392306
0
LINE
8
0
10
318.3392336
20
-164.2502459
11
333.4935464
21
-153.6390819
0
LINE
8
0
10
333.4935464
20
-153.6390819
11
322.8823824
21
-138.4847691
0
LINE
8
0
10
322.8823824
20
-138.4847691
11
307.7280696
21
-149.0959331
0
LINE
8
0
10
307.7280696
20
-149.0959331
11
318.3392336
21
-164.2502459
0
LINE
8
0
10
305.1479834
20
-179.6469093
11
317.0395542
21
-165.4750871
0
LINE
8
0
10
317.0395542
20
-165.4750871
11
302.867732
21
-153.5835163
0
LINE
8
0
10
302.867732
20
-153.5835163
11
290.9761612
21
-167.7553385
0
LINE
8
0
10
290.9761612
20
-167.7553385
11
305.1479834
21
-179.6469093
0
LINE
8
0
10
238.267732
20
-164.4469093
11
252.4395542
21
-152.5553385
0
LINE
8
0
10
252.4395542
20
-152.5553385
11
240.5479834
21
-138.3835163
0
LINE
8
0
10
240.5479834
20
-138.3835163
11
226.3761612
21
-150.2750871
0
LINE
8
0
10
226.3761612
20
-150.2750871
11
238.267732
21
-164.4469093
0
ENDSEC
0
EOF