0
SECTION
2
HEADER
9
$INSUNITS
70
4
0
ENDSEC
0
SECTION
2
TABLES
0
TABLE
2
LTYPE
0
LTYPE
72
65
70
64
2
CONTINUOUS
3
______
73
0
40
0
0
ENDTAB
0
TABLE
2
LAYER
0
ENDTAB
0
ENDSEC
0
SECTION
2
ENTITIES
0
LINE
8
0
10
16.0496194
20
-121.6837426
11
35.7338171
21
-67.6018538
0
LINE
8
0
10
39.1388578
20
-64.482145
11
58.4687916
21
-59.3055902
0
LINE
8
0
10
59.6050375
20
-59.1378707
11
78.5182952
21
-58.5430319
0
LINE
8
0
10
80.3855723
20
-58.8420976
11
103.6480893
21
-67.3089614
0
LINE
8
0
10
105.3581899
20
-67.6104982
11
305.4196169
21
-67.6104982
0
LINE
8
0
10
307.1297175
20
-67.3089614
11
330.3922345
21
-58.8420976
0
LINE
8
0
10
332.2595116
20
-58.5430319
11
351.1727693
21
-59.1378707
0
LINE
8
0
10
352.3090152
20
-59.3055902
11
371.638949
21
-64.482145
0
LINE
8
0
10
375.0439897
20
-67.6018538
11
394.7281874
21
-121.6837426
0
LINE
8
0
10
392.2793504
20
-127.8591743
11
339.3491809
21
-154.5253041
0
LINE
8
0
10
338.9304229
20
-154.7621927
11
323.117111
21
-164.7412785
0
LINE
8
0
10
322.420183
20
-165.2717925
11
317.6872857
21
-169.5789817
0
LINE
8
0
10
317.0651432
20
-170.2602553
11
307.58804
21
-182.7872162
0
LINE
8
0
10
302.5079986
20
-184.6497265
11
238.3081532
21
-170.2735138
0
LINE
8
0
10
237.2155663
20
-170.1526791
11
173.5622405
21
-170.1526791
0
LINE
8
0
10
172.4696536
20
-170.2735138
11
108.2698082
21
-184.6497265
0
LINE
8
0
10
103.1897668
20
-182.7872162
11
93.7126636
21
-170.2602553
0
LINE
8
0
10
93.0905211
20
-169.5789817
11
88.3576238
21
-165.2717925
0
LINE
8
0
10
87.6606958
20
-164.7412785
11
71.8473839
21
-154.7621927
0
LINE
8
0
10
71.4286259
20
-154.5253041
11
18.4984564
21
-127.8591743
0
ARC
8
0
10
40.4322802
20
-69.3119544
40
5
50
104.9920189
51
160.0000019
0
ARC
8
0
10
59.762214
20
-64.1353996
40
5
50
91.8014068
51
104.9920189
0
ARC
8
0
10
78.6754717
20
-63.5405608
40
5
50
70.0000019
51
91.8014068
0
ARC
8
0
10
105.3581899
20
-62.6104982
40
5
50
250.0000019
51
270
0
ARC
8
0
10
305.4196169
20
-62.6104982
40
5
50
270
51
289.9999981
0
ARC
8
0
10
332.1023351
20
-63.5405608
40
5
50
88.1985932
51
109.9999981
0
ARC
8
0
10
351.0155928
20
-64.1353996
40
5
50
75.0079811
51
88.1985932
0
ARC
8
0
10
370.3455266
20
-69.3119544
40
5
50
19.9999981
51
75.0079811
0
ARC
8
0
10
390.0297243
20
-123.3938431
40
5
50
296.7388861
51
19.9999981
0
ARC
8
0
10
341.598807
20
-158.9906353
40
5
50
116.7388861
51
122.2542203
0
ARC
8
0
10
325.785495
20
-168.969721
40
5
50
122.2542203
51
132.3038645
0
ARC
8
0
10
321.0525977
20
-173.2769102
40
5
50
132.3038645
51
142.8911634
0
ARC
8
0
10
303.6005855
20
-179.7705612
40
5
50
257.3780329
51
322.8911634
0
ARC
8
0
10
237.2155663
20
-175.1526791
40
5
50
77.3780329
51
90
0
ARC
8
0
10
173.5622405
20
-175.1526791
40
5
50
90
51
102.6219671
0
ARC
8
0
10
107.1772213
20
-179.7705612
40
5
50
217.1088366
51
282.6219671
0
ARC
8
0
10
89.7252091
20
-173.2769102
40
5
50
37.1088366
51
47.6961355
0
ARC
8
0
10
84.9923118
20
-168.969721
40
5
50
47.6961355
51
57.7457797
0
ARC
8
0
10
69.1789998
20
-158.9906353
40
5
50
57.7457797
51
63.2611139
0
ARC
8
0
10
20.7480825
20
-123.3938431
40
5
50
160.0000019
51
243.2611139
0
CIRCLE
8
0
10
49.7719408
20
-67.9190247
40
2.25
0
CIRCLE
8
0
10
48.1309524
20
-127.9798868
40
2.25
0
CIRCLE
8
0
10
126.3872861
20
-79.6292277
40
2.25
0
CIRCLE
8
0
10
167.2943119
20
-78.3426653
40
2.25
0
CIRCLE
8
0
10
149.0988403
20
-128.3343127
40
2.25
0
CIRCLE
8
0
10
120.8564176
20
-159.75581
40
2.25
0
CIRCLE
8
0
10
361.005866
20
-67.9190247
40
2.25
0
CIRCLE
8
0
10
362.6468544
20
-127.9798868
40
2.25
0
CIRCLE
8
0
10
284.3905207
20
-79.6292277
40
2.25
0
CIRCLE
8
0
10
243.4834949
20
-78.3426653
40
2.25
0
CIRCLE
8
0
10
261.6789665
20
-128.3343127
40
2.25
0
CIRCLE
8
0
10
289.9213892
20
-159.75581
40
2.25
0
CIRCLE
8
0
10
205.3889034
20
-153.3375473
40
2.25
0
ENDSEC
0
EOF