0
SECTION
2
HEADER
9
$INSUNITS
70
4
0
ENDSEC
0
SECTION
2
TABLES
0
TABLE
2
LTYPE
0
LTYPE
72
65
70
64
2
CONTINUOUS
3
______
73
0
40
0
0
ENDTAB
0
TABLE
2
LAYER
0
ENDTAB
0
ENDSEC
0
SECTION
2
ENTITIES
0
LINE
8
0
10
8.1665194
20
-159.5167827
11
46.3131764
21
-121.3701257
0
LINE
8
0
10
50.7176368
20
-119.9817418
11
70.4843167
21
-123.4699794
0
LINE
8
0
10
71.5849868
20
-123.7981721
11
89.0271072
21
-131.2733666
0
LINE
8
0
10
90.5930445
20
-132.3335578
11
105.5577176
21
-147.2982309
0
LINE
8
0
10
106.4245392
20
-148.4632658
11
114.0900076
21
-162.6991355
0
LINE
8
0
10
118.4923631
20
-165.3286365
11
158.8931149
21
-165.3286365
0
LINE
8
0
10
163.2954704
20
-162.6991355
11
170.9609388
21
-148.4632658
0
LINE
8
0
10
171.8277604
20
-147.2982309
11
186.7924335
21
-132.3335578
0
LINE
8
0
10
188.3583708
20
-131.2733666
11
205.8004912
21
-123.7981721
0
LINE
8
0
10
206.9011613
20
-123.4699794
11
226.6678412
21
-119.9817418
0
LINE
8
0
10
231.0723016
20
-121.3701257
11
269.2189586
21
-159.5167827
0
LINE
8
0
10
269.6334346
20
-166.1178381
11
232.9016604
21
-213.4477489
0
LINE
8
0
10
232.5703269
20
-213.9306169
11
222.4785698
21
-230.6600296
0
LINE
8
0
10
222.4785698
20
-230.6600296
11
221.2918308
21
-233.4768052
0
LINE
8
0
10
221.2918308
20
-233.4768052
11
217.1317078
21
-250.4205912
0
LINE
8
0
10
214.3985428
20
-253.7554599
11
172.7663653
21
-273.2755664
0
LINE
8
0
10
170.6437481
20
-273.7484817
11
106.7417299
21
-273.7484817
0
LINE
8
0
10
104.6191127
20
-273.2755664
11
62.9869352
21
-253.7554599
0
LINE
8
0
10
60.2537702
20
-250.4205912
11
56.0936472
21
-233.4768052
0
LINE
8
0
10
56.0936472
20
-233.4768052
11
54.9069082
21
-230.6600296
0
LINE
8
0
10
54.9069082
20
-230.6600296
11
44.8151511
21
-213.9306169
0
LINE
8
0
10
44.4838176
20
-213.4477489
11
7.7520434
21
-166.1178381
0
ARC
8
0
10
49.8487103
20
-124.9056596
40
5
50
79.9920225
51
135
0
ARC
8
0
10
69.6153902
20
-128.3938973
40
5
50
66.8014087
51
79.9920225
0
ARC
8
0
10
87.0575106
20
-135.8690917
40
5
50
45
51
66.8014087
0
ARC
8
0
10
102.0221837
20
-150.8337648
40
5
50
28.3007546
51
45
0
ARC
8
0
10
118.4923631
20
-160.3286365
40
5
50
208.3007546
51
270
0
ARC
8
0
10
158.8931149
20
-160.3286365
40
5
50
270
51
331.6992454
0
ARC
8
0
10
175.3632943
20
-150.8337648
40
5
50
135
51
151.6992454
0
ARC
8
0
10
190.3279674
20
-135.8690917
40
5
50
113.1985913
51
135
0
ARC
8
0
10
207.7700878
20
-128.3938973
40
5
50
100.0079775
51
113.1985913
0
ARC
8
0
10
227.5367677
20
-124.9056596
40
5
50
45
51
100.0079775
0
ARC
8
0
10
265.6834247
20
-163.0523166
40
5
50
322.1856968
51
45
0
ARC
8
0
10
236.8516703
20
-216.5132704
40
5
50
142.1856968
51
148.9001768
0
ARC
8
0
10
212.2759257
20
-249.2283751
40
5
50
295.1205015
51
346.2053244
0
ARC
8
0
10
170.6437481
20
-268.7484817
40
5
50
270
51
295.1205015
0
ARC
8
0
10
106.7417299
20
-268.7484817
40
5
50
244.8794985
51
270
0
ARC
8
0
10
65.1095523
20
-249.2283751
40
5
50
193.7946756
51
244.8794985
0
ARC
8
0
10
40.5338077
20
-216.5132704
40
5
50
31.0998232
51
37.8143032
0
ARC
8
0
10
11.7020533
20
-163.0523166
40
5
50
135
51
217.8143032
0
LINE
8
0
10
110.627739
20
-271.7484817
11
166.757739
21
-271.7484817
0
ARC
8
0
10
166.757739
20
-268.7484817
40
3
50
270
51
630
0
LINE
8
0
10
169.757739
20
-268.7484817
11
169.757739
21
-212.6184817
0
ARC
8
0
10
166.757739
20
-212.6184817
40
3
50
0
51
360
0
LINE
8
0
10
110.627739
20
-209.6184817
11
166.757739
21
-209.6184817
0
ARC
8
0
10
110.627739
20
-212.6184817
40
3
50
90
51
450
0
LINE
8
0
10
107.627739
20
-268.7484817
11
107.627739
21
-212.6184817
0
ARC
8
0
10
110.627739
20
-268.7484817
40
3
50
180
51
540
0
CIRCLE
8
0
10
60.2773176
20
-128.9585992
40
2.25
0
CIRCLE
8
0
10
31.9895107
20
-178.7990207
40
2.25
0
CIRCLE
8
0
10
123.5881232
20
-168.0227133
40
2.25
0
CIRCLE
8
0
10
84.6125523
20
-238.4780353
40
2.25
0
CIRCLE
8
0
10
217.1081604
20
-128.9585992
40
2.25
0
CIRCLE
8
0
10
245.3959673
20
-178.7990207
40
2.25
0
CIRCLE
8
0
10
153.7973548
20
-168.0227133
40
2.25
0
CIRCLE
8
0
10
192.7729257
20
-238.4780353
40
2.25
0
LINE
8
0
10
128.692739
20
-207.9634817
11
128.692739
21
-161.2080975
0
LINE
8
0
10
128.692739
20
-201.2080975
11
148.692739
21
-201.2080975
0
LINE
8
0
10
148.692739
20
-207.9634817
11
148.692739
21
-161.2080975
0
LINE
8
0
10
148.692739
20
-161.2080975
11
128.692739
21
-161.2080975
0
CIRCLE
8
0
10
160.757739
20
-218.6184817
40
4.25
0
CIRCLE
8
0
10
116.627739
20
-218.6184817
40
4.25
0
CIRCLE
8
0
10
160.757739
20
-262.7484817
40
4.25
0
CIRCLE
8
0
10
116.627739
20
-262.7484817
40
4.25
0
LINE
8
0
10
128.692739
20
-207.9634817
11
148.692739
21
-207.9634817
0
LINE
8
0
10
148.692739
20
-187.9634817
11
128.692739
21
-187.9634817
0
ARC
8
0
10
138.692739
20
-240.6834817
40
23.065
50
90.9641918
51
449.0358082
0
ARC
8
0
10
138.692739
20
-217.7184817
40
0.4
50
166.0051014
51
373.9948986
0
LINE
8
0
10
112.627739
20
-269.7484817
11
164.757739
21
-269.7484817
0
ARC
8
0
10
164.757739
20
-266.7484817
40
3
50
270
51
360
0
LINE
8
0
10
167.757739
20
-266.7484817
11
167.757739
21
-214.6184817
0
ARC
8
0
10
164.757739
20
-214.6184817
40
3
50
0
51
90
0
LINE
8
0
10
164.757739
20
-211.6184817
11
112.627739
21
-211.6184817
0
ARC
8
0
10
112.627739
20
-214.6184817
40
3
50
90
51
180
0
LINE
8
0
10
109.627739
20
-214.6184817
11
109.627739
21
-266.7484817
0
ARC
8
0
10
112.627739
20
-266.7484817
40
3
50
180
51
270
0
CIRCLE
8
0
10
138.692739
20
-240.6834817
40
21.93
0
ENDSEC
0
EOF