0
SECTION
2
HEADER
9
$INSUNITS
70
4
0
ENDSEC
0
SECTION
2
TABLES
0
TABLE
2
LTYPE
0
LTYPE
72
65
70
64
2
CONTINUOUS
3
______
73
0
40
0
0
ENDTAB
0
TABLE
2
LAYER
0
ENDTAB
0
ENDSEC
0
SECTION
2
ENTITIES
0
LINE
8
0
10
16.8367723
20
-124.7839056
11
38.4497026
21
-132.6503689
0
LINE
8
0
10
38.4497026
20
-132.6503689
11
41.5278839
21
-124.1931353
0
LINE
8
0
10
16.8367723
20
-124.7839056
11
37.7000011
21
-67.4626557
0
LINE
8
0
10
52.3954967
20
-123.5726585
11
50.9248101
21
-127.6133367
0
LINE
8
0
10
50.9248101
20
-127.6133367
11
41.5278839
21
-124.1931353
0
LINE
8
0
10
46.1572346
20
-70.540837
11
37.7000011
21
-67.4626557
0
LINE
8
0
10
52.3954967
20
-123.5726585
11
60.8527303
21
-126.6508398
0
LINE
8
0
10
60.8527303
20
-126.6508398
11
63.4520834
21
-119.5091758
0
LINE
8
0
10
47.6279212
20
-66.5001588
11
57.0248475
21
-69.9203603
0
LINE
8
0
10
46.1572346
20
-70.540837
11
47.6279212
21
-66.5001588
0
LINE
8
0
10
60.1030288
20
-61.4631266
11
77.9571886
21
-67.9615094
0
LINE
8
0
10
60.1030288
20
-61.4631266
11
57.0248475
21
-69.9203603
0
LINE
8
0
10
63.4520834
20
-119.5091758
11
77.5474727
21
-124.639478
0
LINE
8
0
10
100.2199571
20
-74.0425567
11
102.169472
21
-68.6863087
0
LINE
8
0
10
102.169472
20
-68.6863087
11
80.5565417
21
-60.8198454
0
LINE
8
0
10
80.5565417
20
-60.8198454
11
77.9571886
21
-67.9615094
0
LINE
8
0
10
75.5979579
20
-129.9957259
11
93.4521177
21
-136.4941086
0
LINE
8
0
10
77.5474727
20
-124.639478
11
75.5979579
21
-129.9957259
0
LINE
8
0
10
116.7744404
20
-84.1117713
11
118.0741169
21
-80.5409394
0
LINE
8
0
10
100.2199571
20
-74.0425567
11
118.0741169
21
-80.5409394
0
LINE
8
0
10
96.1559207
20
-141.522088
11
113.7653714
21
-147.9314039
0
LINE
8
0
10
113.7653714
20
-147.9314039
11
134.6286002
21
-90.610154
0
LINE
8
0
10
93.4521177
20
-136.4941086
11
92.5428826
21
-138.9922115
0
LINE
8
0
10
116.7744404
20
-84.1117713
11
134.6286002
21
-90.610154
0
LINE
8
0
10
74.1506213
20
-154.191627
11
91.5646382
21
-166.3850529
0
LINE
8
0
10
100.1535931
20
-157.1548108
11
106.1833763
21
-148.543388
0
LINE
8
0
10
106.1833763
20
-148.543388
11
96.1559207
21
-141.522088
0
LINE
8
0
10
92.5428826
20
-138.9922115
11
87.3428793
21
-135.35113
0
LINE
8
0
10
87.3428793
20
-135.35113
11
74.1506213
21
-154.191627
0
LINE
8
0
10
91.5646382
20
-166.3850529
11
105.3524955
21
-182.8167814
0
LINE
8
0
10
105.3524955
20
-182.8167814
11
122.9715177
21
-168.0326664
0
LINE
8
0
10
122.9715177
20
-168.0326664
11
108.1874027
21
-150.4136442
0
LINE
8
0
10
108.1874027
20
-150.4136442
11
100.1535931
21
-157.1548108
0
LINE
8
0
10
155.1683805
20
-152.8326664
11
172.7874027
21
-167.6167814
0
LINE
8
0
10
172.7874027
20
-167.6167814
11
187.5715177
21
-149.9977592
0
LINE
8
0
10
187.5715177
20
-149.9977592
11
169.9524955
21
-135.2136442
0
LINE
8
0
10
169.9524955
20
-135.2136442
11
155.1683805
21
-152.8326664
0
LINE
8
0
10
372.3281042
20
-132.6503689
11
393.9410345
21
-124.7839056
0
LINE
8
0
10
373.0778057
20
-67.4626557
11
393.9410345
21
-124.7839056
0
LINE
8
0
10
369.2499229
20
-124.1931353
11
372.3281042
21
-132.6503689
0
LINE
8
0
10
369.2499229
20
-124.1931353
11
359.8529967
21
-127.6133367
0
LINE
8
0
10
359.8529967
20
-127.6133367
11
358.3823101
21
-123.5726585
0
LINE
8
0
10
373.0778057
20
-67.4626557
11
364.6205722
21
-70.540837
0
LINE
8
0
10
349.9250765
20
-126.6508398
11
358.3823101
21
-123.5726585
0
LINE
8
0
10
347.3257234
20
-119.5091758
11
349.9250765
21
-126.6508398
0
LINE
8
0
10
353.7529593
20
-69.9203603
11
363.1498856
21
-66.5001588
0
LINE
8
0
10
363.1498856
20
-66.5001588
11
364.6205722
21
-70.540837
0
LINE
8
0
10
353.7529593
20
-69.9203603
11
350.674778
21
-61.4631266
0
LINE
8
0
10
332.8206182
20
-67.9615094
11
350.674778
21
-61.4631266
0
LINE
8
0
10
333.2303341
20
-124.639478
11
347.3257234
21
-119.5091758
0
LINE
8
0
10
332.8206182
20
-67.9615094
11
330.2212651
21
-60.8198454
0
LINE
8
0
10
330.2212651
20
-60.8198454
11
308.6083348
21
-68.6863087
0
LINE
8
0
10
308.6083348
20
-68.6863087
11
310.5578497
21
-74.0425567
0
LINE
8
0
10
317.3256891
20
-136.4941086
11
335.1798489
21
-129.9957259
0
LINE
8
0
10
335.1798489
20
-129.9957259
11
333.2303341
21
-124.639478
0
LINE
8
0
10
292.7036899
20
-80.5409394
11
310.5578497
21
-74.0425567
0
LINE
8
0
10
292.7036899
20
-80.5409394
11
294.0033664
21
-84.1117713
0
LINE
8
0
10
297.0124354
20
-147.9314039
11
314.6218861
21
-141.522088
0
LINE
8
0
10
318.2349242
20
-138.9922115
11
317.3256891
21
-136.4941086
0
LINE
8
0
10
276.1492066
20
-90.610154
11
297.0124354
21
-147.9314039
0
LINE
8
0
10
276.1492066
20
-90.610154
11
294.0033664
21
-84.1117713
0
LINE
8
0
10
319.2131686
20
-166.3850529
11
336.6271855
21
-154.191627
0
LINE
8
0
10
336.6271855
20
-154.191627
11
323.4349275
21
-135.35113
0
LINE
8
0
10
323.4349275
20
-135.35113
11
318.2349242
21
-138.9922115
0
LINE
8
0
10
314.6218861
20
-141.522088
11
304.5944305
21
-148.543388
0
LINE
8
0
10
304.5944305
20
-148.543388
11
310.6242137
21
-157.1548108
0
LINE
8
0
10
305.4253113
20
-182.8167814
11
319.2131686
21
-166.3850529
0
LINE
8
0
10
310.6242137
20
-157.1548108
11
302.5904041
21
-150.4136442
0
LINE
8
0
10
302.5904041
20
-150.4136442
11
287.8062891
21
-168.0326664
0
LINE
8
0
10
287.8062891
20
-168.0326664
11
305.4253113
21
-182.8167814
0
LINE
8
0
10
237.9904041
20
-167.6167814
11
255.6094263
21
-152.8326664
0
LINE
8
0
10
255.6094263
20
-152.8326664
11
240.8253113
21
-135.2136442
0
LINE
8
0
10
240.8253113
20
-135.2136442
11
223.2062891
21
-149.9977592
0
LINE
8
0
10
223.2062891
20
-149.9977592
11
237.9904041
21
-167.6167814
0
ENDSEC
0
EOF