0
SECTION
2
HEADER
9
$INSUNITS
70
4
0
ENDSEC
0
SECTION
2
TABLES
0
TABLE
2
LTYPE
0
LTYPE
72
65
70
64
2
CONTINUOUS
3
______
73
0
40
0
0
ENDTAB
0
TABLE
2
LAYER
0
ENDTAB
0
ENDSEC
0
SECTION
2
ENTITIES
0
LINE
8
0
10
19.3745636
20
-123.6005141
11
37.2663111
21
-130.1125776
0
LINE
8
0
10
37.2663111
20
-130.1125776
11
43.7783746
21
-112.2208301
0
LINE
8
0
10
43.7783746
20
-112.2208301
11
25.8866271
21
-105.7087666
0
LINE
8
0
10
25.8866271
20
-105.7087666
11
19.3745636
21
-123.6005141
0
LINE
8
0
10
25.8900474
20
-105.6993697
11
43.7817949
21
-112.2114332
0
LINE
8
0
10
43.7817949
20
-112.2114332
11
50.2938584
21
-94.3196857
0
LINE
8
0
10
50.2938584
20
-94.3196857
11
32.4021109
21
-87.8076222
0
LINE
8
0
10
32.4021109
20
-87.8076222
11
25.8900474
21
-105.6993697
0
LINE
8
0
10
32.4055311
20
-87.7982253
11
50.2972786
21
-94.3102888
0
LINE
8
0
10
50.2972786
20
-94.3102888
11
56.8093421
21
-76.4185413
0
LINE
8
0
10
56.8093421
20
-76.4185413
11
38.9175946
21
-69.9064778
0
LINE
8
0
10
38.9175946
20
-69.9064778
11
32.4055311
21
-87.7982253
0
LINE
8
0
10
41.8365467
20
-117.5851967
11
59.7282942
21
-124.0972602
0
LINE
8
0
10
59.7282942
20
-124.0972602
11
66.2403577
21
-106.2055127
0
LINE
8
0
10
66.2403577
20
-106.2055127
11
48.3486102
21
-99.6934492
0
LINE
8
0
10
48.3486102
20
-99.6934492
11
41.8365467
21
-117.5851967
0
LINE
8
0
10
48.3520304
20
-99.6840523
11
66.2437779
21
-106.1961158
0
LINE
8
0
10
66.2437779
20
-106.1961158
11
72.7558414
21
-88.3043683
0
LINE
8
0
10
72.7558414
20
-88.3043683
11
54.8640939
21
-81.7923048
0
LINE
8
0
10
54.8640939
20
-81.7923048
11
48.3520304
21
-99.6840523
0
LINE
8
0
10
54.8675141
20
-81.7829079
11
72.7592616
21
-88.2949714
0
LINE
8
0
10
72.7592616
20
-88.2949714
11
79.2713251
21
-70.4032239
0
LINE
8
0
10
79.2713251
20
-70.4032239
11
61.3795776
21
-63.8911604
0
LINE
8
0
10
61.3795776
20
-63.8911604
11
54.8675141
21
-81.7829079
0
LINE
8
0
10
62.3438846
20
-116.9402227
11
80.2356321
21
-123.4522862
0
LINE
8
0
10
80.2356321
20
-123.4522862
11
86.7476956
21
-105.5605387
0
LINE
8
0
10
86.7476956
20
-105.5605387
11
68.8559481
21
-99.0484752
0
LINE
8
0
10
68.8559481
20
-99.0484752
11
62.3438846
21
-116.9402227
0
LINE
8
0
10
68.8593683
20
-99.0390783
11
86.7511158
21
-105.5511418
0
LINE
8
0
10
86.7511158
20
-105.5511418
11
93.2631793
21
-87.6593943
0
LINE
8
0
10
93.2631793
20
-87.6593943
11
75.3714318
21
-81.1473308
0
LINE
8
0
10
75.3714318
20
-81.1473308
11
68.8593683
21
-99.0390783
0
LINE
8
0
10
75.374852
20
-81.1379339
11
93.2665995
21
-87.6499974
0
LINE
8
0
10
93.2665995
20
-87.6499974
11
99.778663
21
-69.7582499
0
LINE
8
0
10
99.778663
20
-69.7582499
11
81.8869155
21
-63.2461864
0
LINE
8
0
10
81.8869155
20
-63.2461864
11
75.374852
21
-81.1379339
0
LINE
8
0
10
78.2903839
20
-128.8260498
11
96.1821314
21
-135.3381133
0
LINE
8
0
10
96.1821314
20
-135.3381133
11
102.6941949
21
-117.4463658
0
LINE
8
0
10
102.6941949
20
-117.4463658
11
84.8024474
21
-110.9343023
0
LINE
8
0
10
84.8024474
20
-110.9343023
11
78.2903839
21
-128.8260498
0
LINE
8
0
10
84.8058676
20
-110.9249053
11
102.6976151
21
-117.4369688
0
LINE
8
0
10
102.6976151
20
-117.4369688
11
109.2096786
21
-99.5452213
0
LINE
8
0
10
109.2096786
20
-99.5452213
11
91.3179311
21
-93.0331578
0
LINE
8
0
10
91.3179311
20
-93.0331578
11
84.8058676
21
-110.9249053
0
LINE
8
0
10
91.3213513
20
-93.0237609
11
109.2130988
21
-99.5358244
0
LINE
8
0
10
109.2130988
20
-99.5358244
11
115.7251623
21
-81.6440769
0
LINE
8
0
10
115.7251623
20
-81.6440769
11
97.8334148
21
-75.1320134
0
LINE
8
0
10
97.8334148
20
-75.1320134
11
91.3213513
21
-93.0237609
0
LINE
8
0
10
94.8884316
20
-138.9217624
11
112.7801791
21
-145.4338259
0
LINE
8
0
10
112.7801791
20
-145.4338259
11
119.2922426
21
-127.5420784
0
LINE
8
0
10
119.2922426
20
-127.5420784
11
101.4004951
21
-121.0300149
0
LINE
8
0
10
101.4004951
20
-121.0300149
11
94.8884316
21
-138.9217624
0
LINE
8
0
10
101.4039153
20
-121.020618
11
119.2956628
21
-127.5326815
0
LINE
8
0
10
119.2956628
20
-127.5326815
11
125.8077263
21
-109.640934
0
LINE
8
0
10
125.8077263
20
-109.640934
11
107.9159788
21
-103.1288705
0
LINE
8
0
10
107.9159788
20
-103.1288705
11
101.4039153
21
-121.020618
0
LINE
8
0
10
107.919399
20
-103.1194735
11
125.8111465
21
-109.631537
0
LINE
8
0
10
125.8111465
20
-109.631537
11
132.32321
21
-91.7397895
0
LINE
8
0
10
132.32321
20
-91.7397895
11
114.4314625
21
-85.227726
0
LINE
8
0
10
114.4314625
20
-85.227726
11
107.919399
21
-103.1194735
0
LINE
8
0
10
77.0624093
20
-153.7934316
11
92.6590642
21
-164.7143269
0
LINE
8
0
10
92.6590642
20
-164.7143269
11
103.5799595
21
-149.117672
0
LINE
8
0
10
103.5799595
20
-149.117672
11
87.9833046
21
-138.1967767
0
LINE
8
0
10
87.9833046
20
-138.1967767
11
77.0624093
21
-153.7934316
0
LINE
8
0
10
93.5530113
20
-165.5585308
11
105.7916873
21
-180.144017
0
LINE
8
0
10
105.7916873
20
-180.144017
11
120.3771735
21
-167.905341
0
LINE
8
0
10
120.3771735
20
-167.905341
11
108.1384975
21
-153.3198548
0
LINE
8
0
10
108.1384975
20
-153.3198548
11
93.5530113
21
-165.5585308
0
LINE
8
0
10
154.5130113
20
-158.380341
11
169.0984975
21
-170.619017
0
LINE
8
0
10
169.0984975
20
-170.619017
11
181.3371735
21
-156.0335308
0
LINE
8
0
10
181.3371735
20
-156.0335308
11
166.7516873
21
-143.7948548
0
LINE
8
0
10
166.7516873
20
-143.7948548
11
154.5130113
21
-158.380341
0
LINE
8
0
10
181.5241958
20
-176.6648218
11
200.2749355
21
-179.9710831
0
LINE
8
0
10
200.2749355
20
-179.9710831
11
203.5811968
21
-161.2203434
0
LINE
8
0
10
203.5811968
20
-161.2203434
11
184.8304571
21
-157.9140821
0
LINE
8
0
10
184.8304571
20
-157.9140821
11
181.5241958
21
-176.6648218
0
LINE
8
0
10
374.4262979
20
-130.1125776
11
392.3180454
21
-123.6005141
0
LINE
8
0
10
392.3180454
20
-123.6005141
11
385.8059819
21
-105.7087666
0
LINE
8
0
10
385.8059819
20
-105.7087666
11
367.9142344
21
-112.2208301
0
LINE
8
0
10
367.9142344
20
-112.2208301
11
374.4262979
21
-130.1125776
0
LINE
8
0
10
367.9108141
20
-112.2114332
11
385.8025616
21
-105.6993697
0
LINE
8
0
10
385.8025616
20
-105.6993697
11
379.2904981
21
-87.8076222
0
LINE
8
0
10
379.2904981
20
-87.8076222
11
361.3987506
21
-94.3196857
0
LINE
8
0
10
361.3987506
20
-94.3196857
11
367.9108141
21
-112.2114332
0
LINE
8
0
10
361.3953304
20
-94.3102888
11
379.2870779
21
-87.7982253
0
LINE
8
0
10
379.2870779
20
-87.7982253
11
372.7750144
21
-69.9064778
0
LINE
8
0
10
372.7750144
20
-69.9064778
11
354.8832669
21
-76.4185413
0
LINE
8
0
10
354.8832669
20
-76.4185413
11
361.3953304
21
-94.3102888
0
LINE
8
0
10
351.9643148
20
-124.0972602
11
369.8560623
21
-117.5851967
0
LINE
8
0
10
369.8560623
20
-117.5851967
11
363.3439988
21
-99.6934492
0
LINE
8
0
10
363.3439988
20
-99.6934492
11
345.4522513
21
-106.2055127
0
LINE
8
0
10
345.4522513
20
-106.2055127
11
351.9643148
21
-124.0972602
0
LINE
8
0
10
345.4488311
20
-106.1961158
11
363.3405786
21
-99.6840523
0
LINE
8
0
10
363.3405786
20
-99.6840523
11
356.8285151
21
-81.7923048
0
LINE
8
0
10
356.8285151
20
-81.7923048
11
338.9367676
21
-88.3043683
0
LINE
8
0
10
338.9367676
20
-88.3043683
11
345.4488311
21
-106.1961158
0
LINE
8
0
10
338.9333474
20
-88.2949714
11
356.8250949
21
-81.7829079
0
LINE
8
0
10
356.8250949
20
-81.7829079
11
350.3130314
21
-63.8911604
0
LINE
8
0
10
350.3130314
20
-63.8911604
11
332.4212839
21
-70.4032239
0
LINE
8
0
10
332.4212839
20
-70.4032239
11
338.9333474
21
-88.2949714
0
LINE
8
0
10
331.4569769
20
-123.4522862
11
349.3487244
21
-116.9402227
0
LINE
8
0
10
349.3487244
20
-116.9402227
11
342.8366609
21
-99.0484752
0
LINE
8
0
10
342.8366609
20
-99.0484752
11
324.9449134
21
-105.5605387
0
LINE
8
0
10
324.9449134
20
-105.5605387
11
331.4569769
21
-123.4522862
0
LINE
8
0
10
324.9414932
20
-105.5511418
11
342.8332407
21
-99.0390783
0
LINE
8
0
10
342.8332407
20
-99.0390783
11
336.3211772
21
-81.1473308
0
LINE
8
0
10
336.3211772
20
-81.1473308
11
318.4294297
21
-87.6593943
0
LINE
8
0
10
318.4294297
20
-87.6593943
11
324.9414932
21
-105.5511418
0
LINE
8
0
10
318.4260095
20
-87.6499974
11
336.317757
21
-81.1379339
0
LINE
8
0
10
336.317757
20
-81.1379339
11
329.8056935
21
-63.2461864
0
LINE
8
0
10
329.8056935
20
-63.2461864
11
311.913946
21
-69.7582499
0
LINE
8
0
10
311.913946
20
-69.7582499
11
318.4260095
21
-87.6499974
0
LINE
8
0
10
315.5104776
20
-135.3381133
11
333.4022251
21
-128.8260498
0
LINE
8
0
10
333.4022251
20
-128.8260498
11
326.8901616
21
-110.9343023
0
LINE
8
0
10
326.8901616
20
-110.9343023
11
308.9984141
21
-117.4463658
0
LINE
8
0
10
308.9984141
20
-117.4463658
11
315.5104776
21
-135.3381133
0
LINE
8
0
10
308.9949939
20
-117.4369688
11
326.8867414
21
-110.9249053
0
LINE
8
0
10
326.8867414
20
-110.9249053
11
320.3746779
21
-93.0331578
0
LINE
8
0
10
320.3746779
20
-93.0331578
11
302.4829304
21
-99.5452213
0
LINE
8
0
10
302.4829304
20
-99.5452213
11
308.9949939
21
-117.4369688
0
LINE
8
0
10
302.4795102
20
-99.5358244
11
320.3712577
21
-93.0237609
0
LINE
8
0
10
320.3712577
20
-93.0237609
11
313.8591942
21
-75.1320134
0
LINE
8
0
10
313.8591942
20
-75.1320134
11
295.9674467
21
-81.6440769
0
LINE
8
0
10
295.9674467
20
-81.6440769
11
302.4795102
21
-99.5358244
0
LINE
8
0
10
298.9124299
20
-145.4338259
11
316.8041774
21
-138.9217624
0
LINE
8
0
10
316.8041774
20
-138.9217624
11
310.2921139
21
-121.0300149
0
LINE
8
0
10
310.2921139
20
-121.0300149
11
292.4003664
21
-127.5420784
0
LINE
8
0
10
292.4003664
20
-127.5420784
11
298.9124299
21
-145.4338259
0
LINE
8
0
10
292.3969462
20
-127.5326815
11
310.2886937
21
-121.020618
0
LINE
8
0
10
310.2886937
20
-121.020618
11
303.7766302
21
-103.1288705
0
LINE
8
0
10
303.7766302
20
-103.1288705
11
285.8848827
21
-109.640934
0
LINE
8
0
10
285.8848827
20
-109.640934
11
292.3969462
21
-127.5326815
0
LINE
8
0
10
285.8814625
20
-109.631537
11
303.77321
21
-103.1194735
0
LINE
8
0
10
303.77321
20
-103.1194735
11
297.2611465
21
-85.227726
0
LINE
8
0
10
297.2611465
20
-85.227726
11
279.369399
21
-91.7397895
0
LINE
8
0
10
279.369399
20
-91.7397895
11
285.8814625
21
-109.631537
0
LINE
8
0
10
319.0335448
20
-164.7143269
11
334.6301997
21
-153.7934316
0
LINE
8
0
10
334.6301997
20
-153.7934316
11
323.7093044
21
-138.1967767
0
LINE
8
0
10
323.7093044
20
-138.1967767
11
308.1126495
21
-149.117672
0
LINE
8
0
10
308.1126495
20
-149.117672
11
319.0335448
21
-164.7143269
0
LINE
8
0
10
305.9009217
20
-180.144017
11
318.1395977
21
-165.5585308
0
LINE
8
0
10
318.1395977
20
-165.5585308
11
303.5541115
21
-153.3198548
0
LINE
8
0
10
303.5541115
20
-153.3198548
11
291.3154355
21
-167.905341
0
LINE
8
0
10
291.3154355
20
-167.905341
11
305.9009217
21
-180.144017
0
LINE
8
0
10
242.5941115
20
-170.619017
11
257.1795977
21
-158.380341
0
LINE
8
0
10
257.1795977
20
-158.380341
11
244.9409217
21
-143.7948548
0
LINE
8
0
10
244.9409217
20
-143.7948548
11
230.3554355
21
-156.0335308
0
LINE
8
0
10
230.3554355
20
-156.0335308
11
242.5941115
21
-170.619017
0
LINE
8
0
10
211.4176735
20
-179.9710831
11
230.1684132
21
-176.6648218
0
LINE
8
0
10
230.1684132
20
-176.6648218
11
226.8621519
21
-157.9140821
0
LINE
8
0
10
226.8621519
20
-157.9140821
11
208.1114122
21
-161.2203434
0
LINE
8
0
10
208.1114122
20
-161.2203434
11
211.4176735
21
-179.9710831
0
LINE
8
0
10
179.7813045
20
-144.395776
11
231.9113045
21
-144.395776
0
ARC
8
0
10
231.9113045
20
-141.395776
40
3
50
270
51
360
0
LINE
8
0
10
234.9113045
20
-141.395776
11
234.9113045
21
-89.265776
0
ARC
8
0
10
231.9113045
20
-89.265776
40
3
50
0
51
90
0
LINE
8
0
10
231.9113045
20
-86.265776
11
179.7813045
21
-86.265776
0
ARC
8
0
10
179.7813045
20
-89.265776
40
3
50
90
51
180
0
LINE
8
0
10
176.7813045
20
-89.265776
11
176.7813045
21
-141.395776
0
ARC
8
0
10
179.7813045
20
-141.395776
40
3
50
180
51
270
0
CIRCLE
8
0
10
205.8463045
20
-115.330776
40
21.93
0
LINE
8
0
10
177.7813045
20
-146.395776
11
233.9113045
21
-146.395776
0
ARC
8
0
10
233.9113045
20
-143.395776
40
3
50
270
51
360
0
LINE
8
0
10
236.9113045
20
-143.395776
11
236.9113045
21
-87.265776
0
ARC
8
0
10
233.9113045
20
-87.265776
40
3
50
0
51
90
0
LINE
8
0
10
233.9113045
20
-84.265776
11
177.7813045
21
-84.265776
0
ARC
8
0
10
177.7813045
20
-87.265776
40
3
50
90
51
180
0
LINE
8
0
10
174.7813045
20
-87.265776
11
174.7813045
21
-143.395776
0
ARC
8
0
10
177.7813045
20
-143.395776
40
3
50
180
51
270
0
ARC
8
0
10
205.8463045
20
-115.330776
40
23.065
50
90.9641918
51
449.0358082
0
ARC
8
0
10
205.8463045
20
-92.365776
40
0.4
50
166.0051014
51
373.9948986
0
LINE
8
0
10
18.4345282
20
-120.5987736
11
36.8856667
21
-69.9046875
0
LINE
8
0
10
40.2907074
20
-66.7849787
11
59.6795965
21
-61.5926356
0
LINE
8
0
10
60.8158424
20
-61.4249161
11
79.7829251
21
-60.8283845
0
LINE
8
0
10
81.6502022
20
-61.1274502
11
101.3982687
21
-68.3151587
0
LINE
8
0
10
103.1083693
20
-68.6166955
11
308.5842397
21
-68.6166955
0
LINE
8
0
10
310.2943403
20
-68.3151587
11
330.0424068
21
-61.1274502
0
LINE
8
0
10
331.9096839
20
-60.8283845
11
350.8767666
21
-61.4249161
0
LINE
8
0
10
352.0130125
20
-61.5926356
11
371.4019016
21
-66.7849787
0
LINE
8
0
10
374.8069423
20
-69.9046875
11
393.2580808
21
-120.5987736
0
LINE
8
0
10
337.5512194
20
-154.1284747
11
390.8439966
21
-126.7565267
0
LINE
8
0
10
320.830467
20
-165.3231103
11
337.0468604
21
-154.4260742
0
LINE
8
0
10
318.5644954
20
-167.3744383
11
320.830467
21
-165.3231103
0
LINE
8
0
10
308.7112001
20
-179.6317992
11
318.5644954
21
-167.3744383
0
LINE
8
0
10
262.8376721
20
-160.1690253
11
302.4953398
21
-180.928905
0
LINE
8
0
10
242.8230379
20
-172.920253
11
257.3048546
21
-160.7685659
0
LINE
8
0
10
233.0187052
20
-177.9007201
11
241.8146914
21
-173.5772755
0
LINE
8
0
10
210.2991562
20
-182.1077727
11
231.6813545
21
-178.3375142
0
LINE
8
0
10
202.2616937
20
-182.1837339
11
209.4309153
21
-182.1837339
0
LINE
8
0
10
180.0112545
20
-178.3375142
11
201.3934528
21
-182.1077727
0
LINE
8
0
10
169.8779176
20
-173.5772755
11
178.6739038
21
-177.9007201
0
LINE
8
0
10
154.3877544
20
-160.7685659
11
168.8695711
21
-172.920253
0
LINE
8
0
10
109.1972692
20
-180.928905
11
148.8549369
21
-160.1690253
0
LINE
8
0
10
93.1281136
20
-167.3744383
11
102.9814089
21
-179.6317992
0
LINE
8
0
10
90.862142
20
-165.3231103
11
93.1281136
21
-167.3744383
0
LINE
8
0
10
74.6457486
20
-154.4260742
11
90.862142
21
-165.3231103
0
LINE
8
0
10
20.8486124
20
-126.7565267
11
74.1413896
21
-154.1284747
0
ARC
8
0
10
41.5841298
20
-71.614788
40
5
50
104.9920189
51
464.9920189
0
ARC
8
0
10
60.9730189
20
-66.422445
40
5
50
91.8014068
51
451.8014068
0
ARC
8
0
10
79.9401016
20
-65.8259134
40
5
50
70.0000019
51
430.0000019
0
ARC
8
0
10
103.1083693
20
-63.6166955
40
5
50
250.0000019
51
610.0000019
0
ARC
8
0
10
308.5842397
20
-63.6166955
40
5
50
270
51
630
0
ARC
8
0
10
331.7525074
20
-65.8259134
40
5
50
88.1985932
51
448.1985932
0
ARC
8
0
10
350.7195901
20
-66.422445
40
5
50
75.0079811
51
435.0079811
0
ARC
8
0
10
370.1084792
20
-71.614788
40
5
50
19.9999981
51
379.9999981
0
ARC
8
0
10
388.5596176
20
-122.3088742
40
5
50
297.1856915
51
657.1856915
0
ARC
8
0
10
339.8355984
20
-158.5761272
40
5
50
117.1856915
51
477.1856915
0
ARC
8
0
10
304.8142191
20
-176.4991423
40
5
50
242.3689723
51
602.3689723
0
ARC
8
0
10
260.5187927
20
-164.5987881
40
5
50
62.3689723
51
422.3689723
0
ARC
8
0
10
239.6090998
20
-169.0900308
40
5
50
296.1752565
51
656.1752565
0
ARC
8
0
10
230.8131135
20
-173.4134754
40
5
50
280.0000008
51
640.0000008
0
ARC
8
0
10
209.4309153
20
-177.1837339
40
5
50
270
51
630
0
ARC
8
0
10
202.2616937
20
-177.1837339
40
5
50
259.9999992
51
619.9999992
0
ARC
8
0
10
180.8794955
20
-173.4134754
40
5
50
243.8247435
51
603.8247435
0
ARC
8
0
10
172.0835092
20
-169.0900308
40
5
50
229.9999988
51
589.9999988
0
ARC
8
0
10
151.1738163
20
-164.5987881
40
5
50
49.9999988
51
409.9999988
0
ARC
8
0
10
106.8783899
20
-176.4991423
40
5
50
218.7946759
51
578.7946759
0
ARC
8
0
10
71.8570106
20
-158.5761272
40
5
50
56.0998277
51
416.0998277
0
ARC
8
0
10
23.1329914
20
-122.3088742
40
5
50
160.0000019
51
520.0000019
0
LINE
8
0
10
22.5916626
20
-122.1003562
11
35.7661532
21
-126.8954786
0
LINE
8
0
10
35.7661532
20
-126.8954786
11
40.5612756
21
-113.720988
0
LINE
8
0
10
40.5612756
20
-113.720988
11
27.386785
21
-108.9258656
0
LINE
8
0
10
27.386785
20
-108.9258656
11
22.5916626
21
-122.1003562
0
LINE
8
0
10
29.1071464
20
-104.1992118
11
42.281637
21
-108.9943342
0
LINE
8
0
10
42.281637
20
-108.9943342
11
47.0767594
21
-95.8198436
0
LINE
8
0
10
47.0767594
20
-95.8198436
11
33.9022688
21
-91.0247212
0
LINE
8
0
10
33.9022688
20
-91.0247212
11
29.1071464
21
-104.1992118
0
LINE
8
0
10
35.6226301
20
-86.2980674
11
48.7971207
21
-91.0931898
0
LINE
8
0
10
48.7971207
20
-91.0931898
11
53.5922431
21
-77.9186992
0
LINE
8
0
10
53.5922431
20
-77.9186992
11
40.4177525
21
-73.1235768
0
LINE
8
0
10
40.4177525
20
-73.1235768
11
35.6226301
21
-86.2980674
0
LINE
8
0
10
45.0536457
20
-116.0850388
11
58.2281363
21
-120.8801612
0
LINE
8
0
10
58.2281363
20
-120.8801612
11
63.0232587
21
-107.7056706
0
LINE
8
0
10
63.0232587
20
-107.7056706
11
49.8487681
21
-102.9105482
0
LINE
8
0
10
49.8487681
20
-102.9105482
11
45.0536457
21
-116.0850388
0
LINE
8
0
10
51.5691294
20
-98.1838944
11
64.74362
21
-102.9790168
0
LINE
8
0
10
64.74362
20
-102.9790168
11
69.5387424
21
-89.8045262
0
LINE
8
0
10
69.5387424
20
-89.8045262
11
56.3642518
21
-85.0094038
0
LINE
8
0
10
56.3642518
20
-85.0094038
11
51.5691294
21
-98.1838944
0
LINE
8
0
10
58.0846131
20
-80.28275
11
71.2591037
21
-85.0778724
0
LINE
8
0
10
71.2591037
20
-85.0778724
11
76.0542261
21
-71.9033818
0
LINE
8
0
10
76.0542261
20
-71.9033818
11
62.8797355
21
-67.1082594
0
LINE
8
0
10
62.8797355
20
-67.1082594
11
58.0846131
21
-80.28275
0
LINE
8
0
10
65.5609836
20
-115.4400648
11
78.7354742
21
-120.2351872
0
LINE
8
0
10
78.7354742
20
-120.2351872
11
83.5305966
21
-107.0606966
0
LINE
8
0
10
83.5305966
20
-107.0606966
11
70.356106
21
-102.2655742
0
LINE
8
0
10
70.356106
20
-102.2655742
11
65.5609836
21
-115.4400648
0
LINE
8
0
10
72.0764673
20
-97.5389204
11
85.2509579
21
-102.3340428
0
LINE
8
0
10
85.2509579
20
-102.3340428
11
90.0460803
21
-89.1595522
0
LINE
8
0
10
90.0460803
20
-89.1595522
11
76.8715897
21
-84.3644298
0
LINE
8
0
10
76.8715897
20
-84.3644298
11
72.0764673
21
-97.5389204
0
LINE
8
0
10
78.591951
20
-79.637776
11
91.7664416
21
-84.4328984
0
LINE
8
0
10
91.7664416
20
-84.4328984
11
96.561564
21
-71.2584078
0
LINE
8
0
10
96.561564
20
-71.2584078
11
83.3870734
21
-66.4632854
0
LINE
8
0
10
83.3870734
20
-66.4632854
11
78.591951
21
-79.637776
0
LINE
8
0
10
81.5074829
20
-127.3258919
11
94.6819735
21
-132.1210143
0
LINE
8
0
10
94.6819735
20
-132.1210143
11
99.4770959
21
-118.9465237
0
LINE
8
0
10
99.4770959
20
-118.9465237
11
86.3026053
21
-114.1514013
0
LINE
8
0
10
86.3026053
20
-114.1514013
11
81.5074829
21
-127.3258919
0
LINE
8
0
10
88.0229666
20
-109.4247474
11
101.1974572
21
-114.2198698
0
LINE
8
0
10
101.1974572
20
-114.2198698
11
105.9925796
21
-101.0453792
0
LINE
8
0
10
105.9925796
20
-101.0453792
11
92.818089
21
-96.2502568
0
LINE
8
0
10
92.818089
20
-96.2502568
11
88.0229666
21
-109.4247474
0
LINE
8
0
10
94.5384503
20
-91.523603
11
107.7129409
21
-96.3187254
0
LINE
8
0
10
107.7129409
20
-96.3187254
11
112.5080633
21
-83.1442348
0
LINE
8
0
10
112.5080633
20
-83.1442348
11
99.3335727
21
-78.3491124
0
LINE
8
0
10
99.3335727
20
-78.3491124
11
94.5384503
21
-91.523603
0
LINE
8
0
10
98.1055306
20
-137.4216045
11
111.2800212
21
-142.2167269
0
LINE
8
0
10
111.2800212
20
-142.2167269
11
116.0751436
21
-129.0422363
0
LINE
8
0
10
116.0751436
20
-129.0422363
11
102.900653
21
-124.2471139
0
LINE
8
0
10
102.900653
20
-124.2471139
11
98.1055306
21
-137.4216045
0
LINE
8
0
10
104.6210143
20
-119.5204601
11
117.7955049
21
-124.3155825
0
LINE
8
0
10
117.7955049
20
-124.3155825
11
122.5906273
21
-111.1410919
0
LINE
8
0
10
122.5906273
20
-111.1410919
11
109.4161367
21
-106.3459695
0
LINE
8
0
10
109.4161367
20
-106.3459695
11
104.6210143
21
-119.5204601
0
LINE
8
0
10
111.136498
20
-101.6193156
11
124.3109886
21
-106.414438
0
LINE
8
0
10
124.3109886
20
-106.414438
11
129.106111
21
-93.2399474
0
LINE
8
0
10
129.106111
20
-93.2399474
11
115.9316204
21
-88.444825
0
LINE
8
0
10
115.9316204
20
-88.444825
11
111.136498
21
-101.6193156
0
LINE
8
0
10
80.5581578
20
-153.1770368
11
92.0426694
21
-161.2185784
0
LINE
8
0
10
92.0426694
20
-161.2185784
11
100.084211
21
-149.7340668
0
LINE
8
0
10
100.084211
20
-149.7340668
11
88.5996994
21
-141.6925252
0
LINE
8
0
10
88.5996994
20
-141.6925252
11
80.5581578
21
-153.1770368
0
LINE
8
0
10
97.0891797
20
-165.8679055
11
106.101062
21
-176.6078486
0
LINE
8
0
10
106.101062
20
-176.6078486
11
116.8410051
21
-167.5959663
0
LINE
8
0
10
116.8410051
20
-167.5959663
11
107.8291228
21
-156.8560232
0
LINE
8
0
10
107.8291228
20
-156.8560232
11
97.0891797
21
-165.8679055
0
LINE
8
0
10
158.0491797
20
-158.0709663
11
168.7891228
21
-167.0828486
0
LINE
8
0
10
168.7891228
20
-167.0828486
11
177.8010051
21
-156.3429055
0
LINE
8
0
10
177.8010051
20
-156.3429055
11
167.061062
21
-147.3310232
0
LINE
8
0
10
167.061062
20
-147.3310232
11
158.0491797
21
-158.0709663
0
LINE
8
0
10
184.4319202
20
-174.6288112
11
198.2389249
21
-177.0633587
0
LINE
8
0
10
198.2389249
20
-177.0633587
11
200.6734724
21
-163.256354
0
LINE
8
0
10
200.6734724
20
-163.256354
11
186.8664677
21
-160.8218065
0
LINE
8
0
10
186.8664677
20
-160.8218065
11
184.4319202
21
-174.6288112
0
LINE
8
0
10
375.9264558
20
-126.8954786
11
389.1009464
21
-122.1003562
0
LINE
8
0
10
389.1009464
20
-122.1003562
11
384.305824
21
-108.9258656
0
LINE
8
0
10
384.305824
20
-108.9258656
11
371.1313334
21
-113.720988
0
LINE
8
0
10
371.1313334
20
-113.720988
11
375.9264558
21
-126.8954786
0
LINE
8
0
10
369.410972
20
-108.9943342
11
382.5854626
21
-104.1992118
0
LINE
8
0
10
382.5854626
20
-104.1992118
11
377.7903402
21
-91.0247212
0
LINE
8
0
10
377.7903402
20
-91.0247212
11
364.6158496
21
-95.8198436
0
LINE
8
0
10
364.6158496
20
-95.8198436
11
369.410972
21
-108.9943342
0
LINE
8
0
10
362.8954883
20
-91.0931898
11
376.0699789
21
-86.2980674
0
LINE
8
0
10
376.0699789
20
-86.2980674
11
371.2748565
21
-73.1235768
0
LINE
8
0
10
371.2748565
20
-73.1235768
11
358.1003659
21
-77.9186992
0
LINE
8
0
10
358.1003659
20
-77.9186992
11
362.8954883
21
-91.0931898
0
LINE
8
0
10
353.4644727
20
-120.8801612
11
366.6389633
21
-116.0850388
0
LINE
8
0
10
366.6389633
20
-116.0850388
11
361.8438409
21
-102.9105482
0
LINE
8
0
10
361.8438409
20
-102.9105482
11
348.6693503
21
-107.7056706
0
LINE
8
0
10
348.6693503
20
-107.7056706
11
353.4644727
21
-120.8801612
0
LINE
8
0
10
346.948989
20
-102.9790168
11
360.1234796
21
-98.1838944
0
LINE
8
0
10
360.1234796
20
-98.1838944
11
355.3283572
21
-85.0094038
0
LINE
8
0
10
355.3283572
20
-85.0094038
11
342.1538666
21
-89.8045262
0
LINE
8
0
10
342.1538666
20
-89.8045262
11
346.948989
21
-102.9790168
0
LINE
8
0
10
340.4335053
20
-85.0778724
11
353.6079959
21
-80.28275
0
LINE
8
0
10
353.6079959
20
-80.28275
11
348.8128735
21
-67.1082594
0
LINE
8
0
10
348.8128735
20
-67.1082594
11
335.6383829
21
-71.9033818
0
LINE
8
0
10
335.6383829
20
-71.9033818
11
340.4335053
21
-85.0778724
0
LINE
8
0
10
332.9571348
20
-120.2351872
11
346.1316254
21
-115.4400648
0
LINE
8
0
10
346.1316254
20
-115.4400648
11
341.336503
21
-102.2655742
0
LINE
8
0
10
341.336503
20
-102.2655742
11
328.1620124
21
-107.0606966
0
LINE
8
0
10
328.1620124
20
-107.0606966
11
332.9571348
21
-120.2351872
0
LINE
8
0
10
326.4416511
20
-102.3340428
11
339.6161417
21
-97.5389204
0
LINE
8
0
10
339.6161417
20
-97.5389204
11
334.8210193
21
-84.3644298
0
LINE
8
0
10
334.8210193
20
-84.3644298
11
321.6465287
21
-89.1595522
0
LINE
8
0
10
321.6465287
20
-89.1595522
11
326.4416511
21
-102.3340428
0
LINE
8
0
10
319.9261674
20
-84.4328984
11
333.100658
21
-79.637776
0
LINE
8
0
10
333.100658
20
-79.637776
11
328.3055356
21
-66.4632854
0
LINE
8
0
10
328.3055356
20
-66.4632854
11
315.131045
21
-71.2584078
0
LINE
8
0
10
315.131045
20
-71.2584078
11
319.9261674
21
-84.4328984
0
LINE
8
0
10
317.0106355
20
-132.1210143
11
330.1851261
21
-127.3258919
0
LINE
8
0
10
330.1851261
20
-127.3258919
11
325.3900037
21
-114.1514013
0
LINE
8
0
10
325.3900037
20
-114.1514013
11
312.2155131
21
-118.9465237
0
LINE
8
0
10
312.2155131
20
-118.9465237
11
317.0106355
21
-132.1210143
0
LINE
8
0
10
310.4951518
20
-114.2198698
11
323.6696424
21
-109.4247474
0
LINE
8
0
10
323.6696424
20
-109.4247474
11
318.87452
21
-96.2502568
0
LINE
8
0
10
318.87452
20
-96.2502568
11
305.7000294
21
-101.0453792
0
LINE
8
0
10
305.7000294
20
-101.0453792
11
310.4951518
21
-114.2198698
0
LINE
8
0
10
303.9796681
20
-96.3187254
11
317.1541587
21
-91.523603
0
LINE
8
0
10
317.1541587
20
-91.523603
11
312.3590363
21
-78.3491124
0
LINE
8
0
10
312.3590363
20
-78.3491124
11
299.1845457
21
-83.1442348
0
LINE
8
0
10
299.1845457
20
-83.1442348
11
303.9796681
21
-96.3187254
0
LINE
8
0
10
300.4125878
20
-142.2167269
11
313.5870784
21
-137.4216045
0
LINE
8
0
10
313.5870784
20
-137.4216045
11
308.791956
21
-124.2471139
0
LINE
8
0
10
308.791956
20
-124.2471139
11
295.6174654
21
-129.0422363
0
LINE
8
0
10
295.6174654
20
-129.0422363
11
300.4125878
21
-142.2167269
0
LINE
8
0
10
293.8971041
20
-124.3155825
11
307.0715947
21
-119.5204601
0
LINE
8
0
10
307.0715947
20
-119.5204601
11
302.2764723
21
-106.3459695
0
LINE
8
0
10
302.2764723
20
-106.3459695
11
289.1019817
21
-111.1410919
0
LINE
8
0
10
289.1019817
20
-111.1410919
11
293.8971041
21
-124.3155825
0
LINE
8
0
10
287.3816204
20
-106.414438
11
300.556111
21
-101.6193156
0
LINE
8
0
10
300.556111
20
-101.6193156
11
295.7609886
21
-88.444825
0
LINE
8
0
10
295.7609886
20
-88.444825
11
282.586498
21
-93.2399474
0
LINE
8
0
10
282.586498
20
-93.2399474
11
287.3816204
21
-106.414438
0
LINE
8
0
10
319.6499396
20
-161.2185784
11
331.1344512
21
-153.1770368
0
LINE
8
0
10
331.1344512
20
-153.1770368
11
323.0929096
21
-141.6925252
0
LINE
8
0
10
323.0929096
20
-141.6925252
11
311.608398
21
-149.7340668
0
LINE
8
0
10
311.608398
20
-149.7340668
11
319.6499396
21
-161.2185784
0
LINE
8
0
10
305.591547
20
-176.6078486
11
314.6034293
21
-165.8679055
0
LINE
8
0
10
314.6034293
20
-165.8679055
11
303.8634862
21
-156.8560232
0
LINE
8
0
10
303.8634862
20
-156.8560232
11
294.8516039
21
-167.5959663
0
LINE
8
0
10
294.8516039
20
-167.5959663
11
305.591547
21
-176.6078486
0
LINE
8
0
10
242.9034862
20
-167.0828486
11
253.6434293
21
-158.0709663
0
LINE
8
0
10
253.6434293
20
-158.0709663
11
244.631547
21
-147.3310232
0
LINE
8
0
10
244.631547
20
-147.3310232
11
233.8916039
21
-156.3429055
0
LINE
8
0
10
233.8916039
20
-156.3429055
11
242.9034862
21
-167.0828486
0
LINE
8
0
10
213.4536841
20
-177.0633587
11
227.2606888
21
-174.6288112
0
LINE
8
0
10
227.2606888
20
-174.6288112
11
224.8261413
21
-160.8218065
0
LINE
8
0
10
224.8261413
20
-160.8218065
11
211.0191366
21
-163.256354
0
LINE
8
0
10
211.0191366
20
-163.256354
11
213.4536841
21
-177.0633587
0
CIRCLE
8
0
10
205.8463045
20
-115.330776
40
20.93
0
CIRCLE
8
0
10
227.9113045
20
-93.265776
40
4.25
0
CIRCLE
8
0
10
183.7813045
20
-93.265776
40
4.25
0
CIRCLE
8
0
10
227.9113045
20
-137.395776
40
4.25
0
CIRCLE
8
0
10
183.7813045
20
-137.395776
40
4.25
0
CIRCLE
8
0
10
52.7485041
20
-70.8806789
40
2.25
0
CIRCLE
8
0
10
48.1745168
20
-128.0063847
40
2.25
0
CIRCLE
8
0
10
126.6367882
20
-79.5284871
40
2.25
0
CIRCLE
8
0
10
167.6514641
20
-78.238539
40
2.25
0
CIRCLE
8
0
10
149.4081097
20
-128.3617435
40
2.25
0
CIRCLE
8
0
10
121.0886305
20
-159.8544821
40
2.25
0
CIRCLE
8
0
10
358.9441049
20
-70.8806789
40
2.25
0
CIRCLE
8
0
10
363.5180922
20
-128.0063847
40
2.25
0
CIRCLE
8
0
10
285.0558208
20
-79.5284871
40
2.25
0
CIRCLE
8
0
10
244.0411449
20
-78.238539
40
2.25
0
CIRCLE
8
0
10
262.2844993
20
-128.3617435
40
2.25
0
CIRCLE
8
0
10
290.6039785
20
-159.8544821
40
2.25
0
CIRCLE
8
0
10
205.8463045
20
-172.480776
40
2.25
0
ENDSEC
0
EOF