0
SECTION
2
HEADER
9
$INSUNITS
70
4
0
ENDSEC
0
SECTION
2
TABLES
0
TABLE
2
LTYPE
0
LTYPE
72
65
70
64
2
CONTINUOUS
3
______
73
0
40
0
0
ENDTAB
0
TABLE
2
LAYER
0
ENDTAB
0
ENDSEC
0
SECTION
2
ENTITIES
0
LINE
8
0
10
18.4345282
20
-120.5987736
11
36.8856667
21
-69.9046875
0
LINE
8
0
10
40.2907074
20
-66.7849787
11
59.6795965
21
-61.5926356
0
LINE
8
0
10
60.8158424
20
-61.4249161
11
79.7829251
21
-60.8283845
0
LINE
8
0
10
81.6502022
20
-61.1274502
11
101.3982687
21
-68.3151587
0
LINE
8
0
10
103.1083693
20
-68.6166955
11
308.5842397
21
-68.6166955
0
LINE
8
0
10
310.2943403
20
-68.3151587
11
330.0424068
21
-61.1274502
0
LINE
8
0
10
331.9096839
20
-60.8283845
11
350.8767666
21
-61.4249161
0
LINE
8
0
10
352.0130125
20
-61.5926356
11
371.4019016
21
-66.7849787
0
LINE
8
0
10
374.8069423
20
-69.9046875
11
393.2580808
21
-120.5987736
0
LINE
8
0
10
390.8439966
20
-126.7565267
11
337.5512194
21
-154.1284747
0
LINE
8
0
10
337.0468604
20
-154.4260742
11
320.830467
21
-165.3231103
0
LINE
8
0
10
320.830467
20
-165.3231103
11
318.5644954
21
-167.3744383
0
LINE
8
0
10
318.5644954
20
-167.3744383
11
308.7112001
21
-179.6317992
0
LINE
8
0
10
302.4953398
20
-180.928905
11
262.8376721
21
-160.1690253
0
LINE
8
0
10
257.3048546
20
-160.7685659
11
242.8230379
21
-172.920253
0
LINE
8
0
10
241.8146914
20
-173.5772755
11
233.0187052
21
-177.9007201
0
LINE
8
0
10
231.6813545
20
-178.3375142
11
210.2991562
21
-182.1077727
0
LINE
8
0
10
209.4309153
20
-182.1837339
11
202.2616937
21
-182.1837339
0
LINE
8
0
10
201.3934528
20
-182.1077727
11
180.0112545
21
-178.3375142
0
LINE
8
0
10
178.6739038
20
-177.9007201
11
169.8779176
21
-173.5772755
0
LINE
8
0
10
168.8695711
20
-172.920253
11
154.3877544
21
-160.7685659
0
LINE
8
0
10
148.8549369
20
-160.1690253
11
109.1972692
21
-180.928905
0
LINE
8
0
10
102.9814089
20
-179.6317992
11
93.1281136
21
-167.3744383
0
LINE
8
0
10
93.1281136
20
-167.3744383
11
90.862142
21
-165.3231103
0
LINE
8
0
10
90.862142
20
-165.3231103
11
74.6457486
21
-154.4260742
0
LINE
8
0
10
74.1413896
20
-154.1284747
11
20.8486124
21
-126.7565267
0
ARC
8
0
10
41.5841298
20
-71.614788
40
5
50
104.9920189
51
160.0000019
0
ARC
8
0
10
60.9730189
20
-66.422445
40
5
50
91.8014068
51
104.9920189
0
ARC
8
0
10
79.9401016
20
-65.8259134
40
5
50
70.0000019
51
91.8014068
0
ARC
8
0
10
103.1083693
20
-63.6166955
40
5
50
250.0000019
51
270
0
ARC
8
0
10
308.5842397
20
-63.6166955
40
5
50
270
51
289.9999981
0
ARC
8
0
10
331.7525074
20
-65.8259134
40
5
50
88.1985932
51
109.9999981
0
ARC
8
0
10
350.7195901
20
-66.422445
40
5
50
75.0079811
51
88.1985932
0
ARC
8
0
10
370.1084792
20
-71.614788
40
5
50
19.9999981
51
75.0079811
0
ARC
8
0
10
388.5596176
20
-122.3088742
40
5
50
297.1856915
51
19.9999981
0
ARC
8
0
10
339.8355984
20
-158.5761272
40
5
50
117.1856915
51
123.9001723
0
ARC
8
0
10
304.8142191
20
-176.4991423
40
5
50
242.3689723
51
321.2053241
0
ARC
8
0
10
260.5187927
20
-164.5987881
40
5
50
62.3689723
51
130.0000012
0
ARC
8
0
10
239.6090998
20
-169.0900308
40
5
50
296.1752565
51
310.0000012
0
ARC
8
0
10
230.8131135
20
-173.4134754
40
5
50
280.0000008
51
296.1752565
0
ARC
8
0
10
209.4309153
20
-177.1837339
40
5
50
270
51
280.0000008
0
ARC
8
0
10
202.2616937
20
-177.1837339
40
5
50
259.9999992
51
270
0
ARC
8
0
10
180.8794955
20
-173.4134754
40
5
50
243.8247435
51
259.9999992
0
ARC
8
0
10
172.0835092
20
-169.0900308
40
5
50
229.9999988
51
243.8247435
0
ARC
8
0
10
151.1738163
20
-164.5987881
40
5
50
49.9999988
51
117.6310277
0
ARC
8
0
10
106.8783899
20
-176.4991423
40
5
50
218.7946759
51
297.6310277
0
ARC
8
0
10
71.8570106
20
-158.5761272
40
5
50
56.0998277
51
62.8143085
0
ARC
8
0
10
23.1329914
20
-122.3088742
40
5
50
160.0000019
51
242.8143085
0
LINE
8
0
10
22.5916626
20
-122.1003562
11
35.7661532
21
-126.8954786
0
LINE
8
0
10
35.7661532
20
-126.8954786
11
40.5612756
21
-113.720988
0
LINE
8
0
10
40.5612756
20
-113.720988
11
27.386785
21
-108.9258656
0
LINE
8
0
10
27.386785
20
-108.9258656
11
22.5916626
21
-122.1003562
0
LINE
8
0
10
29.1071464
20
-104.1992118
11
42.281637
21
-108.9943342
0
LINE
8
0
10
42.281637
20
-108.9943342
11
47.0767594
21
-95.8198436
0
LINE
8
0
10
47.0767594
20
-95.8198436
11
33.9022688
21
-91.0247212
0
LINE
8
0
10
33.9022688
20
-91.0247212
11
29.1071464
21
-104.1992118
0
LINE
8
0
10
35.6226301
20
-86.2980674
11
48.7971207
21
-91.0931898
0
LINE
8
0
10
48.7971207
20
-91.0931898
11
53.5922431
21
-77.9186992
0
LINE
8
0
10
53.5922431
20
-77.9186992
11
40.4177525
21
-73.1235768
0
LINE
8
0
10
40.4177525
20
-73.1235768
11
35.6226301
21
-86.2980674
0
LINE
8
0
10
45.0536457
20
-116.0850388
11
58.2281363
21
-120.8801612
0
LINE
8
0
10
58.2281363
20
-120.8801612
11
63.0232587
21
-107.7056706
0
LINE
8
0
10
63.0232587
20
-107.7056706
11
49.8487681
21
-102.9105482
0
LINE
8
0
10
49.8487681
20
-102.9105482
11
45.0536457
21
-116.0850388
0
LINE
8
0
10
51.5691294
20
-98.1838944
11
64.74362
21
-102.9790168
0
LINE
8
0
10
64.74362
20
-102.9790168
11
69.5387424
21
-89.8045262
0
LINE
8
0
10
69.5387424
20
-89.8045262
11
56.3642518
21
-85.0094038
0
LINE
8
0
10
56.3642518
20
-85.0094038
11
51.5691294
21
-98.1838944
0
LINE
8
0
10
58.0846131
20
-80.28275
11
71.2591037
21
-85.0778724
0
LINE
8
0
10
71.2591037
20
-85.0778724
11
76.0542261
21
-71.9033818
0
LINE
8
0
10
76.0542261
20
-71.9033818
11
62.8797355
21
-67.1082594
0
LINE
8
0
10
62.8797355
20
-67.1082594
11
58.0846131
21
-80.28275
0
LINE
8
0
10
65.5609836
20
-115.4400648
11
78.7354742
21
-120.2351872
0
LINE
8
0
10
78.7354742
20
-120.2351872
11
83.5305966
21
-107.0606966
0
LINE
8
0
10
83.5305966
20
-107.0606966
11
70.356106
21
-102.2655742
0
LINE
8
0
10
70.356106
20
-102.2655742
11
65.5609836
21
-115.4400648
0
LINE
8
0
10
72.0764673
20
-97.5389204
11
85.2509579
21
-102.3340428
0
LINE
8
0
10
85.2509579
20
-102.3340428
11
90.0460803
21
-89.1595522
0
LINE
8
0
10
90.0460803
20
-89.1595522
11
76.8715897
21
-84.3644298
0
LINE
8
0
10
76.8715897
20
-84.3644298
11
72.0764673
21
-97.5389204
0
LINE
8
0
10
78.591951
20
-79.637776
11
91.7664416
21
-84.4328984
0
LINE
8
0
10
91.7664416
20
-84.4328984
11
96.561564
21
-71.2584078
0
LINE
8
0
10
96.561564
20
-71.2584078
11
83.3870734
21
-66.4632854
0
LINE
8
0
10
83.3870734
20
-66.4632854
11
78.591951
21
-79.637776
0
LINE
8
0
10
81.5074829
20
-127.3258919
11
94.6819735
21
-132.1210143
0
LINE
8
0
10
94.6819735
20
-132.1210143
11
99.4770959
21
-118.9465237
0
LINE
8
0
10
99.4770959
20
-118.9465237
11
86.3026053
21
-114.1514013
0
LINE
8
0
10
86.3026053
20
-114.1514013
11
81.5074829
21
-127.3258919
0
LINE
8
0
10
88.0229666
20
-109.4247474
11
101.1974572
21
-114.2198698
0
LINE
8
0
10
101.1974572
20
-114.2198698
11
105.9925796
21
-101.0453792
0
LINE
8
0
10
105.9925796
20
-101.0453792
11
92.818089
21
-96.2502568
0
LINE
8
0
10
92.818089
20
-96.2502568
11
88.0229666
21
-109.4247474
0
LINE
8
0
10
94.5384503
20
-91.523603
11
107.7129409
21
-96.3187254
0
LINE
8
0
10
107.7129409
20
-96.3187254
11
112.5080633
21
-83.1442348
0
LINE
8
0
10
112.5080633
20
-83.1442348
11
99.3335727
21
-78.3491124
0
LINE
8
0
10
99.3335727
20
-78.3491124
11
94.5384503
21
-91.523603
0
LINE
8
0
10
98.1055306
20
-137.4216045
11
111.2800212
21
-142.2167269
0
LINE
8
0
10
111.2800212
20
-142.2167269
11
116.0751436
21
-129.0422363
0
LINE
8
0
10
116.0751436
20
-129.0422363
11
102.900653
21
-124.2471139
0
LINE
8
0
10
102.900653
20
-124.2471139
11
98.1055306
21
-137.4216045
0
LINE
8
0
10
104.6210143
20
-119.5204601
11
117.7955049
21
-124.3155825
0
LINE
8
0
10
117.7955049
20
-124.3155825
11
122.5906273
21
-111.1410919
0
LINE
8
0
10
122.5906273
20
-111.1410919
11
109.4161367
21
-106.3459695
0
LINE
8
0
10
109.4161367
20
-106.3459695
11
104.6210143
21
-119.5204601
0
LINE
8
0
10
111.136498
20
-101.6193156
11
124.3109886
21
-106.414438
0
LINE
8
0
10
124.3109886
20
-106.414438
11
129.106111
21
-93.2399474
0
LINE
8
0
10
129.106111
20
-93.2399474
11
115.9316204
21
-88.444825
0
LINE
8
0
10
115.9316204
20
-88.444825
11
111.136498
21
-101.6193156
0
LINE
8
0
10
80.5581578
20
-153.1770368
11
92.0426694
21
-161.2185784
0
LINE
8
0
10
92.0426694
20
-161.2185784
11
100.084211
21
-149.7340668
0
LINE
8
0
10
100.084211
20
-149.7340668
11
88.5996994
21
-141.6925252
0
LINE
8
0
10
88.5996994
20
-141.6925252
11
80.5581578
21
-153.1770368
0
LINE
8
0
10
97.0891797
20
-165.8679055
11
106.101062
21
-176.6078486
0
LINE
8
0
10
106.101062
20
-176.6078486
11
116.8410051
21
-167.5959663
0
LINE
8
0
10
116.8410051
20
-167.5959663
11
107.8291228
21
-156.8560232
0
LINE
8
0
10
107.8291228
20
-156.8560232
11
97.0891797
21
-165.8679055
0
LINE
8
0
10
158.0491797
20
-158.0709663
11
168.7891228
21
-167.0828486
0
LINE
8
0
10
168.7891228
20
-167.0828486
11
177.8010051
21
-156.3429055
0
LINE
8
0
10
177.8010051
20
-156.3429055
11
167.061062
21
-147.3310232
0
LINE
8
0
10
167.061062
20
-147.3310232
11
158.0491797
21
-158.0709663
0
LINE
8
0
10
184.4319202
20
-174.6288112
11
198.2389249
21
-177.0633587
0
LINE
8
0
10
198.2389249
20
-177.0633587
11
200.6734724
21
-163.256354
0
LINE
8
0
10
200.6734724
20
-163.256354
11
186.8664677
21
-160.8218065
0
LINE
8
0
10
186.8664677
20
-160.8218065
11
184.4319202
21
-174.6288112
0
LINE
8
0
10
375.9264558
20
-126.8954786
11
389.1009464
21
-122.1003562
0
LINE
8
0
10
389.1009464
20
-122.1003562
11
384.305824
21
-108.9258656
0
LINE
8
0
10
384.305824
20
-108.9258656
11
371.1313334
21
-113.720988
0
LINE
8
0
10
371.1313334
20
-113.720988
11
375.9264558
21
-126.8954786
0
LINE
8
0
10
369.410972
20
-108.9943342
11
382.5854626
21
-104.1992118
0
LINE
8
0
10
382.5854626
20
-104.1992118
11
377.7903402
21
-91.0247212
0
LINE
8
0
10
377.7903402
20
-91.0247212
11
364.6158496
21
-95.8198436
0
LINE
8
0
10
364.6158496
20
-95.8198436
11
369.410972
21
-108.9943342
0
LINE
8
0
10
362.8954883
20
-91.0931898
11
376.0699789
21
-86.2980674
0
LINE
8
0
10
376.0699789
20
-86.2980674
11
371.2748565
21
-73.1235768
0
LINE
8
0
10
371.2748565
20
-73.1235768
11
358.1003659
21
-77.9186992
0
LINE
8
0
10
358.1003659
20
-77.9186992
11
362.8954883
21
-91.0931898
0
LINE
8
0
10
353.4644727
20
-120.8801612
11
366.6389633
21
-116.0850388
0
LINE
8
0
10
366.6389633
20
-116.0850388
11
361.8438409
21
-102.9105482
0
LINE
8
0
10
361.8438409
20
-102.9105482
11
348.6693503
21
-107.7056706
0
LINE
8
0
10
348.6693503
20
-107.7056706
11
353.4644727
21
-120.8801612
0
LINE
8
0
10
346.948989
20
-102.9790168
11
360.1234796
21
-98.1838944
0
LINE
8
0
10
360.1234796
20
-98.1838944
11
355.3283572
21
-85.0094038
0
LINE
8
0
10
355.3283572
20
-85.0094038
11
342.1538666
21
-89.8045262
0
LINE
8
0
10
342.1538666
20
-89.8045262
11
346.948989
21
-102.9790168
0
LINE
8
0
10
340.4335053
20
-85.0778724
11
353.6079959
21
-80.28275
0
LINE
8
0
10
353.6079959
20
-80.28275
11
348.8128735
21
-67.1082594
0
LINE
8
0
10
348.8128735
20
-67.1082594
11
335.6383829
21
-71.9033818
0
LINE
8
0
10
335.6383829
20
-71.9033818
11
340.4335053
21
-85.0778724
0
LINE
8
0
10
332.9571348
20
-120.2351872
11
346.1316254
21
-115.4400648
0
LINE
8
0
10
346.1316254
20
-115.4400648
11
341.336503
21
-102.2655742
0
LINE
8
0
10
341.336503
20
-102.2655742
11
328.1620124
21
-107.0606966
0
LINE
8
0
10
328.1620124
20
-107.0606966
11
332.9571348
21
-120.2351872
0
LINE
8
0
10
326.4416511
20
-102.3340428
11
339.6161417
21
-97.5389204
0
LINE
8
0
10
339.6161417
20
-97.5389204
11
334.8210193
21
-84.3644298
0
LINE
8
0
10
334.8210193
20
-84.3644298
11
321.6465287
21
-89.1595522
0
LINE
8
0
10
321.6465287
20
-89.1595522
11
326.4416511
21
-102.3340428
0
LINE
8
0
10
319.9261674
20
-84.4328984
11
333.100658
21
-79.637776
0
LINE
8
0
10
333.100658
20
-79.637776
11
328.3055356
21
-66.4632854
0
LINE
8
0
10
328.3055356
20
-66.4632854
11
315.131045
21
-71.2584078
0
LINE
8
0
10
315.131045
20
-71.2584078
11
319.9261674
21
-84.4328984
0
LINE
8
0
10
317.0106355
20
-132.1210143
11
330.1851261
21
-127.3258919
0
LINE
8
0
10
330.1851261
20
-127.3258919
11
325.3900037
21
-114.1514013
0
LINE
8
0
10
325.3900037
20
-114.1514013
11
312.2155131
21
-118.9465237
0
LINE
8
0
10
312.2155131
20
-118.9465237
11
317.0106355
21
-132.1210143
0
LINE
8
0
10
310.4951518
20
-114.2198698
11
323.6696424
21
-109.4247474
0
LINE
8
0
10
323.6696424
20
-109.4247474
11
318.87452
21
-96.2502568
0
LINE
8
0
10
318.87452
20
-96.2502568
11
305.7000294
21
-101.0453792
0
LINE
8
0
10
305.7000294
20
-101.0453792
11
310.4951518
21
-114.2198698
0
LINE
8
0
10
303.9796681
20
-96.3187254
11
317.1541587
21
-91.523603
0
LINE
8
0
10
317.1541587
20
-91.523603
11
312.3590363
21
-78.3491124
0
LINE
8
0
10
312.3590363
20
-78.3491124
11
299.1845457
21
-83.1442348
0
LINE
8
0
10
299.1845457
20
-83.1442348
11
303.9796681
21
-96.3187254
0
LINE
8
0
10
300.4125878
20
-142.2167269
11
313.5870784
21
-137.4216045
0
LINE
8
0
10
313.5870784
20
-137.4216045
11
308.791956
21
-124.2471139
0
LINE
8
0
10
308.791956
20
-124.2471139
11
295.6174654
21
-129.0422363
0
LINE
8
0
10
295.6174654
20
-129.0422363
11
300.4125878
21
-142.2167269
0
LINE
8
0
10
293.8971041
20
-124.3155825
11
307.0715947
21
-119.5204601
0
LINE
8
0
10
307.0715947
20
-119.5204601
11
302.2764723
21
-106.3459695
0
LINE
8
0
10
302.2764723
20
-106.3459695
11
289.1019817
21
-111.1410919
0
LINE
8
0
10
289.1019817
20
-111.1410919
11
293.8971041
21
-124.3155825
0
LINE
8
0
10
287.3816204
20
-106.414438
11
300.556111
21
-101.6193156
0
LINE
8
0
10
300.556111
20
-101.6193156
11
295.7609886
21
-88.444825
0
LINE
8
0
10
295.7609886
20
-88.444825
11
282.586498
21
-93.2399474
0
LINE
8
0
10
282.586498
20
-93.2399474
11
287.3816204
21
-106.414438
0
LINE
8
0
10
319.6499396
20
-161.2185784
11
331.1344512
21
-153.1770368
0
LINE
8
0
10
331.1344512
20
-153.1770368
11
323.0929096
21
-141.6925252
0
LINE
8
0
10
323.0929096
20
-141.6925252
11
311.608398
21
-149.7340668
0
LINE
8
0
10
311.608398
20
-149.7340668
11
319.6499396
21
-161.2185784
0
LINE
8
0
10
305.591547
20
-176.6078486
11
314.6034293
21
-165.8679055
0
LINE
8
0
10
314.6034293
20
-165.8679055
11
303.8634862
21
-156.8560232
0
LINE
8
0
10
303.8634862
20
-156.8560232
11
294.8516039
21
-167.5959663
0
LINE
8
0
10
294.8516039
20
-167.5959663
11
305.591547
21
-176.6078486
0
LINE
8
0
10
242.9034862
20
-167.0828486
11
253.6434293
21
-158.0709663
0
LINE
8
0
10
253.6434293
20
-158.0709663
11
244.631547
21
-147.3310232
0
LINE
8
0
10
244.631547
20
-147.3310232
11
233.8916039
21
-156.3429055
0
LINE
8
0
10
233.8916039
20
-156.3429055
11
242.9034862
21
-167.0828486
0
LINE
8
0
10
213.4536841
20
-177.0633587
11
227.2606888
21
-174.6288112
0
LINE
8
0
10
227.2606888
20
-174.6288112
11
224.8261413
21
-160.8218065
0
LINE
8
0
10
224.8261413
20
-160.8218065
11
211.0191366
21
-163.256354
0
LINE
8
0
10
211.0191366
20
-163.256354
11
213.4536841
21
-177.0633587
0
CIRCLE
8
0
10
205.8463045
20
-115.330776
40
20.93
0
ENDSEC
0
EOF