0
SECTION
2
HEADER
9
$INSUNITS
70
4
0
ENDSEC
0
SECTION
2
TABLES
0
TABLE
2
LTYPE
0
LTYPE
72
65
70
64
2
CONTINUOUS
3
______
73
0
40
0
0
ENDTAB
0
TABLE
2
LAYER
0
ENDTAB
0
ENDSEC
0
SECTION
2
ENTITIES
0
LINE
8
0
10
8.1665194
20
-159.5167827
11
46.3131764
21
-121.3701257
0
LINE
8
0
10
50.7176368
20
-119.9817418
11
70.4843167
21
-123.4699794
0
LINE
8
0
10
71.5849868
20
-123.7981721
11
89.0271072
21
-131.2733666
0
LINE
8
0
10
90.5930445
20
-132.3335578
11
105.5577176
21
-147.2982309
0
LINE
8
0
10
106.4245392
20
-148.4632658
11
114.0900076
21
-162.6991355
0
LINE
8
0
10
118.4923631
20
-165.3286365
11
128.692739
21
-165.3286365
0
LINE
8
0
10
148.692739
20
-165.3286365
11
158.8931149
21
-165.3286365
0
LINE
8
0
10
163.2954704
20
-162.6991355
11
170.9609388
21
-148.4632658
0
LINE
8
0
10
171.8277604
20
-147.2982309
11
186.7924335
21
-132.3335578
0
LINE
8
0
10
188.3583708
20
-131.2733666
11
205.8004912
21
-123.7981721
0
LINE
8
0
10
206.9011613
20
-123.4699794
11
226.6678412
21
-119.9817418
0
LINE
8
0
10
231.0723016
20
-121.3701257
11
269.2189586
21
-159.5167827
0
LINE
8
0
10
269.6334346
20
-166.1178381
11
232.9016604
21
-213.4477489
0
LINE
8
0
10
232.5703269
20
-213.9306169
11
222.4785698
21
-230.6600296
0
LINE
8
0
10
222.4785698
20
-230.6600296
11
221.2918308
21
-233.4768052
0
LINE
8
0
10
221.2918308
20
-233.4768052
11
217.1317078
21
-250.4205912
0
LINE
8
0
10
214.3985428
20
-253.7554599
11
172.7663653
21
-273.2755664
0
LINE
8
0
10
170.6437481
20
-273.7484817
11
106.7417299
21
-273.7484817
0
LINE
8
0
10
104.6191127
20
-273.2755664
11
62.9869352
21
-253.7554599
0
LINE
8
0
10
60.2537702
20
-250.4205912
11
56.0936472
21
-233.4768052
0
LINE
8
0
10
56.0936472
20
-233.4768052
11
54.9069082
21
-230.6600296
0
LINE
8
0
10
54.9069082
20
-230.6600296
11
44.8151511
21
-213.9306169
0
LINE
8
0
10
44.4838176
20
-213.4477489
11
7.7520434
21
-166.1178381
0
ARC
8
0
10
49.8487103
20
-124.9056596
40
5
50
79.9920225
51
135
0
ARC
8
0
10
69.6153902
20
-128.3938973
40
5
50
66.8014087
51
79.9920225
0
ARC
8
0
10
87.0575106
20
-135.8690917
40
5
50
45
51
66.8014087
0
ARC
8
0
10
102.0221837
20
-150.8337648
40
5
50
28.3007546
51
45
0
ARC
8
0
10
118.4923631
20
-160.3286365
40
5
50
208.3007546
51
270
0
ARC
8
0
10
158.8931149
20
-160.3286365
40
5
50
270
51
331.6992454
0
ARC
8
0
10
175.3632943
20
-150.8337648
40
5
50
135
51
151.6992454
0
ARC
8
0
10
190.3279674
20
-135.8690917
40
5
50
113.1985913
51
135
0
ARC
8
0
10
207.7700878
20
-128.3938973
40
5
50
100.0079775
51
113.1985913
0
ARC
8
0
10
227.5367677
20
-124.9056596
40
5
50
45
51
100.0079775
0
ARC
8
0
10
265.6834247
20
-163.0523166
40
5
50
322.1856968
51
45
0
ARC
8
0
10
236.8516703
20
-216.5132704
40
5
50
142.1856968
51
148.9001768
0
ARC
8
0
10
212.2759257
20
-249.2283751
40
5
50
295.1205015
51
346.2053244
0
ARC
8
0
10
170.6437481
20
-268.7484817
40
5
50
270
51
295.1205015
0
ARC
8
0
10
106.7417299
20
-268.7484817
40
5
50
244.8794985
51
270
0
ARC
8
0
10
65.1095523
20
-249.2283751
40
5
50
193.7946756
51
244.8794985
0
ARC
8
0
10
40.5338077
20
-216.5132704
40
5
50
31.0998232
51
37.8143032
0
ARC
8
0
10
11.7020533
20
-163.0523166
40
5
50
135
51
217.8143032
0
LINE
8
0
10
11.2995663
20
-162.6345597
11
21.2132034
21
-172.5481968
0
LINE
8
0
10
21.2132034
20
-172.5481968
11
31.1268405
21
-162.6345597
0
LINE
8
0
10
31.1268405
20
-162.6345597
11
21.2132034
21
-152.7209226
0
LINE
8
0
10
21.2132034
20
-152.7209226
11
11.2995663
21
-162.6345597
0
LINE
8
0
10
24.7699505
20
-149.1641755
11
34.6835876
21
-159.0778126
0
LINE
8
0
10
34.6835876
20
-159.0778126
11
44.5972247
21
-149.1641755
0
LINE
8
0
10
44.5972247
20
-149.1641755
11
34.6835876
21
-139.2505384
0
LINE
8
0
10
34.6835876
20
-139.2505384
11
24.7699505
21
-149.1641755
0
LINE
8
0
10
38.2403347
20
-135.6937913
11
48.1539718
21
-145.6074284
0
LINE
8
0
10
48.1539718
20
-145.6074284
11
58.0676089
21
-135.6937913
0
LINE
8
0
10
58.0676089
20
-135.6937913
11
48.1539718
21
-125.7801542
0
LINE
8
0
10
48.1539718
20
-125.7801542
11
38.2403347
21
-135.6937913
0
LINE
8
0
10
34.1992194
20
-166.6756749
11
44.1128565
21
-176.589312
0
LINE
8
0
10
44.1128565
20
-176.589312
11
54.0264936
21
-166.6756749
0
LINE
8
0
10
54.0264936
20
-166.6756749
11
44.1128565
21
-156.7620378
0
LINE
8
0
10
44.1128565
20
-156.7620378
11
34.1992194
21
-166.6756749
0
LINE
8
0
10
47.6696036
20
-153.2052907
11
57.5832407
21
-163.1189278
0
LINE
8
0
10
57.5832407
20
-163.1189278
11
67.4968778
21
-153.2052907
0
LINE
8
0
10
67.4968778
20
-153.2052907
11
57.5832407
21
-143.2916536
0
LINE
8
0
10
57.5832407
20
-143.2916536
11
47.6696036
21
-153.2052907
0
LINE
8
0
10
61.1399878
20
-139.7349066
11
71.0536249
21
-149.6485437
0
LINE
8
0
10
71.0536249
20
-149.6485437
11
80.967262
21
-139.7349066
0
LINE
8
0
10
80.967262
20
-139.7349066
11
71.0536249
21
-129.8212695
0
LINE
8
0
10
71.0536249
20
-129.8212695
11
61.1399878
21
-139.7349066
0
LINE
8
0
10
53.0577573
20
-174.7579054
11
62.9713944
21
-184.6715425
0
LINE
8
0
10
62.9713944
20
-184.6715425
11
72.8850315
21
-174.7579054
0
LINE
8
0
10
72.8850315
20
-174.7579054
11
62.9713944
21
-164.8442683
0
LINE
8
0
10
62.9713944
20
-164.8442683
11
53.0577573
21
-174.7579054
0
LINE
8
0
10
66.5281415
20
-161.2875213
11
76.4417786
21
-171.2011584
0
LINE
8
0
10
76.4417786
20
-171.2011584
11
86.3554157
21
-161.2875213
0
LINE
8
0
10
86.3554157
20
-161.2875213
11
76.4417786
21
-151.3738842
0
LINE
8
0
10
76.4417786
20
-151.3738842
11
66.5281415
21
-161.2875213
0
LINE
8
0
10
79.9985257
20
-147.8171371
11
89.9121628
21
-157.7307742
0
LINE
8
0
10
89.9121628
20
-157.7307742
11
99.8257999
21
-147.8171371
0
LINE
8
0
10
99.8257999
20
-147.8171371
11
89.9121628
21
-137.9035
0
LINE
8
0
10
89.9121628
20
-137.9035
11
79.9985257
21
-147.8171371
0
LINE
8
0
10
62.4870262
20
-192.2694049
11
72.4006633
21
-202.183042
0
LINE
8
0
10
72.4006633
20
-202.183042
11
82.3143004
21
-192.2694049
0
LINE
8
0
10
82.3143004
20
-192.2694049
11
72.4006633
21
-182.3557678
0
LINE
8
0
10
72.4006633
20
-182.3557678
11
62.4870262
21
-192.2694049
0
LINE
8
0
10
75.9574104
20
-178.7990207
11
85.8710475
21
-188.7126578
0
LINE
8
0
10
85.8710475
20
-188.7126578
11
95.7846846
21
-178.7990207
0
LINE
8
0
10
95.7846846
20
-178.7990207
11
85.8710475
21
-168.8853836
0
LINE
8
0
10
85.8710475
20
-168.8853836
11
75.9574104
21
-178.7990207
0
LINE
8
0
10
89.4277946
20
-165.3286365
11
99.3414317
21
-175.2422736
0
LINE
8
0
10
99.3414317
20
-175.2422736
11
109.2550688
21
-165.3286365
0
LINE
8
0
10
109.2550688
20
-165.3286365
11
99.3414317
21
-155.4149994
0
LINE
8
0
10
99.3414317
20
-155.4149994
11
89.4277946
21
-165.3286365
0
LINE
8
0
10
73.2633336
20
-208.4338659
11
83.1769707
21
-218.347503
0
LINE
8
0
10
83.1769707
20
-218.347503
11
93.0906078
21
-208.4338659
0
LINE
8
0
10
93.0906078
20
-208.4338659
11
83.1769707
21
-198.5202288
0
LINE
8
0
10
83.1769707
20
-198.5202288
11
73.2633336
21
-208.4338659
0
LINE
8
0
10
86.7337178
20
-194.9634817
11
96.6473549
21
-204.8771188
0
LINE
8
0
10
96.6473549
20
-204.8771188
11
106.560992
21
-194.9634817
0
LINE
8
0
10
106.560992
20
-194.9634817
11
96.6473549
21
-185.0498446
0
LINE
8
0
10
96.6473549
20
-185.0498446
11
86.7337178
21
-194.9634817
0
LINE
8
0
10
100.2041019
20
-181.4930975
11
110.117739
21
-191.4067346
0
LINE
8
0
10
110.117739
20
-191.4067346
11
120.0313761
21
-181.4930975
0
LINE
8
0
10
120.0313761
20
-181.4930975
11
110.117739
21
-171.5794604
0
LINE
8
0
10
110.117739
20
-171.5794604
11
100.2041019
21
-181.4930975
0
LINE
8
0
10
50.7014795
20
-215.2972967
11
57.7114795
21
-227.4389729
0
LINE
8
0
10
57.7114795
20
-227.4389729
11
69.8531557
21
-220.4289729
0
LINE
8
0
10
69.8531557
20
-220.4289729
11
62.8431557
21
-208.2872967
0
LINE
8
0
10
62.8431557
20
-208.2872967
11
50.7014795
21
-215.2972967
0
LINE
8
0
10
60.3202806
20
-233.7854416
11
63.9489236
21
-247.3277216
0
LINE
8
0
10
63.9489236
20
-247.3277216
11
77.4912036
21
-243.6990786
0
LINE
8
0
10
77.4912036
20
-243.6990786
11
73.8625606
21
-230.1567986
0
LINE
8
0
10
73.8625606
20
-230.1567986
11
60.3202806
21
-233.7854416
0
LINE
8
0
10
84.6859356
20
-237.2169442
11
97.8604262
21
-242.0120666
0
LINE
8
0
10
97.8604262
20
-242.0120666
11
102.6555486
21
-228.837576
0
LINE
8
0
10
102.6555486
20
-228.837576
11
89.481058
21
-224.0424536
0
LINE
8
0
10
89.481058
20
-224.0424536
11
84.6859356
21
-237.2169442
0
LINE
8
0
10
256.1722746
20
-172.5481968
11
266.0859117
21
-162.6345597
0
LINE
8
0
10
266.0859117
20
-162.6345597
11
256.1722746
21
-152.7209226
0
LINE
8
0
10
256.1722746
20
-152.7209226
11
246.2586375
21
-162.6345597
0
LINE
8
0
10
246.2586375
20
-162.6345597
11
256.1722746
21
-172.5481968
0
LINE
8
0
10
242.7018904
20
-159.0778126
11
252.6155275
21
-149.1641755
0
LINE
8
0
10
252.6155275
20
-149.1641755
11
242.7018904
21
-139.2505384
0
LINE
8
0
10
242.7018904
20
-139.2505384
11
232.7882533
21
-149.1641755
0
LINE
8
0
10
232.7882533
20
-149.1641755
11
242.7018904
21
-159.0778126
0
LINE
8
0
10
229.2315062
20
-145.6074284
11
239.1451433
21
-135.6937913
0
LINE
8
0
10
239.1451433
20
-135.6937913
11
229.2315062
21
-125.7801542
0
LINE
8
0
10
229.2315062
20
-125.7801542
11
219.3178691
21
-135.6937913
0
LINE
8
0
10
219.3178691
20
-135.6937913
11
229.2315062
21
-145.6074284
0
LINE
8
0
10
233.2726215
20
-176.589312
11
243.1862586
21
-166.6756749
0
LINE
8
0
10
243.1862586
20
-166.6756749
11
233.2726215
21
-156.7620378
0
LINE
8
0
10
233.2726215
20
-156.7620378
11
223.3589844
21
-166.6756749
0
LINE
8
0
10
223.3589844
20
-166.6756749
11
233.2726215
21
-176.589312
0
LINE
8
0
10
219.8022373
20
-163.1189278
11
229.7158744
21
-153.2052907
0
LINE
8
0
10
229.7158744
20
-153.2052907
11
219.8022373
21
-143.2916536
0
LINE
8
0
10
219.8022373
20
-143.2916536
11
209.8886002
21
-153.2052907
0
LINE
8
0
10
209.8886002
20
-153.2052907
11
219.8022373
21
-163.1189278
0
LINE
8
0
10
206.3318531
20
-149.6485437
11
216.2454902
21
-139.7349066
0
LINE
8
0
10
216.2454902
20
-139.7349066
11
206.3318531
21
-129.8212695
0
LINE
8
0
10
206.3318531
20
-129.8212695
11
196.418216
21
-139.7349066
0
LINE
8
0
10
196.418216
20
-139.7349066
11
206.3318531
21
-149.6485437
0
LINE
8
0
10
214.4140836
20
-184.6715425
11
224.3277207
21
-174.7579054
0
LINE
8
0
10
224.3277207
20
-174.7579054
11
214.4140836
21
-164.8442683
0
LINE
8
0
10
214.4140836
20
-164.8442683
11
204.5004465
21
-174.7579054
0
LINE
8
0
10
204.5004465
20
-174.7579054
11
214.4140836
21
-184.6715425
0
LINE
8
0
10
200.9436994
20
-171.2011584
11
210.8573365
21
-161.2875213
0
LINE
8
0
10
210.8573365
20
-161.2875213
11
200.9436994
21
-151.3738842
0
LINE
8
0
10
200.9436994
20
-151.3738842
11
191.0300623
21
-161.2875213
0
LINE
8
0
10
191.0300623
20
-161.2875213
11
200.9436994
21
-171.2011584
0
LINE
8
0
10
187.4733152
20
-157.7307742
11
197.3869523
21
-147.8171371
0
LINE
8
0
10
197.3869523
20
-147.8171371
11
187.4733152
21
-137.9035
0
LINE
8
0
10
187.4733152
20
-137.9035
11
177.5596781
21
-147.8171371
0
LINE
8
0
10
177.5596781
20
-147.8171371
11
187.4733152
21
-157.7307742
0
LINE
8
0
10
204.9848147
20
-202.183042
11
214.8984518
21
-192.2694049
0
LINE
8
0
10
214.8984518
20
-192.2694049
11
204.9848147
21
-182.3557678
0
LINE
8
0
10
204.9848147
20
-182.3557678
11
195.0711776
21
-192.2694049
0
LINE
8
0
10
195.0711776
20
-192.2694049
11
204.9848147
21
-202.183042
0
LINE
8
0
10
191.5144305
20
-188.7126578
11
201.4280676
21
-178.7990207
0
LINE
8
0
10
201.4280676
20
-178.7990207
11
191.5144305
21
-168.8853836
0
LINE
8
0
10
191.5144305
20
-168.8853836
11
181.6007934
21
-178.7990207
0
LINE
8
0
10
181.6007934
20
-178.7990207
11
191.5144305
21
-188.7126578
0
LINE
8
0
10
178.0440463
20
-175.2422736
11
187.9576834
21
-165.3286365
0
LINE
8
0
10
187.9576834
20
-165.3286365
11
178.0440463
21
-155.4149994
0
LINE
8
0
10
178.0440463
20
-155.4149994
11
168.1304092
21
-165.3286365
0
LINE
8
0
10
168.1304092
20
-165.3286365
11
178.0440463
21
-175.2422736
0
LINE
8
0
10
194.2085073
20
-218.347503
11
204.1221444
21
-208.4338659
0
LINE
8
0
10
204.1221444
20
-208.4338659
11
194.2085073
21
-198.5202288
0
LINE
8
0
10
194.2085073
20
-198.5202288
11
184.2948702
21
-208.4338659
0
LINE
8
0
10
184.2948702
20
-208.4338659
11
194.2085073
21
-218.347503
0
LINE
8
0
10
180.7381231
20
-204.8771188
11
190.6517602
21
-194.9634817
0
LINE
8
0
10
190.6517602
20
-194.9634817
11
180.7381231
21
-185.0498446
0
LINE
8
0
10
180.7381231
20
-185.0498446
11
170.824486
21
-194.9634817
0
LINE
8
0
10
170.824486
20
-194.9634817
11
180.7381231
21
-204.8771188
0
LINE
8
0
10
167.267739
20
-191.4067346
11
177.1813761
21
-181.4930975
0
LINE
8
0
10
177.1813761
20
-181.4930975
11
167.267739
21
-171.5794604
0
LINE
8
0
10
167.267739
20
-171.5794604
11
157.3541019
21
-181.4930975
0
LINE
8
0
10
157.3541019
20
-181.4930975
11
167.267739
21
-191.4067346
0
LINE
8
0
10
219.6739985
20
-227.4389729
11
226.6839985
21
-215.2972967
0
LINE
8
0
10
226.6839985
20
-215.2972967
11
214.5423223
21
-208.2872967
0
LINE
8
0
10
214.5423223
20
-208.2872967
11
207.5323223
21
-220.4289729
0
LINE
8
0
10
207.5323223
20
-220.4289729
11
219.6739985
21
-227.4389729
0
LINE
8
0
10
213.4365544
20
-247.3277216
11
217.0651974
21
-233.7854416
0
LINE
8
0
10
217.0651974
20
-233.7854416
11
203.5229174
21
-230.1567986
0
LINE
8
0
10
203.5229174
20
-230.1567986
11
199.8942744
21
-243.6990786
0
LINE
8
0
10
199.8942744
20
-243.6990786
11
213.4365544
21
-247.3277216
0
LINE
8
0
10
179.5250518
20
-242.0120666
11
192.6995424
21
-237.2169442
0
LINE
8
0
10
192.6995424
20
-237.2169442
11
187.90442
21
-224.0424536
0
LINE
8
0
10
187.90442
20
-224.0424536
11
174.7299294
21
-228.837576
0
LINE
8
0
10
174.7299294
20
-228.837576
11
179.5250518
21
-242.0120666
0
LINE
8
0
10
128.692739
20
-207.9634817
11
128.692739
21
-165.3286365
0
LINE
8
0
10
148.692739
20
-207.9634817
11
148.692739
21
-165.3286365
0
CIRCLE
8
0
10
153.692739
20
-197.8171371
40
2
0
CIRCLE
8
0
10
138.692739
20
-240.6834817
40
20.93
0
LINE
8
0
10
128.692739
20
-207.9634817
11
148.692739
21
-207.9634817
0
ENDSEC
0
EOF