M48
; DRILL file {KiCad 8.0.1} date 2024-05-01T11:59:13+0900
; FORMAT={-:-/ absolute / inch / decimal}
; #@! TF.CreationDate,2024-05-01T11:59:13+09:00
; #@! TF.GenerationSoftware,Kicad,Pcbnew,8.0.1
; #@! TF.FileFunction,NonPlated,1,2,NPTH
FMAT,2
INCH
; #@! TA.AperFunction,NonPlated,NPTH,ComponentDrill
T1C0.0670
; #@! TA.AperFunction,NonPlated,NPTH,ComponentDrill
T2C0.1570
%
G90
G05
T1
X1.3062Y-5.2382
X1.5627Y-4.5335
X1.682Y-5.375
X1.8192Y-3.8287
X1.9386Y-4.6703
X2.1905Y-5.0014
X2.1951Y-3.9655
X2.447Y-4.2966
X2.5664Y-5.1382
X2.7035Y-3.5919
X2.8229Y-4.4334
X2.9979Y-4.976
X3.0794Y-3.7287
X3.2544Y-4.2712
X3.3737Y-5.1128
X3.5109Y-3.5665
X3.6257Y-5.444
X3.6303Y-4.408
X3.6431Y-6.5126
X3.8822Y-4.7392
X3.8868Y-3.7033
X3.9707Y-6.742
X4.0016Y-5.5808
X4.1387Y-4.0344
X4.2581Y-4.876
X4.2791Y-5.8414
X4.3336Y-7.0755
X4.5146Y-4.1712
X4.5357Y-5.1367
X4.5907Y-7.3819
X4.655Y-5.9782
X4.7922Y-4.4319
X4.9115Y-5.2735
X5.1681Y-4.5687
X6.7089Y-6.7252
X7.0154Y-6.9823
X7.6348Y-7.281
X8.0287Y-7.3505
X8.6815Y-7.3505
X9.0755Y-7.281
X9.6949Y-6.9823
X10.0013Y-6.7252
X11.5422Y-4.5687
X11.7987Y-5.2735
X11.9181Y-4.4319
X12.0552Y-5.9782
X12.1195Y-7.3819
X12.1746Y-5.1367
X12.1956Y-4.1712
X12.3766Y-7.0755
X12.4311Y-5.8414
X12.4522Y-4.876
X12.5715Y-4.0344
X12.7087Y-5.5808
X12.7395Y-6.742
X12.8235Y-3.7033
X12.828Y-4.7392
X13.0672Y-6.5126
X13.08Y-4.408
X13.0846Y-5.444
X13.1993Y-3.5665
X13.3365Y-5.1128
X13.4559Y-4.2712
X13.6308Y-3.7287
X13.7124Y-4.976
X13.8874Y-4.4334
X14.0067Y-3.5919
X14.1439Y-5.1382
X14.2632Y-4.2966
X14.5152Y-3.9655
X14.5197Y-5.0014
X14.7717Y-4.6703
X14.891Y-3.8287
X15.0282Y-5.375
X15.1476Y-4.5335
X15.4041Y-5.2382
T2
X1.4941Y-5.3066
X1.7506Y-4.6019
X2.0071Y-3.8971
X2.3784Y-5.0698
X2.6349Y-4.365
X2.8915Y-3.6603
X3.1858Y-5.0444
X3.4423Y-4.3396
X3.6988Y-3.6349
X3.8069Y-6.6273
X3.8136Y-5.5124
X4.0701Y-4.8076
X4.3267Y-4.1028
X4.4622Y-7.2287
X4.4671Y-5.9098
X4.7236Y-5.2051
X4.9801Y-4.5003
X6.8622Y-6.8537
X7.8317Y-7.3158
X8.8785Y-7.3158
X9.8481Y-6.8537
X11.7301Y-4.5003
X11.9866Y-5.2051
X12.2431Y-5.9098
X12.2481Y-7.2287
X12.3836Y-4.1028
X12.6401Y-4.8076
X12.8966Y-5.5124
X12.9034Y-6.6273
X13.0114Y-3.6349
X13.2679Y-4.3396
X13.5244Y-5.0444
X13.8188Y-3.6603
X14.0753Y-4.365
X14.3318Y-5.0698
X14.7031Y-3.8971
X14.9596Y-4.6019
X15.2161Y-5.3066
M30
