%TF.GenerationSoftware,KiCad,Pcbnew,8.0.1*%
%TF.CreationDate,2024-05-01T11:59:16+09:00*%
%TF.ProjectId,pcb_plate,7063625f-706c-4617-9465-2e6b69636164,v1.0.0*%
%TF.SameCoordinates,Original*%
%TF.FileFunction,Legend,Top*%
%TF.FilePolarity,Positive*%
%FSLAX46Y46*%
G04 Gerber Fmt 4.6, Leading zero omitted, Abs format (unit mm)*
G04 Created by KiCad (PCBNEW 8.0.1) date 2024-05-01 11:59:16*
%MOMM*%
%LPD*%
G01*
G04 APERTURE LIST*
%ADD10C,0.150000*%
%ADD11C,0.100000*%
%ADD12R,1.752600X1.752600*%
%ADD13C,1.752600*%
G04 APERTURE END LIST*
D10*
X206353336Y-96519609D02*
X206620003Y-97319609D01*
X206620003Y-97319609D02*
X206886669Y-96519609D01*
X207610479Y-97243418D02*
X207572383Y-97281514D01*
X207572383Y-97281514D02*
X207458098Y-97319609D01*
X207458098Y-97319609D02*
X207381907Y-97319609D01*
X207381907Y-97319609D02*
X207267621Y-97281514D01*
X207267621Y-97281514D02*
X207191431Y-97205323D01*
X207191431Y-97205323D02*
X207153336Y-97129133D01*
X207153336Y-97129133D02*
X207115240Y-96976752D01*
X207115240Y-96976752D02*
X207115240Y-96862466D01*
X207115240Y-96862466D02*
X207153336Y-96710085D01*
X207153336Y-96710085D02*
X207191431Y-96633894D01*
X207191431Y-96633894D02*
X207267621Y-96557704D01*
X207267621Y-96557704D02*
X207381907Y-96519609D01*
X207381907Y-96519609D02*
X207458098Y-96519609D01*
X207458098Y-96519609D02*
X207572383Y-96557704D01*
X207572383Y-96557704D02*
X207610479Y-96595799D01*
X208410479Y-97243418D02*
X208372383Y-97281514D01*
X208372383Y-97281514D02*
X208258098Y-97319609D01*
X208258098Y-97319609D02*
X208181907Y-97319609D01*
X208181907Y-97319609D02*
X208067621Y-97281514D01*
X208067621Y-97281514D02*
X207991431Y-97205323D01*
X207991431Y-97205323D02*
X207953336Y-97129133D01*
X207953336Y-97129133D02*
X207915240Y-96976752D01*
X207915240Y-96976752D02*
X207915240Y-96862466D01*
X207915240Y-96862466D02*
X207953336Y-96710085D01*
X207953336Y-96710085D02*
X207991431Y-96633894D01*
X207991431Y-96633894D02*
X208067621Y-96557704D01*
X208067621Y-96557704D02*
X208181907Y-96519609D01*
X208181907Y-96519609D02*
X208258098Y-96519609D01*
X208258098Y-96519609D02*
X208372383Y-96557704D01*
X208372383Y-96557704D02*
X208410479Y-96595799D01*
X206448576Y-107479606D02*
X206448576Y-106679606D01*
X206448576Y-106679606D02*
X206753338Y-106679606D01*
X206753338Y-106679606D02*
X206829528Y-106717701D01*
X206829528Y-106717701D02*
X206867623Y-106755796D01*
X206867623Y-106755796D02*
X206905719Y-106831987D01*
X206905719Y-106831987D02*
X206905719Y-106946272D01*
X206905719Y-106946272D02*
X206867623Y-107022463D01*
X206867623Y-107022463D02*
X206829528Y-107060558D01*
X206829528Y-107060558D02*
X206753338Y-107098653D01*
X206753338Y-107098653D02*
X206448576Y-107098653D01*
X207667623Y-107479606D02*
X207210480Y-107479606D01*
X207439052Y-107479606D02*
X207439052Y-106679606D01*
X207439052Y-106679606D02*
X207362861Y-106793891D01*
X207362861Y-106793891D02*
X207286671Y-106870082D01*
X207286671Y-106870082D02*
X207210480Y-106908177D01*
X208124766Y-107022463D02*
X208048576Y-106984368D01*
X208048576Y-106984368D02*
X208010481Y-106946272D01*
X208010481Y-106946272D02*
X207972385Y-106870082D01*
X207972385Y-106870082D02*
X207972385Y-106831987D01*
X207972385Y-106831987D02*
X208010481Y-106755796D01*
X208010481Y-106755796D02*
X208048576Y-106717701D01*
X208048576Y-106717701D02*
X208124766Y-106679606D01*
X208124766Y-106679606D02*
X208277147Y-106679606D01*
X208277147Y-106679606D02*
X208353338Y-106717701D01*
X208353338Y-106717701D02*
X208391433Y-106755796D01*
X208391433Y-106755796D02*
X208429528Y-106831987D01*
X208429528Y-106831987D02*
X208429528Y-106870082D01*
X208429528Y-106870082D02*
X208391433Y-106946272D01*
X208391433Y-106946272D02*
X208353338Y-106984368D01*
X208353338Y-106984368D02*
X208277147Y-107022463D01*
X208277147Y-107022463D02*
X208124766Y-107022463D01*
X208124766Y-107022463D02*
X208048576Y-107060558D01*
X208048576Y-107060558D02*
X208010481Y-107098653D01*
X208010481Y-107098653D02*
X207972385Y-107174844D01*
X207972385Y-107174844D02*
X207972385Y-107327225D01*
X207972385Y-107327225D02*
X208010481Y-107403415D01*
X208010481Y-107403415D02*
X208048576Y-107441511D01*
X208048576Y-107441511D02*
X208124766Y-107479606D01*
X208124766Y-107479606D02*
X208277147Y-107479606D01*
X208277147Y-107479606D02*
X208353338Y-107441511D01*
X208353338Y-107441511D02*
X208391433Y-107403415D01*
X208391433Y-107403415D02*
X208429528Y-107327225D01*
X208429528Y-107327225D02*
X208429528Y-107174844D01*
X208429528Y-107174844D02*
X208391433Y-107098653D01*
X208391433Y-107098653D02*
X208353338Y-107060558D01*
X208353338Y-107060558D02*
X208277147Y-107022463D01*
X206448574Y-102399607D02*
X206448574Y-101599607D01*
X206448574Y-101599607D02*
X206753336Y-101599607D01*
X206753336Y-101599607D02*
X206829526Y-101637702D01*
X206829526Y-101637702D02*
X206867621Y-101675797D01*
X206867621Y-101675797D02*
X206905717Y-101751988D01*
X206905717Y-101751988D02*
X206905717Y-101866273D01*
X206905717Y-101866273D02*
X206867621Y-101942464D01*
X206867621Y-101942464D02*
X206829526Y-101980559D01*
X206829526Y-101980559D02*
X206753336Y-102018654D01*
X206753336Y-102018654D02*
X206448574Y-102018654D01*
X207210478Y-101675797D02*
X207248574Y-101637702D01*
X207248574Y-101637702D02*
X207324764Y-101599607D01*
X207324764Y-101599607D02*
X207515240Y-101599607D01*
X207515240Y-101599607D02*
X207591431Y-101637702D01*
X207591431Y-101637702D02*
X207629526Y-101675797D01*
X207629526Y-101675797D02*
X207667621Y-101751988D01*
X207667621Y-101751988D02*
X207667621Y-101828178D01*
X207667621Y-101828178D02*
X207629526Y-101942464D01*
X207629526Y-101942464D02*
X207172383Y-102399607D01*
X207172383Y-102399607D02*
X207667621Y-102399607D01*
X208162860Y-101599607D02*
X208239050Y-101599607D01*
X208239050Y-101599607D02*
X208315241Y-101637702D01*
X208315241Y-101637702D02*
X208353336Y-101675797D01*
X208353336Y-101675797D02*
X208391431Y-101751988D01*
X208391431Y-101751988D02*
X208429526Y-101904369D01*
X208429526Y-101904369D02*
X208429526Y-102094845D01*
X208429526Y-102094845D02*
X208391431Y-102247226D01*
X208391431Y-102247226D02*
X208353336Y-102323416D01*
X208353336Y-102323416D02*
X208315241Y-102361512D01*
X208315241Y-102361512D02*
X208239050Y-102399607D01*
X208239050Y-102399607D02*
X208162860Y-102399607D01*
X208162860Y-102399607D02*
X208086669Y-102361512D01*
X208086669Y-102361512D02*
X208048574Y-102323416D01*
X208048574Y-102323416D02*
X208010479Y-102247226D01*
X208010479Y-102247226D02*
X207972383Y-102094845D01*
X207972383Y-102094845D02*
X207972383Y-101904369D01*
X207972383Y-101904369D02*
X208010479Y-101751988D01*
X208010479Y-101751988D02*
X208048574Y-101675797D01*
X208048574Y-101675797D02*
X208086669Y-101637702D01*
X208086669Y-101637702D02*
X208162860Y-101599607D01*
X216048574Y-99859610D02*
X216048574Y-99059610D01*
X216048574Y-99059610D02*
X216353336Y-99059610D01*
X216353336Y-99059610D02*
X216429526Y-99097705D01*
X216429526Y-99097705D02*
X216467621Y-99135800D01*
X216467621Y-99135800D02*
X216505717Y-99211991D01*
X216505717Y-99211991D02*
X216505717Y-99326276D01*
X216505717Y-99326276D02*
X216467621Y-99402467D01*
X216467621Y-99402467D02*
X216429526Y-99440562D01*
X216429526Y-99440562D02*
X216353336Y-99478657D01*
X216353336Y-99478657D02*
X216048574Y-99478657D01*
X217000955Y-99059610D02*
X217077145Y-99059610D01*
X217077145Y-99059610D02*
X217153336Y-99097705D01*
X217153336Y-99097705D02*
X217191431Y-99135800D01*
X217191431Y-99135800D02*
X217229526Y-99211991D01*
X217229526Y-99211991D02*
X217267621Y-99364372D01*
X217267621Y-99364372D02*
X217267621Y-99554848D01*
X217267621Y-99554848D02*
X217229526Y-99707229D01*
X217229526Y-99707229D02*
X217191431Y-99783419D01*
X217191431Y-99783419D02*
X217153336Y-99821515D01*
X217153336Y-99821515D02*
X217077145Y-99859610D01*
X217077145Y-99859610D02*
X217000955Y-99859610D01*
X217000955Y-99859610D02*
X216924764Y-99821515D01*
X216924764Y-99821515D02*
X216886669Y-99783419D01*
X216886669Y-99783419D02*
X216848574Y-99707229D01*
X216848574Y-99707229D02*
X216810478Y-99554848D01*
X216810478Y-99554848D02*
X216810478Y-99364372D01*
X216810478Y-99364372D02*
X216848574Y-99211991D01*
X216848574Y-99211991D02*
X216886669Y-99135800D01*
X216886669Y-99135800D02*
X216924764Y-99097705D01*
X216924764Y-99097705D02*
X217000955Y-99059610D01*
X217572383Y-99135800D02*
X217610479Y-99097705D01*
X217610479Y-99097705D02*
X217686669Y-99059610D01*
X217686669Y-99059610D02*
X217877145Y-99059610D01*
X217877145Y-99059610D02*
X217953336Y-99097705D01*
X217953336Y-99097705D02*
X217991431Y-99135800D01*
X217991431Y-99135800D02*
X218029526Y-99211991D01*
X218029526Y-99211991D02*
X218029526Y-99288181D01*
X218029526Y-99288181D02*
X217991431Y-99402467D01*
X217991431Y-99402467D02*
X217534288Y-99859610D01*
X217534288Y-99859610D02*
X218029526Y-99859610D01*
X216048576Y-104939609D02*
X216048576Y-104139609D01*
X216048576Y-104139609D02*
X216353338Y-104139609D01*
X216353338Y-104139609D02*
X216429528Y-104177704D01*
X216429528Y-104177704D02*
X216467623Y-104215799D01*
X216467623Y-104215799D02*
X216505719Y-104291990D01*
X216505719Y-104291990D02*
X216505719Y-104406275D01*
X216505719Y-104406275D02*
X216467623Y-104482466D01*
X216467623Y-104482466D02*
X216429528Y-104520561D01*
X216429528Y-104520561D02*
X216353338Y-104558656D01*
X216353338Y-104558656D02*
X216048576Y-104558656D01*
X217000957Y-104139609D02*
X217077147Y-104139609D01*
X217077147Y-104139609D02*
X217153338Y-104177704D01*
X217153338Y-104177704D02*
X217191433Y-104215799D01*
X217191433Y-104215799D02*
X217229528Y-104291990D01*
X217229528Y-104291990D02*
X217267623Y-104444371D01*
X217267623Y-104444371D02*
X217267623Y-104634847D01*
X217267623Y-104634847D02*
X217229528Y-104787228D01*
X217229528Y-104787228D02*
X217191433Y-104863418D01*
X217191433Y-104863418D02*
X217153338Y-104901514D01*
X217153338Y-104901514D02*
X217077147Y-104939609D01*
X217077147Y-104939609D02*
X217000957Y-104939609D01*
X217000957Y-104939609D02*
X216924766Y-104901514D01*
X216924766Y-104901514D02*
X216886671Y-104863418D01*
X216886671Y-104863418D02*
X216848576Y-104787228D01*
X216848576Y-104787228D02*
X216810480Y-104634847D01*
X216810480Y-104634847D02*
X216810480Y-104444371D01*
X216810480Y-104444371D02*
X216848576Y-104291990D01*
X216848576Y-104291990D02*
X216886671Y-104215799D01*
X216886671Y-104215799D02*
X216924766Y-104177704D01*
X216924766Y-104177704D02*
X217000957Y-104139609D01*
X217953338Y-104406275D02*
X217953338Y-104939609D01*
X217762862Y-104101514D02*
X217572385Y-104672942D01*
X217572385Y-104672942D02*
X218067624Y-104672942D01*
X216048576Y-117639608D02*
X216048576Y-116839608D01*
X216048576Y-116839608D02*
X216353338Y-116839608D01*
X216353338Y-116839608D02*
X216429528Y-116877703D01*
X216429528Y-116877703D02*
X216467623Y-116915798D01*
X216467623Y-116915798D02*
X216505719Y-116991989D01*
X216505719Y-116991989D02*
X216505719Y-117106274D01*
X216505719Y-117106274D02*
X216467623Y-117182465D01*
X216467623Y-117182465D02*
X216429528Y-117220560D01*
X216429528Y-117220560D02*
X216353338Y-117258655D01*
X216353338Y-117258655D02*
X216048576Y-117258655D01*
X217000957Y-116839608D02*
X217077147Y-116839608D01*
X217077147Y-116839608D02*
X217153338Y-116877703D01*
X217153338Y-116877703D02*
X217191433Y-116915798D01*
X217191433Y-116915798D02*
X217229528Y-116991989D01*
X217229528Y-116991989D02*
X217267623Y-117144370D01*
X217267623Y-117144370D02*
X217267623Y-117334846D01*
X217267623Y-117334846D02*
X217229528Y-117487227D01*
X217229528Y-117487227D02*
X217191433Y-117563417D01*
X217191433Y-117563417D02*
X217153338Y-117601513D01*
X217153338Y-117601513D02*
X217077147Y-117639608D01*
X217077147Y-117639608D02*
X217000957Y-117639608D01*
X217000957Y-117639608D02*
X216924766Y-117601513D01*
X216924766Y-117601513D02*
X216886671Y-117563417D01*
X216886671Y-117563417D02*
X216848576Y-117487227D01*
X216848576Y-117487227D02*
X216810480Y-117334846D01*
X216810480Y-117334846D02*
X216810480Y-117144370D01*
X216810480Y-117144370D02*
X216848576Y-116991989D01*
X216848576Y-116991989D02*
X216886671Y-116915798D01*
X216886671Y-116915798D02*
X216924766Y-116877703D01*
X216924766Y-116877703D02*
X217000957Y-116839608D01*
X217648576Y-117639608D02*
X217800957Y-117639608D01*
X217800957Y-117639608D02*
X217877147Y-117601513D01*
X217877147Y-117601513D02*
X217915243Y-117563417D01*
X217915243Y-117563417D02*
X217991433Y-117449132D01*
X217991433Y-117449132D02*
X218029528Y-117296751D01*
X218029528Y-117296751D02*
X218029528Y-116991989D01*
X218029528Y-116991989D02*
X217991433Y-116915798D01*
X217991433Y-116915798D02*
X217953338Y-116877703D01*
X217953338Y-116877703D02*
X217877147Y-116839608D01*
X217877147Y-116839608D02*
X217724766Y-116839608D01*
X217724766Y-116839608D02*
X217648576Y-116877703D01*
X217648576Y-116877703D02*
X217610481Y-116915798D01*
X217610481Y-116915798D02*
X217572385Y-116991989D01*
X217572385Y-116991989D02*
X217572385Y-117182465D01*
X217572385Y-117182465D02*
X217610481Y-117258655D01*
X217610481Y-117258655D02*
X217648576Y-117296751D01*
X217648576Y-117296751D02*
X217724766Y-117334846D01*
X217724766Y-117334846D02*
X217877147Y-117334846D01*
X217877147Y-117334846D02*
X217953338Y-117296751D01*
X217953338Y-117296751D02*
X217991433Y-117258655D01*
X217991433Y-117258655D02*
X218029528Y-117182465D01*
X206867622Y-89699608D02*
X206600955Y-89318655D01*
X206410479Y-89699608D02*
X206410479Y-88899608D01*
X206410479Y-88899608D02*
X206715241Y-88899608D01*
X206715241Y-88899608D02*
X206791431Y-88937703D01*
X206791431Y-88937703D02*
X206829526Y-88975798D01*
X206829526Y-88975798D02*
X206867622Y-89051989D01*
X206867622Y-89051989D02*
X206867622Y-89166274D01*
X206867622Y-89166274D02*
X206829526Y-89242465D01*
X206829526Y-89242465D02*
X206791431Y-89280560D01*
X206791431Y-89280560D02*
X206715241Y-89318655D01*
X206715241Y-89318655D02*
X206410479Y-89318655D01*
X207172383Y-89471036D02*
X207553336Y-89471036D01*
X207096193Y-89699608D02*
X207362860Y-88899608D01*
X207362860Y-88899608D02*
X207629526Y-89699608D01*
X207820002Y-88899608D02*
X208010478Y-89699608D01*
X208010478Y-89699608D02*
X208162859Y-89128179D01*
X208162859Y-89128179D02*
X208315240Y-89699608D01*
X208315240Y-89699608D02*
X208505717Y-88899608D01*
X206981909Y-94779608D02*
X206715242Y-94398655D01*
X206524766Y-94779608D02*
X206524766Y-93979608D01*
X206524766Y-93979608D02*
X206829528Y-93979608D01*
X206829528Y-93979608D02*
X206905718Y-94017703D01*
X206905718Y-94017703D02*
X206943813Y-94055798D01*
X206943813Y-94055798D02*
X206981909Y-94131989D01*
X206981909Y-94131989D02*
X206981909Y-94246274D01*
X206981909Y-94246274D02*
X206943813Y-94322465D01*
X206943813Y-94322465D02*
X206905718Y-94360560D01*
X206905718Y-94360560D02*
X206829528Y-94398655D01*
X206829528Y-94398655D02*
X206524766Y-94398655D01*
X207286670Y-94741513D02*
X207400956Y-94779608D01*
X207400956Y-94779608D02*
X207591432Y-94779608D01*
X207591432Y-94779608D02*
X207667623Y-94741513D01*
X207667623Y-94741513D02*
X207705718Y-94703417D01*
X207705718Y-94703417D02*
X207743813Y-94627227D01*
X207743813Y-94627227D02*
X207743813Y-94551036D01*
X207743813Y-94551036D02*
X207705718Y-94474846D01*
X207705718Y-94474846D02*
X207667623Y-94436751D01*
X207667623Y-94436751D02*
X207591432Y-94398655D01*
X207591432Y-94398655D02*
X207439051Y-94360560D01*
X207439051Y-94360560D02*
X207362861Y-94322465D01*
X207362861Y-94322465D02*
X207324766Y-94284370D01*
X207324766Y-94284370D02*
X207286670Y-94208179D01*
X207286670Y-94208179D02*
X207286670Y-94131989D01*
X207286670Y-94131989D02*
X207324766Y-94055798D01*
X207324766Y-94055798D02*
X207362861Y-94017703D01*
X207362861Y-94017703D02*
X207439051Y-93979608D01*
X207439051Y-93979608D02*
X207629528Y-93979608D01*
X207629528Y-93979608D02*
X207743813Y-94017703D01*
X207972385Y-93979608D02*
X208429528Y-93979608D01*
X208200956Y-94779608D02*
X208200956Y-93979608D01*
X216410480Y-94017703D02*
X216334290Y-93979608D01*
X216334290Y-93979608D02*
X216220004Y-93979608D01*
X216220004Y-93979608D02*
X216105718Y-94017703D01*
X216105718Y-94017703D02*
X216029528Y-94093893D01*
X216029528Y-94093893D02*
X215991433Y-94170084D01*
X215991433Y-94170084D02*
X215953337Y-94322465D01*
X215953337Y-94322465D02*
X215953337Y-94436751D01*
X215953337Y-94436751D02*
X215991433Y-94589132D01*
X215991433Y-94589132D02*
X216029528Y-94665322D01*
X216029528Y-94665322D02*
X216105718Y-94741513D01*
X216105718Y-94741513D02*
X216220004Y-94779608D01*
X216220004Y-94779608D02*
X216296195Y-94779608D01*
X216296195Y-94779608D02*
X216410480Y-94741513D01*
X216410480Y-94741513D02*
X216448576Y-94703417D01*
X216448576Y-94703417D02*
X216448576Y-94436751D01*
X216448576Y-94436751D02*
X216296195Y-94436751D01*
X216791433Y-94779608D02*
X216791433Y-93979608D01*
X216791433Y-93979608D02*
X217248576Y-94779608D01*
X217248576Y-94779608D02*
X217248576Y-93979608D01*
X217629528Y-94779608D02*
X217629528Y-93979608D01*
X217629528Y-93979608D02*
X217820004Y-93979608D01*
X217820004Y-93979608D02*
X217934290Y-94017703D01*
X217934290Y-94017703D02*
X218010480Y-94093893D01*
X218010480Y-94093893D02*
X218048575Y-94170084D01*
X218048575Y-94170084D02*
X218086671Y-94322465D01*
X218086671Y-94322465D02*
X218086671Y-94436751D01*
X218086671Y-94436751D02*
X218048575Y-94589132D01*
X218048575Y-94589132D02*
X218010480Y-94665322D01*
X218010480Y-94665322D02*
X217934290Y-94741513D01*
X217934290Y-94741513D02*
X217820004Y-94779608D01*
X217820004Y-94779608D02*
X217629528Y-94779608D01*
X216048575Y-89699608D02*
X216048575Y-88899608D01*
X216048575Y-88899608D02*
X216353337Y-88899608D01*
X216353337Y-88899608D02*
X216429527Y-88937703D01*
X216429527Y-88937703D02*
X216467622Y-88975798D01*
X216467622Y-88975798D02*
X216505718Y-89051989D01*
X216505718Y-89051989D02*
X216505718Y-89166274D01*
X216505718Y-89166274D02*
X216467622Y-89242465D01*
X216467622Y-89242465D02*
X216429527Y-89280560D01*
X216429527Y-89280560D02*
X216353337Y-89318655D01*
X216353337Y-89318655D02*
X216048575Y-89318655D01*
X217000956Y-88899608D02*
X217077146Y-88899608D01*
X217077146Y-88899608D02*
X217153337Y-88937703D01*
X217153337Y-88937703D02*
X217191432Y-88975798D01*
X217191432Y-88975798D02*
X217229527Y-89051989D01*
X217229527Y-89051989D02*
X217267622Y-89204370D01*
X217267622Y-89204370D02*
X217267622Y-89394846D01*
X217267622Y-89394846D02*
X217229527Y-89547227D01*
X217229527Y-89547227D02*
X217191432Y-89623417D01*
X217191432Y-89623417D02*
X217153337Y-89661513D01*
X217153337Y-89661513D02*
X217077146Y-89699608D01*
X217077146Y-89699608D02*
X217000956Y-89699608D01*
X217000956Y-89699608D02*
X216924765Y-89661513D01*
X216924765Y-89661513D02*
X216886670Y-89623417D01*
X216886670Y-89623417D02*
X216848575Y-89547227D01*
X216848575Y-89547227D02*
X216810479Y-89394846D01*
X216810479Y-89394846D02*
X216810479Y-89204370D01*
X216810479Y-89204370D02*
X216848575Y-89051989D01*
X216848575Y-89051989D02*
X216886670Y-88975798D01*
X216886670Y-88975798D02*
X216924765Y-88937703D01*
X216924765Y-88937703D02*
X217000956Y-88899608D01*
X218029527Y-89699608D02*
X217572384Y-89699608D01*
X217800956Y-89699608D02*
X217800956Y-88899608D01*
X217800956Y-88899608D02*
X217724765Y-89013893D01*
X217724765Y-89013893D02*
X217648575Y-89090084D01*
X217648575Y-89090084D02*
X217572384Y-89128179D01*
X216410481Y-96557703D02*
X216334291Y-96519608D01*
X216334291Y-96519608D02*
X216220005Y-96519608D01*
X216220005Y-96519608D02*
X216105719Y-96557703D01*
X216105719Y-96557703D02*
X216029529Y-96633893D01*
X216029529Y-96633893D02*
X215991434Y-96710084D01*
X215991434Y-96710084D02*
X215953338Y-96862465D01*
X215953338Y-96862465D02*
X215953338Y-96976751D01*
X215953338Y-96976751D02*
X215991434Y-97129132D01*
X215991434Y-97129132D02*
X216029529Y-97205322D01*
X216029529Y-97205322D02*
X216105719Y-97281513D01*
X216105719Y-97281513D02*
X216220005Y-97319608D01*
X216220005Y-97319608D02*
X216296196Y-97319608D01*
X216296196Y-97319608D02*
X216410481Y-97281513D01*
X216410481Y-97281513D02*
X216448577Y-97243417D01*
X216448577Y-97243417D02*
X216448577Y-96976751D01*
X216448577Y-96976751D02*
X216296196Y-96976751D01*
X216791434Y-97319608D02*
X216791434Y-96519608D01*
X216791434Y-96519608D02*
X217248577Y-97319608D01*
X217248577Y-97319608D02*
X217248577Y-96519608D01*
X217629529Y-97319608D02*
X217629529Y-96519608D01*
X217629529Y-96519608D02*
X217820005Y-96519608D01*
X217820005Y-96519608D02*
X217934291Y-96557703D01*
X217934291Y-96557703D02*
X218010481Y-96633893D01*
X218010481Y-96633893D02*
X218048576Y-96710084D01*
X218048576Y-96710084D02*
X218086672Y-96862465D01*
X218086672Y-96862465D02*
X218086672Y-96976751D01*
X218086672Y-96976751D02*
X218048576Y-97129132D01*
X218048576Y-97129132D02*
X218010481Y-97205322D01*
X218010481Y-97205322D02*
X217934291Y-97281513D01*
X217934291Y-97281513D02*
X217820005Y-97319608D01*
X217820005Y-97319608D02*
X217629529Y-97319608D01*
X206448575Y-117639608D02*
X206448575Y-116839608D01*
X206448575Y-116839608D02*
X206753337Y-116839608D01*
X206753337Y-116839608D02*
X206829527Y-116877703D01*
X206829527Y-116877703D02*
X206867622Y-116915798D01*
X206867622Y-116915798D02*
X206905718Y-116991989D01*
X206905718Y-116991989D02*
X206905718Y-117106274D01*
X206905718Y-117106274D02*
X206867622Y-117182465D01*
X206867622Y-117182465D02*
X206829527Y-117220560D01*
X206829527Y-117220560D02*
X206753337Y-117258655D01*
X206753337Y-117258655D02*
X206448575Y-117258655D01*
X207667622Y-117639608D02*
X207210479Y-117639608D01*
X207439051Y-117639608D02*
X207439051Y-116839608D01*
X207439051Y-116839608D02*
X207362860Y-116953893D01*
X207362860Y-116953893D02*
X207286670Y-117030084D01*
X207286670Y-117030084D02*
X207210479Y-117068179D01*
X208162861Y-116839608D02*
X208239051Y-116839608D01*
X208239051Y-116839608D02*
X208315242Y-116877703D01*
X208315242Y-116877703D02*
X208353337Y-116915798D01*
X208353337Y-116915798D02*
X208391432Y-116991989D01*
X208391432Y-116991989D02*
X208429527Y-117144370D01*
X208429527Y-117144370D02*
X208429527Y-117334846D01*
X208429527Y-117334846D02*
X208391432Y-117487227D01*
X208391432Y-117487227D02*
X208353337Y-117563417D01*
X208353337Y-117563417D02*
X208315242Y-117601513D01*
X208315242Y-117601513D02*
X208239051Y-117639608D01*
X208239051Y-117639608D02*
X208162861Y-117639608D01*
X208162861Y-117639608D02*
X208086670Y-117601513D01*
X208086670Y-117601513D02*
X208048575Y-117563417D01*
X208048575Y-117563417D02*
X208010480Y-117487227D01*
X208010480Y-117487227D02*
X207972384Y-117334846D01*
X207972384Y-117334846D02*
X207972384Y-117144370D01*
X207972384Y-117144370D02*
X208010480Y-116991989D01*
X208010480Y-116991989D02*
X208048575Y-116915798D01*
X208048575Y-116915798D02*
X208086670Y-116877703D01*
X208086670Y-116877703D02*
X208162861Y-116839608D01*
X216048576Y-110019607D02*
X216048576Y-109219607D01*
X216048576Y-109219607D02*
X216353338Y-109219607D01*
X216353338Y-109219607D02*
X216429528Y-109257702D01*
X216429528Y-109257702D02*
X216467623Y-109295797D01*
X216467623Y-109295797D02*
X216505719Y-109371988D01*
X216505719Y-109371988D02*
X216505719Y-109486273D01*
X216505719Y-109486273D02*
X216467623Y-109562464D01*
X216467623Y-109562464D02*
X216429528Y-109600559D01*
X216429528Y-109600559D02*
X216353338Y-109638654D01*
X216353338Y-109638654D02*
X216048576Y-109638654D01*
X217000957Y-109219607D02*
X217077147Y-109219607D01*
X217077147Y-109219607D02*
X217153338Y-109257702D01*
X217153338Y-109257702D02*
X217191433Y-109295797D01*
X217191433Y-109295797D02*
X217229528Y-109371988D01*
X217229528Y-109371988D02*
X217267623Y-109524369D01*
X217267623Y-109524369D02*
X217267623Y-109714845D01*
X217267623Y-109714845D02*
X217229528Y-109867226D01*
X217229528Y-109867226D02*
X217191433Y-109943416D01*
X217191433Y-109943416D02*
X217153338Y-109981512D01*
X217153338Y-109981512D02*
X217077147Y-110019607D01*
X217077147Y-110019607D02*
X217000957Y-110019607D01*
X217000957Y-110019607D02*
X216924766Y-109981512D01*
X216924766Y-109981512D02*
X216886671Y-109943416D01*
X216886671Y-109943416D02*
X216848576Y-109867226D01*
X216848576Y-109867226D02*
X216810480Y-109714845D01*
X216810480Y-109714845D02*
X216810480Y-109524369D01*
X216810480Y-109524369D02*
X216848576Y-109371988D01*
X216848576Y-109371988D02*
X216886671Y-109295797D01*
X216886671Y-109295797D02*
X216924766Y-109257702D01*
X216924766Y-109257702D02*
X217000957Y-109219607D01*
X217953338Y-109219607D02*
X217800957Y-109219607D01*
X217800957Y-109219607D02*
X217724766Y-109257702D01*
X217724766Y-109257702D02*
X217686671Y-109295797D01*
X217686671Y-109295797D02*
X217610481Y-109410083D01*
X217610481Y-109410083D02*
X217572385Y-109562464D01*
X217572385Y-109562464D02*
X217572385Y-109867226D01*
X217572385Y-109867226D02*
X217610481Y-109943416D01*
X217610481Y-109943416D02*
X217648576Y-109981512D01*
X217648576Y-109981512D02*
X217724766Y-110019607D01*
X217724766Y-110019607D02*
X217877147Y-110019607D01*
X217877147Y-110019607D02*
X217953338Y-109981512D01*
X217953338Y-109981512D02*
X217991433Y-109943416D01*
X217991433Y-109943416D02*
X218029528Y-109867226D01*
X218029528Y-109867226D02*
X218029528Y-109676750D01*
X218029528Y-109676750D02*
X217991433Y-109600559D01*
X217991433Y-109600559D02*
X217953338Y-109562464D01*
X217953338Y-109562464D02*
X217877147Y-109524369D01*
X217877147Y-109524369D02*
X217724766Y-109524369D01*
X217724766Y-109524369D02*
X217648576Y-109562464D01*
X217648576Y-109562464D02*
X217610481Y-109600559D01*
X217610481Y-109600559D02*
X217572385Y-109676750D01*
X206448574Y-110019608D02*
X206448574Y-109219608D01*
X206448574Y-109219608D02*
X206753336Y-109219608D01*
X206753336Y-109219608D02*
X206829526Y-109257703D01*
X206829526Y-109257703D02*
X206867621Y-109295798D01*
X206867621Y-109295798D02*
X206905717Y-109371989D01*
X206905717Y-109371989D02*
X206905717Y-109486274D01*
X206905717Y-109486274D02*
X206867621Y-109562465D01*
X206867621Y-109562465D02*
X206829526Y-109600560D01*
X206829526Y-109600560D02*
X206753336Y-109638655D01*
X206753336Y-109638655D02*
X206448574Y-109638655D01*
X207667621Y-110019608D02*
X207210478Y-110019608D01*
X207439050Y-110019608D02*
X207439050Y-109219608D01*
X207439050Y-109219608D02*
X207362859Y-109333893D01*
X207362859Y-109333893D02*
X207286669Y-109410084D01*
X207286669Y-109410084D02*
X207210478Y-109448179D01*
X208391431Y-109219608D02*
X208010479Y-109219608D01*
X208010479Y-109219608D02*
X207972383Y-109600560D01*
X207972383Y-109600560D02*
X208010479Y-109562465D01*
X208010479Y-109562465D02*
X208086669Y-109524370D01*
X208086669Y-109524370D02*
X208277145Y-109524370D01*
X208277145Y-109524370D02*
X208353336Y-109562465D01*
X208353336Y-109562465D02*
X208391431Y-109600560D01*
X208391431Y-109600560D02*
X208429526Y-109676751D01*
X208429526Y-109676751D02*
X208429526Y-109867227D01*
X208429526Y-109867227D02*
X208391431Y-109943417D01*
X208391431Y-109943417D02*
X208353336Y-109981513D01*
X208353336Y-109981513D02*
X208277145Y-110019608D01*
X208277145Y-110019608D02*
X208086669Y-110019608D01*
X208086669Y-110019608D02*
X208010479Y-109981513D01*
X208010479Y-109981513D02*
X207972383Y-109943417D01*
X216048575Y-107479606D02*
X216048575Y-106679606D01*
X216048575Y-106679606D02*
X216353337Y-106679606D01*
X216353337Y-106679606D02*
X216429527Y-106717701D01*
X216429527Y-106717701D02*
X216467622Y-106755796D01*
X216467622Y-106755796D02*
X216505718Y-106831987D01*
X216505718Y-106831987D02*
X216505718Y-106946272D01*
X216505718Y-106946272D02*
X216467622Y-107022463D01*
X216467622Y-107022463D02*
X216429527Y-107060558D01*
X216429527Y-107060558D02*
X216353337Y-107098653D01*
X216353337Y-107098653D02*
X216048575Y-107098653D01*
X217000956Y-106679606D02*
X217077146Y-106679606D01*
X217077146Y-106679606D02*
X217153337Y-106717701D01*
X217153337Y-106717701D02*
X217191432Y-106755796D01*
X217191432Y-106755796D02*
X217229527Y-106831987D01*
X217229527Y-106831987D02*
X217267622Y-106984368D01*
X217267622Y-106984368D02*
X217267622Y-107174844D01*
X217267622Y-107174844D02*
X217229527Y-107327225D01*
X217229527Y-107327225D02*
X217191432Y-107403415D01*
X217191432Y-107403415D02*
X217153337Y-107441511D01*
X217153337Y-107441511D02*
X217077146Y-107479606D01*
X217077146Y-107479606D02*
X217000956Y-107479606D01*
X217000956Y-107479606D02*
X216924765Y-107441511D01*
X216924765Y-107441511D02*
X216886670Y-107403415D01*
X216886670Y-107403415D02*
X216848575Y-107327225D01*
X216848575Y-107327225D02*
X216810479Y-107174844D01*
X216810479Y-107174844D02*
X216810479Y-106984368D01*
X216810479Y-106984368D02*
X216848575Y-106831987D01*
X216848575Y-106831987D02*
X216886670Y-106755796D01*
X216886670Y-106755796D02*
X216924765Y-106717701D01*
X216924765Y-106717701D02*
X217000956Y-106679606D01*
X217991432Y-106679606D02*
X217610480Y-106679606D01*
X217610480Y-106679606D02*
X217572384Y-107060558D01*
X217572384Y-107060558D02*
X217610480Y-107022463D01*
X217610480Y-107022463D02*
X217686670Y-106984368D01*
X217686670Y-106984368D02*
X217877146Y-106984368D01*
X217877146Y-106984368D02*
X217953337Y-107022463D01*
X217953337Y-107022463D02*
X217991432Y-107060558D01*
X217991432Y-107060558D02*
X218029527Y-107136749D01*
X218029527Y-107136749D02*
X218029527Y-107327225D01*
X218029527Y-107327225D02*
X217991432Y-107403415D01*
X217991432Y-107403415D02*
X217953337Y-107441511D01*
X217953337Y-107441511D02*
X217877146Y-107479606D01*
X217877146Y-107479606D02*
X217686670Y-107479606D01*
X217686670Y-107479606D02*
X217610480Y-107441511D01*
X217610480Y-107441511D02*
X217572384Y-107403415D01*
X216048575Y-112559608D02*
X216048575Y-111759608D01*
X216048575Y-111759608D02*
X216353337Y-111759608D01*
X216353337Y-111759608D02*
X216429527Y-111797703D01*
X216429527Y-111797703D02*
X216467622Y-111835798D01*
X216467622Y-111835798D02*
X216505718Y-111911989D01*
X216505718Y-111911989D02*
X216505718Y-112026274D01*
X216505718Y-112026274D02*
X216467622Y-112102465D01*
X216467622Y-112102465D02*
X216429527Y-112140560D01*
X216429527Y-112140560D02*
X216353337Y-112178655D01*
X216353337Y-112178655D02*
X216048575Y-112178655D01*
X217000956Y-111759608D02*
X217077146Y-111759608D01*
X217077146Y-111759608D02*
X217153337Y-111797703D01*
X217153337Y-111797703D02*
X217191432Y-111835798D01*
X217191432Y-111835798D02*
X217229527Y-111911989D01*
X217229527Y-111911989D02*
X217267622Y-112064370D01*
X217267622Y-112064370D02*
X217267622Y-112254846D01*
X217267622Y-112254846D02*
X217229527Y-112407227D01*
X217229527Y-112407227D02*
X217191432Y-112483417D01*
X217191432Y-112483417D02*
X217153337Y-112521513D01*
X217153337Y-112521513D02*
X217077146Y-112559608D01*
X217077146Y-112559608D02*
X217000956Y-112559608D01*
X217000956Y-112559608D02*
X216924765Y-112521513D01*
X216924765Y-112521513D02*
X216886670Y-112483417D01*
X216886670Y-112483417D02*
X216848575Y-112407227D01*
X216848575Y-112407227D02*
X216810479Y-112254846D01*
X216810479Y-112254846D02*
X216810479Y-112064370D01*
X216810479Y-112064370D02*
X216848575Y-111911989D01*
X216848575Y-111911989D02*
X216886670Y-111835798D01*
X216886670Y-111835798D02*
X216924765Y-111797703D01*
X216924765Y-111797703D02*
X217000956Y-111759608D01*
X217534289Y-111759608D02*
X218067623Y-111759608D01*
X218067623Y-111759608D02*
X217724765Y-112559608D01*
X206448574Y-115099607D02*
X206448574Y-114299607D01*
X206448574Y-114299607D02*
X206753336Y-114299607D01*
X206753336Y-114299607D02*
X206829526Y-114337702D01*
X206829526Y-114337702D02*
X206867621Y-114375797D01*
X206867621Y-114375797D02*
X206905717Y-114451988D01*
X206905717Y-114451988D02*
X206905717Y-114566273D01*
X206905717Y-114566273D02*
X206867621Y-114642464D01*
X206867621Y-114642464D02*
X206829526Y-114680559D01*
X206829526Y-114680559D02*
X206753336Y-114718654D01*
X206753336Y-114718654D02*
X206448574Y-114718654D01*
X207667621Y-115099607D02*
X207210478Y-115099607D01*
X207439050Y-115099607D02*
X207439050Y-114299607D01*
X207439050Y-114299607D02*
X207362859Y-114413892D01*
X207362859Y-114413892D02*
X207286669Y-114490083D01*
X207286669Y-114490083D02*
X207210478Y-114528178D01*
X208353336Y-114299607D02*
X208200955Y-114299607D01*
X208200955Y-114299607D02*
X208124764Y-114337702D01*
X208124764Y-114337702D02*
X208086669Y-114375797D01*
X208086669Y-114375797D02*
X208010479Y-114490083D01*
X208010479Y-114490083D02*
X207972383Y-114642464D01*
X207972383Y-114642464D02*
X207972383Y-114947226D01*
X207972383Y-114947226D02*
X208010479Y-115023416D01*
X208010479Y-115023416D02*
X208048574Y-115061512D01*
X208048574Y-115061512D02*
X208124764Y-115099607D01*
X208124764Y-115099607D02*
X208277145Y-115099607D01*
X208277145Y-115099607D02*
X208353336Y-115061512D01*
X208353336Y-115061512D02*
X208391431Y-115023416D01*
X208391431Y-115023416D02*
X208429526Y-114947226D01*
X208429526Y-114947226D02*
X208429526Y-114756750D01*
X208429526Y-114756750D02*
X208391431Y-114680559D01*
X208391431Y-114680559D02*
X208353336Y-114642464D01*
X208353336Y-114642464D02*
X208277145Y-114604369D01*
X208277145Y-114604369D02*
X208124764Y-114604369D01*
X208124764Y-114604369D02*
X208048574Y-114642464D01*
X208048574Y-114642464D02*
X208010479Y-114680559D01*
X208010479Y-114680559D02*
X207972383Y-114756750D01*
X216048576Y-102399607D02*
X216048576Y-101599607D01*
X216048576Y-101599607D02*
X216353338Y-101599607D01*
X216353338Y-101599607D02*
X216429528Y-101637702D01*
X216429528Y-101637702D02*
X216467623Y-101675797D01*
X216467623Y-101675797D02*
X216505719Y-101751988D01*
X216505719Y-101751988D02*
X216505719Y-101866273D01*
X216505719Y-101866273D02*
X216467623Y-101942464D01*
X216467623Y-101942464D02*
X216429528Y-101980559D01*
X216429528Y-101980559D02*
X216353338Y-102018654D01*
X216353338Y-102018654D02*
X216048576Y-102018654D01*
X217000957Y-101599607D02*
X217077147Y-101599607D01*
X217077147Y-101599607D02*
X217153338Y-101637702D01*
X217153338Y-101637702D02*
X217191433Y-101675797D01*
X217191433Y-101675797D02*
X217229528Y-101751988D01*
X217229528Y-101751988D02*
X217267623Y-101904369D01*
X217267623Y-101904369D02*
X217267623Y-102094845D01*
X217267623Y-102094845D02*
X217229528Y-102247226D01*
X217229528Y-102247226D02*
X217191433Y-102323416D01*
X217191433Y-102323416D02*
X217153338Y-102361512D01*
X217153338Y-102361512D02*
X217077147Y-102399607D01*
X217077147Y-102399607D02*
X217000957Y-102399607D01*
X217000957Y-102399607D02*
X216924766Y-102361512D01*
X216924766Y-102361512D02*
X216886671Y-102323416D01*
X216886671Y-102323416D02*
X216848576Y-102247226D01*
X216848576Y-102247226D02*
X216810480Y-102094845D01*
X216810480Y-102094845D02*
X216810480Y-101904369D01*
X216810480Y-101904369D02*
X216848576Y-101751988D01*
X216848576Y-101751988D02*
X216886671Y-101675797D01*
X216886671Y-101675797D02*
X216924766Y-101637702D01*
X216924766Y-101637702D02*
X217000957Y-101599607D01*
X217534290Y-101599607D02*
X218029528Y-101599607D01*
X218029528Y-101599607D02*
X217762862Y-101904369D01*
X217762862Y-101904369D02*
X217877147Y-101904369D01*
X217877147Y-101904369D02*
X217953338Y-101942464D01*
X217953338Y-101942464D02*
X217991433Y-101980559D01*
X217991433Y-101980559D02*
X218029528Y-102056750D01*
X218029528Y-102056750D02*
X218029528Y-102247226D01*
X218029528Y-102247226D02*
X217991433Y-102323416D01*
X217991433Y-102323416D02*
X217953338Y-102361512D01*
X217953338Y-102361512D02*
X217877147Y-102399607D01*
X217877147Y-102399607D02*
X217648576Y-102399607D01*
X217648576Y-102399607D02*
X217572385Y-102361512D01*
X217572385Y-102361512D02*
X217534290Y-102323416D01*
X216048576Y-92239609D02*
X216048576Y-91439609D01*
X216048576Y-91439609D02*
X216353338Y-91439609D01*
X216353338Y-91439609D02*
X216429528Y-91477704D01*
X216429528Y-91477704D02*
X216467623Y-91515799D01*
X216467623Y-91515799D02*
X216505719Y-91591990D01*
X216505719Y-91591990D02*
X216505719Y-91706275D01*
X216505719Y-91706275D02*
X216467623Y-91782466D01*
X216467623Y-91782466D02*
X216429528Y-91820561D01*
X216429528Y-91820561D02*
X216353338Y-91858656D01*
X216353338Y-91858656D02*
X216048576Y-91858656D01*
X217000957Y-91439609D02*
X217077147Y-91439609D01*
X217077147Y-91439609D02*
X217153338Y-91477704D01*
X217153338Y-91477704D02*
X217191433Y-91515799D01*
X217191433Y-91515799D02*
X217229528Y-91591990D01*
X217229528Y-91591990D02*
X217267623Y-91744371D01*
X217267623Y-91744371D02*
X217267623Y-91934847D01*
X217267623Y-91934847D02*
X217229528Y-92087228D01*
X217229528Y-92087228D02*
X217191433Y-92163418D01*
X217191433Y-92163418D02*
X217153338Y-92201514D01*
X217153338Y-92201514D02*
X217077147Y-92239609D01*
X217077147Y-92239609D02*
X217000957Y-92239609D01*
X217000957Y-92239609D02*
X216924766Y-92201514D01*
X216924766Y-92201514D02*
X216886671Y-92163418D01*
X216886671Y-92163418D02*
X216848576Y-92087228D01*
X216848576Y-92087228D02*
X216810480Y-91934847D01*
X216810480Y-91934847D02*
X216810480Y-91744371D01*
X216810480Y-91744371D02*
X216848576Y-91591990D01*
X216848576Y-91591990D02*
X216886671Y-91515799D01*
X216886671Y-91515799D02*
X216924766Y-91477704D01*
X216924766Y-91477704D02*
X217000957Y-91439609D01*
X217762862Y-91439609D02*
X217839052Y-91439609D01*
X217839052Y-91439609D02*
X217915243Y-91477704D01*
X217915243Y-91477704D02*
X217953338Y-91515799D01*
X217953338Y-91515799D02*
X217991433Y-91591990D01*
X217991433Y-91591990D02*
X218029528Y-91744371D01*
X218029528Y-91744371D02*
X218029528Y-91934847D01*
X218029528Y-91934847D02*
X217991433Y-92087228D01*
X217991433Y-92087228D02*
X217953338Y-92163418D01*
X217953338Y-92163418D02*
X217915243Y-92201514D01*
X217915243Y-92201514D02*
X217839052Y-92239609D01*
X217839052Y-92239609D02*
X217762862Y-92239609D01*
X217762862Y-92239609D02*
X217686671Y-92201514D01*
X217686671Y-92201514D02*
X217648576Y-92163418D01*
X217648576Y-92163418D02*
X217610481Y-92087228D01*
X217610481Y-92087228D02*
X217572385Y-91934847D01*
X217572385Y-91934847D02*
X217572385Y-91744371D01*
X217572385Y-91744371D02*
X217610481Y-91591990D01*
X217610481Y-91591990D02*
X217648576Y-91515799D01*
X217648576Y-91515799D02*
X217686671Y-91477704D01*
X217686671Y-91477704D02*
X217762862Y-91439609D01*
X206448575Y-112559608D02*
X206448575Y-111759608D01*
X206448575Y-111759608D02*
X206753337Y-111759608D01*
X206753337Y-111759608D02*
X206829527Y-111797703D01*
X206829527Y-111797703D02*
X206867622Y-111835798D01*
X206867622Y-111835798D02*
X206905718Y-111911989D01*
X206905718Y-111911989D02*
X206905718Y-112026274D01*
X206905718Y-112026274D02*
X206867622Y-112102465D01*
X206867622Y-112102465D02*
X206829527Y-112140560D01*
X206829527Y-112140560D02*
X206753337Y-112178655D01*
X206753337Y-112178655D02*
X206448575Y-112178655D01*
X207667622Y-112559608D02*
X207210479Y-112559608D01*
X207439051Y-112559608D02*
X207439051Y-111759608D01*
X207439051Y-111759608D02*
X207362860Y-111873893D01*
X207362860Y-111873893D02*
X207286670Y-111950084D01*
X207286670Y-111950084D02*
X207210479Y-111988179D01*
X208353337Y-112026274D02*
X208353337Y-112559608D01*
X208162861Y-111721513D02*
X207972384Y-112292941D01*
X207972384Y-112292941D02*
X208467623Y-112292941D01*
X216048576Y-115099608D02*
X216048576Y-114299608D01*
X216048576Y-114299608D02*
X216353338Y-114299608D01*
X216353338Y-114299608D02*
X216429528Y-114337703D01*
X216429528Y-114337703D02*
X216467623Y-114375798D01*
X216467623Y-114375798D02*
X216505719Y-114451989D01*
X216505719Y-114451989D02*
X216505719Y-114566274D01*
X216505719Y-114566274D02*
X216467623Y-114642465D01*
X216467623Y-114642465D02*
X216429528Y-114680560D01*
X216429528Y-114680560D02*
X216353338Y-114718655D01*
X216353338Y-114718655D02*
X216048576Y-114718655D01*
X217000957Y-114299608D02*
X217077147Y-114299608D01*
X217077147Y-114299608D02*
X217153338Y-114337703D01*
X217153338Y-114337703D02*
X217191433Y-114375798D01*
X217191433Y-114375798D02*
X217229528Y-114451989D01*
X217229528Y-114451989D02*
X217267623Y-114604370D01*
X217267623Y-114604370D02*
X217267623Y-114794846D01*
X217267623Y-114794846D02*
X217229528Y-114947227D01*
X217229528Y-114947227D02*
X217191433Y-115023417D01*
X217191433Y-115023417D02*
X217153338Y-115061513D01*
X217153338Y-115061513D02*
X217077147Y-115099608D01*
X217077147Y-115099608D02*
X217000957Y-115099608D01*
X217000957Y-115099608D02*
X216924766Y-115061513D01*
X216924766Y-115061513D02*
X216886671Y-115023417D01*
X216886671Y-115023417D02*
X216848576Y-114947227D01*
X216848576Y-114947227D02*
X216810480Y-114794846D01*
X216810480Y-114794846D02*
X216810480Y-114604370D01*
X216810480Y-114604370D02*
X216848576Y-114451989D01*
X216848576Y-114451989D02*
X216886671Y-114375798D01*
X216886671Y-114375798D02*
X216924766Y-114337703D01*
X216924766Y-114337703D02*
X217000957Y-114299608D01*
X217724766Y-114642465D02*
X217648576Y-114604370D01*
X217648576Y-114604370D02*
X217610481Y-114566274D01*
X217610481Y-114566274D02*
X217572385Y-114490084D01*
X217572385Y-114490084D02*
X217572385Y-114451989D01*
X217572385Y-114451989D02*
X217610481Y-114375798D01*
X217610481Y-114375798D02*
X217648576Y-114337703D01*
X217648576Y-114337703D02*
X217724766Y-114299608D01*
X217724766Y-114299608D02*
X217877147Y-114299608D01*
X217877147Y-114299608D02*
X217953338Y-114337703D01*
X217953338Y-114337703D02*
X217991433Y-114375798D01*
X217991433Y-114375798D02*
X218029528Y-114451989D01*
X218029528Y-114451989D02*
X218029528Y-114490084D01*
X218029528Y-114490084D02*
X217991433Y-114566274D01*
X217991433Y-114566274D02*
X217953338Y-114604370D01*
X217953338Y-114604370D02*
X217877147Y-114642465D01*
X217877147Y-114642465D02*
X217724766Y-114642465D01*
X217724766Y-114642465D02*
X217648576Y-114680560D01*
X217648576Y-114680560D02*
X217610481Y-114718655D01*
X217610481Y-114718655D02*
X217572385Y-114794846D01*
X217572385Y-114794846D02*
X217572385Y-114947227D01*
X217572385Y-114947227D02*
X217610481Y-115023417D01*
X217610481Y-115023417D02*
X217648576Y-115061513D01*
X217648576Y-115061513D02*
X217724766Y-115099608D01*
X217724766Y-115099608D02*
X217877147Y-115099608D01*
X217877147Y-115099608D02*
X217953338Y-115061513D01*
X217953338Y-115061513D02*
X217991433Y-115023417D01*
X217991433Y-115023417D02*
X218029528Y-114947227D01*
X218029528Y-114947227D02*
X218029528Y-114794846D01*
X218029528Y-114794846D02*
X217991433Y-114718655D01*
X217991433Y-114718655D02*
X217953338Y-114680560D01*
X217953338Y-114680560D02*
X217877147Y-114642465D01*
X206810479Y-91477703D02*
X206734289Y-91439608D01*
X206734289Y-91439608D02*
X206620003Y-91439608D01*
X206620003Y-91439608D02*
X206505717Y-91477703D01*
X206505717Y-91477703D02*
X206429527Y-91553893D01*
X206429527Y-91553893D02*
X206391432Y-91630084D01*
X206391432Y-91630084D02*
X206353336Y-91782465D01*
X206353336Y-91782465D02*
X206353336Y-91896751D01*
X206353336Y-91896751D02*
X206391432Y-92049132D01*
X206391432Y-92049132D02*
X206429527Y-92125322D01*
X206429527Y-92125322D02*
X206505717Y-92201513D01*
X206505717Y-92201513D02*
X206620003Y-92239608D01*
X206620003Y-92239608D02*
X206696194Y-92239608D01*
X206696194Y-92239608D02*
X206810479Y-92201513D01*
X206810479Y-92201513D02*
X206848575Y-92163417D01*
X206848575Y-92163417D02*
X206848575Y-91896751D01*
X206848575Y-91896751D02*
X206696194Y-91896751D01*
X207191432Y-92239608D02*
X207191432Y-91439608D01*
X207191432Y-91439608D02*
X207648575Y-92239608D01*
X207648575Y-92239608D02*
X207648575Y-91439608D01*
X208029527Y-92239608D02*
X208029527Y-91439608D01*
X208029527Y-91439608D02*
X208220003Y-91439608D01*
X208220003Y-91439608D02*
X208334289Y-91477703D01*
X208334289Y-91477703D02*
X208410479Y-91553893D01*
X208410479Y-91553893D02*
X208448574Y-91630084D01*
X208448574Y-91630084D02*
X208486670Y-91782465D01*
X208486670Y-91782465D02*
X208486670Y-91896751D01*
X208486670Y-91896751D02*
X208448574Y-92049132D01*
X208448574Y-92049132D02*
X208410479Y-92125322D01*
X208410479Y-92125322D02*
X208334289Y-92201513D01*
X208334289Y-92201513D02*
X208220003Y-92239608D01*
X208220003Y-92239608D02*
X208029527Y-92239608D01*
X206448574Y-104939609D02*
X206448574Y-104139609D01*
X206448574Y-104139609D02*
X206753336Y-104139609D01*
X206753336Y-104139609D02*
X206829526Y-104177704D01*
X206829526Y-104177704D02*
X206867621Y-104215799D01*
X206867621Y-104215799D02*
X206905717Y-104291990D01*
X206905717Y-104291990D02*
X206905717Y-104406275D01*
X206905717Y-104406275D02*
X206867621Y-104482466D01*
X206867621Y-104482466D02*
X206829526Y-104520561D01*
X206829526Y-104520561D02*
X206753336Y-104558656D01*
X206753336Y-104558656D02*
X206448574Y-104558656D01*
X207667621Y-104939609D02*
X207210478Y-104939609D01*
X207439050Y-104939609D02*
X207439050Y-104139609D01*
X207439050Y-104139609D02*
X207362859Y-104253894D01*
X207362859Y-104253894D02*
X207286669Y-104330085D01*
X207286669Y-104330085D02*
X207210478Y-104368180D01*
X208048574Y-104939609D02*
X208200955Y-104939609D01*
X208200955Y-104939609D02*
X208277145Y-104901514D01*
X208277145Y-104901514D02*
X208315241Y-104863418D01*
X208315241Y-104863418D02*
X208391431Y-104749133D01*
X208391431Y-104749133D02*
X208429526Y-104596752D01*
X208429526Y-104596752D02*
X208429526Y-104291990D01*
X208429526Y-104291990D02*
X208391431Y-104215799D01*
X208391431Y-104215799D02*
X208353336Y-104177704D01*
X208353336Y-104177704D02*
X208277145Y-104139609D01*
X208277145Y-104139609D02*
X208124764Y-104139609D01*
X208124764Y-104139609D02*
X208048574Y-104177704D01*
X208048574Y-104177704D02*
X208010479Y-104215799D01*
X208010479Y-104215799D02*
X207972383Y-104291990D01*
X207972383Y-104291990D02*
X207972383Y-104482466D01*
X207972383Y-104482466D02*
X208010479Y-104558656D01*
X208010479Y-104558656D02*
X208048574Y-104596752D01*
X208048574Y-104596752D02*
X208124764Y-104634847D01*
X208124764Y-104634847D02*
X208277145Y-104634847D01*
X208277145Y-104634847D02*
X208353336Y-104596752D01*
X208353336Y-104596752D02*
X208391431Y-104558656D01*
X208391431Y-104558656D02*
X208429526Y-104482466D01*
X206448575Y-99859610D02*
X206448575Y-99059610D01*
X206448575Y-99059610D02*
X206753337Y-99059610D01*
X206753337Y-99059610D02*
X206829527Y-99097705D01*
X206829527Y-99097705D02*
X206867622Y-99135800D01*
X206867622Y-99135800D02*
X206905718Y-99211991D01*
X206905718Y-99211991D02*
X206905718Y-99326276D01*
X206905718Y-99326276D02*
X206867622Y-99402467D01*
X206867622Y-99402467D02*
X206829527Y-99440562D01*
X206829527Y-99440562D02*
X206753337Y-99478657D01*
X206753337Y-99478657D02*
X206448575Y-99478657D01*
X207210479Y-99135800D02*
X207248575Y-99097705D01*
X207248575Y-99097705D02*
X207324765Y-99059610D01*
X207324765Y-99059610D02*
X207515241Y-99059610D01*
X207515241Y-99059610D02*
X207591432Y-99097705D01*
X207591432Y-99097705D02*
X207629527Y-99135800D01*
X207629527Y-99135800D02*
X207667622Y-99211991D01*
X207667622Y-99211991D02*
X207667622Y-99288181D01*
X207667622Y-99288181D02*
X207629527Y-99402467D01*
X207629527Y-99402467D02*
X207172384Y-99859610D01*
X207172384Y-99859610D02*
X207667622Y-99859610D01*
X208429527Y-99859610D02*
X207972384Y-99859610D01*
X208200956Y-99859610D02*
X208200956Y-99059610D01*
X208200956Y-99059610D02*
X208124765Y-99173895D01*
X208124765Y-99173895D02*
X208048575Y-99250086D01*
X208048575Y-99250086D02*
X207972384Y-99288181D01*
%TO.C,B1*%
X194470001Y-91075777D02*
X194470000Y-93575771D01*
X195970004Y-89575773D02*
X194470001Y-91075777D01*
X195970004Y-95075774D02*
X194470000Y-93575771D01*
X198469998Y-89575774D02*
X195970004Y-89575773D01*
X198469998Y-89575774D02*
X199970002Y-91075777D01*
X198469998Y-95075775D02*
X195970004Y-95075774D01*
X198469998Y-95075775D02*
X199970001Y-93575771D01*
X199970002Y-91075777D02*
X199970001Y-93575771D01*
D11*
%TO.C,D4*%
X57997273Y-133214979D02*
X58373150Y-133351788D01*
X58373150Y-133351788D02*
X58185040Y-133868615D01*
X58373150Y-133351788D02*
X58561258Y-132834956D01*
X58373150Y-133351788D02*
X59073773Y-133181122D01*
X58800157Y-133932876D02*
X58373150Y-133351788D01*
X58936968Y-133556998D02*
X59406811Y-133728009D01*
X59073773Y-133181122D02*
X58800157Y-133932876D01*
%TO.C,D29*%
X328579348Y-144968867D02*
X328955225Y-144832058D01*
X328955225Y-144832058D02*
X328767115Y-144315230D01*
X328955225Y-144832058D02*
X329143335Y-145348889D01*
X328955225Y-144832058D02*
X329382232Y-144250970D01*
X329382232Y-144250970D02*
X329655848Y-145002724D01*
X329519042Y-144626847D02*
X329988886Y-144455837D01*
X329655848Y-145002724D02*
X328955225Y-144832058D01*
%TO.C,D26*%
X344525846Y-133083038D02*
X344901723Y-132946229D01*
X344901723Y-132946229D02*
X344713613Y-132429401D01*
X344901723Y-132946229D02*
X345089833Y-133463060D01*
X344901723Y-132946229D02*
X345328730Y-132365141D01*
X345328730Y-132365141D02*
X345602346Y-133116895D01*
X345465540Y-132741018D02*
X345935384Y-132570008D01*
X345602346Y-133116895D02*
X344901723Y-132946229D01*
%TO.C,D27*%
X338010361Y-115181891D02*
X338386238Y-115045082D01*
X338386238Y-115045082D02*
X338198128Y-114528254D01*
X338386238Y-115045082D02*
X338574348Y-115561913D01*
X338386238Y-115045082D02*
X338813245Y-114463994D01*
X338813245Y-114463994D02*
X339086861Y-115215748D01*
X338950055Y-114839871D02*
X339419899Y-114668861D01*
X339086861Y-115215748D02*
X338386238Y-115045082D01*
%TO.C,D12*%
X107482084Y-108653544D02*
X107857961Y-108790353D01*
X107857961Y-108790353D02*
X107669851Y-109307180D01*
X107857961Y-108790353D02*
X108046069Y-108273521D01*
X107857961Y-108790353D02*
X108558584Y-108619687D01*
X108284968Y-109371441D02*
X107857961Y-108790353D01*
X108421779Y-108995563D02*
X108891622Y-109166574D01*
X108558584Y-108619687D02*
X108284968Y-109371441D01*
%TO.C,D17*%
X109026469Y-186249023D02*
X109283584Y-186555439D01*
X109283584Y-186555439D02*
X108862261Y-186908974D01*
X109283584Y-186555439D02*
X109704909Y-186201910D01*
X109283584Y-186555439D02*
X109975676Y-186757954D01*
X109362839Y-187272182D02*
X109283584Y-186555439D01*
X109669258Y-187015069D02*
X109990651Y-187398089D01*
X109975676Y-186757954D02*
X109362839Y-187272182D01*
%TO.C,D28*%
X331494874Y-97280753D02*
X331870751Y-97143944D01*
X331870751Y-97143944D02*
X331682641Y-96627116D01*
X331870751Y-97143944D02*
X332058861Y-97660775D01*
X331870751Y-97143944D02*
X332297758Y-96562856D01*
X332297758Y-96562856D02*
X332571374Y-97314610D01*
X332434568Y-96938733D02*
X332904412Y-96767723D01*
X332571374Y-97314610D02*
X331870751Y-97143944D01*
%TO.C,D34*%
X298950336Y-119262297D02*
X299326213Y-119125488D01*
X299326213Y-119125488D02*
X299138103Y-118608660D01*
X299326213Y-119125488D02*
X299514323Y-119642319D01*
X299326213Y-119125488D02*
X299753220Y-118544400D01*
X299753220Y-118544400D02*
X300026836Y-119296154D01*
X299890030Y-118920277D02*
X300359874Y-118749267D01*
X300026836Y-119296154D02*
X299326213Y-119125488D01*
%TO.C,D35*%
X329998642Y-172859176D02*
X330326301Y-172629751D01*
X330326301Y-172629751D02*
X330010838Y-172179213D01*
X330326301Y-172629751D02*
X330588364Y-171957938D01*
X330326301Y-172629751D02*
X330641770Y-173080278D01*
X330588364Y-171957938D02*
X331047226Y-172613260D01*
X330817796Y-172285599D02*
X331227370Y-171998812D01*
X331047226Y-172613260D02*
X330326301Y-172629751D01*
%TO.C,D20*%
X387495164Y-139743337D02*
X387871041Y-139606528D01*
X387871041Y-139606528D02*
X387682931Y-139089700D01*
X387871041Y-139606528D02*
X388059151Y-140123359D01*
X387871041Y-139606528D02*
X388298048Y-139025440D01*
X388298048Y-139025440D02*
X388571664Y-139777194D01*
X388434858Y-139401317D02*
X388904702Y-139230307D01*
X388571664Y-139777194D02*
X387871041Y-139606528D01*
%TO.C,D14*%
X117564648Y-136650409D02*
X117940525Y-136787218D01*
X117940525Y-136787218D02*
X117752415Y-137304045D01*
X117940525Y-136787218D02*
X118128633Y-136270386D01*
X117940525Y-136787218D02*
X118641148Y-136616552D01*
X118367532Y-137368306D02*
X117940525Y-136787218D01*
X118504343Y-136992428D02*
X118974186Y-137163439D01*
X118641148Y-136616552D02*
X118367532Y-137368306D01*
%TO.C,D37*%
X252780619Y-178396927D02*
X253087035Y-178139812D01*
X253087035Y-178139812D02*
X252733506Y-177718487D01*
X253087035Y-178139812D02*
X253289550Y-177447720D01*
X253087035Y-178139812D02*
X253440570Y-178561135D01*
X253289550Y-177447720D02*
X253803778Y-178060557D01*
X253546665Y-177754138D02*
X253929685Y-177432745D01*
X253803778Y-178060557D02*
X253087035Y-178139812D01*
%TO.C,D7*%
X78504612Y-132570017D02*
X78880489Y-132706826D01*
X78880489Y-132706826D02*
X78692379Y-133223653D01*
X78880489Y-132706826D02*
X79068597Y-132189994D01*
X78880489Y-132706826D02*
X79581112Y-132536160D01*
X79307496Y-133287914D02*
X78880489Y-132706826D01*
X79444307Y-132912036D02*
X79914150Y-133083047D01*
X79581112Y-132536160D02*
X79307496Y-133287914D01*
%TO.C,D1*%
X35535295Y-139230301D02*
X35911172Y-139367110D01*
X35911172Y-139367110D02*
X35723062Y-139883937D01*
X35911172Y-139367110D02*
X36099280Y-138850278D01*
X35911172Y-139367110D02*
X36611795Y-139196444D01*
X36338179Y-139948198D02*
X35911172Y-139367110D01*
X36474990Y-139572320D02*
X36944833Y-139743331D01*
X36611795Y-139196444D02*
X36338179Y-139948198D01*
%TO.C,D15*%
X124080130Y-118749266D02*
X124456007Y-118886075D01*
X124456007Y-118886075D02*
X124267897Y-119402902D01*
X124456007Y-118886075D02*
X124644115Y-118369243D01*
X124456007Y-118886075D02*
X125156630Y-118715409D01*
X124883014Y-119467163D02*
X124456007Y-118886075D01*
X125019825Y-119091285D02*
X125489668Y-119262296D01*
X125156630Y-118715409D02*
X124883014Y-119467163D01*
%TO.C,D24*%
X358517704Y-115826865D02*
X358893581Y-115690056D01*
X358893581Y-115690056D02*
X358705471Y-115173228D01*
X358893581Y-115690056D02*
X359081691Y-116206887D01*
X358893581Y-115690056D02*
X359320588Y-115108968D01*
X359320588Y-115108968D02*
X359594204Y-115860722D01*
X359457398Y-115484845D02*
X359927242Y-115313835D01*
X359594204Y-115860722D02*
X358893581Y-115690056D01*
%TO.C,D36*%
X314449348Y-187398087D02*
X314706464Y-187091673D01*
X314706464Y-187091673D02*
X314285140Y-186738136D01*
X314706464Y-187091673D02*
X314785718Y-186374928D01*
X314706464Y-187091673D02*
X315127788Y-187445202D01*
X314785718Y-186374928D02*
X315398555Y-186889156D01*
X315092139Y-186632043D02*
X315413530Y-186249021D01*
X315398555Y-186889156D02*
X314706464Y-187091673D01*
%TO.C,D33*%
X305465815Y-137163435D02*
X305841692Y-137026626D01*
X305841692Y-137026626D02*
X305653582Y-136509798D01*
X305841692Y-137026626D02*
X306029802Y-137543457D01*
X305841692Y-137026626D02*
X306268699Y-136445538D01*
X306268699Y-136445538D02*
X306542315Y-137197292D01*
X306405509Y-136821415D02*
X306875353Y-136650405D01*
X306542315Y-137197292D02*
X305841692Y-137026626D01*
%TO.C,D21*%
X380979682Y-121842189D02*
X381355559Y-121705380D01*
X381355559Y-121705380D02*
X381167449Y-121188552D01*
X381355559Y-121705380D02*
X381543669Y-122222211D01*
X381355559Y-121705380D02*
X381782566Y-121124292D01*
X381782566Y-121124292D02*
X382056182Y-121876046D01*
X381919376Y-121500169D02*
X382389220Y-121329159D01*
X382056182Y-121876046D02*
X381355559Y-121705380D01*
%TO.C,D9*%
X91535587Y-96767725D02*
X91911464Y-96904534D01*
X91911464Y-96904534D02*
X91723354Y-97421361D01*
X91911464Y-96904534D02*
X92099572Y-96387702D01*
X91911464Y-96904534D02*
X92612087Y-96733868D01*
X92338471Y-97485622D02*
X91911464Y-96904534D01*
X92475282Y-97109744D02*
X92945125Y-97280755D01*
X92612087Y-96733868D02*
X92338471Y-97485622D01*
%TO.C,D19*%
X197319541Y-190614064D02*
X197713464Y-190683524D01*
X197713464Y-190683524D02*
X197617957Y-191225167D01*
X197713464Y-190683524D02*
X197808970Y-190141880D01*
X197713464Y-190683524D02*
X198373808Y-190393789D01*
X198234892Y-191181633D02*
X197713464Y-190683524D01*
X198304351Y-190787710D02*
X198796753Y-190874536D01*
X198373808Y-190393789D02*
X198234892Y-191181633D01*
%TO.C,D13*%
X111049162Y-154551551D02*
X111425039Y-154688360D01*
X111425039Y-154688360D02*
X111236929Y-155205187D01*
X111425039Y-154688360D02*
X111613147Y-154171528D01*
X111425039Y-154688360D02*
X112125662Y-154517694D01*
X111852046Y-155269448D02*
X111425039Y-154688360D01*
X111988857Y-154893570D02*
X112458700Y-155064581D01*
X112125662Y-154517694D02*
X111852046Y-155269448D01*
%TO.C,D30*%
X322063864Y-127067725D02*
X322439741Y-126930916D01*
X322439741Y-126930916D02*
X322251631Y-126414088D01*
X322439741Y-126930916D02*
X322627851Y-127447747D01*
X322439741Y-126930916D02*
X322866748Y-126349828D01*
X322866748Y-126349828D02*
X323140364Y-127101582D01*
X323003558Y-126725705D02*
X323473402Y-126554695D01*
X323140364Y-127101582D02*
X322439741Y-126930916D01*
%TO.C,D18*%
X170510321Y-177432753D02*
X170816735Y-177689869D01*
X170816735Y-177689869D02*
X170463206Y-178111193D01*
X170816735Y-177689869D02*
X171170272Y-177268545D01*
X170816735Y-177689869D02*
X171533480Y-177769123D01*
X171019252Y-178381960D02*
X170816735Y-177689869D01*
X171276365Y-178075544D02*
X171659387Y-178396935D01*
X171533480Y-177769123D02*
X171019252Y-178381960D01*
D10*
%TO.C,MCU1*%
X203330004Y-85527313D02*
X203330006Y-118547313D01*
X203330006Y-118547313D02*
X221110003Y-118547313D01*
X205870005Y-88067312D02*
X203330005Y-88067313D01*
X205870005Y-88067312D02*
X205870005Y-90607313D01*
X205870005Y-90607313D02*
X203330004Y-90607312D01*
X221110003Y-118547313D02*
X221110004Y-85527313D01*
X221110004Y-85527313D02*
X203330004Y-85527313D01*
D11*
%TO.C,D11*%
X100966604Y-126554694D02*
X101342481Y-126691503D01*
X101342481Y-126691503D02*
X101154371Y-127208330D01*
X101342481Y-126691503D02*
X101530589Y-126174671D01*
X101342481Y-126691503D02*
X102043104Y-126520837D01*
X101769488Y-127272591D02*
X101342481Y-126691503D01*
X101906299Y-126896713D02*
X102376142Y-127067724D01*
X102043104Y-126520837D02*
X101769488Y-127272591D01*
%TO.C,D23*%
X365033184Y-133728018D02*
X365409061Y-133591209D01*
X365409061Y-133591209D02*
X365220951Y-133074381D01*
X365409061Y-133591209D02*
X365597171Y-134108040D01*
X365409061Y-133591209D02*
X365836068Y-133010121D01*
X365836068Y-133010121D02*
X366109684Y-133761875D01*
X365972878Y-133385998D02*
X366442722Y-133214988D01*
X366109684Y-133761875D02*
X365409061Y-133591209D01*
%TO.C,D3*%
X48566262Y-103428015D02*
X48942139Y-103564824D01*
X48942139Y-103564824D02*
X48754029Y-104081651D01*
X48942139Y-103564824D02*
X49130247Y-103047992D01*
X48942139Y-103564824D02*
X49642762Y-103394158D01*
X49369146Y-104145912D02*
X48942139Y-103564824D01*
X49505957Y-103770034D02*
X49975800Y-103941045D01*
X49642762Y-103394158D02*
X49369146Y-104145912D01*
%TO.C,D22*%
X374464198Y-103941041D02*
X374840075Y-103804232D01*
X374840075Y-103804232D02*
X374651965Y-103287404D01*
X374840075Y-103804232D02*
X375028185Y-104321063D01*
X374840075Y-103804232D02*
X375267082Y-103223144D01*
X375267082Y-103223144D02*
X375540698Y-103974898D01*
X375403892Y-103599021D02*
X375873736Y-103428011D01*
X375540698Y-103974898D02*
X374840075Y-103804232D01*
%TO.C,D5*%
X64512762Y-115313836D02*
X64888639Y-115450645D01*
X64888639Y-115450645D02*
X64700529Y-115967472D01*
X64888639Y-115450645D02*
X65076747Y-114933813D01*
X64888639Y-115450645D02*
X65589262Y-115279979D01*
X65315646Y-116031733D02*
X64888639Y-115450645D01*
X65452457Y-115655855D02*
X65922300Y-115826866D01*
X65589262Y-115279979D02*
X65315646Y-116031733D01*
%TO.C,D31*%
X315548377Y-109166577D02*
X315924254Y-109029768D01*
X315924254Y-109029768D02*
X315736144Y-108512940D01*
X315924254Y-109029768D02*
X316112364Y-109546599D01*
X315924254Y-109029768D02*
X316351261Y-108448680D01*
X316351261Y-108448680D02*
X316624877Y-109200434D01*
X316488071Y-108824557D02*
X316957915Y-108653547D01*
X316624877Y-109200434D02*
X315924254Y-109029768D01*
%TO.C,D8*%
X85020100Y-114668865D02*
X85395977Y-114805674D01*
X85395977Y-114805674D02*
X85207867Y-115322501D01*
X85395977Y-114805674D02*
X85584085Y-114288842D01*
X85395977Y-114805674D02*
X86096600Y-114635008D01*
X85822984Y-115386762D02*
X85395977Y-114805674D01*
X85959795Y-115010884D02*
X86429638Y-115181895D01*
X86096600Y-114635008D02*
X85822984Y-115386762D01*
%TO.C,D16*%
X93212638Y-171998814D02*
X93540297Y-172228240D01*
X93540297Y-172228240D02*
X93224833Y-172678778D01*
X93540297Y-172228240D02*
X93855766Y-171777712D01*
X93540297Y-172228240D02*
X94261223Y-172244730D01*
X93802360Y-172900052D02*
X93540297Y-172228240D01*
X94031792Y-172572391D02*
X94441366Y-172859178D01*
X94261223Y-172244730D02*
X93802360Y-172900052D01*
%TO.C,D32*%
X311981293Y-155064583D02*
X312357170Y-154927774D01*
X312357170Y-154927774D02*
X312169060Y-154410946D01*
X312357170Y-154927774D02*
X312545280Y-155444605D01*
X312357170Y-154927774D02*
X312784177Y-154346686D01*
X312784177Y-154346686D02*
X313057793Y-155098440D01*
X312920987Y-154722563D02*
X313390831Y-154551553D01*
X313057793Y-155098440D02*
X312357170Y-154927774D01*
%TO.C,D38*%
X225643242Y-190874539D02*
X226037165Y-190805080D01*
X226037165Y-190805080D02*
X225941657Y-190263436D01*
X226037165Y-190805080D02*
X226132671Y-191346721D01*
X226037165Y-190805080D02*
X226558591Y-190306969D01*
X226558591Y-190306969D02*
X226697509Y-191094814D01*
X226628051Y-190700889D02*
X227120454Y-190614067D01*
X226697509Y-191094814D02*
X226037165Y-190805080D01*
%TO.C,D10*%
X94451123Y-144455839D02*
X94827000Y-144592648D01*
X94827000Y-144592648D02*
X94638890Y-145109475D01*
X94827000Y-144592648D02*
X95015108Y-144075816D01*
X94827000Y-144592648D02*
X95527623Y-144421982D01*
X95254007Y-145173736D02*
X94827000Y-144592648D01*
X95390818Y-144797858D02*
X95860661Y-144968869D01*
X95527623Y-144421982D02*
X95254007Y-145173736D01*
%TO.C,D2*%
X42050777Y-121329157D02*
X42426654Y-121465966D01*
X42426654Y-121465966D02*
X42238544Y-121982793D01*
X42426654Y-121465966D02*
X42614762Y-120949134D01*
X42426654Y-121465966D02*
X43127277Y-121295300D01*
X42853661Y-122047054D02*
X42426654Y-121465966D01*
X42990472Y-121671176D02*
X43460315Y-121842187D01*
X43127277Y-121295300D02*
X42853661Y-122047054D01*
%TO.C,D25*%
X352002217Y-97925724D02*
X352378094Y-97788915D01*
X352378094Y-97788915D02*
X352189984Y-97272087D01*
X352378094Y-97788915D02*
X352566204Y-98305746D01*
X352378094Y-97788915D02*
X352805101Y-97207827D01*
X352805101Y-97207827D02*
X353078717Y-97959581D01*
X352941911Y-97583704D02*
X353411755Y-97412694D01*
X353078717Y-97959581D02*
X352378094Y-97788915D01*
%TO.C,D6*%
X71028246Y-97412699D02*
X71404123Y-97549508D01*
X71404123Y-97549508D02*
X71216013Y-98066335D01*
X71404123Y-97549508D02*
X71592231Y-97032676D01*
X71404123Y-97549508D02*
X72104746Y-97378842D01*
X71831130Y-98130596D02*
X71404123Y-97549508D01*
X71967941Y-97754718D02*
X72437784Y-97925729D01*
X72104746Y-97378842D02*
X71831130Y-98130596D01*
%TD*%
D12*
%TO.C,MCU1*%
X204600004Y-89337315D03*
D13*
X204600005Y-91877314D03*
X204600004Y-94417311D03*
X204600003Y-96957312D03*
X204600005Y-99497312D03*
X204600004Y-102037313D03*
X204600004Y-104577313D03*
X204600005Y-107117314D03*
X204600004Y-109657316D03*
X204600004Y-112197315D03*
X204600006Y-114737313D03*
X204600004Y-117277309D03*
X219840004Y-89337317D03*
X219840002Y-91877313D03*
X219840004Y-94417311D03*
X219840004Y-96957310D03*
X219840003Y-99497312D03*
X219840004Y-102037313D03*
X219840004Y-104577313D03*
X219840003Y-107117314D03*
X219840005Y-109657314D03*
X219840004Y-112197315D03*
X219840003Y-114737312D03*
X219840004Y-117277311D03*
%TD*%
M02*
