%TF.GenerationSoftware,KiCad,Pcbnew,8.0.1*%
%TF.CreationDate,2024-05-01T11:59:16+09:00*%
%TF.ProjectId,pcb_plate,7063625f-706c-4617-9465-2e6b69636164,v1.0.0*%
%TF.SameCoordinates,Original*%
%TF.FileFunction,Copper,L2,Bot*%
%TF.FilePolarity,Positive*%
%FSLAX46Y46*%
G04 Gerber Fmt 4.6, Leading zero omitted, Abs format (unit mm)*
G04 Created by KiCad (PCBNEW 8.0.1) date 2024-05-01 11:59:16*
%MOMM*%
%LPD*%
G01*
G04 APERTURE LIST*
G04 Aperture macros list*
%AMRotRect*
0 Rectangle, with rotation*
0 The origin of the aperture is its center*
0 $1 length*
0 $2 width*
0 $3 Rotation angle, in degrees counterclockwise*
0 Add horizontal line*
21,1,$1,$2,0,0,$3*%
G04 Aperture macros list end*
%TA.AperFunction,ComponentPad*%
%ADD10RotRect,1.778000X1.778000X340.000000*%
%TD*%
%TA.AperFunction,SMDPad,CuDef*%
%ADD11RotRect,0.900000X1.200000X340.000000*%
%TD*%
%TA.AperFunction,ComponentPad*%
%ADD12C,1.905000*%
%TD*%
%TA.AperFunction,ComponentPad*%
%ADD13RotRect,1.778000X1.778000X20.000000*%
%TD*%
%TA.AperFunction,SMDPad,CuDef*%
%ADD14RotRect,0.900000X1.200000X20.000000*%
%TD*%
%TA.AperFunction,ComponentPad*%
%ADD15C,2.286000*%
%TD*%
%TA.AperFunction,ComponentPad*%
%ADD16RotRect,1.778000X1.778000X310.000000*%
%TD*%
%TA.AperFunction,SMDPad,CuDef*%
%ADD17RotRect,0.900000X1.200000X310.000000*%
%TD*%
%TA.AperFunction,ComponentPad*%
%ADD18RotRect,1.778000X1.778000X35.000000*%
%TD*%
%TA.AperFunction,SMDPad,CuDef*%
%ADD19RotRect,0.900000X1.200000X35.000000*%
%TD*%
%TA.AperFunction,ComponentPad*%
%ADD20RotRect,1.778000X1.778000X40.000000*%
%TD*%
%TA.AperFunction,SMDPad,CuDef*%
%ADD21RotRect,0.900000X1.200000X40.000000*%
%TD*%
%TA.AperFunction,ComponentPad*%
%ADD22R,1.700000X1.700000*%
%TD*%
%TA.AperFunction,ComponentPad*%
%ADD23O,1.700000X1.700000*%
%TD*%
%TA.AperFunction,ComponentPad*%
%ADD24RotRect,1.778000X1.778000X50.000000*%
%TD*%
%TA.AperFunction,SMDPad,CuDef*%
%ADD25RotRect,0.900000X1.200000X50.000000*%
%TD*%
%TA.AperFunction,ComponentPad*%
%ADD26RotRect,1.778000X1.778000X350.000000*%
%TD*%
%TA.AperFunction,SMDPad,CuDef*%
%ADD27RotRect,0.900000X1.200000X350.000000*%
%TD*%
%TA.AperFunction,ComponentPad*%
%ADD28RotRect,1.778000X1.778000X320.000000*%
%TD*%
%TA.AperFunction,SMDPad,CuDef*%
%ADD29RotRect,0.900000X1.200000X320.000000*%
%TD*%
%TA.AperFunction,ComponentPad*%
%ADD30R,1.752600X1.752600*%
%TD*%
%TA.AperFunction,ComponentPad*%
%ADD31C,1.752600*%
%TD*%
%TA.AperFunction,ComponentPad*%
%ADD32RotRect,1.778000X1.778000X325.000000*%
%TD*%
%TA.AperFunction,SMDPad,CuDef*%
%ADD33RotRect,0.900000X1.200000X325.000000*%
%TD*%
%TA.AperFunction,ComponentPad*%
%ADD34RotRect,1.778000X1.778000X10.000000*%
%TD*%
%TA.AperFunction,SMDPad,CuDef*%
%ADD35RotRect,0.900000X1.200000X10.000000*%
%TD*%
%TA.AperFunction,ViaPad*%
%ADD36C,0.800000*%
%TD*%
%TA.AperFunction,Conductor*%
%ADD37C,0.250000*%
%TD*%
G04 APERTURE END LIST*
D10*
%TO.P,D4,1*%
%TO.N,P16*%
X55121814Y-132168397D03*
D11*
X57151549Y-132907162D03*
%TO.P,D4,2*%
%TO.N,ring_bottom*%
X60252535Y-134035826D03*
D12*
X62282270Y-134774591D03*
%TD*%
D13*
%TO.P,D29,1*%
%TO.N,P8*%
X325703889Y-146015449D03*
D14*
X327733626Y-145276684D03*
%TO.P,D29,2*%
%TO.N,mirror_index_bottom*%
X330834608Y-144148020D03*
D12*
X332864345Y-143409255D03*
%TD*%
D13*
%TO.P,D26,1*%
%TO.N,P8*%
X341650387Y-134129620D03*
D14*
X343680124Y-133390855D03*
%TO.P,D26,2*%
%TO.N,mirror_middle_bottom*%
X346781106Y-132262191D03*
D12*
X348810843Y-131523426D03*
%TD*%
D15*
%TO.P,S38,1*%
%TO.N,P20*%
X227132887Y-180376374D03*
%TO.P,S38,2*%
%TO.N,mirror_two_one*%
X221320423Y-183980452D03*
%TD*%
%TO.P,S36,1*%
%TO.N,P18*%
X308842388Y-178398502D03*
%TO.P,S36,2*%
%TO.N,mirror_space_cluster*%
X306706441Y-184895563D03*
%TD*%
D13*
%TO.P,D27,1*%
%TO.N,P7*%
X335134902Y-116228473D03*
D14*
X337164639Y-115489708D03*
%TO.P,D27,2*%
%TO.N,mirror_middle_home*%
X340265621Y-114361044D03*
D12*
X342295358Y-113622279D03*
%TD*%
D15*
%TO.P,S30,1*%
%TO.N,P19*%
X321707891Y-116470374D03*
%TO.P,S30,2*%
%TO.N,mirror_index_home*%
X316609574Y-121029020D03*
%TD*%
D10*
%TO.P,D12,1*%
%TO.N,P15*%
X104606625Y-107606962D03*
D11*
X106636360Y-108345727D03*
%TO.P,D12,2*%
%TO.N,index_top*%
X109737346Y-109474391D03*
D12*
X111767081Y-110213156D03*
%TD*%
D15*
%TO.P,S11,1*%
%TO.N,P19*%
X107505751Y-118207838D03*
%TO.P,S11,2*%
%TO.N,index_home*%
X100669973Y-118422829D03*
%TD*%
D16*
%TO.P,D17,1*%
%TO.N,P10*%
X107059539Y-183904927D03*
D17*
X108447959Y-185559584D03*
%TO.P,D17,2*%
%TO.N,space_cluster*%
X110569161Y-188087528D03*
D12*
X111957581Y-189742185D03*
%TD*%
D13*
%TO.P,D28,1*%
%TO.N,P6*%
X328619415Y-98327335D03*
D14*
X330649152Y-97588570D03*
%TO.P,D28,2*%
%TO.N,mirror_middle_top*%
X333750134Y-96459906D03*
D12*
X335779871Y-95721141D03*
%TD*%
D13*
%TO.P,D34,1*%
%TO.N,P6*%
X296074877Y-120308879D03*
D14*
X298104614Y-119570114D03*
%TO.P,D34,2*%
%TO.N,mirror_inner_top*%
X301205596Y-118441450D03*
D12*
X303235333Y-117702685D03*
%TD*%
D18*
%TO.P,D35,1*%
%TO.N,P9*%
X327492037Y-174614320D03*
D19*
X329261407Y-173375393D03*
%TO.P,D35,2*%
%TO.N,mirror_layer_cluster*%
X331964605Y-171482595D03*
D12*
X333733975Y-170243668D03*
%TD*%
D13*
%TO.P,D20,1*%
%TO.N,P8*%
X384619705Y-140789919D03*
D14*
X386649442Y-140051154D03*
%TO.P,D20,2*%
%TO.N,mirror_pinky_bottom*%
X389750424Y-138922490D03*
D12*
X391780161Y-138183725D03*
%TD*%
D15*
%TO.P,S2,1*%
%TO.N,P4*%
X48589925Y-112982298D03*
%TO.P,S2,2*%
%TO.N,pinky_home*%
X41754147Y-113197289D03*
%TD*%
%TO.P,S25,1*%
%TO.N,P5*%
X351646244Y-87328381D03*
%TO.P,S25,2*%
%TO.N,mirror_ring_top*%
X346547927Y-91887027D03*
%TD*%
D10*
%TO.P,D14,1*%
%TO.N,P14*%
X114689189Y-135603827D03*
D11*
X116718924Y-136342592D03*
%TO.P,D14,2*%
%TO.N,inner_home*%
X119819910Y-137471256D03*
D12*
X121849645Y-138210021D03*
%TD*%
D20*
%TO.P,D37,1*%
%TO.N,P9*%
X250436523Y-180363857D03*
D21*
X252091180Y-178975437D03*
%TO.P,D37,2*%
%TO.N,mirror_one_one*%
X254619124Y-176854235D03*
D12*
X256273781Y-175465815D03*
%TD*%
D22*
%TO.P,OLED1,1*%
%TO.N,GND*%
X216020000Y-122707314D03*
D23*
%TO.P,OLED1,2*%
%TO.N,VCC*%
X213480000Y-122707314D03*
%TO.P,OLED1,3*%
%TO.N,P3*%
X210939998Y-122707315D03*
%TO.P,OLED1,4*%
%TO.N,P2*%
X208400000Y-122707314D03*
%TD*%
D15*
%TO.P,S3,1*%
%TO.N,P4*%
X55105416Y-95081152D03*
%TO.P,S3,2*%
%TO.N,pinky_top*%
X48269638Y-95296143D03*
%TD*%
%TO.P,S21,1*%
%TO.N,P4*%
X380623711Y-111244838D03*
%TO.P,S21,2*%
%TO.N,mirror_pinky_home*%
X375525394Y-115803484D03*
%TD*%
%TO.P,S29,1*%
%TO.N,P19*%
X328223373Y-134371522D03*
%TO.P,S29,2*%
%TO.N,mirror_index_bottom*%
X323125056Y-138930168D03*
%TD*%
%TO.P,S12,1*%
%TO.N,P19*%
X114021232Y-100306692D03*
%TO.P,S12,2*%
%TO.N,index_top*%
X107185454Y-100521683D03*
%TD*%
D10*
%TO.P,D7,1*%
%TO.N,P16*%
X75629153Y-131523435D03*
D11*
X77658888Y-132262200D03*
%TO.P,D7,2*%
%TO.N,middle_bottom*%
X80759874Y-133390864D03*
D12*
X82789609Y-134129629D03*
%TD*%
D15*
%TO.P,S13,1*%
%TO.N,P20*%
X117588313Y-146204689D03*
%TO.P,S13,2*%
%TO.N,inner_bottom*%
X110752535Y-146419680D03*
%TD*%
%TO.P,S32,1*%
%TO.N,P20*%
X311625327Y-144467233D03*
%TO.P,S32,2*%
%TO.N,mirror_inner_bottom*%
X306527010Y-149025879D03*
%TD*%
%TO.P,S31,1*%
%TO.N,P19*%
X315192403Y-98569229D03*
%TO.P,S31,2*%
%TO.N,mirror_index_top*%
X310094086Y-103127875D03*
%TD*%
%TO.P,S27,1*%
%TO.N,P18*%
X337654387Y-104584544D03*
%TO.P,S27,2*%
%TO.N,mirror_middle_home*%
X332556070Y-109143190D03*
%TD*%
%TO.P,S5,1*%
%TO.N,P5*%
X71051913Y-106966982D03*
%TO.P,S5,2*%
%TO.N,ring_home*%
X64216135Y-107181973D03*
%TD*%
D10*
%TO.P,D1,1*%
%TO.N,P16*%
X32659836Y-138183719D03*
D11*
X34689571Y-138922484D03*
%TO.P,D1,2*%
%TO.N,pinky_bottom*%
X37790557Y-140051148D03*
D12*
X39820292Y-140789913D03*
%TD*%
D15*
%TO.P,S23,1*%
%TO.N,P5*%
X364677215Y-123130662D03*
%TO.P,S23,2*%
%TO.N,mirror_ring_bottom*%
X359578898Y-127689308D03*
%TD*%
%TO.P,S4,1*%
%TO.N,P5*%
X64536430Y-124868130D03*
%TO.P,S4,2*%
%TO.N,ring_bottom*%
X57700652Y-125083121D03*
%TD*%
%TO.P,S22,1*%
%TO.N,P4*%
X374108227Y-93343695D03*
%TO.P,S22,2*%
%TO.N,mirror_pinky_top*%
X369009910Y-97902341D03*
%TD*%
%TO.P,S8,1*%
%TO.N,P18*%
X91559255Y-106322010D03*
%TO.P,S8,2*%
%TO.N,middle_home*%
X84723477Y-106537001D03*
%TD*%
D10*
%TO.P,D15,1*%
%TO.N,P15*%
X121204671Y-117702684D03*
D11*
X123234406Y-118441449D03*
%TO.P,D15,2*%
%TO.N,inner_top*%
X126335392Y-119570113D03*
D12*
X128365127Y-120308878D03*
%TD*%
D13*
%TO.P,D24,1*%
%TO.N,P7*%
X355642245Y-116873447D03*
D14*
X357671982Y-116134682D03*
%TO.P,D24,2*%
%TO.N,mirror_ring_home*%
X360772964Y-115006018D03*
D12*
X362802701Y-114267253D03*
%TD*%
D24*
%TO.P,D36,1*%
%TO.N,P9*%
X312482418Y-189742183D03*
D25*
X313870837Y-188087528D03*
%TO.P,D36,2*%
%TO.N,mirror_space_cluster*%
X315992041Y-185559580D03*
D12*
X317380460Y-183904925D03*
%TD*%
D15*
%TO.P,S9,1*%
%TO.N,P18*%
X98074733Y-88420866D03*
%TO.P,S9,2*%
%TO.N,middle_top*%
X91238955Y-88635857D03*
%TD*%
%TO.P,S28,1*%
%TO.N,P18*%
X331138903Y-86683399D03*
%TO.P,S28,2*%
%TO.N,mirror_middle_top*%
X326040586Y-91242045D03*
%TD*%
D13*
%TO.P,D33,1*%
%TO.N,P7*%
X302590356Y-138210017D03*
D14*
X304620093Y-137471252D03*
%TO.P,D33,2*%
%TO.N,mirror_inner_home*%
X307721075Y-136342588D03*
D12*
X309750812Y-135603823D03*
%TD*%
D13*
%TO.P,D21,1*%
%TO.N,P7*%
X378104223Y-122888771D03*
D14*
X380133960Y-122150006D03*
%TO.P,D21,2*%
%TO.N,mirror_pinky_home*%
X383234942Y-121021342D03*
D12*
X385264679Y-120282577D03*
%TD*%
D15*
%TO.P,S19,1*%
%TO.N,P20*%
X202309926Y-181258510D03*
%TO.P,S19,2*%
%TO.N,two_one*%
X195615333Y-182657257D03*
%TD*%
D10*
%TO.P,D9,1*%
%TO.N,P15*%
X88660128Y-95721143D03*
D11*
X90689863Y-96459908D03*
%TO.P,D9,2*%
%TO.N,middle_top*%
X93790849Y-97588572D03*
D12*
X95820584Y-98327337D03*
%TD*%
D15*
%TO.P,S18,1*%
%TO.N,P19*%
X179509903Y-171825787D03*
%TO.P,S18,2*%
%TO.N,one_one*%
X173012842Y-169689840D03*
%TD*%
D26*
%TO.P,D19,1*%
%TO.N,P10*%
X194306030Y-190082699D03*
D27*
X196433214Y-190457782D03*
%TO.P,D19,2*%
%TO.N,two_one*%
X199683080Y-191030818D03*
D12*
X201810264Y-191405901D03*
%TD*%
D15*
%TO.P,S10,1*%
%TO.N,P19*%
X100990262Y-136108981D03*
%TO.P,S10,2*%
%TO.N,index_bottom*%
X94154484Y-136323972D03*
%TD*%
%TO.P,S20,1*%
%TO.N,P4*%
X387139197Y-129145981D03*
%TO.P,S20,2*%
%TO.N,mirror_pinky_bottom*%
X382040880Y-133704627D03*
%TD*%
D10*
%TO.P,D13,1*%
%TO.N,P16*%
X108173703Y-153504969D03*
D11*
X110203438Y-154243734D03*
%TO.P,D13,2*%
%TO.N,inner_bottom*%
X113304424Y-155372398D03*
D12*
X115334159Y-156111163D03*
%TD*%
D13*
%TO.P,D30,1*%
%TO.N,P7*%
X319188405Y-128114307D03*
D14*
X321218142Y-127375542D03*
%TO.P,D30,2*%
%TO.N,mirror_index_home*%
X324319124Y-126246878D03*
D12*
X326348861Y-125508113D03*
%TD*%
D28*
%TO.P,D18,1*%
%TO.N,P10*%
X168166225Y-175465823D03*
D29*
X169820880Y-176854242D03*
%TO.P,D18,2*%
%TO.N,one_one*%
X172348828Y-178975446D03*
D12*
X174003483Y-180363865D03*
%TD*%
D15*
%TO.P,S16,1*%
%TO.N,P5*%
X101689295Y-165628828D03*
%TO.P,S16,2*%
%TO.N,layer_cluster*%
X95030798Y-164067264D03*
%TD*%
D30*
%TO.P,MCU1,1*%
%TO.N,RAW*%
X204600004Y-89337315D03*
D31*
%TO.P,MCU1,2*%
%TO.N,GND*%
X204600005Y-91877314D03*
%TO.P,MCU1,3*%
%TO.N,RST*%
X204600004Y-94417311D03*
%TO.P,MCU1,4*%
%TO.N,VCC*%
X204600003Y-96957312D03*
%TO.P,MCU1,5*%
%TO.N,P21*%
X204600005Y-99497312D03*
%TO.P,MCU1,6*%
%TO.N,P20*%
X204600004Y-102037313D03*
%TO.P,MCU1,7*%
%TO.N,P19*%
X204600004Y-104577313D03*
%TO.P,MCU1,8*%
%TO.N,P18*%
X204600005Y-107117314D03*
%TO.P,MCU1,9*%
%TO.N,P15*%
X204600004Y-109657316D03*
%TO.P,MCU1,10*%
%TO.N,P14*%
X204600004Y-112197315D03*
%TO.P,MCU1,11*%
%TO.N,P16*%
X204600006Y-114737313D03*
%TO.P,MCU1,12*%
%TO.N,P10*%
X204600004Y-117277309D03*
%TO.P,MCU1,13*%
%TO.N,P1*%
X219840004Y-89337317D03*
%TO.P,MCU1,14*%
%TO.N,P0*%
X219840002Y-91877313D03*
%TO.P,MCU1,15*%
%TO.N,GND*%
X219840004Y-94417311D03*
%TO.P,MCU1,16*%
X219840004Y-96957310D03*
%TO.P,MCU1,17*%
%TO.N,P2*%
X219840003Y-99497312D03*
%TO.P,MCU1,18*%
%TO.N,P3*%
X219840004Y-102037313D03*
%TO.P,MCU1,19*%
%TO.N,P4*%
X219840004Y-104577313D03*
%TO.P,MCU1,20*%
%TO.N,P5*%
X219840003Y-107117314D03*
%TO.P,MCU1,21*%
%TO.N,P6*%
X219840005Y-109657314D03*
%TO.P,MCU1,22*%
%TO.N,P7*%
X219840004Y-112197315D03*
%TO.P,MCU1,23*%
%TO.N,P8*%
X219840003Y-114737312D03*
%TO.P,MCU1,24*%
%TO.N,P9*%
X219840004Y-117277311D03*
%TD*%
D10*
%TO.P,D11,1*%
%TO.N,P14*%
X98091145Y-125508112D03*
D11*
X100120880Y-126246877D03*
%TO.P,D11,2*%
%TO.N,index_home*%
X103221866Y-127375541D03*
D12*
X105251601Y-128114306D03*
%TD*%
D13*
%TO.P,D23,1*%
%TO.N,P8*%
X362157725Y-134774600D03*
D14*
X364187462Y-134035835D03*
%TO.P,D23,2*%
%TO.N,mirror_ring_bottom*%
X367288444Y-132907171D03*
D12*
X369318181Y-132168406D03*
%TD*%
D10*
%TO.P,D3,1*%
%TO.N,P15*%
X45690803Y-102381433D03*
D11*
X47720538Y-103120198D03*
%TO.P,D3,2*%
%TO.N,pinky_top*%
X50821524Y-104248862D03*
D12*
X52851259Y-104987627D03*
%TD*%
D13*
%TO.P,D22,1*%
%TO.N,P6*%
X371588739Y-104987623D03*
D14*
X373618476Y-104248858D03*
%TO.P,D22,2*%
%TO.N,mirror_pinky_top*%
X376719458Y-103120194D03*
D12*
X378749195Y-102381429D03*
%TD*%
D15*
%TO.P,S26,1*%
%TO.N,P18*%
X344169874Y-122485686D03*
%TO.P,S26,2*%
%TO.N,mirror_middle_bottom*%
X339071557Y-127044332D03*
%TD*%
%TO.P,S7,1*%
%TO.N,P18*%
X85043766Y-124223152D03*
%TO.P,S7,2*%
%TO.N,middle_bottom*%
X78207988Y-124438143D03*
%TD*%
D10*
%TO.P,D5,1*%
%TO.N,P14*%
X61637303Y-114267254D03*
D11*
X63667038Y-115006019D03*
%TO.P,D5,2*%
%TO.N,ring_home*%
X66768024Y-116134683D03*
D12*
X68797759Y-116873448D03*
%TD*%
D15*
%TO.P,S15,1*%
%TO.N,P20*%
X130619278Y-110402400D03*
%TO.P,S15,2*%
%TO.N,inner_top*%
X123783500Y-110617391D03*
%TD*%
%TO.P,S24,1*%
%TO.N,P5*%
X358161730Y-105229518D03*
%TO.P,S24,2*%
%TO.N,mirror_ring_home*%
X353063413Y-109788164D03*
%TD*%
%TO.P,S34,1*%
%TO.N,P20*%
X298594357Y-108664944D03*
%TO.P,S34,2*%
%TO.N,mirror_inner_top*%
X293496040Y-113223590D03*
%TD*%
D13*
%TO.P,D31,1*%
%TO.N,P6*%
X312672918Y-110213159D03*
D14*
X314702655Y-109474394D03*
%TO.P,D31,2*%
%TO.N,mirror_index_top*%
X317803637Y-108345730D03*
D12*
X319833374Y-107606965D03*
%TD*%
D10*
%TO.P,D8,1*%
%TO.N,P14*%
X82144641Y-113622283D03*
D11*
X84174376Y-114361048D03*
%TO.P,D8,2*%
%TO.N,middle_home*%
X87275362Y-115489712D03*
D12*
X89305097Y-116228477D03*
%TD*%
D32*
%TO.P,D16,1*%
%TO.N,P10*%
X90706033Y-170243670D03*
D33*
X92475401Y-171482596D03*
%TO.P,D16,2*%
%TO.N,layer_cluster*%
X95178603Y-173375396D03*
D12*
X96947971Y-174614322D03*
%TD*%
D15*
%TO.P,S35,1*%
%TO.N,P5*%
X326911996Y-162715058D03*
%TO.P,S35,2*%
%TO.N,mirror_layer_cluster*%
X323167267Y-168437914D03*
%TD*%
%TO.P,S17,1*%
%TO.N,P18*%
X118862976Y-182290011D03*
%TO.P,S17,2*%
%TO.N,space_cluster*%
X112835523Y-179058309D03*
%TD*%
%TO.P,S37,1*%
%TO.N,P19*%
X248821598Y-168560426D03*
%TO.P,S37,2*%
%TO.N,mirror_one_one*%
X245589896Y-174587879D03*
%TD*%
D13*
%TO.P,D32,1*%
%TO.N,P8*%
X309105834Y-156111165D03*
D14*
X311135571Y-155372400D03*
%TO.P,D32,2*%
%TO.N,mirror_inner_bottom*%
X314236553Y-154243736D03*
D12*
X316266290Y-153504971D03*
%TD*%
D34*
%TO.P,D38,1*%
%TO.N,P9*%
X222629731Y-191405904D03*
D35*
X224756917Y-191030820D03*
%TO.P,D38,2*%
%TO.N,mirror_two_one*%
X228006779Y-190457786D03*
D12*
X230133965Y-190082702D03*
%TD*%
D15*
%TO.P,S33,1*%
%TO.N,P20*%
X305109837Y-126566087D03*
%TO.P,S33,2*%
%TO.N,mirror_inner_home*%
X300011520Y-131124733D03*
%TD*%
D10*
%TO.P,D10,1*%
%TO.N,P16*%
X91575664Y-143409257D03*
D11*
X93605399Y-144148022D03*
%TO.P,D10,2*%
%TO.N,index_bottom*%
X96706385Y-145276686D03*
D12*
X98736120Y-146015451D03*
%TD*%
D15*
%TO.P,S6,1*%
%TO.N,P5*%
X77567394Y-89065839D03*
%TO.P,S6,2*%
%TO.N,ring_top*%
X70731616Y-89280830D03*
%TD*%
%TO.P,S1,1*%
%TO.N,P4*%
X42074446Y-130883449D03*
%TO.P,S1,2*%
%TO.N,pinky_bottom*%
X35238668Y-131098440D03*
%TD*%
D10*
%TO.P,D2,1*%
%TO.N,P14*%
X39175318Y-120282575D03*
D11*
X41205053Y-121021340D03*
%TO.P,D2,2*%
%TO.N,pinky_home*%
X44306039Y-122150004D03*
D12*
X46335774Y-122888769D03*
%TD*%
D13*
%TO.P,D25,1*%
%TO.N,P6*%
X349126758Y-98972306D03*
D14*
X351156495Y-98233541D03*
%TO.P,D25,2*%
%TO.N,mirror_ring_top*%
X354257477Y-97104877D03*
D12*
X356287214Y-96366112D03*
%TD*%
D10*
%TO.P,D6,1*%
%TO.N,P15*%
X68152787Y-96366117D03*
D11*
X70182522Y-97104882D03*
%TO.P,D6,2*%
%TO.N,ring_top*%
X73283508Y-98233546D03*
D12*
X75313243Y-98972311D03*
%TD*%
D15*
%TO.P,S14,1*%
%TO.N,P20*%
X124103795Y-128303548D03*
%TO.P,S14,2*%
%TO.N,inner_home*%
X117268017Y-128518539D03*
%TD*%
D36*
%TO.N,P5*%
X194844656Y-132155344D03*
X188244656Y-132155344D03*
X222444656Y-132155344D03*
%TO.N,P18*%
X178444656Y-136755344D03*
X187844656Y-136755344D03*
X139044656Y-158955344D03*
X202244656Y-136755344D03*
%TO.N,P19*%
X206444656Y-176755344D03*
X206444656Y-182755344D03*
%TO.N,P9*%
X215844656Y-138555344D03*
%TO.N,P2*%
X208444656Y-102155344D03*
%TO.N,P3*%
X214044656Y-104755344D03*
X214044656Y-102155344D03*
%TD*%
D37*
%TO.N,P4*%
X103844656Y-85355344D02*
X121727925Y-103238613D01*
X121727925Y-103238613D02*
X218501304Y-103238613D01*
X374108227Y-93343695D02*
X355233007Y-93343695D01*
X304622687Y-104577313D02*
X219840004Y-104577313D01*
X347044656Y-85155344D02*
X324044656Y-85155344D01*
X218501304Y-103238613D02*
X219840004Y-104577313D01*
X324044656Y-85155344D02*
X304622687Y-104577313D01*
X355233007Y-93343695D02*
X347044656Y-85155344D01*
X71044656Y-85355344D02*
X103844656Y-85355344D01*
X61318848Y-95081152D02*
X71044656Y-85355344D01*
X55105416Y-95081152D02*
X61318848Y-95081152D01*
%TO.N,pinky_bottom*%
X39820284Y-140789911D02*
X39820288Y-140789914D01*
X37790557Y-140051146D02*
X39820284Y-140789911D01*
%TO.N,pinky_home*%
X46335774Y-122888770D02*
X46335774Y-122888772D01*
X44306035Y-122150009D02*
X46335774Y-122888770D01*
%TO.N,pinky_top*%
X52851259Y-104987628D02*
X52851260Y-104987628D01*
X50821522Y-104248858D02*
X52851259Y-104987628D01*
%TO.N,P5*%
X188244656Y-132155344D02*
X188044656Y-132155344D01*
X156823074Y-163355344D02*
X188023074Y-132155344D01*
X290204370Y-162715058D02*
X259644656Y-132155344D01*
X188023074Y-132155344D02*
X188244656Y-132155344D01*
X326911996Y-162715058D02*
X290204370Y-162715058D01*
X141044656Y-163355344D02*
X156823074Y-163355344D01*
X259644656Y-132155344D02*
X222444656Y-132155344D01*
X194844656Y-132155344D02*
X222444656Y-132155344D01*
X103962779Y-163355344D02*
X141044656Y-163355344D01*
X101689295Y-165628828D02*
X103962779Y-163355344D01*
%TO.N,ring_bottom*%
X60252543Y-134035830D02*
X62282273Y-134774598D01*
X62282273Y-134774598D02*
X62282280Y-134774603D01*
%TO.N,ring_home*%
X66768025Y-116134687D02*
X68797756Y-116873446D01*
X68797756Y-116873446D02*
X68797755Y-116873448D01*
%TO.N,ring_top*%
X73283509Y-98233541D02*
X75313243Y-98972306D01*
X75313243Y-98972306D02*
X75313239Y-98972314D01*
%TO.N,P18*%
X178444656Y-136755344D02*
X178244656Y-136755344D01*
X308842388Y-178398502D02*
X304719446Y-174275560D01*
X142444656Y-155100952D02*
X142444656Y-143955344D01*
X187844656Y-136755344D02*
X188044656Y-136755344D01*
X304719446Y-174230134D02*
X295044656Y-164555344D01*
X142444656Y-143955344D02*
X149644656Y-136755344D01*
X295044656Y-164555344D02*
X284244656Y-164555344D01*
X284244656Y-164555344D02*
X256444656Y-136755344D01*
X149644656Y-136755344D02*
X178444656Y-136755344D01*
X202244656Y-136755344D02*
X201844656Y-136755344D01*
X139044656Y-158955344D02*
X139044656Y-158500952D01*
X256444656Y-136755344D02*
X202244656Y-136755344D01*
X139044656Y-158500952D02*
X142444656Y-155100952D01*
X201844656Y-136755344D02*
X187844656Y-136755344D01*
X304719446Y-174275560D02*
X304719446Y-174230134D01*
%TO.N,middle_bottom*%
X82789614Y-134129625D02*
X82789609Y-134129626D01*
X80759875Y-133390863D02*
X82789614Y-134129625D01*
%TO.N,middle_home*%
X87275365Y-115489714D02*
X89305096Y-116228472D01*
X89305096Y-116228472D02*
X89305100Y-116228483D01*
%TO.N,middle_top*%
X95820579Y-98327330D02*
X95820583Y-98327331D01*
X93790847Y-97588568D02*
X95820579Y-98327330D01*
%TO.N,P19*%
X206444656Y-176755344D02*
X206444656Y-182755344D01*
%TO.N,index_bottom*%
X98736107Y-146015442D02*
X98736109Y-146015445D01*
X96706378Y-145276683D02*
X98736107Y-146015442D01*
%TO.N,index_home*%
X103221858Y-127375538D02*
X105251599Y-128114302D01*
X105251599Y-128114302D02*
X105251592Y-128114302D01*
%TO.N,index_top*%
X111767082Y-110213157D02*
X111767085Y-110213163D01*
X109737345Y-109474399D02*
X111767082Y-110213157D01*
%TO.N,inner_bottom*%
X115334163Y-156111160D02*
X115334160Y-156111163D01*
X113304422Y-155372399D02*
X115334163Y-156111160D01*
%TO.N,inner_home*%
X121849644Y-138210015D02*
X121849644Y-138210019D01*
X119819903Y-137471253D02*
X121849644Y-138210015D01*
%TO.N,inner_top*%
X128365122Y-120308874D02*
X128365122Y-120308875D01*
X126335392Y-119570111D02*
X128365122Y-120308874D01*
%TO.N,layer_cluster*%
X95178598Y-173375391D02*
X96947964Y-174614321D01*
X96947964Y-174614321D02*
X96947969Y-174614322D01*
%TO.N,space_cluster*%
X110569163Y-188087530D02*
X111957578Y-189742182D01*
X111957578Y-189742182D02*
X111957584Y-189742186D01*
%TO.N,one_one*%
X172348822Y-178975438D02*
X174003475Y-180363867D01*
%TO.N,two_one*%
X201810265Y-191405904D02*
X201810266Y-191405901D01*
X199683079Y-191030824D02*
X201810265Y-191405904D01*
%TO.N,mirror_pinky_bottom*%
X389750426Y-138922491D02*
X391780159Y-138183729D01*
X391780159Y-138183729D02*
X391780162Y-138183723D01*
%TO.N,mirror_pinky_home*%
X383234942Y-121021342D02*
X385264677Y-120282580D01*
X385264677Y-120282580D02*
X385264678Y-120282576D01*
%TO.N,mirror_pinky_top*%
X376719457Y-103120196D02*
X378749192Y-102381432D01*
X378749192Y-102381432D02*
X378749193Y-102381428D01*
%TO.N,mirror_ring_bottom*%
X367288444Y-132907172D02*
X369318178Y-132168409D01*
X369318178Y-132168409D02*
X369318181Y-132168406D01*
%TO.N,mirror_ring_home*%
X360772965Y-115006019D02*
X362802699Y-114267256D01*
X362802699Y-114267256D02*
X362802701Y-114267252D01*
%TO.N,mirror_ring_top*%
X356287212Y-96366115D02*
X356287214Y-96366111D01*
X354257478Y-97104877D02*
X356287212Y-96366115D01*
%TO.N,mirror_middle_bottom*%
X346781107Y-132262192D02*
X348810842Y-131523430D01*
X348810842Y-131523430D02*
X348810843Y-131523425D01*
%TO.N,mirror_middle_home*%
X340265622Y-114361046D02*
X342295355Y-113622282D01*
X342295355Y-113622282D02*
X342295357Y-113622279D01*
%TO.N,mirror_middle_top*%
X335779869Y-95721145D02*
X335779870Y-95721140D01*
X333750135Y-96459907D02*
X335779869Y-95721145D01*
%TO.N,mirror_index_bottom*%
X330834608Y-144148020D02*
X332864342Y-143409258D01*
X332864342Y-143409258D02*
X332864344Y-143409255D01*
%TO.N,mirror_index_home*%
X326348859Y-125508117D02*
X326348862Y-125508113D01*
X324319125Y-126246881D02*
X326348859Y-125508117D01*
%TO.N,mirror_index_top*%
X319833372Y-107606969D02*
X319833372Y-107606966D01*
X317803636Y-108345731D02*
X319833372Y-107606969D01*
%TO.N,mirror_inner_bottom*%
X316266288Y-153504975D02*
X316266290Y-153504971D01*
X314236553Y-154243737D02*
X316266288Y-153504975D01*
%TO.N,mirror_inner_home*%
X307721075Y-136342590D02*
X309750809Y-135603827D01*
X309750809Y-135603827D02*
X309750811Y-135603822D01*
%TO.N,mirror_inner_top*%
X303235331Y-117702688D02*
X303235333Y-117702685D01*
X301205597Y-118441452D02*
X303235331Y-117702688D01*
%TO.N,mirror_layer_cluster*%
X333733972Y-170243673D02*
X333733974Y-170243665D01*
X331964606Y-171482595D02*
X333733972Y-170243673D01*
%TO.N,mirror_space_cluster*%
X315992041Y-185559576D02*
X317380457Y-183904925D01*
%TO.N,mirror_one_one*%
X254619124Y-176854236D02*
X256273777Y-175465819D01*
%TO.N,mirror_two_one*%
X228006783Y-190457789D02*
X230133960Y-190082704D01*
X230133960Y-190082704D02*
X230133959Y-190082704D01*
%TO.N,P16*%
X32659829Y-138183719D02*
X34689565Y-138922485D01*
X91575653Y-143409255D02*
X93852790Y-148292580D01*
X57151553Y-132907167D02*
X57151561Y-132907167D01*
X70699813Y-133822025D02*
X75629157Y-131523428D01*
X108173700Y-153504975D02*
X110203434Y-154243733D01*
X58655062Y-133454399D02*
X63492368Y-131198720D01*
X75629157Y-131523428D02*
X77658888Y-132262193D01*
X63492368Y-131198720D02*
X70699813Y-133822025D01*
X122142371Y-153504969D02*
X157044656Y-118602684D01*
X55121814Y-132168405D02*
X57151553Y-132907167D01*
X75629157Y-131523428D02*
X79044854Y-138848417D01*
X93605391Y-144148020D02*
X93605391Y-144148023D01*
X200734635Y-118602684D02*
X204600006Y-114737313D01*
X39527007Y-136666854D02*
X42867495Y-137882694D01*
X108173703Y-153504969D02*
X122142371Y-153504969D01*
X34689565Y-138922485D02*
X34689567Y-138922486D01*
X110203434Y-154243733D02*
X110203435Y-154243730D01*
X91575653Y-143409255D02*
X93605391Y-144148020D01*
X93852790Y-148292580D02*
X108173700Y-153504975D01*
X77658888Y-132262193D02*
X77658890Y-132262198D01*
X42867495Y-137882694D02*
X55121814Y-132168405D01*
X32659829Y-138183719D02*
X34689692Y-138922530D01*
X55121814Y-132168405D02*
X58655062Y-133454399D01*
X157044656Y-118602684D02*
X200734635Y-118602684D01*
X79044854Y-138848417D02*
X91575653Y-143409255D01*
X34689692Y-138922530D02*
X39527007Y-136666854D01*
%TO.N,P14*%
X114689185Y-135603822D02*
X116718918Y-136342588D01*
X98091137Y-125508108D02*
X100368268Y-130391433D01*
X114689189Y-135603827D02*
X129193513Y-135603827D01*
X41205053Y-121021337D02*
X41205052Y-121021341D01*
X129193513Y-135603827D02*
X146644656Y-118152684D01*
X85560333Y-120947275D02*
X98091137Y-125508108D01*
X39175318Y-120282578D02*
X41205053Y-121021337D01*
X82144637Y-113622282D02*
X84174378Y-114361048D01*
X61637302Y-114267254D02*
X63667161Y-115006072D01*
X41205179Y-121021382D02*
X45922249Y-118821783D01*
X146644656Y-118152684D02*
X198644635Y-118152684D01*
X39175318Y-120282578D02*
X41205179Y-121021382D01*
X198644635Y-118152684D02*
X204600004Y-112197315D01*
X49262723Y-120037615D02*
X61637302Y-114267254D01*
X63667161Y-115006072D02*
X68467532Y-112767609D01*
X61637302Y-114267254D02*
X63667041Y-115006022D01*
X45922249Y-118821783D02*
X49262723Y-120037615D01*
X116718918Y-136342588D02*
X116718924Y-136342589D01*
X100120872Y-126246874D02*
X100120875Y-126246871D01*
X68467532Y-112767609D02*
X77178362Y-115938100D01*
X63667041Y-115006022D02*
X63667036Y-115006021D01*
X82144637Y-113622282D02*
X85560333Y-120947275D01*
X98091137Y-125508108D02*
X100120872Y-126246874D01*
X84174378Y-114361048D02*
X84174373Y-114361049D01*
X77178362Y-115938100D02*
X82144637Y-113622282D01*
X100368268Y-130391433D02*
X114689185Y-135603822D01*
%TO.N,P15*%
X68152787Y-96366117D02*
X70182642Y-97104927D01*
X88660122Y-95721138D02*
X92075821Y-103046125D01*
X106636356Y-108345732D02*
X106636361Y-108345734D01*
X106883757Y-112490293D02*
X121204667Y-117702679D01*
X104606626Y-107606967D02*
X106883757Y-112490293D01*
X52557971Y-100864558D02*
X55898460Y-102080401D01*
X121204671Y-117702684D02*
X196554636Y-117702684D01*
X90689865Y-96459906D02*
X90689862Y-96459902D01*
X70182642Y-97104927D02*
X74918938Y-94896356D01*
X88660122Y-95721138D02*
X90689865Y-96459906D01*
X45690801Y-102381432D02*
X47720659Y-103120233D01*
X47720659Y-103120233D02*
X52557971Y-100864558D01*
X123234405Y-118441446D02*
X123234405Y-118441445D01*
X68152787Y-96366117D02*
X70182521Y-97104881D01*
X104606626Y-107606967D02*
X106636356Y-108345732D01*
X45690801Y-102381432D02*
X47720538Y-103120194D01*
X55898460Y-102080401D02*
X68152787Y-96366117D01*
X92075821Y-103046125D02*
X104606626Y-107606967D01*
X70182521Y-97104881D02*
X70182520Y-97104882D01*
X196554636Y-117702684D02*
X204600004Y-109657316D01*
X47720538Y-103120194D02*
X47720534Y-103120202D01*
X83629759Y-98066831D02*
X88660122Y-95721138D01*
X74918938Y-94896356D02*
X83629759Y-98066831D01*
X121204667Y-117702679D02*
X123234405Y-118441446D01*
%TO.N,P10*%
X114970192Y-170587523D02*
X151899665Y-164075858D01*
X168166219Y-175465826D02*
X168338752Y-177437859D01*
X107059544Y-183904930D02*
X108447964Y-185559584D01*
X151899665Y-164075858D02*
X168166219Y-175465826D01*
X194306036Y-190082697D02*
X196433216Y-190457784D01*
X168338752Y-177437859D02*
X184437260Y-190946111D01*
X168166225Y-153711088D02*
X204600004Y-117277309D01*
X106775037Y-182291406D02*
X114970192Y-170587523D01*
X108447964Y-185559584D02*
X108447958Y-185559588D01*
X90706029Y-170243673D02*
X92475394Y-171482593D01*
X91150686Y-172765421D02*
X107059544Y-183904930D01*
X168166221Y-175465826D02*
X169820874Y-176854243D01*
X107059543Y-183904928D02*
X106775037Y-182291406D01*
X92475394Y-171482593D02*
X92475397Y-171482595D01*
X196433216Y-190457784D02*
X196433216Y-190457786D01*
X184437260Y-190946111D02*
X194306031Y-190082697D01*
X168166225Y-175465823D02*
X168166225Y-153711088D01*
X90706029Y-170243673D02*
X91150686Y-172765421D01*
%TO.N,P8*%
X351417046Y-138683888D02*
X362157726Y-134774600D01*
X341650388Y-134129621D02*
X351417046Y-138683888D01*
X303746942Y-156111165D02*
X268844656Y-121208879D01*
X311135700Y-155372355D02*
X313391375Y-150535045D01*
X329237132Y-144729454D02*
X331492804Y-139892148D01*
X362157726Y-134774600D02*
X364187460Y-134035837D01*
X226311570Y-121208879D02*
X219840003Y-114737312D01*
X362157726Y-134774600D02*
X379249368Y-142744563D01*
X379249368Y-142744563D02*
X384619706Y-140789919D01*
X384619706Y-140789919D02*
X386649440Y-140051156D01*
X327733623Y-145276686D02*
X327733625Y-145276681D01*
X341650388Y-134129621D02*
X343680122Y-133390857D01*
X309105834Y-156111166D02*
X311135700Y-155372355D01*
X343680122Y-133390857D02*
X343680123Y-133390854D01*
X309105834Y-156111165D02*
X303746942Y-156111165D01*
X325703889Y-146015449D02*
X327733623Y-145276686D01*
X325682430Y-146061469D02*
X325703889Y-146015449D01*
X313391375Y-150535045D02*
X325682430Y-146061469D01*
X268844656Y-121208879D02*
X226311570Y-121208879D01*
X364187460Y-134035837D02*
X364187462Y-134035832D01*
X311135569Y-155372403D02*
X311135571Y-155372398D01*
X325703889Y-146015449D02*
X329237132Y-144729454D01*
X309105834Y-156111166D02*
X311135569Y-155372403D01*
X340490361Y-136617304D02*
X341650388Y-134129621D01*
X386649440Y-140051156D02*
X386649442Y-140051153D01*
X331492804Y-139892148D02*
X340490361Y-136617304D01*
%TO.N,P7*%
X296695794Y-138210017D02*
X279244656Y-120758879D01*
X380133957Y-122150008D02*
X380133960Y-122150003D01*
X302590356Y-138210017D02*
X304620090Y-137471255D01*
X308546436Y-135057817D02*
X310270721Y-131360080D01*
X335134901Y-116228474D02*
X337164635Y-115489710D01*
X319188405Y-128114307D02*
X321218262Y-127375501D01*
X323473939Y-122538188D02*
X333974875Y-118716159D01*
X310270721Y-131360080D02*
X319188405Y-128114307D01*
X319188405Y-128114307D02*
X321218140Y-127375545D01*
X302590356Y-138210017D02*
X296695794Y-138210017D01*
X321218262Y-127375501D02*
X323473939Y-122538188D01*
X228401568Y-120758879D02*
X219840004Y-112197315D01*
X302590356Y-138210017D02*
X303143202Y-137024435D01*
X355642245Y-116873447D02*
X357671979Y-116134685D01*
X303143202Y-137024435D02*
X308546436Y-135057817D01*
X337164635Y-115489710D02*
X337164638Y-115489707D01*
X333974875Y-118716159D02*
X335134901Y-116228474D01*
X378104223Y-122888771D02*
X380133957Y-122150008D01*
X372733890Y-124843411D02*
X378104223Y-122888771D01*
X355642245Y-116873447D02*
X372733890Y-124843411D01*
X279244656Y-120758879D02*
X228401568Y-120758879D01*
X344901555Y-120782738D02*
X355642245Y-116873447D01*
X357671979Y-116134685D02*
X357671981Y-116134680D01*
X321218140Y-127375545D02*
X321218141Y-127375542D01*
X335134901Y-116228474D02*
X344901555Y-120782738D01*
X304620090Y-137471255D02*
X304620092Y-137471250D01*
%TO.N,P6*%
X296074877Y-120308879D02*
X230491570Y-120308879D01*
X296074877Y-120308880D02*
X298104612Y-119570117D01*
X349126759Y-98972306D02*
X338386064Y-102881599D01*
X313436445Y-108575769D02*
X312672917Y-110213160D01*
X314702651Y-109474397D02*
X314702653Y-109474393D01*
X312672917Y-110213160D02*
X314702651Y-109474397D01*
X351156493Y-98233543D02*
X351156495Y-98233539D01*
X371588738Y-104987623D02*
X366218397Y-106942267D01*
X371588738Y-104987623D02*
X373618473Y-104248861D01*
X330649150Y-97588573D02*
X330649152Y-97588570D01*
X298104612Y-119570117D02*
X298104613Y-119570113D01*
X311968319Y-111724177D02*
X297647417Y-116936558D01*
X312672917Y-110213160D02*
X311968319Y-111724177D01*
X230491570Y-120308879D02*
X219840005Y-109657314D01*
X349126759Y-98972306D02*
X351156493Y-98233543D01*
X318899195Y-106587491D02*
X313436445Y-108575769D01*
X328619416Y-98327336D02*
X321551365Y-100899895D01*
X366218397Y-106942267D02*
X349126759Y-98972306D01*
X321551365Y-100899895D02*
X318899195Y-106587491D01*
X338386064Y-102881599D02*
X328619416Y-98327336D01*
X297647417Y-116936558D02*
X296074877Y-120308880D01*
X328619416Y-98327336D02*
X330649150Y-97588573D01*
X373618473Y-104248861D02*
X373618474Y-104248855D01*
%TO.N,P9*%
X223640608Y-192610619D02*
X222629732Y-191405905D01*
X222629731Y-191405903D02*
X215844656Y-184620828D01*
X327492038Y-174614322D02*
X329261406Y-173375397D01*
X287774948Y-172268326D02*
X261819400Y-174539141D01*
X314981735Y-189523518D02*
X312482418Y-189742178D01*
X250436523Y-180363859D02*
X252091177Y-178975437D01*
X237753579Y-191006113D02*
X234442935Y-190716470D01*
X312482418Y-189742178D02*
X308966106Y-190049816D01*
X327492038Y-174614322D02*
X314981735Y-189523518D01*
X222629732Y-191405903D02*
X224756912Y-191030822D01*
X234442935Y-190716470D02*
X231378757Y-193287621D01*
X231378757Y-193287621D02*
X223640608Y-192610619D01*
X257446495Y-179750567D02*
X250436524Y-180363857D01*
X329261406Y-173375397D02*
X329261405Y-173375392D01*
X312482418Y-189742178D02*
X313870836Y-188087528D01*
X308966106Y-190049816D02*
X287774948Y-172268326D01*
X250436524Y-180363857D02*
X237753579Y-191006113D01*
X215844656Y-184620828D02*
X215844656Y-138555344D01*
X224756912Y-191030822D02*
X224756912Y-191030819D01*
X261819400Y-174539141D02*
X257446495Y-179750567D01*
%TO.N,P2*%
X219840003Y-99497312D02*
X211102688Y-99497312D01*
X211102688Y-99497312D02*
X208444656Y-102155344D01*
%TO.N,P3*%
X214044656Y-104755344D02*
X210939998Y-107860002D01*
X214162687Y-102037313D02*
X214044656Y-102155344D01*
X210939998Y-107860002D02*
X210939998Y-122707315D01*
X219840004Y-102037313D02*
X214162687Y-102037313D01*
%TD*%
M02*
