%TF.GenerationSoftware,KiCad,Pcbnew,8.0.1*%
%TF.CreationDate,2024-05-01T11:59:16+09:00*%
%TF.ProjectId,pcb_plate,7063625f-706c-4617-9465-2e6b69636164,v1.0.0*%
%TF.SameCoordinates,Original*%
%TF.FileFunction,Profile,NP*%
%FSLAX46Y46*%
G04 Gerber Fmt 4.6, Leading zero omitted, Abs format (unit mm)*
G04 Created by KiCad (PCBNEW 8.0.1) date 2024-05-01 11:59:16*
%MOMM*%
%LPD*%
G01*
G04 APERTURE LIST*
%TA.AperFunction,Profile*%
%ADD10C,0.150000*%
%TD*%
G04 APERTURE END LIST*
D10*
X135260480Y-96406168D02*
G75*
G02*
X130760490Y-96406168I-2249995J0D01*
G01*
X130760490Y-96406168D02*
G75*
G02*
X135260480Y-96406168I2249995J0D01*
G01*
X61372198Y-87758362D02*
G75*
G02*
X56872202Y-87758362I-2249998J0D01*
G01*
X56872202Y-87758362D02*
G75*
G02*
X61372198Y-87758362I2249998J0D01*
G01*
X239392404Y-194778401D02*
G75*
G02*
X238055054Y-195215212I-2205704J4487401D01*
G01*
X308869034Y-197806591D02*
X269211366Y-177046708D01*
X88023898Y-78005132D02*
X107771967Y-85192842D01*
X357250455Y-78302604D02*
G75*
G02*
X358386703Y-78470330I-157255J-4997896D01*
G01*
X66053289Y-78470322D02*
G75*
G02*
X67189537Y-78302611I1293411J-4829978D01*
G01*
X263678550Y-177646252D02*
G75*
G02*
X269211370Y-177046701I3213950J-3830248D01*
G01*
X316668037Y-85192837D02*
X336416104Y-78005132D01*
X299227672Y-176732163D02*
G75*
G02*
X294727676Y-176732163I-2249998J0D01*
G01*
X294727676Y-176732163D02*
G75*
G02*
X299227672Y-176732163I2249998J0D01*
G01*
X238535003Y-110143462D02*
G75*
G02*
X230034997Y-110143462I-4250003J0D01*
G01*
X230034997Y-110143462D02*
G75*
G02*
X238535003Y-110143462I4250003J0D01*
G01*
X80515080Y-171006160D02*
G75*
G02*
X81019437Y-171303753I-2285680J-4449940D01*
G01*
X175243267Y-189797940D02*
X160761453Y-177646248D01*
X238055052Y-195215201D02*
X216672854Y-198985455D01*
X86156621Y-77706069D02*
G75*
G02*
X88023899Y-78005128I157179J-4997631D01*
G01*
X336416104Y-78005132D02*
G75*
G02*
X338283383Y-77706062I1710096J-4698368D01*
G01*
X115570966Y-197806589D02*
G75*
G02*
X109355110Y-196509473I-2318866J4429789D01*
G01*
X327204164Y-182200795D02*
X324938189Y-184252118D01*
X216672854Y-198985455D02*
G75*
G02*
X215804611Y-199061418I-868254J4924055D01*
G01*
X343420553Y-171303757D02*
X327204164Y-182200795D01*
X358386706Y-78470318D02*
X377775594Y-83662656D01*
X377775594Y-83662656D02*
G75*
G02*
X381180675Y-86782356I-1293394J-4829844D01*
G01*
X27222305Y-143634206D02*
G75*
G02*
X24808281Y-137476477I2284395J4447606D01*
G01*
X208635388Y-199061419D02*
G75*
G02*
X207767151Y-198985464I12J5000519D01*
G01*
X46664400Y-83662661D02*
X66053289Y-78470321D01*
X176251613Y-190454963D02*
G75*
G02*
X175243265Y-189797943I2205587J4487263D01*
G01*
X99501810Y-184252114D02*
X97235833Y-182200787D01*
X215804611Y-199061417D02*
X208635388Y-199061419D01*
X293679514Y-96406172D02*
G75*
G02*
X289179536Y-96406172I-2249989J0D01*
G01*
X289179536Y-96406172D02*
G75*
G02*
X293679514Y-96406172I2249989J0D01*
G01*
X338283383Y-77706071D02*
X357250455Y-78302604D01*
X155228635Y-177046713D02*
G75*
G02*
X160761442Y-177646261I2318865J-4429787D01*
G01*
X367567796Y-87758364D02*
G75*
G02*
X363067806Y-87758364I-2249995J0D01*
G01*
X363067806Y-87758364D02*
G75*
G02*
X367567796Y-87758364I2249995J0D01*
G01*
X158031809Y-145239422D02*
G75*
G02*
X153531805Y-145239422I-2250002J0D01*
G01*
X153531805Y-145239422D02*
G75*
G02*
X158031809Y-145239422I2250002J0D01*
G01*
X214470005Y-189358464D02*
G75*
G02*
X209969995Y-189358464I-2250005J0D01*
G01*
X209969995Y-189358464D02*
G75*
G02*
X214470005Y-189358464I2250005J0D01*
G01*
X24808226Y-137476457D02*
X43259363Y-86782372D01*
X129712322Y-176732163D02*
G75*
G02*
X125212328Y-176732163I-2249997J0D01*
G01*
X125212328Y-176732163D02*
G75*
G02*
X129712322Y-176732163I2249997J0D01*
G01*
X252664842Y-95116225D02*
G75*
G02*
X248164840Y-95116225I-2250001J0D01*
G01*
X248164840Y-95116225D02*
G75*
G02*
X252664842Y-95116225I2250001J0D01*
G01*
X109482067Y-85494381D02*
X314957937Y-85494384D01*
X155228635Y-177046712D02*
X115570966Y-197806590D01*
X194404996Y-110143458D02*
G75*
G02*
X185905002Y-110143458I-4249997J0D01*
G01*
X185905002Y-110143458D02*
G75*
G02*
X194404996Y-110143458I4249997J0D01*
G01*
X194405000Y-154273460D02*
G75*
G02*
X185905002Y-154273460I-4249999J0D01*
G01*
X185905002Y-154273460D02*
G75*
G02*
X194405000Y-154273460I4249999J0D01*
G01*
X315084892Y-196509483D02*
G75*
G02*
X308869031Y-197806597I-3896992J3132683D01*
G01*
X67189537Y-78302600D02*
X86156621Y-77706069D01*
X316668034Y-85192843D02*
G75*
G02*
X314957937Y-85494386I-1710134J4698543D01*
G01*
X238534997Y-154273462D02*
G75*
G02*
X230035001Y-154273462I-4249998J0D01*
G01*
X230035001Y-154273462D02*
G75*
G02*
X238534997Y-154273462I4249998J0D01*
G01*
X270908194Y-145239426D02*
G75*
G02*
X266408192Y-145239426I-2250001J0D01*
G01*
X266408192Y-145239426D02*
G75*
G02*
X270908194Y-145239426I2250001J0D01*
G01*
X397217690Y-143634208D02*
X343924907Y-171006159D01*
X343420553Y-171303757D02*
G75*
G02*
X343924911Y-171006166I2788847J-4150343D01*
G01*
X381180635Y-86782370D02*
X399631780Y-137476461D01*
X176275160Y-95116218D02*
G75*
G02*
X171775162Y-95116218I-2249999J0D01*
G01*
X171775162Y-95116218D02*
G75*
G02*
X176275160Y-95116218I2249999J0D01*
G01*
X372141791Y-144884066D02*
G75*
G02*
X367641773Y-144884066I-2250009J0D01*
G01*
X367641773Y-144884066D02*
G75*
G02*
X372141791Y-144884066I2250009J0D01*
G01*
X186384947Y-195215192D02*
G75*
G02*
X185047600Y-194778400I868353J4924392D01*
G01*
X109355103Y-196509478D02*
X99501810Y-184252114D01*
X399631780Y-137476456D02*
G75*
G02*
X397217720Y-143634266I-4698480J-1710144D01*
G01*
X43259365Y-86782373D02*
G75*
G02*
X46664400Y-83662662I4698455J-1710087D01*
G01*
X109482067Y-85494380D02*
G75*
G02*
X107771971Y-85192831I33J4999980D01*
G01*
X80515080Y-171006160D02*
X27222304Y-143634211D01*
X263678549Y-177646251D02*
X249196737Y-189797935D01*
X185047598Y-194778404D02*
X176251610Y-190454955D01*
X97235833Y-182200787D02*
X81019440Y-171303749D01*
X249196733Y-189797933D02*
G75*
G02*
X248188380Y-190454956I-3213933J3830233D01*
G01*
X207767151Y-198985463D02*
X186384952Y-195215192D01*
X324938189Y-184252118D02*
X315084893Y-196509483D01*
X248188380Y-190454957D02*
X239392403Y-194778402D01*
X56798214Y-144884067D02*
G75*
G02*
X52298210Y-144884067I-2250002J0D01*
G01*
X52298210Y-144884067D02*
G75*
G02*
X56798214Y-144884067I2250002J0D01*
G01*
M02*
