M48
; DRILL file {KiCad 8.0.1} date 2024-05-01T12:00:11+0900
; FORMAT={-:-/ absolute / inch / decimal}
; #@! TF.CreationDate,2024-05-01T12:00:11+09:00
; #@! TF.GenerationSoftware,Kicad,Pcbnew,8.0.1
; #@! TF.FileFunction,Plated,1,2,PTH
FMAT,2
INCH
; #@! TA.AperFunction,Plated,PTH,ComponentDrill
T1C0.0157
; #@! TA.AperFunction,Plated,PTH,ComponentDrill
T2C0.0866
%
G90
G05
T1
X7.1705Y-3.6719
X7.1705Y-5.4093
X7.1896Y-3.6259
X7.1896Y-3.7178
X7.1896Y-5.3633
X7.1896Y-5.4552
X7.2355Y-3.6069
X7.2355Y-3.7368
X7.2355Y-5.3443
X7.2355Y-5.4742
X7.2814Y-3.6259
X7.2814Y-3.7178
X7.2814Y-5.3633
X7.2814Y-5.4552
X7.3004Y-3.6719
X7.3004Y-5.4093
X8.9079Y-3.6719
X8.9079Y-5.4093
X8.927Y-3.6259
X8.927Y-3.7178
X8.927Y-5.3633
X8.927Y-5.4552
X8.9729Y-3.6069
X8.9729Y-3.7368
X8.9729Y-5.3443
X8.9729Y-5.4742
X9.0188Y-3.6259
X9.0188Y-3.7178
X9.0188Y-5.3633
X9.0188Y-5.4552
X9.0378Y-3.6719
X9.0378Y-5.4093
T2
X7.2355Y-3.6719
X7.2355Y-5.4093
X8.9729Y-3.6719
X8.9729Y-5.4093
M30
